G04 ================== begin FILE IDENTIFICATION RECORD ==================*
G04 Layout Name:  msd_foot_ext1.brd*
G04 Film Name:    ASSEMBLY*
G04 File Format:  Gerber RS274X*
G04 File Origin:  Cadence Allegro 17.2-S067*
G04 Origin Date:  Thu Oct 08 21:18:23 2020*
G04 *
G04 Layer:  REF DES/ASSEMBLY_TOP*
G04 Layer:  PIN/TOP*
G04 Layer:  PACKAGE GEOMETRY/ASSEMBLY_TOP*
G04 Layer:  DRAWING FORMAT/OUTLINE*
G04 Layer:  DRAWING FORMAT/TITLE_BLOCK*
G04 Layer:  DRAWING FORMAT/TITLE_DATA*
G04 Layer:  DRAWING FORMAT/REVISION_BLOCK*
G04 Layer:  DRAWING FORMAT/REVISION_DATA*
G04 Layer:  BOARD GEOMETRY/DESIGN_OUTLINE*
G04 *
G04 Offset:    (0.0000 0.0000)*
G04 Mirror:    No*
G04 Mode:      Positive*
G04 Rotation:  0*
G04 FullContactRelief:  No*
G04 UndefLineWidth:     0.1270*
G04 ================== end FILE IDENTIFICATION RECORD ====================*
%FSLAX25Y25*MOMM*%
%IR0*IPPOS*OFA0.00000B0.00000*MIA0B0*SFA1.00000B1.00000*%
%ADD14R,.508X1.3096*%
%ADD13R,1.3279X.2794*%
%ADD10R,2.5001X1.*%
%ADD12R,2.X2.*%
%ADD15R,.8999X.7*%
%ADD11R,.7X.8999*%
%ADD16C,.1524*%
%ADD17C,.127*%
G75*
%LPD*%
G75*
G54D10*
X200000Y1000000D03*
Y1200000D03*
Y1400000D03*
Y1600000D03*
Y1800000D03*
Y2000000D03*
Y2200000D03*
Y2400000D03*
X1600000Y1200000D03*
Y1400000D03*
Y1600000D03*
Y1800000D03*
Y2000000D03*
Y2200000D03*
Y2400000D03*
G54D11*
X335000Y3300000D03*
X965000Y1000000D03*
X835000D03*
X535000Y2700000D03*
X665000D03*
X465000Y3300000D03*
X565000Y2900000D03*
X435000D03*
G54D12*
X700000Y180000D03*
X1100000D03*
X700000Y620000D03*
X1100000D03*
X700000Y1880000D03*
X1100000D03*
X700000Y2320000D03*
X1100000D03*
G54D13*
X1121340Y1500000D03*
Y1450000D03*
Y1400000D03*
Y1350000D03*
Y1300000D03*
X678660D03*
Y1350000D03*
Y1400000D03*
Y1450000D03*
Y1500000D03*
G54D14*
X805000Y3229540D03*
X995000D03*
Y2970460D03*
X900000D03*
X805000D03*
G54D15*
X1400000Y2765000D03*
Y2635000D03*
X1300000Y3265000D03*
Y3135000D03*
X1500000Y3265000D03*
Y3135000D03*
G54D16*
G01X875500Y1022400D02*
X924500D01*
G01Y977600D02*
X875500D01*
G01X624500Y2677600D02*
X575500D01*
G01Y2722400D02*
X624500D01*
G01X375500Y3322400D02*
X424500D01*
G01Y3277600D02*
X375500D01*
G01X475500Y2922400D02*
X524500D01*
G01Y2877600D02*
X475500D01*
G01X1377600Y2675500D02*
Y2724500D01*
G01X1422400D02*
Y2675500D01*
G01X1277600Y3175500D02*
Y3224500D01*
G01X1322400D02*
Y3175500D01*
G01X1477600D02*
Y3224500D01*
G01X1522400D02*
Y3175500D01*
G54D17*
G01X-12525400Y-17850800D02*
Y10825800D01*
X8099400D01*
Y-17850800D01*
X-12525400D01*
G01X-12144400Y-17012600D02*
Y10114600D01*
X7642200D01*
Y-17012600D01*
X-12144400D01*
G01X-12119000Y-16974500D02*
Y-12402500D01*
X7693000D01*
G01X-11910810Y-15514000D02*
Y-15387000D01*
X-11849670D01*
G01X-11872200Y-15448380D02*
X-11910810D01*
G01X-11782870Y-15514000D02*
Y-15387000D01*
X-11742660D01*
X-11729790Y-15393350D01*
X-11721740Y-15401820D01*
X-11718530Y-15418750D01*
X-11721740Y-15435680D01*
X-11731400Y-15446270D01*
X-11742660Y-15452620D01*
X-11782870D01*
G01X-11742660D02*
X-11718530Y-15514000D01*
G01X-11661380D02*
X-11621160Y-15387000D01*
X-11580940Y-15514000D01*
G01X-11595420Y-15469550D02*
X-11646900D01*
G01X-11456230Y-15397580D02*
X-11465880Y-15391230D01*
X-11477140Y-15387000D01*
X-11490010D01*
X-11504490Y-15393350D01*
X-11515750Y-15403930D01*
X-11523790Y-15416630D01*
X-11530230Y-15437800D01*
X-11531840Y-15456850D01*
X-11528620Y-15475900D01*
X-11523790Y-15488600D01*
X-11514140Y-15501300D01*
X-11502880Y-15509770D01*
X-11491620Y-15514000D01*
X-11480360D01*
X-11469100Y-15509770D01*
X-11459450Y-15503420D01*
X-11451400Y-15494950D01*
G01X-11362080Y-15387000D02*
Y-15514000D01*
G01X-11399080Y-15387000D02*
X-11325080D01*
G01X-11251840D02*
X-11213240D01*
G01X-11232540D02*
Y-15514000D01*
G01X-11251840D02*
X-11213240D01*
G01X-11103000D02*
X-11115870Y-15511880D01*
X-11127130Y-15503420D01*
X-11136780Y-15490720D01*
X-11143220Y-15475900D01*
X-11146440Y-15458970D01*
Y-15442030D01*
X-11143220Y-15425100D01*
X-11136780Y-15410280D01*
X-11127130Y-15397580D01*
X-11115870Y-15389120D01*
X-11103000Y-15387000D01*
X-11090130Y-15389120D01*
X-11078870Y-15397580D01*
X-11069220Y-15410280D01*
X-11062780Y-15425100D01*
X-11059560Y-15442030D01*
Y-15458970D01*
X-11062780Y-15475900D01*
X-11069220Y-15490720D01*
X-11078870Y-15503420D01*
X-11090130Y-15511880D01*
X-11103000Y-15514000D01*
G01X-11010460D02*
Y-15387000D01*
X-10936460Y-15514000D01*
Y-15387000D01*
G01X-10877700Y-15497070D02*
X-10864830Y-15507650D01*
X-10850350Y-15514000D01*
X-10837490D01*
X-10824620Y-15507650D01*
X-10814960Y-15497070D01*
X-10810140Y-15482250D01*
X-10813350Y-15467440D01*
X-10821400Y-15454730D01*
X-10835880Y-15446270D01*
X-10855180Y-15442030D01*
X-10866440Y-15433570D01*
X-10871270Y-15418750D01*
X-10868050Y-15403930D01*
X-10860010Y-15393350D01*
X-10848750Y-15387000D01*
X-10837490D01*
X-10826220Y-15391230D01*
X-10816570Y-15401820D01*
G01X-10602540Y-15471670D02*
X-10563930D01*
G01X-10584840Y-15444150D02*
Y-15499190D01*
G01X-11920460Y-15133000D02*
X-11880240Y-15006000D01*
X-11840020Y-15133000D01*
G01X-11854500Y-15088550D02*
X-11905980D01*
G01X-11787700Y-15133000D02*
Y-15006000D01*
X-11713700Y-15133000D01*
Y-15006000D01*
G01X-11611510Y-15069500D02*
X-11579330D01*
Y-15107600D01*
X-11588990Y-15120300D01*
X-11600250Y-15128770D01*
X-11616330Y-15133000D01*
X-11632420Y-15128770D01*
X-11643680Y-15120300D01*
X-11653330Y-15107600D01*
X-11659770Y-15092780D01*
X-11662990Y-15075850D01*
Y-15061030D01*
X-11659770Y-15048340D01*
X-11653330Y-15033510D01*
X-11643680Y-15020820D01*
X-11634030Y-15012350D01*
X-11621160Y-15006000D01*
X-11609900D01*
X-11597030Y-15010230D01*
X-11587380Y-15018700D01*
G01X-11523790Y-15006000D02*
Y-15133000D01*
X-11459450D01*
G01X-11329910D02*
X-11394250D01*
Y-15006000D01*
X-11329910D01*
G01X-11355650Y-15067380D02*
X-11394250D01*
G01X-11266320Y-15116070D02*
X-11253450Y-15126650D01*
X-11238970Y-15133000D01*
X-11226110D01*
X-11213240Y-15126650D01*
X-11203580Y-15116070D01*
X-11198760Y-15101250D01*
X-11201970Y-15086440D01*
X-11210020Y-15073730D01*
X-11224500Y-15065270D01*
X-11243800Y-15061030D01*
X-11255060Y-15052570D01*
X-11259890Y-15037750D01*
X-11256670Y-15022930D01*
X-11248630Y-15012350D01*
X-11237370Y-15006000D01*
X-11226110D01*
X-11214840Y-15010230D01*
X-11205190Y-15020820D01*
G01X-10991160Y-15090670D02*
X-10952550D01*
G01X-10973460Y-15063150D02*
Y-15118190D01*
G01X-11915630Y-14726600D02*
X-11905980Y-14741420D01*
X-11893110Y-14749880D01*
X-11878630Y-14752000D01*
X-11865760Y-14749880D01*
X-11852890Y-14739300D01*
X-11844850Y-14726600D01*
X-11843240Y-14713900D01*
X-11846460Y-14699090D01*
X-11857720Y-14688500D01*
X-11868980Y-14684270D01*
X-11883460D01*
G01X-11868980D02*
X-11859330Y-14677920D01*
X-11851280Y-14667340D01*
X-11848070Y-14654630D01*
X-11851280Y-14641930D01*
X-11859330Y-14631350D01*
X-11873810Y-14625000D01*
X-11888280Y-14627120D01*
X-11902760Y-14635580D01*
G01X-11653330Y-14752000D02*
Y-14625000D01*
X-11614730D01*
X-11601860Y-14631350D01*
X-11592200Y-14646170D01*
X-11588990Y-14663100D01*
X-11592200Y-14680030D01*
X-11600250Y-14692730D01*
X-11614730Y-14699090D01*
X-11653330D01*
G01X-11523790Y-14625000D02*
Y-14752000D01*
X-11459450D01*
G01X-11267930D02*
Y-14625000D01*
X-11235760D01*
X-11222890Y-14631350D01*
X-11213240Y-14639820D01*
X-11205190Y-14652510D01*
X-11198760Y-14667340D01*
X-11197150Y-14688500D01*
X-11198760Y-14709670D01*
X-11205190Y-14724490D01*
X-11213240Y-14737190D01*
X-11222890Y-14745650D01*
X-11235760Y-14752000D01*
X-11267930D01*
G01X-11070830D02*
X-11135170D01*
Y-14625000D01*
X-11070830D01*
G01X-11096570Y-14686380D02*
X-11135170D01*
G01X-10938070Y-14635580D02*
X-10947720Y-14629230D01*
X-10958980Y-14625000D01*
X-10971850D01*
X-10986330Y-14631350D01*
X-10997590Y-14641930D01*
X-11005630Y-14654630D01*
X-11012070Y-14675800D01*
X-11013680Y-14694850D01*
X-11010460Y-14713900D01*
X-11005630Y-14726600D01*
X-10995980Y-14739300D01*
X-10984720Y-14747770D01*
X-10973460Y-14752000D01*
X-10962200D01*
X-10950940Y-14747770D01*
X-10941290Y-14741420D01*
X-10933240Y-14732950D01*
G01X-10863220Y-14625000D02*
X-10824620D01*
G01X-10843920D02*
Y-14752000D01*
G01X-10863220D02*
X-10824620D01*
G01X-10756210D02*
Y-14625000D01*
X-10714380Y-14730830D01*
X-10672550Y-14625000D01*
Y-14752000D01*
G01X-10625060D02*
X-10584840Y-14625000D01*
X-10544620Y-14752000D01*
G01X-10559100Y-14707550D02*
X-10610580D01*
G01X-10487470Y-14625000D02*
Y-14752000D01*
X-10423130D01*
G01X-10359540Y-14735070D02*
X-10346670Y-14745650D01*
X-10332190Y-14752000D01*
X-10319330D01*
X-10306460Y-14745650D01*
X-10296800Y-14735070D01*
X-10291980Y-14720250D01*
X-10295190Y-14705440D01*
X-10303240Y-14692730D01*
X-10317720Y-14684270D01*
X-10337020Y-14680030D01*
X-10348280Y-14671570D01*
X-10353110Y-14656750D01*
X-10349890Y-14641930D01*
X-10341850Y-14631350D01*
X-10330590Y-14625000D01*
X-10319330D01*
X-10308060Y-14629230D01*
X-10298410Y-14639820D01*
G01X-10084380Y-14709670D02*
X-10045770D01*
G01X-10066680Y-14682150D02*
Y-14737190D01*
G01X-11910810Y-14265170D02*
X-11901150Y-14252470D01*
X-11889890Y-14246120D01*
X-11877020Y-14244000D01*
X-11860940Y-14248230D01*
X-11849670Y-14258820D01*
X-11846460Y-14271510D01*
X-11848070Y-14284220D01*
X-11854500Y-14294800D01*
X-11886670Y-14315970D01*
X-11901150Y-14330780D01*
X-11910810Y-14351950D01*
X-11914020Y-14371000D01*
X-11846460D01*
G01X-11653330D02*
Y-14244000D01*
X-11614730D01*
X-11601860Y-14250350D01*
X-11592200Y-14265170D01*
X-11588990Y-14282100D01*
X-11592200Y-14299030D01*
X-11600250Y-14311730D01*
X-11614730Y-14318090D01*
X-11653330D01*
G01X-11523790Y-14244000D02*
Y-14371000D01*
X-11459450D01*
G01X-11267930D02*
Y-14244000D01*
X-11235760D01*
X-11222890Y-14250350D01*
X-11213240Y-14258820D01*
X-11205190Y-14271510D01*
X-11198760Y-14286340D01*
X-11197150Y-14307500D01*
X-11198760Y-14328670D01*
X-11205190Y-14343490D01*
X-11213240Y-14356190D01*
X-11222890Y-14364650D01*
X-11235760Y-14371000D01*
X-11267930D01*
G01X-11070830D02*
X-11135170D01*
Y-14244000D01*
X-11070830D01*
G01X-11096570Y-14305380D02*
X-11135170D01*
G01X-10938070Y-14254580D02*
X-10947720Y-14248230D01*
X-10958980Y-14244000D01*
X-10971850D01*
X-10986330Y-14250350D01*
X-10997590Y-14260930D01*
X-11005630Y-14273630D01*
X-11012070Y-14294800D01*
X-11013680Y-14313850D01*
X-11010460Y-14332900D01*
X-11005630Y-14345600D01*
X-10995980Y-14358300D01*
X-10984720Y-14366770D01*
X-10973460Y-14371000D01*
X-10962200D01*
X-10950940Y-14366770D01*
X-10941290Y-14360420D01*
X-10933240Y-14351950D01*
G01X-10863220Y-14244000D02*
X-10824620D01*
G01X-10843920D02*
Y-14371000D01*
G01X-10863220D02*
X-10824620D01*
G01X-10756210D02*
Y-14244000D01*
X-10714380Y-14349830D01*
X-10672550Y-14244000D01*
Y-14371000D01*
G01X-10625060D02*
X-10584840Y-14244000D01*
X-10544620Y-14371000D01*
G01X-10559100Y-14326550D02*
X-10610580D01*
G01X-10487470Y-14244000D02*
Y-14371000D01*
X-10423130D01*
G01X-10359540Y-14354070D02*
X-10346670Y-14364650D01*
X-10332190Y-14371000D01*
X-10319330D01*
X-10306460Y-14364650D01*
X-10296800Y-14354070D01*
X-10291980Y-14339250D01*
X-10295190Y-14324440D01*
X-10303240Y-14311730D01*
X-10317720Y-14303270D01*
X-10337020Y-14299030D01*
X-10348280Y-14290570D01*
X-10353110Y-14275750D01*
X-10349890Y-14260930D01*
X-10341850Y-14250350D01*
X-10330590Y-14244000D01*
X-10319330D01*
X-10308060Y-14248230D01*
X-10298410Y-14258820D01*
G01X-10084380Y-14328670D02*
X-10045770D01*
G01X-10066680Y-14301150D02*
Y-14356190D01*
G01X-11880240Y-13863000D02*
Y-13990000D01*
G01X-11917240Y-13863000D02*
X-11843240D01*
G01X-11750700Y-13990000D02*
X-11763570Y-13987880D01*
X-11774830Y-13979420D01*
X-11784480Y-13966720D01*
X-11790920Y-13951900D01*
X-11794140Y-13934970D01*
Y-13918030D01*
X-11790920Y-13901100D01*
X-11784480Y-13886280D01*
X-11774830Y-13873580D01*
X-11763570Y-13865120D01*
X-11750700Y-13863000D01*
X-11737830Y-13865120D01*
X-11726570Y-13873580D01*
X-11716920Y-13886280D01*
X-11710480Y-13901100D01*
X-11707260Y-13918030D01*
Y-13934970D01*
X-11710480Y-13951900D01*
X-11716920Y-13966720D01*
X-11726570Y-13979420D01*
X-11737830Y-13987880D01*
X-11750700Y-13990000D01*
G01X-11653330Y-13863000D02*
Y-13990000D01*
X-11588990D01*
G01X-11459450D02*
X-11523790D01*
Y-13863000D01*
X-11459450D01*
G01X-11485190Y-13924380D02*
X-11523790D01*
G01X-11394250Y-13990000D02*
Y-13863000D01*
X-11354040D01*
X-11341170Y-13869350D01*
X-11333120Y-13877820D01*
X-11329910Y-13894750D01*
X-11333120Y-13911680D01*
X-11342780Y-13922270D01*
X-11354040Y-13928620D01*
X-11394250D01*
G01X-11354040D02*
X-11329910Y-13990000D01*
G01X-11272760D02*
X-11232540Y-13863000D01*
X-11192320Y-13990000D01*
G01X-11206800Y-13945550D02*
X-11258280D01*
G01X-11140000Y-13990000D02*
Y-13863000D01*
X-11066000Y-13990000D01*
Y-13863000D01*
G01X-10938070Y-13873580D02*
X-10947720Y-13867230D01*
X-10958980Y-13863000D01*
X-10971850D01*
X-10986330Y-13869350D01*
X-10997590Y-13879930D01*
X-11005630Y-13892630D01*
X-11012070Y-13913800D01*
X-11013680Y-13932850D01*
X-11010460Y-13951900D01*
X-11005630Y-13964600D01*
X-10995980Y-13977300D01*
X-10984720Y-13985770D01*
X-10973460Y-13990000D01*
X-10962200D01*
X-10950940Y-13985770D01*
X-10941290Y-13979420D01*
X-10933240Y-13970950D01*
G01X-10811750Y-13990000D02*
X-10876090D01*
Y-13863000D01*
X-10811750D01*
G01X-10837490Y-13924380D02*
X-10876090D01*
G01X-10748160Y-13973070D02*
X-10735290Y-13983650D01*
X-10720810Y-13990000D01*
X-10707950D01*
X-10695080Y-13983650D01*
X-10685420Y-13973070D01*
X-10680600Y-13958250D01*
X-10683810Y-13943440D01*
X-10691860Y-13930730D01*
X-10706340Y-13922270D01*
X-10725640Y-13918030D01*
X-10736900Y-13909570D01*
X-10741730Y-13894750D01*
X-10738510Y-13879930D01*
X-10730470Y-13869350D01*
X-10719210Y-13863000D01*
X-10707950D01*
X-10696680Y-13867230D01*
X-10687030Y-13877820D01*
G01X-10455300Y-13990000D02*
X-10468170Y-13987880D01*
X-10479430Y-13979420D01*
X-10489080Y-13966720D01*
X-10495520Y-13951900D01*
X-10498740Y-13934970D01*
Y-13918030D01*
X-10495520Y-13901100D01*
X-10489080Y-13886280D01*
X-10479430Y-13873580D01*
X-10468170Y-13865120D01*
X-10455300Y-13863000D01*
X-10442430Y-13865120D01*
X-10431170Y-13873580D01*
X-10421520Y-13886280D01*
X-10415080Y-13901100D01*
X-10411860Y-13918030D01*
Y-13934970D01*
X-10415080Y-13951900D01*
X-10421520Y-13966720D01*
X-10431170Y-13979420D01*
X-10442430Y-13987880D01*
X-10455300Y-13990000D01*
G01X-10362760D02*
Y-13863000D01*
X-10288760Y-13990000D01*
Y-13863000D01*
G01X-10196220Y-13994230D02*
X-10199440Y-13992120D01*
Y-13987880D01*
X-10196220Y-13985770D01*
X-10193000Y-13987880D01*
Y-13992120D01*
X-10196220Y-13994230D01*
G01Y-13937090D02*
X-10199440Y-13934970D01*
Y-13930730D01*
X-10196220Y-13928620D01*
X-10193000Y-13930730D01*
Y-13934970D01*
X-10196220Y-13937090D01*
G01X-11915630Y-13545500D02*
Y-13418500D01*
X-11883460D01*
X-11870590Y-13424850D01*
X-11860940Y-13433320D01*
X-11852890Y-13446010D01*
X-11846460Y-13460840D01*
X-11844850Y-13482000D01*
X-11846460Y-13503170D01*
X-11852890Y-13517990D01*
X-11860940Y-13530690D01*
X-11870590Y-13539150D01*
X-11883460Y-13545500D01*
X-11915630D01*
G01X-11770000Y-13418500D02*
X-11731400D01*
G01X-11750700D02*
Y-13545500D01*
G01X-11770000D02*
X-11731400D01*
G01X-11662990D02*
Y-13418500D01*
X-11621160Y-13524330D01*
X-11579330Y-13418500D01*
Y-13545500D01*
G01X-11459450D02*
X-11523790D01*
Y-13418500D01*
X-11459450D01*
G01X-11485190Y-13479880D02*
X-11523790D01*
G01X-11399080Y-13545500D02*
Y-13418500D01*
X-11325080Y-13545500D01*
Y-13418500D01*
G01X-11266320Y-13528570D02*
X-11253450Y-13539150D01*
X-11238970Y-13545500D01*
X-11226110D01*
X-11213240Y-13539150D01*
X-11203580Y-13528570D01*
X-11198760Y-13513750D01*
X-11201970Y-13498940D01*
X-11210020Y-13486230D01*
X-11224500Y-13477770D01*
X-11243800Y-13473530D01*
X-11255060Y-13465070D01*
X-11259890Y-13450250D01*
X-11256670Y-13435430D01*
X-11248630Y-13424850D01*
X-11237370Y-13418500D01*
X-11226110D01*
X-11214840Y-13422730D01*
X-11205190Y-13433320D01*
G01X-11122300Y-13418500D02*
X-11083700D01*
G01X-11103000D02*
Y-13545500D01*
G01X-11122300D02*
X-11083700D01*
G01X-10973460D02*
X-10986330Y-13543380D01*
X-10997590Y-13534920D01*
X-11007240Y-13522220D01*
X-11013680Y-13507400D01*
X-11016900Y-13490470D01*
Y-13473530D01*
X-11013680Y-13456600D01*
X-11007240Y-13441780D01*
X-10997590Y-13429080D01*
X-10986330Y-13420620D01*
X-10973460Y-13418500D01*
X-10960590Y-13420620D01*
X-10949330Y-13429080D01*
X-10939680Y-13441780D01*
X-10933240Y-13456600D01*
X-10930020Y-13473530D01*
Y-13490470D01*
X-10933240Y-13507400D01*
X-10939680Y-13522220D01*
X-10949330Y-13534920D01*
X-10960590Y-13543380D01*
X-10973460Y-13545500D01*
G01X-10880920D02*
Y-13418500D01*
X-10806920Y-13545500D01*
Y-13418500D01*
G01X-10748160Y-13528570D02*
X-10735290Y-13539150D01*
X-10720810Y-13545500D01*
X-10707950D01*
X-10695080Y-13539150D01*
X-10685420Y-13528570D01*
X-10680600Y-13513750D01*
X-10683810Y-13498940D01*
X-10691860Y-13486230D01*
X-10706340Y-13477770D01*
X-10725640Y-13473530D01*
X-10736900Y-13465070D01*
X-10741730Y-13450250D01*
X-10738510Y-13435430D01*
X-10730470Y-13424850D01*
X-10719210Y-13418500D01*
X-10707950D01*
X-10696680Y-13422730D01*
X-10687030Y-13433320D01*
G01X-10495520Y-13545500D02*
X-10455300Y-13418500D01*
X-10415080Y-13545500D01*
G01X-10429560Y-13501050D02*
X-10481040D01*
G01X-10357930Y-13545500D02*
Y-13418500D01*
X-10317720D01*
X-10304850Y-13424850D01*
X-10296800Y-13433320D01*
X-10293590Y-13450250D01*
X-10296800Y-13467180D01*
X-10306460Y-13477770D01*
X-10317720Y-13484120D01*
X-10357930D01*
G01X-10317720D02*
X-10293590Y-13545500D01*
G01X-10164050D02*
X-10228390D01*
Y-13418500D01*
X-10164050D01*
G01X-10189790Y-13479880D02*
X-10228390D01*
G01X-9956440Y-13418500D02*
X-9917840D01*
G01X-9937140D02*
Y-13545500D01*
G01X-9956440D02*
X-9917840D01*
G01X-9844600D02*
Y-13418500D01*
X-9770600Y-13545500D01*
Y-13418500D01*
G01X-9567820D02*
X-9529220D01*
G01X-9548520D02*
Y-13545500D01*
G01X-9567820D02*
X-9529220D01*
G01X-9455980D02*
Y-13418500D01*
X-9381980Y-13545500D01*
Y-13418500D01*
G01X-9254050Y-13429080D02*
X-9263700Y-13422730D01*
X-9274960Y-13418500D01*
X-9287830D01*
X-9302310Y-13424850D01*
X-9313570Y-13435430D01*
X-9321610Y-13448130D01*
X-9328050Y-13469300D01*
X-9329660Y-13488350D01*
X-9326440Y-13507400D01*
X-9321610Y-13520100D01*
X-9311960Y-13532800D01*
X-9300700Y-13541270D01*
X-9289440Y-13545500D01*
X-9278180D01*
X-9266920Y-13541270D01*
X-9257270Y-13534920D01*
X-9249220Y-13526450D01*
G01X-9193680Y-13545500D02*
Y-13418500D01*
G01X-9126120D02*
Y-13545500D01*
G01Y-13482000D02*
X-9193680D01*
G01X-8998190Y-13545500D02*
X-9062530D01*
Y-13418500D01*
X-8998190D01*
G01X-9023930Y-13479880D02*
X-9062530D01*
G01X-8934600Y-13528570D02*
X-8921730Y-13539150D01*
X-8907250Y-13545500D01*
X-8894390D01*
X-8881520Y-13539150D01*
X-8871860Y-13528570D01*
X-8867040Y-13513750D01*
X-8870250Y-13498940D01*
X-8878300Y-13486230D01*
X-8892780Y-13477770D01*
X-8912080Y-13473530D01*
X-8923340Y-13465070D01*
X-8928170Y-13450250D01*
X-8924950Y-13435430D01*
X-8916910Y-13424850D01*
X-8905650Y-13418500D01*
X-8894390D01*
X-8883120Y-13422730D01*
X-8873470Y-13433320D01*
G01X-11915630Y-12720000D02*
Y-12811020D01*
X-11909200Y-12830070D01*
X-11896330Y-12842770D01*
X-11880240Y-12847000D01*
X-11864150Y-12842770D01*
X-11851280Y-12830070D01*
X-11844850Y-12811020D01*
Y-12720000D01*
G01X-11787700Y-12847000D02*
Y-12720000D01*
X-11713700Y-12847000D01*
Y-12720000D01*
G01X-11653330D02*
Y-12847000D01*
X-11588990D01*
G01X-11459450D02*
X-11523790D01*
Y-12720000D01*
X-11459450D01*
G01X-11485190Y-12781380D02*
X-11523790D01*
G01X-11395860Y-12830070D02*
X-11382990Y-12840650D01*
X-11368510Y-12847000D01*
X-11355650D01*
X-11342780Y-12840650D01*
X-11333120Y-12830070D01*
X-11328300Y-12815250D01*
X-11331510Y-12800440D01*
X-11339560Y-12787730D01*
X-11354040Y-12779270D01*
X-11373340Y-12775030D01*
X-11384600Y-12766570D01*
X-11389430Y-12751750D01*
X-11386210Y-12736930D01*
X-11378170Y-12726350D01*
X-11366910Y-12720000D01*
X-11355650D01*
X-11344380Y-12724230D01*
X-11334730Y-12734820D01*
G01X-11266320Y-12830070D02*
X-11253450Y-12840650D01*
X-11238970Y-12847000D01*
X-11226110D01*
X-11213240Y-12840650D01*
X-11203580Y-12830070D01*
X-11198760Y-12815250D01*
X-11201970Y-12800440D01*
X-11210020Y-12787730D01*
X-11224500Y-12779270D01*
X-11243800Y-12775030D01*
X-11255060Y-12766570D01*
X-11259890Y-12751750D01*
X-11256670Y-12736930D01*
X-11248630Y-12726350D01*
X-11237370Y-12720000D01*
X-11226110D01*
X-11214840Y-12724230D01*
X-11205190Y-12734820D01*
G01X-10973460Y-12847000D02*
X-10986330Y-12844880D01*
X-10997590Y-12836420D01*
X-11007240Y-12823720D01*
X-11013680Y-12808900D01*
X-11016900Y-12791970D01*
Y-12775030D01*
X-11013680Y-12758100D01*
X-11007240Y-12743280D01*
X-10997590Y-12730580D01*
X-10986330Y-12722120D01*
X-10973460Y-12720000D01*
X-10960590Y-12722120D01*
X-10949330Y-12730580D01*
X-10939680Y-12743280D01*
X-10933240Y-12758100D01*
X-10930020Y-12775030D01*
Y-12791970D01*
X-10933240Y-12808900D01*
X-10939680Y-12823720D01*
X-10949330Y-12836420D01*
X-10960590Y-12844880D01*
X-10973460Y-12847000D01*
G01X-10843920Y-12720000D02*
Y-12847000D01*
G01X-10880920Y-12720000D02*
X-10806920D01*
G01X-10748160Y-12847000D02*
Y-12720000D01*
G01X-10680600D02*
Y-12847000D01*
G01Y-12783500D02*
X-10748160D01*
G01X-10552670Y-12847000D02*
X-10617010D01*
Y-12720000D01*
X-10552670D01*
G01X-10578410Y-12781380D02*
X-10617010D01*
G01X-10487470Y-12847000D02*
Y-12720000D01*
X-10447260D01*
X-10434390Y-12726350D01*
X-10426340Y-12734820D01*
X-10423130Y-12751750D01*
X-10426340Y-12768680D01*
X-10436000Y-12779270D01*
X-10447260Y-12785620D01*
X-10487470D01*
G01X-10447260D02*
X-10423130Y-12847000D01*
G01X-10374020Y-12720000D02*
X-10351500Y-12847000D01*
X-10325760Y-12720000D01*
X-10300020Y-12847000D01*
X-10277500Y-12720000D01*
G01X-10215520D02*
X-10176920D01*
G01X-10196220D02*
Y-12847000D01*
G01X-10215520D02*
X-10176920D01*
G01X-10100460Y-12830070D02*
X-10087590Y-12840650D01*
X-10073110Y-12847000D01*
X-10060250D01*
X-10047380Y-12840650D01*
X-10037720Y-12830070D01*
X-10032900Y-12815250D01*
X-10036110Y-12800440D01*
X-10044160Y-12787730D01*
X-10058640Y-12779270D01*
X-10077940Y-12775030D01*
X-10089200Y-12766570D01*
X-10094030Y-12751750D01*
X-10090810Y-12736930D01*
X-10082770Y-12726350D01*
X-10071510Y-12720000D01*
X-10060250D01*
X-10048980Y-12724230D01*
X-10039330Y-12734820D01*
G01X-9904970Y-12847000D02*
X-9969310D01*
Y-12720000D01*
X-9904970D01*
G01X-9930710Y-12781380D02*
X-9969310D01*
G01X-9711840Y-12830070D02*
X-9698970Y-12840650D01*
X-9684490Y-12847000D01*
X-9671630D01*
X-9658760Y-12840650D01*
X-9649100Y-12830070D01*
X-9644280Y-12815250D01*
X-9647490Y-12800440D01*
X-9655540Y-12787730D01*
X-9670020Y-12779270D01*
X-9689320Y-12775030D01*
X-9700580Y-12766570D01*
X-9705410Y-12751750D01*
X-9702190Y-12736930D01*
X-9694150Y-12726350D01*
X-9682890Y-12720000D01*
X-9671630D01*
X-9660360Y-12724230D01*
X-9650710Y-12734820D01*
G01X-9580690Y-12847000D02*
Y-12720000D01*
X-9542090D01*
X-9529220Y-12726350D01*
X-9519560Y-12741170D01*
X-9516350Y-12758100D01*
X-9519560Y-12775030D01*
X-9527610Y-12787730D01*
X-9542090Y-12794090D01*
X-9580690D01*
G01X-9386810Y-12847000D02*
X-9451150D01*
Y-12720000D01*
X-9386810D01*
G01X-9412550Y-12781380D02*
X-9451150D01*
G01X-9254050Y-12730580D02*
X-9263700Y-12724230D01*
X-9274960Y-12720000D01*
X-9287830D01*
X-9302310Y-12726350D01*
X-9313570Y-12736930D01*
X-9321610Y-12749630D01*
X-9328050Y-12770800D01*
X-9329660Y-12789850D01*
X-9326440Y-12808900D01*
X-9321610Y-12821600D01*
X-9311960Y-12834300D01*
X-9300700Y-12842770D01*
X-9289440Y-12847000D01*
X-9278180D01*
X-9266920Y-12842770D01*
X-9257270Y-12836420D01*
X-9249220Y-12827950D01*
G01X-9179200Y-12720000D02*
X-9140600D01*
G01X-9159900D02*
Y-12847000D01*
G01X-9179200D02*
X-9140600D01*
G01X-9060930D02*
Y-12720000D01*
X-8999790D01*
G01X-9022320Y-12781380D02*
X-9060930D01*
G01X-8920120Y-12720000D02*
X-8881520D01*
G01X-8900820D02*
Y-12847000D01*
G01X-8920120D02*
X-8881520D01*
G01X-8739110D02*
X-8803450D01*
Y-12720000D01*
X-8739110D01*
G01X-8764850Y-12781380D02*
X-8803450D01*
G01X-8677130Y-12847000D02*
Y-12720000D01*
X-8644960D01*
X-8632090Y-12726350D01*
X-8622440Y-12734820D01*
X-8614390Y-12747510D01*
X-8607960Y-12762340D01*
X-8606350Y-12783500D01*
X-8607960Y-12804670D01*
X-8614390Y-12819490D01*
X-8622440Y-12832190D01*
X-8632090Y-12840650D01*
X-8644960Y-12847000D01*
X-8677130D01*
G01X-12119000Y-13164500D02*
X-2975000D01*
G01X-8309000Y-12402500D02*
Y-16974500D01*
G01Y-16085500D02*
X-2975000D01*
G01X-8309000Y-15450500D02*
X-2975000D01*
G01X-8309000Y-14688500D02*
X-2975000D01*
G01X-8309000Y-13926500D02*
X-2975000D01*
G01X-7211590Y-12825670D02*
X-7195680Y-12839000D01*
X-7177770Y-12847000D01*
X-7161850D01*
X-7145930Y-12839000D01*
X-7133990Y-12825670D01*
X-7128030Y-12806990D01*
X-7132010Y-12788330D01*
X-7141960Y-12772330D01*
X-7159860Y-12761650D01*
X-7183740Y-12756320D01*
X-7197660Y-12745660D01*
X-7203640Y-12726990D01*
X-7199650Y-12708320D01*
X-7189710Y-12694980D01*
X-7175780Y-12686980D01*
X-7161850D01*
X-7147920Y-12692310D01*
X-7135980Y-12705650D01*
G01X-7033670Y-12686980D02*
X-6985920D01*
G01X-7009790D02*
Y-12847000D01*
G01X-7033670D02*
X-6985920D01*
G01X-6837830Y-12766990D02*
X-6798040D01*
Y-12815000D01*
X-6809980Y-12831000D01*
X-6823900Y-12841670D01*
X-6843800Y-12847000D01*
X-6863700Y-12841670D01*
X-6877620Y-12831000D01*
X-6889560Y-12815000D01*
X-6897520Y-12796330D01*
X-6901500Y-12774990D01*
Y-12756320D01*
X-6897520Y-12740320D01*
X-6889560Y-12721650D01*
X-6877620Y-12705650D01*
X-6865690Y-12694980D01*
X-6849770Y-12686980D01*
X-6835840D01*
X-6819930Y-12692310D01*
X-6807990Y-12702980D01*
G01X-6735510Y-12847000D02*
Y-12686980D01*
X-6643990Y-12847000D01*
Y-12686980D01*
G01X-6579470Y-12847000D02*
X-6529730Y-12686980D01*
X-6479990Y-12847000D01*
G01X-6497900Y-12791000D02*
X-6561570D01*
G01X-6369710Y-12686980D02*
Y-12847000D01*
G01X-6415470Y-12686980D02*
X-6323950D01*
G01X-6253460D02*
Y-12801660D01*
X-6245510Y-12825670D01*
X-6229590Y-12841670D01*
X-6209690Y-12847000D01*
X-6189790Y-12841670D01*
X-6173870Y-12825670D01*
X-6165920Y-12801660D01*
Y-12686980D01*
G01X-6089460Y-12847000D02*
Y-12686980D01*
X-6039720D01*
X-6023800Y-12694980D01*
X-6013850Y-12705650D01*
X-6009880Y-12726990D01*
X-6013850Y-12748320D01*
X-6025790Y-12761650D01*
X-6039720Y-12769660D01*
X-6089460D01*
G01X-6039720D02*
X-6009880Y-12847000D01*
G01X-5849860D02*
X-5929440D01*
Y-12686980D01*
X-5849860D01*
G01X-5881690Y-12764320D02*
X-5929440D01*
G01X-5771410Y-12825670D02*
X-5755500Y-12839000D01*
X-5737590Y-12847000D01*
X-5721670D01*
X-5705750Y-12839000D01*
X-5693810Y-12825670D01*
X-5687850Y-12806990D01*
X-5691830Y-12788330D01*
X-5701780Y-12772330D01*
X-5719680Y-12761650D01*
X-5743560Y-12756320D01*
X-5757480Y-12745660D01*
X-5763460Y-12726990D01*
X-5759470Y-12708320D01*
X-5749530Y-12694980D01*
X-5735600Y-12686980D01*
X-5721670D01*
X-5707740Y-12692310D01*
X-5695800Y-12705650D01*
G01X-5007000Y-15387000D02*
Y-15450500D01*
G01Y-15387000D02*
Y-12402500D01*
G01X-5070500Y7727000D02*
Y6965000D01*
G01Y10013000D02*
Y7727000D01*
G01Y8489000D02*
X7629500D01*
G01X-5070500Y9251000D02*
X7629500D01*
G01X-4356080Y-12847000D02*
Y-12686980D01*
X-4316290D01*
X-4300370Y-12694980D01*
X-4288430Y-12705650D01*
X-4278480Y-12721650D01*
X-4270530Y-12740320D01*
X-4268540Y-12766990D01*
X-4270530Y-12793660D01*
X-4278480Y-12812330D01*
X-4288430Y-12828330D01*
X-4300370Y-12839000D01*
X-4316290Y-12847000D01*
X-4356080D01*
G01X-4202030D02*
X-4152290Y-12686980D01*
X-4102550Y-12847000D01*
G01X-4120460Y-12791000D02*
X-4184130D01*
G01X-3992270Y-12686980D02*
Y-12847000D01*
G01X-4038030Y-12686980D02*
X-3946510D01*
G01X-3792460Y-12847000D02*
X-3872040D01*
Y-12686980D01*
X-3792460D01*
G01X-3824290Y-12764320D02*
X-3872040D01*
G01X-4911750Y8743000D02*
Y8997000D01*
X-4832380D01*
X-4806980Y8984290D01*
X-4791100Y8967370D01*
X-4784750Y8933500D01*
X-4791100Y8899630D01*
X-4810150Y8878470D01*
X-4832380Y8865760D01*
X-4911750D01*
G01X-4832380D02*
X-4784750Y8743000D01*
G01X-4530750D02*
X-4657750D01*
Y8997000D01*
X-4530750D01*
G01X-4581550Y8874240D02*
X-4657750D01*
G01X-4419630Y8997000D02*
X-4340250Y8743000D01*
X-4260870Y8997000D01*
G01X-4054500Y7727000D02*
Y6965000D01*
G01Y7727000D02*
Y9251000D01*
G01X-2819430Y-16559640D02*
X-2794020Y-16580800D01*
X-2765450Y-16593500D01*
X-2740050D01*
X-2714650Y-16580800D01*
X-2695600Y-16559640D01*
X-2686070Y-16530000D01*
X-2692420Y-16500370D01*
X-2708300Y-16474970D01*
X-2736880Y-16458030D01*
X-2774970Y-16449570D01*
X-2797200Y-16432640D01*
X-2806730Y-16403000D01*
X-2800370Y-16373370D01*
X-2784500Y-16352210D01*
X-2762280Y-16339500D01*
X-2740050D01*
X-2717820Y-16347960D01*
X-2698770Y-16369130D01*
G01X-2428900Y-16360670D02*
X-2447950Y-16347960D01*
X-2470170Y-16339500D01*
X-2495570D01*
X-2524150Y-16352210D01*
X-2546370Y-16373370D01*
X-2562250Y-16398770D01*
X-2574950Y-16441100D01*
X-2578130Y-16479200D01*
X-2571770Y-16517300D01*
X-2562250Y-16542700D01*
X-2543200Y-16568110D01*
X-2520970Y-16585040D01*
X-2498750Y-16593500D01*
X-2476530D01*
X-2454300Y-16585040D01*
X-2435250Y-16572340D01*
X-2419370Y-16555410D01*
G01X-2324130Y-16593500D02*
X-2244750Y-16339500D01*
X-2165370Y-16593500D01*
G01X-2193950Y-16504600D02*
X-2295550D01*
G01X-2054250Y-16339500D02*
Y-16593500D01*
X-1927250D01*
G01X-1673250D02*
X-1800250D01*
Y-16339500D01*
X-1673250D01*
G01X-1724050Y-16462260D02*
X-1800250D01*
G01X-2975000Y-12402500D02*
Y-16974500D01*
G01X-2819430Y-15543640D02*
X-2794020Y-15564800D01*
X-2765450Y-15577500D01*
X-2740050D01*
X-2714650Y-15564800D01*
X-2695600Y-15543640D01*
X-2686070Y-15514000D01*
X-2692420Y-15484370D01*
X-2708300Y-15458970D01*
X-2736880Y-15442030D01*
X-2774970Y-15433570D01*
X-2797200Y-15416640D01*
X-2806730Y-15387000D01*
X-2800370Y-15357370D01*
X-2784500Y-15336210D01*
X-2762280Y-15323500D01*
X-2740050D01*
X-2717820Y-15331960D01*
X-2698770Y-15353130D01*
G01X-2536850Y-15323500D02*
X-2460660D01*
G01X-2498750D02*
Y-15577500D01*
G01X-2536850D02*
X-2460660D01*
G01X-2305080Y-15323500D02*
X-2184420D01*
X-2305080Y-15577500D01*
X-2184420D01*
G01X-1927250D02*
X-2054250D01*
Y-15323500D01*
X-1927250D01*
G01X-1978050Y-15446260D02*
X-2054250D01*
G01X3375000Y-16212500D02*
X-2975000D01*
G01X7693000Y-15196500D02*
X-2975000D01*
G01X7693000Y-13672500D02*
X-2975000D01*
G01X-2251100Y8743000D02*
Y8997000D01*
X-2187600D01*
X-2162200Y8984290D01*
X-2143150Y8967370D01*
X-2127270Y8941970D01*
X-2114570Y8912330D01*
X-2111400Y8870000D01*
X-2114570Y8827660D01*
X-2127270Y8798030D01*
X-2143150Y8772630D01*
X-2162200Y8755700D01*
X-2187600Y8743000D01*
X-2251100D01*
G01X-1863750D02*
X-1990750D01*
Y8997000D01*
X-1863750D01*
G01X-1914550Y8874240D02*
X-1990750D01*
G01X-1739930Y8776860D02*
X-1714520Y8755700D01*
X-1685950Y8743000D01*
X-1660550D01*
X-1635150Y8755700D01*
X-1616100Y8776860D01*
X-1606570Y8806500D01*
X-1612920Y8836130D01*
X-1628800Y8861530D01*
X-1657380Y8878470D01*
X-1695470Y8886930D01*
X-1717700Y8903860D01*
X-1727230Y8933500D01*
X-1720870Y8963130D01*
X-1705000Y8984290D01*
X-1682780Y8997000D01*
X-1660550D01*
X-1638320Y8988540D01*
X-1619270Y8967370D01*
G01X-1349400Y8975830D02*
X-1368450Y8988540D01*
X-1390670Y8997000D01*
X-1416070D01*
X-1444650Y8984290D01*
X-1466870Y8963130D01*
X-1482750Y8937730D01*
X-1495450Y8895400D01*
X-1498630Y8857300D01*
X-1492270Y8819200D01*
X-1482750Y8793800D01*
X-1463700Y8768390D01*
X-1441470Y8751460D01*
X-1419250Y8743000D01*
X-1397030D01*
X-1374800Y8751460D01*
X-1355750Y8764160D01*
X-1339870Y8781090D01*
G01X-1228750Y8743000D02*
Y8997000D01*
X-1149380D01*
X-1123980Y8984290D01*
X-1108100Y8967370D01*
X-1101750Y8933500D01*
X-1108100Y8899630D01*
X-1127150Y8878470D01*
X-1149380Y8865760D01*
X-1228750D01*
G01X-1149380D02*
X-1101750Y8743000D01*
G01X-949350Y8997000D02*
X-873160D01*
G01X-911250D02*
Y8743000D01*
G01X-949350D02*
X-873160D01*
G01X-720750D02*
Y8997000D01*
X-644550D01*
X-619150Y8984290D01*
X-600100Y8954670D01*
X-593750Y8920800D01*
X-600100Y8886930D01*
X-615980Y8861530D01*
X-644550Y8848830D01*
X-720750D01*
G01X-403250Y8997000D02*
Y8743000D01*
G01X-476270Y8997000D02*
X-330230D01*
G01X-187350D02*
X-111160D01*
G01X-149250D02*
Y8743000D01*
G01X-187350D02*
X-111160D01*
G01X104750D02*
X79350Y8747230D01*
X57130Y8764160D01*
X38070Y8789560D01*
X25370Y8819200D01*
X19020Y8853070D01*
Y8886930D01*
X25370Y8920800D01*
X38070Y8950440D01*
X57130Y8975830D01*
X79350Y8992770D01*
X104750Y8997000D01*
X130150Y8992770D01*
X152370Y8975830D01*
X171430Y8950440D01*
X184130Y8920800D01*
X190480Y8886930D01*
Y8853070D01*
X184130Y8819200D01*
X171430Y8789560D01*
X152370Y8764160D01*
X130150Y8747230D01*
X104750Y8743000D01*
G01X285730D02*
Y8997000D01*
X431770Y8743000D01*
Y8997000D01*
G01X-1416080Y-15577500D02*
Y-15323500D01*
X-1295420D01*
G01X-1339880Y-15446260D02*
X-1416080D01*
G01X-1168430Y-15543640D02*
X-1143020Y-15564800D01*
X-1114450Y-15577500D01*
X-1089050D01*
X-1063650Y-15564800D01*
X-1044600Y-15543640D01*
X-1035070Y-15514000D01*
X-1041420Y-15484370D01*
X-1057300Y-15458970D01*
X-1085880Y-15442030D01*
X-1123970Y-15433570D01*
X-1146200Y-15416640D01*
X-1155730Y-15387000D01*
X-1149370Y-15357370D01*
X-1133500Y-15336210D01*
X-1111280Y-15323500D01*
X-1089050D01*
X-1066820Y-15331960D01*
X-1047770Y-15353130D01*
G01X-777900Y-15344670D02*
X-796950Y-15331960D01*
X-819170Y-15323500D01*
X-844570D01*
X-873150Y-15336210D01*
X-895370Y-15357370D01*
X-911250Y-15382770D01*
X-923950Y-15425100D01*
X-927130Y-15463200D01*
X-920770Y-15501300D01*
X-911250Y-15526700D01*
X-892200Y-15552110D01*
X-869970Y-15569040D01*
X-847750Y-15577500D01*
X-825530D01*
X-803300Y-15569040D01*
X-784250Y-15556340D01*
X-768370Y-15539410D01*
G01X-676300Y-15577500D02*
Y-15323500D01*
X-593750Y-15535170D01*
X-511200Y-15323500D01*
Y-15577500D01*
G01X-158770D02*
Y-15323500D01*
X-12730Y-15577500D01*
Y-15323500D01*
G01X168250Y-15577500D02*
X142850Y-15573270D01*
X120630Y-15556340D01*
X101570Y-15530940D01*
X88870Y-15501300D01*
X82520Y-15467430D01*
Y-15433570D01*
X88870Y-15399700D01*
X101570Y-15370060D01*
X120630Y-15344670D01*
X142850Y-15327730D01*
X168250Y-15323500D01*
X193650Y-15327730D01*
X215870Y-15344670D01*
X234930Y-15370060D01*
X247630Y-15399700D01*
X253980Y-15433570D01*
Y-15467430D01*
X247630Y-15501300D01*
X234930Y-15530940D01*
X215870Y-15556340D01*
X193650Y-15573270D01*
X168250Y-15577500D01*
G01X-1705000Y-16212500D02*
Y-15196500D01*
G01X-1165250Y-13164500D02*
Y-12910500D01*
X-1085880D01*
X-1060480Y-12923210D01*
X-1044600Y-12940130D01*
X-1038250Y-12974000D01*
X-1044600Y-13007870D01*
X-1063650Y-13029030D01*
X-1085880Y-13041740D01*
X-1165250D01*
G01X-1085880D02*
X-1038250Y-13164500D01*
G01X-885850Y-12910500D02*
X-809660D01*
G01X-847750D02*
Y-13164500D01*
G01X-885850D02*
X-809660D01*
G01X-593750Y-12910500D02*
Y-13164500D01*
G01X-666770Y-12910500D02*
X-520730D01*
G01X-152430Y-13130640D02*
X-127020Y-13151800D01*
X-98450Y-13164500D01*
X-73050D01*
X-47650Y-13151800D01*
X-28600Y-13130640D01*
X-19070Y-13101000D01*
X-25420Y-13071370D01*
X-41300Y-13045970D01*
X-69880Y-13029030D01*
X-107970Y-13020570D01*
X-130200Y-13003640D01*
X-139730Y-12974000D01*
X-133370Y-12944370D01*
X-117500Y-12923210D01*
X-95280Y-12910500D01*
X-73050D01*
X-50820Y-12918960D01*
X-31770Y-12940130D01*
G01X120630Y-13050200D02*
X222230D01*
X212700Y-13020570D01*
X196830Y-13003640D01*
X174600Y-12995170D01*
X152380Y-12999400D01*
X133320Y-13012100D01*
X120630Y-13041740D01*
X114270Y-13067140D01*
Y-13092530D01*
X120630Y-13117940D01*
X136500Y-13143340D01*
X155550Y-13160270D01*
X177780Y-13164500D01*
X200000Y-13156040D01*
X222230Y-13130640D01*
G01X368270Y-13164500D02*
Y-12995170D01*
G01Y-13037500D02*
X380980Y-13016330D01*
X400030Y-12999400D01*
X425430Y-12995170D01*
X447650Y-12999400D01*
X466700Y-13016330D01*
X476230Y-13045970D01*
Y-13164500D01*
G01X676250Y-12995170D02*
Y-13164500D01*
G01Y-12927440D02*
X669900Y-12923210D01*
Y-12914730D01*
X676250Y-12910500D01*
X682600Y-12914730D01*
Y-12923210D01*
X676250Y-12927440D01*
G01X930250Y-13164500D02*
X911200Y-13160270D01*
X892150Y-13143340D01*
X879450Y-13113700D01*
X873100Y-13079840D01*
X879450Y-13045970D01*
X892150Y-13016330D01*
X911200Y-12999400D01*
X930250Y-12995170D01*
X949300Y-12999400D01*
X968350Y-13016330D01*
X981050Y-13045970D01*
X984230Y-13079840D01*
X981050Y-13113700D01*
X968350Y-13143340D01*
X949300Y-13160270D01*
X930250Y-13164500D01*
G01X1139800D02*
Y-12995170D01*
G01Y-13029030D02*
X1155670Y-13012100D01*
X1171550Y-12999400D01*
X1193780Y-12995170D01*
X1209650Y-12999400D01*
X1228700Y-13012100D01*
G01X1622400Y-13164500D02*
Y-12910500D01*
X1685900D01*
X1711300Y-12923210D01*
X1730350Y-12940130D01*
X1746230Y-12965530D01*
X1758930Y-12995170D01*
X1762100Y-13037500D01*
X1758930Y-13079840D01*
X1746230Y-13109470D01*
X1730350Y-13134870D01*
X1711300Y-13151800D01*
X1685900Y-13164500D01*
X1622400D01*
G01X1898630Y-13050200D02*
X2000230D01*
X1990700Y-13020570D01*
X1974830Y-13003640D01*
X1952600Y-12995170D01*
X1930380Y-12999400D01*
X1911320Y-13012100D01*
X1898630Y-13041740D01*
X1892270Y-13067140D01*
Y-13092530D01*
X1898630Y-13117940D01*
X1914500Y-13143340D01*
X1933550Y-13160270D01*
X1955780Y-13164500D01*
X1978000Y-13156040D01*
X2000230Y-13130640D01*
G01X2152630Y-13134870D02*
X2168500Y-13151800D01*
X2190720Y-13164500D01*
X2209780D01*
X2228830Y-13156040D01*
X2241520Y-13143340D01*
X2247870Y-13126410D01*
X2244700Y-13101000D01*
X2232000Y-13088300D01*
X2174850Y-13062910D01*
X2162150Y-13033260D01*
X2168500Y-13012100D01*
X2181200Y-12999400D01*
X2200250Y-12995170D01*
X2219300Y-12999400D01*
X2238350Y-13012100D01*
G01X2454250Y-12995170D02*
Y-13164500D01*
G01Y-12927440D02*
X2447900Y-12923210D01*
Y-12914730D01*
X2454250Y-12910500D01*
X2460600Y-12914730D01*
Y-12923210D01*
X2454250Y-12927440D01*
G01X2663800Y-13228000D02*
X2686030Y-13244930D01*
X2711430Y-13249160D01*
X2733650Y-13244930D01*
X2752700Y-13223770D01*
X2765400Y-13194130D01*
Y-12995170D01*
G01Y-13029030D02*
X2752700Y-13012100D01*
X2733650Y-12999400D01*
X2711430Y-12995170D01*
X2686030Y-13003640D01*
X2670150Y-13020570D01*
X2657450Y-13050200D01*
X2651100Y-13079840D01*
X2654270Y-13105240D01*
X2666980Y-13134870D01*
X2686030Y-13156040D01*
X2711430Y-13164500D01*
X2730470Y-13160270D01*
X2752700Y-13143340D01*
X2765400Y-13126410D01*
G01X2908270Y-13164500D02*
Y-12995170D01*
G01Y-13037500D02*
X2920980Y-13016330D01*
X2940030Y-12999400D01*
X2965430Y-12995170D01*
X2987650Y-12999400D01*
X3006700Y-13016330D01*
X3016230Y-13045970D01*
Y-13164500D01*
G01X3540100Y-12931670D02*
X3521050Y-12918960D01*
X3498830Y-12910500D01*
X3473430D01*
X3444850Y-12923210D01*
X3422630Y-12944370D01*
X3406750Y-12969770D01*
X3394050Y-13012100D01*
X3390870Y-13050200D01*
X3397230Y-13088300D01*
X3406750Y-13113700D01*
X3425800Y-13139110D01*
X3448030Y-13156040D01*
X3470250Y-13164500D01*
X3492470D01*
X3514700Y-13156040D01*
X3533750Y-13143340D01*
X3549630Y-13126410D01*
G01X3676630Y-13050200D02*
X3778230D01*
X3768700Y-13020570D01*
X3752830Y-13003640D01*
X3730600Y-12995170D01*
X3708380Y-12999400D01*
X3689320Y-13012100D01*
X3676630Y-13041740D01*
X3670270Y-13067140D01*
Y-13092530D01*
X3676630Y-13117940D01*
X3692500Y-13143340D01*
X3711550Y-13160270D01*
X3733780Y-13164500D01*
X3756000Y-13156040D01*
X3778230Y-13130640D01*
G01X3924270Y-13164500D02*
Y-12995170D01*
G01Y-13037500D02*
X3936980Y-13016330D01*
X3956030Y-12999400D01*
X3981430Y-12995170D01*
X4003650Y-12999400D01*
X4022700Y-13016330D01*
X4032230Y-13045970D01*
Y-13164500D01*
G01X4232250Y-12910500D02*
Y-13164500D01*
G01X4187800Y-12995170D02*
X4276700D01*
G01X4438630Y-13050200D02*
X4540230D01*
X4530700Y-13020570D01*
X4514830Y-13003640D01*
X4492600Y-12995170D01*
X4470380Y-12999400D01*
X4451320Y-13012100D01*
X4438630Y-13041740D01*
X4432270Y-13067140D01*
Y-13092530D01*
X4438630Y-13117940D01*
X4454500Y-13143340D01*
X4473550Y-13160270D01*
X4495780Y-13164500D01*
X4518000Y-13156040D01*
X4540230Y-13130640D01*
G01X4695800Y-13164500D02*
Y-12995170D01*
G01Y-13029030D02*
X4711670Y-13012100D01*
X4727550Y-12999400D01*
X4749780Y-12995170D01*
X4765650Y-12999400D01*
X4784700Y-13012100D01*
G01X-689000Y-16212500D02*
Y-16974500D01*
G01X0Y0D02*
Y3500000D01*
X1800000D01*
Y0D01*
X0D01*
G01X50000Y950000D02*
X350000D01*
Y2450000D01*
X50000D01*
Y950000D01*
G01X344600Y3269520D02*
Y3329510D01*
X374600D01*
Y3269520D01*
X344600D01*
G01X800000Y300000D02*
Y500000D01*
X600000D01*
Y300000D01*
X800000D01*
G01X1200000D02*
Y500000D01*
X1000000D01*
Y300000D01*
X1200000D01*
G01X844600Y969520D02*
Y1029510D01*
X874600D01*
Y969520D01*
X844600D01*
G01X925880D02*
Y1029510D01*
X955880D01*
Y969520D01*
X925880D01*
G01X869520Y1554940D02*
G03X930480I30480J0D01*
G01X745060D02*
Y1245060D01*
G01X1054940Y1554940D02*
X745060D01*
G01X1054940Y1245060D02*
Y1554940D01*
G01X745060Y1245060D02*
X1054940D01*
G01X1152730Y1513970D02*
X1054940D01*
G01Y1486030D02*
X1152730D01*
G01X1054940Y1513970D02*
Y1486030D01*
G01X1152730Y1463970D02*
X1054940D01*
G01Y1436030D02*
X1152730D01*
G01X1054940Y1463970D02*
Y1436030D01*
G01X1152730Y1413970D02*
X1054940D01*
G01Y1386030D02*
X1152730D01*
G01X1054940Y1413970D02*
Y1386030D01*
G01X1152730Y1363970D02*
X1054940D01*
G01Y1336030D02*
X1152730D01*
G01X1054940Y1363970D02*
Y1336030D01*
G01X1152730Y1313970D02*
X1054940D01*
G01Y1286030D02*
X1152730D01*
G01X1054940Y1313970D02*
Y1286030D01*
G01X647270D02*
X745060D01*
G01X647270Y1313970D02*
Y1286030D01*
G01X745060Y1313970D02*
X647270D01*
G01X745060Y1286030D02*
Y1313970D01*
G01X647270Y1336030D02*
X745060D01*
G01X647270Y1363970D02*
Y1336030D01*
G01X745060Y1363970D02*
X647270D01*
G01X745060Y1336030D02*
Y1363970D01*
G01X647270Y1386030D02*
X745060D01*
G01X647270Y1413970D02*
Y1386030D01*
G01X745060Y1413970D02*
X647270D01*
G01X745060Y1386030D02*
Y1413970D01*
G01X647270Y1436030D02*
X745060D01*
G01X647270Y1463970D02*
Y1436030D01*
G01X745060Y1463970D02*
X647270D01*
G01X745060Y1436030D02*
Y1463970D01*
G01X647270Y1486030D02*
X745060D01*
G01X647270Y1513970D02*
Y1486030D01*
G01X745060Y1513970D02*
X647270D01*
G01X745060Y1486030D02*
Y1513970D01*
G01X655400Y2730480D02*
Y2670490D01*
X625400D01*
Y2730480D01*
X655400D01*
G01X574120D02*
Y2670490D01*
X544120D01*
Y2730480D01*
X574120D01*
G01X600000Y2200000D02*
Y2000000D01*
X800000D01*
Y2200000D01*
X600000D01*
G01X1000000D02*
Y2000000D01*
X1200000D01*
Y2200000D01*
X1000000D01*
G01X425880Y3269520D02*
Y3329510D01*
X455880D01*
Y3269520D01*
X425880D01*
G01X444600Y2869520D02*
Y2929510D01*
X474600D01*
Y2869520D01*
X444600D01*
G01X525880D02*
Y2929510D01*
X555880D01*
Y2869520D01*
X525880D01*
G01X779600Y3260020D02*
Y3190170D01*
G01X830400Y3260020D02*
X779600D01*
G01X830400Y3190170D02*
Y3260020D01*
G01X779600Y3190170D02*
X830400D01*
G01X969600Y3260020D02*
Y3190170D01*
G01X1020400Y3260020D02*
X969600D01*
G01X1020400Y3190170D02*
Y3260020D01*
G01X969600Y3190170D02*
X1020400D01*
G01Y2939980D02*
Y3009830D01*
G01X969600Y2939980D02*
X1020400D01*
G01X969600Y3009830D02*
Y2939980D01*
G01X1020400Y3009830D02*
X969600D01*
G01X925400Y2939980D02*
Y3009830D01*
G01X874600Y2939980D02*
X925400D01*
G01X874600Y3009830D02*
Y2939980D01*
G01X925400Y3009830D02*
X874600D01*
G01X830400Y2939980D02*
Y3009830D01*
G01X779600Y2939980D02*
X830400D01*
G01X779600Y3009830D02*
Y2939980D01*
G01X830400Y3009830D02*
X779600D01*
G01X745060Y3069520D02*
G03Y3130480I0J30480D01*
G01Y3009830D02*
X1054940D01*
G01X745060Y3190170D02*
Y3009830D01*
G01X1054940Y3190170D02*
X745060D01*
G01X1054940Y3009830D02*
Y3190170D01*
G01X422250Y9505000D02*
Y9759000D01*
X501620D01*
X527020Y9746290D01*
X542900Y9729370D01*
X549250Y9695500D01*
X542900Y9661630D01*
X523850Y9640470D01*
X501620Y9627760D01*
X422250D01*
G01X501620D02*
X549250Y9505000D01*
G01X803250D02*
X676250D01*
Y9759000D01*
X803250D01*
G01X752450Y9636240D02*
X676250D01*
G01X914370Y9759000D02*
X993750Y9505000D01*
X1073130Y9759000D01*
G01X1209650D02*
X1285840D01*
G01X1247750D02*
Y9505000D01*
G01X1209650D02*
X1285840D01*
G01X1435070Y9538860D02*
X1460480Y9517700D01*
X1489050Y9505000D01*
X1514450D01*
X1539850Y9517700D01*
X1558900Y9538860D01*
X1568430Y9568500D01*
X1562080Y9598130D01*
X1546200Y9623530D01*
X1517620Y9640470D01*
X1479530Y9648930D01*
X1457300Y9665860D01*
X1447770Y9695500D01*
X1454130Y9725130D01*
X1470000Y9746290D01*
X1492220Y9759000D01*
X1514450D01*
X1536680Y9750540D01*
X1555730Y9729370D01*
G01X1717650Y9759000D02*
X1793840D01*
G01X1755750D02*
Y9505000D01*
G01X1717650D02*
X1793840D01*
G01X2009750D02*
X1984350Y9509230D01*
X1962130Y9526160D01*
X1943070Y9551560D01*
X1930370Y9581200D01*
X1924020Y9615070D01*
Y9648930D01*
X1930370Y9682800D01*
X1943070Y9712440D01*
X1962130Y9737830D01*
X1984350Y9754770D01*
X2009750Y9759000D01*
X2035150Y9754770D01*
X2057370Y9737830D01*
X2076430Y9712440D01*
X2089130Y9682800D01*
X2095480Y9648930D01*
Y9615070D01*
X2089130Y9581200D01*
X2076430Y9551560D01*
X2057370Y9526160D01*
X2035150Y9509230D01*
X2009750Y9505000D01*
G01X2190730D02*
Y9759000D01*
X2336770Y9505000D01*
Y9759000D01*
G01X2451070Y9538860D02*
X2476480Y9517700D01*
X2505050Y9505000D01*
X2530450D01*
X2555850Y9517700D01*
X2574900Y9538860D01*
X2584430Y9568500D01*
X2578080Y9598130D01*
X2562200Y9623530D01*
X2533620Y9640470D01*
X2495530Y9648930D01*
X2473300Y9665860D01*
X2463770Y9695500D01*
X2470130Y9725130D01*
X2486000Y9746290D01*
X2508220Y9759000D01*
X2530450D01*
X2552680Y9750540D01*
X2571730Y9729370D01*
G01X1622400Y-15577500D02*
Y-15323500D01*
X1685900D01*
X1711300Y-15336210D01*
X1730350Y-15353130D01*
X1746230Y-15378530D01*
X1758930Y-15408170D01*
X1762100Y-15450500D01*
X1758930Y-15492840D01*
X1746230Y-15522470D01*
X1730350Y-15547870D01*
X1711300Y-15564800D01*
X1685900Y-15577500D01*
X1622400D01*
G01X1851000Y-15323500D02*
X1895450Y-15577500D01*
X1946250Y-15323500D01*
X1997050Y-15577500D01*
X2041500Y-15323500D01*
G01X2219300Y-15450500D02*
X2282800D01*
Y-15526700D01*
X2263750Y-15552110D01*
X2241520Y-15569040D01*
X2209780Y-15577500D01*
X2178030Y-15569040D01*
X2155800Y-15552110D01*
X2136750Y-15526700D01*
X2124050Y-15497070D01*
X2117700Y-15463200D01*
Y-15433570D01*
X2124050Y-15408170D01*
X2136750Y-15378530D01*
X2155800Y-15353130D01*
X2174850Y-15336210D01*
X2200250Y-15323500D01*
X2222470D01*
X2247870Y-15331960D01*
X2266930Y-15348900D01*
G01X2635230Y-15577500D02*
Y-15323500D01*
X2781270Y-15577500D01*
Y-15323500D01*
G01X2962250Y-15577500D02*
X2936850Y-15573270D01*
X2914630Y-15556340D01*
X2895570Y-15530940D01*
X2882870Y-15501300D01*
X2876520Y-15467430D01*
Y-15433570D01*
X2882870Y-15399700D01*
X2895570Y-15370060D01*
X2914630Y-15344670D01*
X2936850Y-15327730D01*
X2962250Y-15323500D01*
X2987650Y-15327730D01*
X3009870Y-15344670D01*
X3028930Y-15370060D01*
X3041630Y-15399700D01*
X3047980Y-15433570D01*
Y-15467430D01*
X3041630Y-15501300D01*
X3028930Y-15530940D01*
X3009870Y-15556340D01*
X2987650Y-15573270D01*
X2962250Y-15577500D01*
G01X1343000Y-16212500D02*
Y-15196500D01*
G01X1450000Y1150000D02*
X1750000D01*
Y2450000D01*
X1450000D01*
Y1150000D01*
G01X1152730Y1486030D02*
Y1513970D01*
G01Y1436030D02*
Y1463970D01*
G01Y1386030D02*
Y1413970D01*
G01Y1336030D02*
Y1363970D01*
G01Y1286030D02*
Y1313970D01*
G01X1430480Y2644600D02*
X1370490D01*
Y2674600D01*
X1430480D01*
Y2644600D01*
G01Y2725880D02*
X1370490D01*
Y2755880D01*
X1430480D01*
Y2725880D01*
G01X1330480Y3144600D02*
X1270490D01*
Y3174600D01*
X1330480D01*
Y3144600D01*
G01Y3225880D02*
X1270490D01*
Y3255880D01*
X1330480D01*
Y3225880D01*
G01X1530480Y3144600D02*
X1470490D01*
Y3174600D01*
X1530480D01*
Y3144600D01*
G01Y3225880D02*
X1470490D01*
Y3255880D01*
X1530480D01*
Y3225880D01*
G01X3375000Y-16974500D02*
Y-16212500D01*
X7693000D01*
G01X2803500Y7727000D02*
Y6965000D01*
G01Y7473000D02*
Y8489000D01*
G01D02*
Y9251000D01*
G01X3657570Y-16559640D02*
X3682980Y-16580800D01*
X3711550Y-16593500D01*
X3736950D01*
X3762350Y-16580800D01*
X3781400Y-16559640D01*
X3790930Y-16530000D01*
X3784580Y-16500370D01*
X3768700Y-16474970D01*
X3740120Y-16458030D01*
X3702030Y-16449570D01*
X3679800Y-16432640D01*
X3670270Y-16403000D01*
X3676630Y-16373370D01*
X3692500Y-16352210D01*
X3714720Y-16339500D01*
X3736950D01*
X3759180Y-16347960D01*
X3778230Y-16369130D01*
G01X3911570Y-16593500D02*
Y-16339500D01*
G01X4044930D02*
Y-16593500D01*
G01Y-16466500D02*
X3911570D01*
G01X4295750Y-16593500D02*
X4168750D01*
Y-16339500D01*
X4295750D01*
G01X4244950Y-16462260D02*
X4168750D01*
G01X4549750Y-16593500D02*
X4422750D01*
Y-16339500D01*
X4549750D01*
G01X4498950Y-16462260D02*
X4422750D01*
G01X4740250Y-16339500D02*
Y-16593500D01*
G01X4667230Y-16339500D02*
X4813270D01*
G01X3463900Y8743000D02*
Y8997000D01*
X3527400D01*
X3552800Y8984290D01*
X3571850Y8967370D01*
X3587730Y8941970D01*
X3600430Y8912330D01*
X3603600Y8870000D01*
X3600430Y8827660D01*
X3587730Y8798030D01*
X3571850Y8772630D01*
X3552800Y8755700D01*
X3527400Y8743000D01*
X3463900D01*
G01X3708370D02*
X3787750Y8997000D01*
X3867130Y8743000D01*
G01X3838550Y8831900D02*
X3736950D01*
G01X4041750Y8997000D02*
Y8743000D01*
G01X3968730Y8997000D02*
X4114770D01*
G01X4359250Y8743000D02*
X4232250D01*
Y8997000D01*
X4359250D01*
G01X4308450Y8874240D02*
X4232250D01*
G01X5089500Y7727000D02*
Y6965000D01*
G01Y7727000D02*
Y8489000D01*
G01X5359370Y8743000D02*
X5438750Y8997000D01*
X5518130Y8743000D01*
G01X5489550Y8831900D02*
X5387950D01*
G01X5629250Y8743000D02*
Y8997000D01*
X5705450D01*
X5730850Y8984290D01*
X5749900Y8954670D01*
X5756250Y8920800D01*
X5749900Y8886930D01*
X5734020Y8861530D01*
X5705450Y8848830D01*
X5629250D01*
G01X5883250Y8743000D02*
Y8997000D01*
X5959450D01*
X5984850Y8984290D01*
X6003900Y8954670D01*
X6010250Y8920800D01*
X6003900Y8886930D01*
X5988020Y8861530D01*
X5959450Y8848830D01*
X5883250D01*
G01X6137250Y8743000D02*
Y8997000D01*
X6216620D01*
X6242020Y8984290D01*
X6257900Y8967370D01*
X6264250Y8933500D01*
X6257900Y8899630D01*
X6238850Y8878470D01*
X6216620Y8865760D01*
X6137250D01*
G01X6216620D02*
X6264250Y8743000D01*
G01X6454750D02*
X6429350Y8747230D01*
X6407130Y8764160D01*
X6388070Y8789560D01*
X6375370Y8819200D01*
X6369020Y8853070D01*
Y8886930D01*
X6375370Y8920800D01*
X6388070Y8950440D01*
X6407130Y8975830D01*
X6429350Y8992770D01*
X6454750Y8997000D01*
X6480150Y8992770D01*
X6502370Y8975830D01*
X6521430Y8950440D01*
X6534130Y8920800D01*
X6540480Y8886930D01*
Y8853070D01*
X6534130Y8819200D01*
X6521430Y8789560D01*
X6502370Y8764160D01*
X6480150Y8747230D01*
X6454750Y8743000D01*
G01X6629370Y8997000D02*
X6708750Y8743000D01*
X6788130Y8997000D01*
G01X7026250Y8743000D02*
X6899250D01*
Y8997000D01*
X7026250D01*
G01X6975450Y8874240D02*
X6899250D01*
G01X7146900Y8743000D02*
Y8997000D01*
X7210400D01*
X7235800Y8984290D01*
X7254850Y8967370D01*
X7270730Y8941970D01*
X7283430Y8912330D01*
X7286600Y8870000D01*
X7283430Y8827660D01*
X7270730Y8798030D01*
X7254850Y8772630D01*
X7235800Y8755700D01*
X7210400Y8743000D01*
X7146900D01*
G01X5089500Y8489000D02*
Y9251000D01*
G01X7629500Y9886000D02*
Y6838000D01*
M02*
