G04 ================== begin FILE IDENTIFICATION RECORD ==================*
G04 Layout Name:  msd_foot_ext1.brd*
G04 Film Name:    ASSEMBLY*
G04 File Format:  Gerber RS274X*
G04 File Origin:  Cadence Allegro 17.2-S071*
G04 Origin Date:  Wed Nov 25 01:55:09 2020*
G04 *
G04 Layer:  REF DES/ASSEMBLY_TOP*
G04 Layer:  PIN/TOP*
G04 Layer:  PACKAGE GEOMETRY/ASSEMBLY_TOP*
G04 Layer:  DRAWING FORMAT/OUTLINE*
G04 Layer:  DRAWING FORMAT/TITLE_BLOCK*
G04 Layer:  DRAWING FORMAT/TITLE_DATA*
G04 Layer:  DRAWING FORMAT/REVISION_BLOCK*
G04 Layer:  DRAWING FORMAT/REVISION_DATA*
G04 Layer:  BOARD GEOMETRY/DESIGN_OUTLINE*
G04 *
G04 Offset:    (0.00 0.00)*
G04 Mirror:    No*
G04 Mode:      Positive*
G04 Rotation:  0*
G04 FullContactRelief:  No*
G04 UndefLineWidth:     0.13*
G04 ================== end FILE IDENTIFICATION RECORD ====================*
%FSLAX25Y25*MOIN*%
%IR0*IPPOS*OFA0.00000B0.00000*MIA0B0*SFA1.00000B1.00000*%
%ADD10R,.07874X.07874*%
%ADD16R,.018X.06*%
%ADD12R,.06X.018*%
%ADD15R,.05228X.011*%
%ADD11R,.03543X.02756*%
%ADD14R,.02756X.03543*%
%ADD13R,.09843X.03937*%
%ADD17C,.00013*%
%ADD18C,.006*%
G75*
%LPD*%
G75*
G54D10*
X4410Y4419D03*
Y21741D03*
X25760Y4419D03*
Y21741D03*
X47830Y4419D03*
Y21741D03*
X70600Y4419D03*
Y21741D03*
G54D11*
X1980Y29341D03*
Y34459D03*
X28190Y29341D03*
X6830Y29331D03*
X23340Y29341D03*
X28190Y34459D03*
X6830Y34449D03*
X23340Y34459D03*
X27750Y94101D03*
X31610Y85421D03*
Y90539D03*
X22930Y94101D03*
X27750Y99219D03*
X22930D03*
X22890Y109661D03*
Y114779D03*
X50250Y29331D03*
X36700Y30089D03*
Y24971D03*
X36710Y18449D03*
Y13331D03*
X45400Y29341D03*
X50250Y34449D03*
X36920Y60389D03*
Y55271D03*
X45400Y34459D03*
X39360Y90419D03*
Y85301D03*
X44140Y90439D03*
Y85321D03*
X55000Y85981D03*
Y91099D03*
X73030Y29341D03*
X68150D03*
X73030Y34459D03*
X67880Y58441D03*
Y63559D03*
X68150Y34459D03*
G54D12*
X6950Y42381D03*
Y44940D03*
Y47500D03*
Y50059D03*
X23050D03*
Y47500D03*
Y44940D03*
Y42381D03*
X51810Y42941D03*
Y45500D03*
Y48060D03*
Y50619D03*
X67910D03*
Y48060D03*
Y45500D03*
Y42941D03*
G54D13*
X6020Y67401D03*
Y75275D03*
Y83149D03*
Y91023D03*
Y98897D03*
Y106771D03*
Y114645D03*
Y122519D03*
X69010Y75328D03*
Y83202D03*
Y91076D03*
Y98950D03*
Y106824D03*
Y114698D03*
Y122572D03*
G54D14*
X31841Y50040D03*
X34281Y122800D03*
X21589Y104420D03*
X16471D03*
X36959Y50040D03*
X39399Y122800D03*
G54D15*
X28156Y68393D03*
Y70362D03*
Y72330D03*
Y74298D03*
Y76267D03*
X45584D03*
Y74298D03*
Y72330D03*
Y70362D03*
Y68393D03*
G54D16*
X34271Y115350D03*
Y99250D03*
X36830Y115350D03*
X39390D03*
X41949D03*
Y99250D03*
X39390D03*
X36830D03*
G54D17*
G01X-143940Y-545120D02*
Y583880D01*
X668060D01*
Y-545120D01*
X-143940D01*
G01X-128940Y-512120D02*
Y555880D01*
X650060D01*
Y-512120D01*
X-128940D01*
G01X-127940Y-510620D02*
Y-330620D01*
X652060D01*
G01X-119743Y-453120D02*
Y-448120D01*
X-117337D01*
G01X-118223Y-450537D02*
X-119743D01*
G01X-114707Y-453120D02*
Y-448120D01*
X-113123D01*
X-112617Y-448370D01*
X-112300Y-448703D01*
X-112173Y-449370D01*
X-112300Y-450037D01*
X-112680Y-450453D01*
X-113123Y-450703D01*
X-114707D01*
G01X-113123D02*
X-112173Y-453120D01*
G01X-109923D02*
X-108340Y-448120D01*
X-106757Y-453120D01*
G01X-107327Y-451370D02*
X-109353D01*
G01X-101847Y-448537D02*
X-102227Y-448287D01*
X-102670Y-448120D01*
X-103177D01*
X-103747Y-448370D01*
X-104190Y-448787D01*
X-104507Y-449287D01*
X-104760Y-450120D01*
X-104823Y-450870D01*
X-104697Y-451620D01*
X-104507Y-452120D01*
X-104127Y-452620D01*
X-103683Y-452953D01*
X-103240Y-453120D01*
X-102797D01*
X-102353Y-452953D01*
X-101973Y-452703D01*
X-101657Y-452370D01*
G01X-98140Y-448120D02*
Y-453120D01*
G01X-99597Y-448120D02*
X-96683D01*
G01X-93800D02*
X-92280D01*
G01X-93040D02*
Y-453120D01*
G01X-93800D02*
X-92280D01*
G01X-87940D02*
X-88447Y-453037D01*
X-88890Y-452703D01*
X-89270Y-452203D01*
X-89523Y-451620D01*
X-89650Y-450953D01*
Y-450287D01*
X-89523Y-449620D01*
X-89270Y-449037D01*
X-88890Y-448537D01*
X-88447Y-448203D01*
X-87940Y-448120D01*
X-87433Y-448203D01*
X-86990Y-448537D01*
X-86610Y-449037D01*
X-86357Y-449620D01*
X-86230Y-450287D01*
Y-450953D01*
X-86357Y-451620D01*
X-86610Y-452203D01*
X-86990Y-452703D01*
X-87433Y-453037D01*
X-87940Y-453120D01*
G01X-84297D02*
Y-448120D01*
X-81383Y-453120D01*
Y-448120D01*
G01X-79070Y-452453D02*
X-78563Y-452870D01*
X-77993Y-453120D01*
X-77487D01*
X-76980Y-452870D01*
X-76600Y-452453D01*
X-76410Y-451870D01*
X-76537Y-451287D01*
X-76853Y-450787D01*
X-77423Y-450453D01*
X-78183Y-450287D01*
X-78627Y-449953D01*
X-78817Y-449370D01*
X-78690Y-448787D01*
X-78373Y-448370D01*
X-77930Y-448120D01*
X-77487D01*
X-77043Y-448287D01*
X-76663Y-448703D01*
G01X-68237Y-451453D02*
X-66717D01*
G01X-67540Y-450370D02*
Y-452537D01*
G01X-120123Y-438120D02*
X-118540Y-433120D01*
X-116957Y-438120D01*
G01X-117527Y-436370D02*
X-119553D01*
G01X-114897Y-438120D02*
Y-433120D01*
X-111983Y-438120D01*
Y-433120D01*
G01X-107960Y-435620D02*
X-106693D01*
Y-437120D01*
X-107073Y-437620D01*
X-107517Y-437953D01*
X-108150Y-438120D01*
X-108783Y-437953D01*
X-109227Y-437620D01*
X-109607Y-437120D01*
X-109860Y-436537D01*
X-109987Y-435870D01*
Y-435287D01*
X-109860Y-434787D01*
X-109607Y-434203D01*
X-109227Y-433703D01*
X-108847Y-433370D01*
X-108340Y-433120D01*
X-107897D01*
X-107390Y-433287D01*
X-107010Y-433620D01*
G01X-104507Y-433120D02*
Y-438120D01*
X-101973D01*
G01X-96873D02*
X-99407D01*
Y-433120D01*
X-96873D01*
G01X-97887Y-435537D02*
X-99407D01*
G01X-94370Y-437453D02*
X-93863Y-437870D01*
X-93293Y-438120D01*
X-92787D01*
X-92280Y-437870D01*
X-91900Y-437453D01*
X-91710Y-436870D01*
X-91837Y-436287D01*
X-92153Y-435787D01*
X-92723Y-435453D01*
X-93483Y-435287D01*
X-93927Y-434953D01*
X-94117Y-434370D01*
X-93990Y-433787D01*
X-93673Y-433370D01*
X-93230Y-433120D01*
X-92787D01*
X-92343Y-433287D01*
X-91963Y-433703D01*
G01X-83537Y-436453D02*
X-82017D01*
G01X-82840Y-435370D02*
Y-437537D01*
G01X-119933Y-422120D02*
X-119553Y-422703D01*
X-119047Y-423037D01*
X-118477Y-423120D01*
X-117970Y-423037D01*
X-117463Y-422620D01*
X-117147Y-422120D01*
X-117083Y-421620D01*
X-117210Y-421037D01*
X-117653Y-420620D01*
X-118097Y-420453D01*
X-118667D01*
G01X-118097D02*
X-117717Y-420203D01*
X-117400Y-419787D01*
X-117273Y-419287D01*
X-117400Y-418787D01*
X-117717Y-418370D01*
X-118287Y-418120D01*
X-118857Y-418203D01*
X-119427Y-418537D01*
G01X-109607Y-423120D02*
Y-418120D01*
X-108087D01*
X-107580Y-418370D01*
X-107200Y-418953D01*
X-107073Y-419620D01*
X-107200Y-420287D01*
X-107517Y-420787D01*
X-108087Y-421037D01*
X-109607D01*
G01X-104507Y-418120D02*
Y-423120D01*
X-101973D01*
G01X-94433D02*
Y-418120D01*
X-93167D01*
X-92660Y-418370D01*
X-92280Y-418703D01*
X-91963Y-419203D01*
X-91710Y-419787D01*
X-91647Y-420620D01*
X-91710Y-421453D01*
X-91963Y-422037D01*
X-92280Y-422537D01*
X-92660Y-422870D01*
X-93167Y-423120D01*
X-94433D01*
G01X-86673D02*
X-89207D01*
Y-418120D01*
X-86673D01*
G01X-87687Y-420537D02*
X-89207D01*
G01X-81447Y-418537D02*
X-81827Y-418287D01*
X-82270Y-418120D01*
X-82777D01*
X-83347Y-418370D01*
X-83790Y-418787D01*
X-84107Y-419287D01*
X-84360Y-420120D01*
X-84423Y-420870D01*
X-84297Y-421620D01*
X-84107Y-422120D01*
X-83727Y-422620D01*
X-83283Y-422953D01*
X-82840Y-423120D01*
X-82397D01*
X-81953Y-422953D01*
X-81573Y-422703D01*
X-81257Y-422370D01*
G01X-78500Y-418120D02*
X-76980D01*
G01X-77740D02*
Y-423120D01*
G01X-78500D02*
X-76980D01*
G01X-74287D02*
Y-418120D01*
X-72640Y-422287D01*
X-70993Y-418120D01*
Y-423120D01*
G01X-69123D02*
X-67540Y-418120D01*
X-65957Y-423120D01*
G01X-66527Y-421370D02*
X-68553D01*
G01X-63707Y-418120D02*
Y-423120D01*
X-61173D01*
G01X-58670Y-422453D02*
X-58163Y-422870D01*
X-57593Y-423120D01*
X-57087D01*
X-56580Y-422870D01*
X-56200Y-422453D01*
X-56010Y-421870D01*
X-56137Y-421287D01*
X-56453Y-420787D01*
X-57023Y-420453D01*
X-57783Y-420287D01*
X-58227Y-419953D01*
X-58417Y-419370D01*
X-58290Y-418787D01*
X-57973Y-418370D01*
X-57530Y-418120D01*
X-57087D01*
X-56643Y-418287D01*
X-56263Y-418703D01*
G01X-47837Y-421453D02*
X-46317D01*
G01X-47140Y-420370D02*
Y-422537D01*
G01X-119743Y-403953D02*
X-119363Y-403453D01*
X-118920Y-403203D01*
X-118413Y-403120D01*
X-117780Y-403287D01*
X-117337Y-403703D01*
X-117210Y-404203D01*
X-117273Y-404703D01*
X-117527Y-405120D01*
X-118793Y-405953D01*
X-119363Y-406537D01*
X-119743Y-407370D01*
X-119870Y-408120D01*
X-117210D01*
G01X-109607D02*
Y-403120D01*
X-108087D01*
X-107580Y-403370D01*
X-107200Y-403953D01*
X-107073Y-404620D01*
X-107200Y-405287D01*
X-107517Y-405787D01*
X-108087Y-406037D01*
X-109607D01*
G01X-104507Y-403120D02*
Y-408120D01*
X-101973D01*
G01X-94433D02*
Y-403120D01*
X-93167D01*
X-92660Y-403370D01*
X-92280Y-403703D01*
X-91963Y-404203D01*
X-91710Y-404787D01*
X-91647Y-405620D01*
X-91710Y-406453D01*
X-91963Y-407037D01*
X-92280Y-407537D01*
X-92660Y-407870D01*
X-93167Y-408120D01*
X-94433D01*
G01X-86673D02*
X-89207D01*
Y-403120D01*
X-86673D01*
G01X-87687Y-405537D02*
X-89207D01*
G01X-81447Y-403537D02*
X-81827Y-403287D01*
X-82270Y-403120D01*
X-82777D01*
X-83347Y-403370D01*
X-83790Y-403787D01*
X-84107Y-404287D01*
X-84360Y-405120D01*
X-84423Y-405870D01*
X-84297Y-406620D01*
X-84107Y-407120D01*
X-83727Y-407620D01*
X-83283Y-407953D01*
X-82840Y-408120D01*
X-82397D01*
X-81953Y-407953D01*
X-81573Y-407703D01*
X-81257Y-407370D01*
G01X-78500Y-403120D02*
X-76980D01*
G01X-77740D02*
Y-408120D01*
G01X-78500D02*
X-76980D01*
G01X-74287D02*
Y-403120D01*
X-72640Y-407287D01*
X-70993Y-403120D01*
Y-408120D01*
G01X-69123D02*
X-67540Y-403120D01*
X-65957Y-408120D01*
G01X-66527Y-406370D02*
X-68553D01*
G01X-63707Y-403120D02*
Y-408120D01*
X-61173D01*
G01X-58670Y-407453D02*
X-58163Y-407870D01*
X-57593Y-408120D01*
X-57087D01*
X-56580Y-407870D01*
X-56200Y-407453D01*
X-56010Y-406870D01*
X-56137Y-406287D01*
X-56453Y-405787D01*
X-57023Y-405453D01*
X-57783Y-405287D01*
X-58227Y-404953D01*
X-58417Y-404370D01*
X-58290Y-403787D01*
X-57973Y-403370D01*
X-57530Y-403120D01*
X-57087D01*
X-56643Y-403287D01*
X-56263Y-403703D01*
G01X-47837Y-406453D02*
X-46317D01*
G01X-47140Y-405370D02*
Y-407537D01*
G01X-118540Y-388120D02*
Y-393120D01*
G01X-119997Y-388120D02*
X-117083D01*
G01X-113440Y-393120D02*
X-113947Y-393037D01*
X-114390Y-392703D01*
X-114770Y-392203D01*
X-115023Y-391620D01*
X-115150Y-390953D01*
Y-390287D01*
X-115023Y-389620D01*
X-114770Y-389037D01*
X-114390Y-388537D01*
X-113947Y-388203D01*
X-113440Y-388120D01*
X-112933Y-388203D01*
X-112490Y-388537D01*
X-112110Y-389037D01*
X-111857Y-389620D01*
X-111730Y-390287D01*
Y-390953D01*
X-111857Y-391620D01*
X-112110Y-392203D01*
X-112490Y-392703D01*
X-112933Y-393037D01*
X-113440Y-393120D01*
G01X-109607Y-388120D02*
Y-393120D01*
X-107073D01*
G01X-101973D02*
X-104507D01*
Y-388120D01*
X-101973D01*
G01X-102987Y-390537D02*
X-104507D01*
G01X-99407Y-393120D02*
Y-388120D01*
X-97823D01*
X-97317Y-388370D01*
X-97000Y-388703D01*
X-96873Y-389370D01*
X-97000Y-390037D01*
X-97380Y-390453D01*
X-97823Y-390703D01*
X-99407D01*
G01X-97823D02*
X-96873Y-393120D01*
G01X-94623D02*
X-93040Y-388120D01*
X-91457Y-393120D01*
G01X-92027Y-391370D02*
X-94053D01*
G01X-89397Y-393120D02*
Y-388120D01*
X-86483Y-393120D01*
Y-388120D01*
G01X-81447Y-388537D02*
X-81827Y-388287D01*
X-82270Y-388120D01*
X-82777D01*
X-83347Y-388370D01*
X-83790Y-388787D01*
X-84107Y-389287D01*
X-84360Y-390120D01*
X-84423Y-390870D01*
X-84297Y-391620D01*
X-84107Y-392120D01*
X-83727Y-392620D01*
X-83283Y-392953D01*
X-82840Y-393120D01*
X-82397D01*
X-81953Y-392953D01*
X-81573Y-392703D01*
X-81257Y-392370D01*
G01X-76473Y-393120D02*
X-79007D01*
Y-388120D01*
X-76473D01*
G01X-77487Y-390537D02*
X-79007D01*
G01X-73970Y-392453D02*
X-73463Y-392870D01*
X-72893Y-393120D01*
X-72387D01*
X-71880Y-392870D01*
X-71500Y-392453D01*
X-71310Y-391870D01*
X-71437Y-391287D01*
X-71753Y-390787D01*
X-72323Y-390453D01*
X-73083Y-390287D01*
X-73527Y-389953D01*
X-73717Y-389370D01*
X-73590Y-388787D01*
X-73273Y-388370D01*
X-72830Y-388120D01*
X-72387D01*
X-71943Y-388287D01*
X-71563Y-388703D01*
G01X-62440Y-393120D02*
X-62947Y-393037D01*
X-63390Y-392703D01*
X-63770Y-392203D01*
X-64023Y-391620D01*
X-64150Y-390953D01*
Y-390287D01*
X-64023Y-389620D01*
X-63770Y-389037D01*
X-63390Y-388537D01*
X-62947Y-388203D01*
X-62440Y-388120D01*
X-61933Y-388203D01*
X-61490Y-388537D01*
X-61110Y-389037D01*
X-60857Y-389620D01*
X-60730Y-390287D01*
Y-390953D01*
X-60857Y-391620D01*
X-61110Y-392203D01*
X-61490Y-392703D01*
X-61933Y-393037D01*
X-62440Y-393120D01*
G01X-58797D02*
Y-388120D01*
X-55883Y-393120D01*
Y-388120D01*
G01X-52240Y-393287D02*
X-52367Y-393203D01*
Y-393037D01*
X-52240Y-392953D01*
X-52113Y-393037D01*
Y-393203D01*
X-52240Y-393287D01*
G01Y-391037D02*
X-52367Y-390953D01*
Y-390787D01*
X-52240Y-390703D01*
X-52113Y-390787D01*
Y-390953D01*
X-52240Y-391037D01*
G01X-119933Y-375620D02*
Y-370620D01*
X-118667D01*
X-118160Y-370870D01*
X-117780Y-371203D01*
X-117463Y-371703D01*
X-117210Y-372287D01*
X-117147Y-373120D01*
X-117210Y-373953D01*
X-117463Y-374537D01*
X-117780Y-375037D01*
X-118160Y-375370D01*
X-118667Y-375620D01*
X-119933D01*
G01X-114200Y-370620D02*
X-112680D01*
G01X-113440D02*
Y-375620D01*
G01X-114200D02*
X-112680D01*
G01X-109987D02*
Y-370620D01*
X-108340Y-374787D01*
X-106693Y-370620D01*
Y-375620D01*
G01X-101973D02*
X-104507D01*
Y-370620D01*
X-101973D01*
G01X-102987Y-373037D02*
X-104507D01*
G01X-99597Y-375620D02*
Y-370620D01*
X-96683Y-375620D01*
Y-370620D01*
G01X-94370Y-374953D02*
X-93863Y-375370D01*
X-93293Y-375620D01*
X-92787D01*
X-92280Y-375370D01*
X-91900Y-374953D01*
X-91710Y-374370D01*
X-91837Y-373787D01*
X-92153Y-373287D01*
X-92723Y-372953D01*
X-93483Y-372787D01*
X-93927Y-372453D01*
X-94117Y-371870D01*
X-93990Y-371287D01*
X-93673Y-370870D01*
X-93230Y-370620D01*
X-92787D01*
X-92343Y-370787D01*
X-91963Y-371203D01*
G01X-88700Y-370620D02*
X-87180D01*
G01X-87940D02*
Y-375620D01*
G01X-88700D02*
X-87180D01*
G01X-82840D02*
X-83347Y-375537D01*
X-83790Y-375203D01*
X-84170Y-374703D01*
X-84423Y-374120D01*
X-84550Y-373453D01*
Y-372787D01*
X-84423Y-372120D01*
X-84170Y-371537D01*
X-83790Y-371037D01*
X-83347Y-370703D01*
X-82840Y-370620D01*
X-82333Y-370703D01*
X-81890Y-371037D01*
X-81510Y-371537D01*
X-81257Y-372120D01*
X-81130Y-372787D01*
Y-373453D01*
X-81257Y-374120D01*
X-81510Y-374703D01*
X-81890Y-375203D01*
X-82333Y-375537D01*
X-82840Y-375620D01*
G01X-79197D02*
Y-370620D01*
X-76283Y-375620D01*
Y-370620D01*
G01X-73970Y-374953D02*
X-73463Y-375370D01*
X-72893Y-375620D01*
X-72387D01*
X-71880Y-375370D01*
X-71500Y-374953D01*
X-71310Y-374370D01*
X-71437Y-373787D01*
X-71753Y-373287D01*
X-72323Y-372953D01*
X-73083Y-372787D01*
X-73527Y-372453D01*
X-73717Y-371870D01*
X-73590Y-371287D01*
X-73273Y-370870D01*
X-72830Y-370620D01*
X-72387D01*
X-71943Y-370787D01*
X-71563Y-371203D01*
G01X-64023Y-375620D02*
X-62440Y-370620D01*
X-60857Y-375620D01*
G01X-61427Y-373870D02*
X-63453D01*
G01X-58607Y-375620D02*
Y-370620D01*
X-57023D01*
X-56517Y-370870D01*
X-56200Y-371203D01*
X-56073Y-371870D01*
X-56200Y-372537D01*
X-56580Y-372953D01*
X-57023Y-373203D01*
X-58607D01*
G01X-57023D02*
X-56073Y-375620D01*
G01X-50973D02*
X-53507D01*
Y-370620D01*
X-50973D01*
G01X-51987Y-373037D02*
X-53507D01*
G01X-42800Y-370620D02*
X-41280D01*
G01X-42040D02*
Y-375620D01*
G01X-42800D02*
X-41280D01*
G01X-38397D02*
Y-370620D01*
X-35483Y-375620D01*
Y-370620D01*
G01X-27500D02*
X-25980D01*
G01X-26740D02*
Y-375620D01*
G01X-27500D02*
X-25980D01*
G01X-23097D02*
Y-370620D01*
X-20183Y-375620D01*
Y-370620D01*
G01X-15147Y-371037D02*
X-15527Y-370787D01*
X-15970Y-370620D01*
X-16477D01*
X-17047Y-370870D01*
X-17490Y-371287D01*
X-17807Y-371787D01*
X-18060Y-372620D01*
X-18123Y-373370D01*
X-17997Y-374120D01*
X-17807Y-374620D01*
X-17427Y-375120D01*
X-16983Y-375453D01*
X-16540Y-375620D01*
X-16097D01*
X-15653Y-375453D01*
X-15273Y-375203D01*
X-14957Y-374870D01*
G01X-12770Y-375620D02*
Y-370620D01*
G01X-10110D02*
Y-375620D01*
G01Y-373120D02*
X-12770D01*
G01X-5073Y-375620D02*
X-7607D01*
Y-370620D01*
X-5073D01*
G01X-6087Y-373037D02*
X-7607D01*
G01X-2570Y-374953D02*
X-2063Y-375370D01*
X-1493Y-375620D01*
X-987D01*
X-480Y-375370D01*
X-100Y-374953D01*
X90Y-374370D01*
X-37Y-373787D01*
X-353Y-373287D01*
X-923Y-372953D01*
X-1683Y-372787D01*
X-2127Y-372453D01*
X-2317Y-371870D01*
X-2190Y-371287D01*
X-1873Y-370870D01*
X-1430Y-370620D01*
X-987D01*
X-543Y-370787D01*
X-163Y-371203D01*
G01X-127940Y-360620D02*
X232060D01*
G01X-119933Y-343120D02*
Y-346703D01*
X-119680Y-347453D01*
X-119173Y-347953D01*
X-118540Y-348120D01*
X-117907Y-347953D01*
X-117400Y-347453D01*
X-117147Y-346703D01*
Y-343120D01*
G01X-114897Y-348120D02*
Y-343120D01*
X-111983Y-348120D01*
Y-343120D01*
G01X-109607D02*
Y-348120D01*
X-107073D01*
G01X-101973D02*
X-104507D01*
Y-343120D01*
X-101973D01*
G01X-102987Y-345537D02*
X-104507D01*
G01X-99470Y-347453D02*
X-98963Y-347870D01*
X-98393Y-348120D01*
X-97887D01*
X-97380Y-347870D01*
X-97000Y-347453D01*
X-96810Y-346870D01*
X-96937Y-346287D01*
X-97253Y-345787D01*
X-97823Y-345453D01*
X-98583Y-345287D01*
X-99027Y-344953D01*
X-99217Y-344370D01*
X-99090Y-343787D01*
X-98773Y-343370D01*
X-98330Y-343120D01*
X-97887D01*
X-97443Y-343287D01*
X-97063Y-343703D01*
G01X-94370Y-347453D02*
X-93863Y-347870D01*
X-93293Y-348120D01*
X-92787D01*
X-92280Y-347870D01*
X-91900Y-347453D01*
X-91710Y-346870D01*
X-91837Y-346287D01*
X-92153Y-345787D01*
X-92723Y-345453D01*
X-93483Y-345287D01*
X-93927Y-344953D01*
X-94117Y-344370D01*
X-93990Y-343787D01*
X-93673Y-343370D01*
X-93230Y-343120D01*
X-92787D01*
X-92343Y-343287D01*
X-91963Y-343703D01*
G01X-82840Y-348120D02*
X-83347Y-348037D01*
X-83790Y-347703D01*
X-84170Y-347203D01*
X-84423Y-346620D01*
X-84550Y-345953D01*
Y-345287D01*
X-84423Y-344620D01*
X-84170Y-344037D01*
X-83790Y-343537D01*
X-83347Y-343203D01*
X-82840Y-343120D01*
X-82333Y-343203D01*
X-81890Y-343537D01*
X-81510Y-344037D01*
X-81257Y-344620D01*
X-81130Y-345287D01*
Y-345953D01*
X-81257Y-346620D01*
X-81510Y-347203D01*
X-81890Y-347703D01*
X-82333Y-348037D01*
X-82840Y-348120D01*
G01X-77740Y-343120D02*
Y-348120D01*
G01X-79197Y-343120D02*
X-76283D01*
G01X-73970Y-348120D02*
Y-343120D01*
G01X-71310D02*
Y-348120D01*
G01Y-345620D02*
X-73970D01*
G01X-66273Y-348120D02*
X-68807D01*
Y-343120D01*
X-66273D01*
G01X-67287Y-345537D02*
X-68807D01*
G01X-63707Y-348120D02*
Y-343120D01*
X-62123D01*
X-61617Y-343370D01*
X-61300Y-343703D01*
X-61173Y-344370D01*
X-61300Y-345037D01*
X-61680Y-345453D01*
X-62123Y-345703D01*
X-63707D01*
G01X-62123D02*
X-61173Y-348120D01*
G01X-59240Y-343120D02*
X-58353Y-348120D01*
X-57340Y-343120D01*
X-56327Y-348120D01*
X-55440Y-343120D01*
G01X-53000D02*
X-51480D01*
G01X-52240D02*
Y-348120D01*
G01X-53000D02*
X-51480D01*
G01X-48470Y-347453D02*
X-47963Y-347870D01*
X-47393Y-348120D01*
X-46887D01*
X-46380Y-347870D01*
X-46000Y-347453D01*
X-45810Y-346870D01*
X-45937Y-346287D01*
X-46253Y-345787D01*
X-46823Y-345453D01*
X-47583Y-345287D01*
X-48027Y-344953D01*
X-48217Y-344370D01*
X-48090Y-343787D01*
X-47773Y-343370D01*
X-47330Y-343120D01*
X-46887D01*
X-46443Y-343287D01*
X-46063Y-343703D01*
G01X-40773Y-348120D02*
X-43307D01*
Y-343120D01*
X-40773D01*
G01X-41787Y-345537D02*
X-43307D01*
G01X-33170Y-347453D02*
X-32663Y-347870D01*
X-32093Y-348120D01*
X-31587D01*
X-31080Y-347870D01*
X-30700Y-347453D01*
X-30510Y-346870D01*
X-30637Y-346287D01*
X-30953Y-345787D01*
X-31523Y-345453D01*
X-32283Y-345287D01*
X-32727Y-344953D01*
X-32917Y-344370D01*
X-32790Y-343787D01*
X-32473Y-343370D01*
X-32030Y-343120D01*
X-31587D01*
X-31143Y-343287D01*
X-30763Y-343703D01*
G01X-28007Y-348120D02*
Y-343120D01*
X-26487D01*
X-25980Y-343370D01*
X-25600Y-343953D01*
X-25473Y-344620D01*
X-25600Y-345287D01*
X-25917Y-345787D01*
X-26487Y-346037D01*
X-28007D01*
G01X-20373Y-348120D02*
X-22907D01*
Y-343120D01*
X-20373D01*
G01X-21387Y-345537D02*
X-22907D01*
G01X-15147Y-343537D02*
X-15527Y-343287D01*
X-15970Y-343120D01*
X-16477D01*
X-17047Y-343370D01*
X-17490Y-343787D01*
X-17807Y-344287D01*
X-18060Y-345120D01*
X-18123Y-345870D01*
X-17997Y-346620D01*
X-17807Y-347120D01*
X-17427Y-347620D01*
X-16983Y-347953D01*
X-16540Y-348120D01*
X-16097D01*
X-15653Y-347953D01*
X-15273Y-347703D01*
X-14957Y-347370D01*
G01X-12200Y-343120D02*
X-10680D01*
G01X-11440D02*
Y-348120D01*
G01X-12200D02*
X-10680D01*
G01X-7543D02*
Y-343120D01*
X-5137D01*
G01X-6023Y-345537D02*
X-7543D01*
G01X-2000Y-343120D02*
X-480D01*
G01X-1240D02*
Y-348120D01*
G01X-2000D02*
X-480D01*
G01X5127D02*
X2593D01*
Y-343120D01*
X5127D01*
G01X4113Y-345537D02*
X2593D01*
G01X7567Y-348120D02*
Y-343120D01*
X8833D01*
X9340Y-343370D01*
X9720Y-343703D01*
X10037Y-344203D01*
X10290Y-344787D01*
X10353Y-345620D01*
X10290Y-346453D01*
X10037Y-347037D01*
X9720Y-347537D01*
X9340Y-347870D01*
X8833Y-348120D01*
X7567D01*
G01X0Y0D02*
Y125000D01*
X75000D01*
Y0D01*
X0D01*
G01X8347Y9143D02*
Y17017D01*
X473D01*
Y9143D01*
X8347D01*
G01X3180Y29719D02*
X818D01*
Y30900D01*
X3180D01*
Y29719D01*
G01Y32919D02*
X818D01*
Y34100D01*
X3180D01*
Y32919D01*
G01X114Y65432D02*
X11926D01*
Y124488D01*
X114D01*
Y65432D01*
G01X22060Y-330620D02*
Y-510620D01*
G01Y-475620D02*
X232060D01*
G01X22060Y-450620D02*
X232060D01*
G01X22060Y-420620D02*
X232060D01*
G01X22060Y-390620D02*
X232060D01*
G01X29697Y9143D02*
Y17017D01*
X21823D01*
Y9143D01*
X29697D01*
G01X29390Y29719D02*
X27028D01*
Y30900D01*
X29390D01*
Y29719D01*
G01X8030Y29709D02*
X5668D01*
Y30890D01*
X8030D01*
Y29709D01*
G01X24540Y29719D02*
X22178D01*
Y30900D01*
X24540D01*
Y29719D01*
G01X13800Y52120D02*
G03X16200I1200J0D01*
G01X9100D02*
Y40320D01*
G01X20900Y52120D02*
X9100D01*
G01X20900Y40320D02*
Y52120D01*
G01X9100Y40320D02*
X20900D01*
G01X24650Y50859D02*
X20900D01*
G01X24650Y49259D02*
Y50859D01*
G01X20900Y49259D02*
X24650D01*
G01X20900Y50859D02*
Y49259D01*
G01X24650Y48300D02*
X20900D01*
G01X24650Y46700D02*
Y48300D01*
G01X20900Y46700D02*
X24650D01*
G01X20900Y48300D02*
Y46700D01*
G01X24650Y45740D02*
X20900D01*
G01X24650Y44140D02*
Y45740D01*
G01X20900Y44140D02*
X24650D01*
G01X20900Y45740D02*
Y44140D01*
G01X24650Y43181D02*
X20900D01*
G01X24650Y41581D02*
Y43181D01*
G01X20900Y41581D02*
X24650D01*
G01X20900Y43181D02*
Y41581D01*
G01X5350D02*
X9100D01*
G01X5350Y43181D02*
Y41581D01*
G01X9100Y43181D02*
X5350D01*
G01X9100Y41581D02*
Y43181D01*
G01X5350Y44140D02*
X9100D01*
G01X5350Y45740D02*
Y44140D01*
G01X9100Y45740D02*
X5350D01*
G01X9100Y44140D02*
Y45740D01*
G01X5350Y46700D02*
X9100D01*
G01X5350Y48300D02*
Y46700D01*
G01X9100Y48300D02*
X5350D01*
G01X9100Y46700D02*
Y48300D01*
G01X5350Y49259D02*
X9100D01*
G01X5350Y50859D02*
Y49259D01*
G01X9100Y50859D02*
X5350D01*
G01X9100Y49259D02*
Y50859D01*
G01X29390Y32919D02*
X27028D01*
Y34100D01*
X29390D01*
Y32919D01*
G01X33381Y51240D02*
Y48878D01*
X32200D01*
Y51240D01*
X33381D01*
G01X8030Y32909D02*
X5668D01*
Y34090D01*
X8030D01*
Y32909D01*
G01X24540Y32919D02*
X22178D01*
Y34100D01*
X24540D01*
Y32919D01*
G01X30410Y90161D02*
X32772D01*
Y88980D01*
X30410D01*
Y90161D01*
G01Y86961D02*
X32772D01*
Y85780D01*
X30410D01*
Y86961D01*
G01X30770Y78430D02*
Y66230D01*
G01X42970Y78430D02*
X30770D01*
G01Y66230D02*
X42970D01*
G01X26920Y67843D02*
X30770D01*
G01X26920Y68943D02*
Y67843D01*
G01X30770Y68943D02*
X26920D01*
G01X30770Y67843D02*
Y68943D01*
G01X26920Y69812D02*
X30770D01*
G01X26920Y70912D02*
Y69812D01*
G01X30770Y70912D02*
X26920D01*
G01X30770Y69812D02*
Y70912D01*
G01X26920Y71780D02*
X30770D01*
G01X26920Y72880D02*
Y71780D01*
G01X30770Y72880D02*
X26920D01*
G01X30770Y71780D02*
Y72880D01*
G01X26920Y73748D02*
X30770D01*
G01X26920Y74848D02*
Y73748D01*
G01X30770Y74848D02*
X26920D01*
G01X30770Y73748D02*
Y74848D01*
G01X26920Y75717D02*
X30770D01*
G01X26920Y76817D02*
Y75717D01*
G01X30770Y76817D02*
X26920D01*
G01X30770Y75717D02*
Y76817D01*
G01X32210Y106100D02*
G03Y108500I0J1200D01*
G01Y101400D02*
X44010D01*
G01X32210Y113200D02*
Y101400D01*
G01X44010Y113200D02*
X32210D01*
G01X33471Y116950D02*
Y113200D01*
G01X35071Y116950D02*
X33471D01*
G01Y113200D02*
X35071D01*
G01X33471Y97650D02*
X35071D01*
G01X33471Y101400D02*
Y97650D01*
G01X35071Y101400D02*
X33471D01*
G01X28950Y94479D02*
X26588D01*
Y95660D01*
X28950D01*
Y94479D01*
G01Y97679D02*
X26588D01*
Y98860D01*
X28950D01*
Y97679D01*
G01X21730Y98841D02*
X24092D01*
Y97660D01*
X21730D01*
Y98841D01*
G01Y95641D02*
X24092D01*
Y94460D01*
X21730D01*
Y95641D01*
G01X21690Y114401D02*
X24052D01*
Y113220D01*
X21690D01*
Y114401D01*
G01Y111201D02*
X24052D01*
Y110020D01*
X21690D01*
Y111201D01*
G01X16849Y103220D02*
Y105582D01*
X18030D01*
Y103220D01*
X16849D01*
G01X20049D02*
Y105582D01*
X21230D01*
Y103220D01*
X20049D01*
G01X51767Y9143D02*
Y17017D01*
X43893D01*
Y9143D01*
X51767D01*
G01X51450Y29709D02*
X49088D01*
Y30890D01*
X51450D01*
Y29709D01*
G01X37900Y25349D02*
X35538D01*
Y26530D01*
X37900D01*
Y25349D01*
G01Y28549D02*
X35538D01*
Y29730D01*
X37900D01*
Y28549D01*
G01X37910Y13709D02*
X35548D01*
Y14890D01*
X37910D01*
Y13709D01*
G01Y16909D02*
X35548D01*
Y18090D01*
X37910D01*
Y16909D01*
G01X46600Y29719D02*
X44238D01*
Y30900D01*
X46600D01*
Y29719D01*
G01X58660Y52680D02*
G03X61060I1200J0D01*
G01X53960D02*
Y40880D01*
G01X65760Y52680D02*
X53960D01*
G01Y40880D02*
X65760D01*
G01X50210Y42141D02*
X53960D01*
G01X50210Y43741D02*
Y42141D01*
G01X53960Y43741D02*
X50210D01*
G01X53960Y42141D02*
Y43741D01*
G01X50210Y44700D02*
X53960D01*
G01X50210Y46300D02*
Y44700D01*
G01X53960Y46300D02*
X50210D01*
G01X53960Y44700D02*
Y46300D01*
G01X50210Y47260D02*
X53960D01*
G01X50210Y48860D02*
Y47260D01*
G01X53960Y48860D02*
X50210D01*
G01X53960Y47260D02*
Y48860D01*
G01X50210Y49819D02*
X53960D01*
G01X50210Y51419D02*
Y49819D01*
G01X53960Y51419D02*
X50210D01*
G01X53960Y49819D02*
Y51419D01*
G01X36581Y51240D02*
Y48878D01*
X35400D01*
Y51240D01*
X36581D01*
G01X51450Y32909D02*
X49088D01*
Y34090D01*
X51450D01*
Y32909D01*
G01X38120Y55649D02*
X35758D01*
Y56830D01*
X38120D01*
Y55649D01*
G01Y58849D02*
X35758D01*
Y60030D01*
X38120D01*
Y58849D01*
G01X46600Y32919D02*
X44238D01*
Y34100D01*
X46600D01*
Y32919D01*
G01X63104Y73359D02*
X74916D01*
Y124541D01*
X63104D01*
Y73359D01*
G01X40560Y85679D02*
X38198D01*
Y86860D01*
X40560D01*
Y85679D01*
G01Y88879D02*
X38198D01*
Y90060D01*
X40560D01*
Y88879D01*
G01X45340Y85699D02*
X42978D01*
Y86880D01*
X45340D01*
Y85699D01*
G01Y88899D02*
X42978D01*
Y90080D01*
X45340D01*
Y88899D01*
G01X53800Y90721D02*
X56162D01*
Y89540D01*
X53800D01*
Y90721D01*
G01Y87521D02*
X56162D01*
Y86340D01*
X53800D01*
Y87521D01*
G01X35670Y78430D02*
G03X38070I1200J0D01*
G01X42970Y66230D02*
Y78430D01*
G01X46820Y76817D02*
X42970D01*
G01X46820Y75717D02*
Y76817D01*
G01X42970Y75717D02*
X46820D01*
G01X42970Y76817D02*
Y75717D01*
G01X46820Y74848D02*
X42970D01*
G01X46820Y73748D02*
Y74848D01*
G01X42970Y73748D02*
X46820D01*
G01X42970Y74848D02*
Y73748D01*
G01X46820Y72880D02*
X42970D01*
G01X46820Y71780D02*
Y72880D01*
G01X42970Y71780D02*
X46820D01*
G01X42970Y72880D02*
Y71780D01*
G01X46820Y70912D02*
X42970D01*
G01X46820Y69812D02*
Y70912D01*
G01X42970Y69812D02*
X46820D01*
G01X42970Y70912D02*
Y69812D01*
G01X46820Y68943D02*
X42970D01*
G01X46820Y67843D02*
Y68943D01*
G01X42970Y67843D02*
X46820D01*
G01X42970Y68943D02*
Y67843D01*
G01X44010Y101400D02*
Y113200D01*
G01X35071D02*
Y116950D01*
G01X36030D02*
Y113200D01*
G01X37630Y116950D02*
X36030D01*
G01X37630Y113200D02*
Y116950D01*
G01X36030Y113200D02*
X37630D01*
G01X38590Y116950D02*
Y113200D01*
G01X40190Y116950D02*
X38590D01*
G01X40190Y113200D02*
Y116950D01*
G01X38590Y113200D02*
X40190D01*
G01X41149Y116950D02*
Y113200D01*
G01X42749Y116950D02*
X41149D01*
G01X42749Y113200D02*
Y116950D01*
G01X41149Y113200D02*
X42749D01*
G01Y97650D02*
Y101400D01*
G01X41149Y97650D02*
X42749D01*
G01X41149Y101400D02*
Y97650D01*
G01X42749Y101400D02*
X41149D01*
G01X40190Y97650D02*
Y101400D01*
G01X38590Y97650D02*
X40190D01*
G01X38590Y101400D02*
Y97650D01*
G01X40190Y101400D02*
X38590D01*
G01X37630Y97650D02*
Y101400D01*
G01X36030Y97650D02*
X37630D01*
G01X36030Y101400D02*
Y97650D01*
G01X37630Y101400D02*
X36030D01*
G01X35071Y97650D02*
Y101400D01*
G01X34659Y121600D02*
Y123962D01*
X35840D01*
Y121600D01*
X34659D01*
G01X37859D02*
Y123962D01*
X39040D01*
Y121600D01*
X37859D01*
G01X65265Y-347280D02*
X65892Y-347805D01*
X66597Y-348120D01*
X67223D01*
X67850Y-347805D01*
X68320Y-347280D01*
X68555Y-346545D01*
X68398Y-345810D01*
X68007Y-345180D01*
X67302Y-344760D01*
X66362Y-344550D01*
X65813Y-344130D01*
X65578Y-343395D01*
X65735Y-342660D01*
X66127Y-342135D01*
X66675Y-341820D01*
X67223D01*
X67772Y-342030D01*
X68242Y-342555D01*
G01X72270Y-341820D02*
X74150D01*
G01X73210D02*
Y-348120D01*
G01X72270D02*
X74150D01*
G01X79980Y-344970D02*
X81547D01*
Y-346860D01*
X81077Y-347490D01*
X80528Y-347910D01*
X79745Y-348120D01*
X78962Y-347910D01*
X78413Y-347490D01*
X77943Y-346860D01*
X77630Y-346125D01*
X77473Y-345285D01*
Y-344550D01*
X77630Y-343920D01*
X77943Y-343185D01*
X78413Y-342555D01*
X78883Y-342135D01*
X79510Y-341820D01*
X80058D01*
X80685Y-342030D01*
X81155Y-342450D01*
G01X84008Y-348120D02*
Y-341820D01*
X87612Y-348120D01*
Y-341820D01*
G01X90152Y-348120D02*
X92110Y-341820D01*
X94068Y-348120D01*
G01X93363Y-345915D02*
X90857D01*
G01X98410Y-341820D02*
Y-348120D01*
G01X96608Y-341820D02*
X100212D01*
G01X102987D02*
Y-346335D01*
X103300Y-347280D01*
X103927Y-347910D01*
X104710Y-348120D01*
X105493Y-347910D01*
X106120Y-347280D01*
X106433Y-346335D01*
Y-341820D01*
G01X109443Y-348120D02*
Y-341820D01*
X111402D01*
X112028Y-342135D01*
X112420Y-342555D01*
X112577Y-343395D01*
X112420Y-344235D01*
X111950Y-344760D01*
X111402Y-345075D01*
X109443D01*
G01X111402D02*
X112577Y-348120D01*
G01X118877D02*
X115743D01*
Y-341820D01*
X118877D01*
G01X117623Y-344865D02*
X115743D01*
G01X121965Y-347280D02*
X122592Y-347805D01*
X123297Y-348120D01*
X123923D01*
X124550Y-347805D01*
X125020Y-347280D01*
X125255Y-346545D01*
X125098Y-345810D01*
X124707Y-345180D01*
X124002Y-344760D01*
X123062Y-344550D01*
X122513Y-344130D01*
X122278Y-343395D01*
X122435Y-342660D01*
X122827Y-342135D01*
X123375Y-341820D01*
X123923D01*
X124472Y-342030D01*
X124942Y-342555D01*
G01X74537Y9143D02*
Y17017D01*
X66663D01*
Y9143D01*
X74537D01*
G01X74230Y29719D02*
X71868D01*
Y30900D01*
X74230D01*
Y29719D01*
G01X69350D02*
X66988D01*
Y30900D01*
X69350D01*
Y29719D01*
G01X65760Y40880D02*
Y52680D01*
G01X69510Y51419D02*
X65760D01*
G01X69510Y49819D02*
Y51419D01*
G01X65760Y49819D02*
X69510D01*
G01X65760Y51419D02*
Y49819D01*
G01X69510Y48860D02*
X65760D01*
G01X69510Y47260D02*
Y48860D01*
G01X65760Y47260D02*
X69510D01*
G01X65760Y48860D02*
Y47260D01*
G01X69510Y46300D02*
X65760D01*
G01X69510Y44700D02*
Y46300D01*
G01X65760Y44700D02*
X69510D01*
G01X65760Y46300D02*
Y44700D01*
G01X69510Y43741D02*
X65760D01*
G01X69510Y42141D02*
Y43741D01*
G01X65760Y42141D02*
X69510D01*
G01X65760Y43741D02*
Y42141D01*
G01X74230Y32919D02*
X71868D01*
Y34100D01*
X74230D01*
Y32919D01*
G01X66680Y63181D02*
X69042D01*
Y62000D01*
X66680D01*
Y63181D01*
G01Y59981D02*
X69042D01*
Y58800D01*
X66680D01*
Y59981D01*
G01X69350Y32919D02*
X66988D01*
Y34100D01*
X69350D01*
Y32919D01*
G01X152060Y-448120D02*
Y-450620D01*
G01Y-448120D02*
Y-330620D01*
G01X149560Y461880D02*
Y431880D01*
G01Y551880D02*
Y461880D01*
G01Y491880D02*
X649560D01*
G01X149560Y521880D02*
X649560D01*
G01X177687Y-348120D02*
Y-341820D01*
X179253D01*
X179880Y-342135D01*
X180350Y-342555D01*
X180742Y-343185D01*
X181055Y-343920D01*
X181133Y-344970D01*
X181055Y-346020D01*
X180742Y-346755D01*
X180350Y-347385D01*
X179880Y-347805D01*
X179253Y-348120D01*
X177687D01*
G01X183752D02*
X185710Y-341820D01*
X187668Y-348120D01*
G01X186963Y-345915D02*
X184457D01*
G01X192010Y-341820D02*
Y-348120D01*
G01X190208Y-341820D02*
X193812D01*
G01X199877Y-348120D02*
X196743D01*
Y-341820D01*
X199877D01*
G01X198623Y-344865D02*
X196743D01*
G01X155810Y501880D02*
Y511880D01*
X158935D01*
X159935Y511380D01*
X160560Y510713D01*
X160810Y509380D01*
X160560Y508047D01*
X159810Y507213D01*
X158935Y506713D01*
X155810D01*
G01X158935D02*
X160810Y501880D01*
G01X170810D02*
X165810D01*
Y511880D01*
X170810D01*
G01X168810Y507047D02*
X165810D01*
G01X175185Y511880D02*
X178310Y501880D01*
X181435Y511880D01*
G01X189560Y461880D02*
Y431880D01*
G01Y461880D02*
Y521880D01*
G01X232060Y-330620D02*
Y-510620D01*
G01X238185Y-494287D02*
X239185Y-495120D01*
X240310Y-495620D01*
X241310D01*
X242310Y-495120D01*
X243060Y-494287D01*
X243435Y-493120D01*
X243185Y-491954D01*
X242560Y-490953D01*
X241435Y-490287D01*
X239935Y-489953D01*
X239060Y-489287D01*
X238685Y-488120D01*
X238935Y-486953D01*
X239560Y-486120D01*
X240435Y-485620D01*
X241310D01*
X242185Y-485953D01*
X242935Y-486787D01*
G01X253560Y-486453D02*
X252810Y-485953D01*
X251935Y-485620D01*
X250935D01*
X249810Y-486120D01*
X248935Y-486953D01*
X248310Y-487953D01*
X247810Y-489620D01*
X247685Y-491120D01*
X247935Y-492620D01*
X248310Y-493620D01*
X249060Y-494620D01*
X249935Y-495287D01*
X250810Y-495620D01*
X251685D01*
X252560Y-495287D01*
X253310Y-494787D01*
X253935Y-494120D01*
G01X257685Y-495620D02*
X260810Y-485620D01*
X263935Y-495620D01*
G01X262810Y-492120D02*
X258810D01*
G01X268310Y-485620D02*
Y-495620D01*
X273310D01*
G01X283310D02*
X278310D01*
Y-485620D01*
X283310D01*
G01X281310Y-490453D02*
X278310D01*
G01X482060Y-480620D02*
X232060D01*
G01X238185Y-454287D02*
X239185Y-455120D01*
X240310Y-455620D01*
X241310D01*
X242310Y-455120D01*
X243060Y-454287D01*
X243435Y-453120D01*
X243185Y-451954D01*
X242560Y-450953D01*
X241435Y-450287D01*
X239935Y-449953D01*
X239060Y-449287D01*
X238685Y-448120D01*
X238935Y-446953D01*
X239560Y-446120D01*
X240435Y-445620D01*
X241310D01*
X242185Y-445953D01*
X242935Y-446787D01*
G01X249310Y-445620D02*
X252310D01*
G01X250810D02*
Y-455620D01*
G01X249310D02*
X252310D01*
G01X258435Y-445620D02*
X263185D01*
X258435Y-455620D01*
X263185D01*
G01X273310D02*
X268310D01*
Y-445620D01*
X273310D01*
G01X271310Y-450453D02*
X268310D01*
G01X652060Y-440620D02*
X232060D01*
G01X652060Y-380620D02*
X232060D01*
G01X260560Y501880D02*
Y511880D01*
X263060D01*
X264060Y511380D01*
X264810Y510713D01*
X265435Y509713D01*
X265935Y508546D01*
X266060Y506880D01*
X265935Y505213D01*
X265435Y504047D01*
X264810Y503046D01*
X264060Y502380D01*
X263060Y501880D01*
X260560D01*
G01X275810D02*
X270810D01*
Y511880D01*
X275810D01*
G01X273810Y507047D02*
X270810D01*
G01X280685Y503213D02*
X281685Y502380D01*
X282810Y501880D01*
X283810D01*
X284810Y502380D01*
X285560Y503213D01*
X285935Y504380D01*
X285685Y505546D01*
X285060Y506547D01*
X283935Y507213D01*
X282435Y507547D01*
X281560Y508213D01*
X281185Y509380D01*
X281435Y510547D01*
X282060Y511380D01*
X282935Y511880D01*
X283810D01*
X284685Y511547D01*
X285435Y510713D01*
G01X296060Y511047D02*
X295310Y511547D01*
X294435Y511880D01*
X293435D01*
X292310Y511380D01*
X291435Y510547D01*
X290810Y509547D01*
X290310Y507880D01*
X290185Y506380D01*
X290435Y504880D01*
X290810Y503880D01*
X291560Y502880D01*
X292435Y502213D01*
X293310Y501880D01*
X294185D01*
X295060Y502213D01*
X295810Y502713D01*
X296435Y503380D01*
G01X300810Y501880D02*
Y511880D01*
X303935D01*
X304935Y511380D01*
X305560Y510713D01*
X305810Y509380D01*
X305560Y508047D01*
X304810Y507213D01*
X303935Y506713D01*
X300810D01*
G01X303935D02*
X305810Y501880D01*
G01X311810Y511880D02*
X314810D01*
G01X313310D02*
Y501880D01*
G01X311810D02*
X314810D01*
G01X320810D02*
Y511880D01*
X323810D01*
X324810Y511380D01*
X325560Y510213D01*
X325810Y508880D01*
X325560Y507547D01*
X324935Y506547D01*
X323810Y506046D01*
X320810D01*
G01X333310Y511880D02*
Y501880D01*
G01X330435Y511880D02*
X336185D01*
G01X341810D02*
X344810D01*
G01X343310D02*
Y501880D01*
G01X341810D02*
X344810D01*
G01X353310D02*
X352310Y502047D01*
X351435Y502713D01*
X350685Y503713D01*
X350185Y504880D01*
X349935Y506213D01*
Y507547D01*
X350185Y508880D01*
X350685Y510047D01*
X351435Y511047D01*
X352310Y511713D01*
X353310Y511880D01*
X354310Y511713D01*
X355185Y511047D01*
X355935Y510047D01*
X356435Y508880D01*
X356685Y507547D01*
Y506213D01*
X356435Y504880D01*
X355935Y503713D01*
X355185Y502713D01*
X354310Y502047D01*
X353310Y501880D01*
G01X360435D02*
Y511880D01*
X366185Y501880D01*
Y511880D01*
G01X282060Y-480620D02*
Y-440620D01*
G01X293435Y-455620D02*
Y-445620D01*
X298185D01*
G01X296435Y-450453D02*
X293435D01*
G01X303185Y-454287D02*
X304185Y-455120D01*
X305310Y-455620D01*
X306310D01*
X307310Y-455120D01*
X308060Y-454287D01*
X308435Y-453120D01*
X308185Y-451954D01*
X307560Y-450953D01*
X306435Y-450287D01*
X304935Y-449953D01*
X304060Y-449287D01*
X303685Y-448120D01*
X303935Y-446953D01*
X304560Y-446120D01*
X305435Y-445620D01*
X306310D01*
X307185Y-445953D01*
X307935Y-446787D01*
G01X318560Y-446453D02*
X317810Y-445953D01*
X316935Y-445620D01*
X315935D01*
X314810Y-446120D01*
X313935Y-446953D01*
X313310Y-447953D01*
X312810Y-449620D01*
X312685Y-451120D01*
X312935Y-452620D01*
X313310Y-453620D01*
X314060Y-454620D01*
X314935Y-455287D01*
X315810Y-455620D01*
X316685D01*
X317560Y-455287D01*
X318310Y-454787D01*
X318935Y-454120D01*
G01X322560Y-455620D02*
Y-445620D01*
X325810Y-453953D01*
X329060Y-445620D01*
Y-455620D01*
G01X342935D02*
Y-445620D01*
X348685Y-455620D01*
Y-445620D01*
G01X355810Y-455620D02*
X354810Y-455453D01*
X353935Y-454787D01*
X353185Y-453787D01*
X352685Y-452620D01*
X352435Y-451287D01*
Y-449953D01*
X352685Y-448620D01*
X353185Y-447453D01*
X353935Y-446453D01*
X354810Y-445787D01*
X355810Y-445620D01*
X356810Y-445787D01*
X357685Y-446453D01*
X358435Y-447453D01*
X358935Y-448620D01*
X359185Y-449953D01*
Y-451287D01*
X358935Y-452620D01*
X358435Y-453787D01*
X357685Y-454787D01*
X356810Y-455453D01*
X355810Y-455620D01*
G01X303310Y-360620D02*
Y-350620D01*
X306310D01*
X307310Y-351120D01*
X308060Y-352287D01*
X308310Y-353620D01*
X308060Y-354953D01*
X307435Y-355953D01*
X306310Y-356454D01*
X303310D01*
G01X313435Y-352287D02*
X314185Y-351287D01*
X315060Y-350787D01*
X316060Y-350620D01*
X317310Y-350953D01*
X318185Y-351787D01*
X318435Y-352787D01*
X318310Y-353787D01*
X317810Y-354620D01*
X315310Y-356287D01*
X314185Y-357453D01*
X313435Y-359120D01*
X313185Y-360620D01*
X318435D01*
G01X325810Y-350620D02*
X324810Y-350953D01*
X324060Y-351787D01*
X323560Y-352787D01*
X323185Y-354120D01*
X323060Y-355620D01*
X323185Y-357120D01*
X323560Y-358453D01*
X324060Y-359454D01*
X324810Y-360287D01*
X325810Y-360620D01*
X326810Y-360287D01*
X327560Y-359454D01*
X328060Y-358453D01*
X328435Y-357120D01*
X328560Y-355620D01*
X328435Y-354120D01*
X328060Y-352787D01*
X327560Y-351787D01*
X326810Y-350953D01*
X325810Y-350620D01*
G01X335810D02*
X334810Y-350953D01*
X334060Y-351787D01*
X333560Y-352787D01*
X333185Y-354120D01*
X333060Y-355620D01*
X333185Y-357120D01*
X333560Y-358453D01*
X334060Y-359454D01*
X334810Y-360287D01*
X335810Y-360620D01*
X336810Y-360287D01*
X337560Y-359454D01*
X338060Y-358453D01*
X338435Y-357120D01*
X338560Y-355620D01*
X338435Y-354120D01*
X338060Y-352787D01*
X337560Y-351787D01*
X336810Y-350953D01*
X335810Y-350620D01*
G01X345810Y-360620D02*
Y-350620D01*
X344310Y-352620D01*
G01Y-360620D02*
X347310D01*
G01X353435Y-356454D02*
X354310Y-355287D01*
X355060Y-354620D01*
X356060Y-354287D01*
X356935Y-354620D01*
X357560Y-355287D01*
X358060Y-356287D01*
X358185Y-357453D01*
X358060Y-358453D01*
X357560Y-359454D01*
X356810Y-360287D01*
X355935Y-360620D01*
X354935Y-360287D01*
X354060Y-359287D01*
X353560Y-357787D01*
X353435Y-356120D01*
X353685Y-353954D01*
X354060Y-352787D01*
X354685Y-351620D01*
X355560Y-350787D01*
X356435Y-350620D01*
X357310Y-350953D01*
X357935Y-351787D01*
G01X373310Y-360620D02*
Y-350620D01*
X376435D01*
X377435Y-351120D01*
X378060Y-351787D01*
X378310Y-353120D01*
X378060Y-354453D01*
X377310Y-355287D01*
X376435Y-355787D01*
X373310D01*
G01X376435D02*
X378310Y-360620D01*
G01X384310Y-350620D02*
X387310D01*
G01X385810D02*
Y-360620D01*
G01X384310D02*
X387310D01*
G01X395810Y-350620D02*
Y-360620D01*
G01X392935Y-350620D02*
X398685D01*
G01X412560Y-360620D02*
Y-350620D01*
X415810Y-358953D01*
X419060Y-350620D01*
Y-360620D01*
G01X423185Y-359287D02*
X424185Y-360120D01*
X425310Y-360620D01*
X426310D01*
X427310Y-360120D01*
X428060Y-359287D01*
X428435Y-358120D01*
X428185Y-356954D01*
X427560Y-355953D01*
X426435Y-355287D01*
X424935Y-354953D01*
X424060Y-354287D01*
X423685Y-353120D01*
X423935Y-351953D01*
X424560Y-351120D01*
X425435Y-350620D01*
X426310D01*
X427185Y-350953D01*
X427935Y-351787D01*
G01X433060Y-360620D02*
Y-350620D01*
X435560D01*
X436560Y-351120D01*
X437310Y-351787D01*
X437935Y-352787D01*
X438435Y-353954D01*
X438560Y-355620D01*
X438435Y-357287D01*
X437935Y-358453D01*
X437310Y-359454D01*
X436560Y-360120D01*
X435560Y-360620D01*
X433060D01*
G01X322060Y-480620D02*
Y-510620D01*
G01X365810Y531880D02*
Y541880D01*
X368935D01*
X369935Y541380D01*
X370560Y540713D01*
X370810Y539380D01*
X370560Y538047D01*
X369810Y537213D01*
X368935Y536713D01*
X365810D01*
G01X368935D02*
X370810Y531880D01*
G01X380810D02*
X375810D01*
Y541880D01*
X380810D01*
G01X378810Y537047D02*
X375810D01*
G01X385185Y541880D02*
X388310Y531880D01*
X391435Y541880D01*
G01X396810D02*
X399810D01*
G01X398310D02*
Y531880D01*
G01X396810D02*
X399810D01*
G01X405685Y533213D02*
X406685Y532380D01*
X407810Y531880D01*
X408810D01*
X409810Y532380D01*
X410560Y533213D01*
X410935Y534380D01*
X410685Y535546D01*
X410060Y536547D01*
X408935Y537213D01*
X407435Y537547D01*
X406560Y538213D01*
X406185Y539380D01*
X406435Y540547D01*
X407060Y541380D01*
X407935Y541880D01*
X408810D01*
X409685Y541547D01*
X410435Y540713D01*
G01X416810Y541880D02*
X419810D01*
G01X418310D02*
Y531880D01*
G01X416810D02*
X419810D01*
G01X428310D02*
X427310Y532047D01*
X426435Y532713D01*
X425685Y533713D01*
X425185Y534880D01*
X424935Y536213D01*
Y537547D01*
X425185Y538880D01*
X425685Y540047D01*
X426435Y541047D01*
X427310Y541713D01*
X428310Y541880D01*
X429310Y541713D01*
X430185Y541047D01*
X430935Y540047D01*
X431435Y538880D01*
X431685Y537547D01*
Y536213D01*
X431435Y534880D01*
X430935Y533713D01*
X430185Y532713D01*
X429310Y532047D01*
X428310Y531880D01*
G01X435435D02*
Y541880D01*
X441185Y531880D01*
Y541880D01*
G01X445685Y533213D02*
X446685Y532380D01*
X447810Y531880D01*
X448810D01*
X449810Y532380D01*
X450560Y533213D01*
X450935Y534380D01*
X450685Y535546D01*
X450060Y536547D01*
X448935Y537213D01*
X447435Y537547D01*
X446560Y538213D01*
X446185Y539380D01*
X446435Y540547D01*
X447060Y541380D01*
X447935Y541880D01*
X448810D01*
X449685Y541547D01*
X450435Y540713D01*
G01X402060Y-480620D02*
Y-440620D01*
G01X413060Y-455620D02*
Y-445620D01*
X415560D01*
X416560Y-446120D01*
X417310Y-446787D01*
X417935Y-447787D01*
X418435Y-448954D01*
X418560Y-450620D01*
X418435Y-452287D01*
X417935Y-453453D01*
X417310Y-454454D01*
X416560Y-455120D01*
X415560Y-455620D01*
X413060D01*
G01X422060Y-445620D02*
X423810Y-455620D01*
X425810Y-445620D01*
X427810Y-455620D01*
X429560Y-445620D01*
G01X436560Y-450620D02*
X439060D01*
Y-453620D01*
X438310Y-454620D01*
X437435Y-455287D01*
X436185Y-455620D01*
X434935Y-455287D01*
X434060Y-454620D01*
X433310Y-453620D01*
X432810Y-452453D01*
X432560Y-451120D01*
Y-449953D01*
X432810Y-448954D01*
X433310Y-447787D01*
X434060Y-446787D01*
X434810Y-446120D01*
X435810Y-445620D01*
X436685D01*
X437685Y-445953D01*
X438435Y-446620D01*
G01X452935Y-455620D02*
Y-445620D01*
X458685Y-455620D01*
Y-445620D01*
G01X465810Y-455620D02*
X464810Y-455453D01*
X463935Y-454787D01*
X463185Y-453787D01*
X462685Y-452620D01*
X462435Y-451287D01*
Y-449953D01*
X462685Y-448620D01*
X463185Y-447453D01*
X463935Y-446453D01*
X464810Y-445787D01*
X465810Y-445620D01*
X466810Y-445787D01*
X467685Y-446453D01*
X468435Y-447453D01*
X468935Y-448620D01*
X469185Y-449953D01*
Y-451287D01*
X468935Y-452620D01*
X468435Y-453787D01*
X467685Y-454787D01*
X466810Y-455453D01*
X465810Y-455620D01*
G01X482060Y-510620D02*
Y-480620D01*
X652060D01*
G01X459560Y451880D02*
Y491880D01*
G01Y461880D02*
Y431880D01*
G01Y491880D02*
Y521880D01*
G01X493185Y-494287D02*
X494185Y-495120D01*
X495310Y-495620D01*
X496310D01*
X497310Y-495120D01*
X498060Y-494287D01*
X498435Y-493120D01*
X498185Y-491954D01*
X497560Y-490953D01*
X496435Y-490287D01*
X494935Y-489953D01*
X494060Y-489287D01*
X493685Y-488120D01*
X493935Y-486953D01*
X494560Y-486120D01*
X495435Y-485620D01*
X496310D01*
X497185Y-485953D01*
X497935Y-486787D01*
G01X503185Y-495620D02*
Y-485620D01*
G01X508435D02*
Y-495620D01*
G01Y-490620D02*
X503185D01*
G01X518310Y-495620D02*
X513310D01*
Y-485620D01*
X518310D01*
G01X516310Y-490453D02*
X513310D01*
G01X528310Y-495620D02*
X523310D01*
Y-485620D01*
X528310D01*
G01X526310Y-490453D02*
X523310D01*
G01X535810Y-485620D02*
Y-495620D01*
G01X532935Y-485620D02*
X538685D01*
G01X485560Y501880D02*
Y511880D01*
X488060D01*
X489060Y511380D01*
X489810Y510713D01*
X490435Y509713D01*
X490935Y508546D01*
X491060Y506880D01*
X490935Y505213D01*
X490435Y504047D01*
X489810Y503046D01*
X489060Y502380D01*
X488060Y501880D01*
X485560D01*
G01X495185D02*
X498310Y511880D01*
X501435Y501880D01*
G01X500310Y505380D02*
X496310D01*
G01X508310Y511880D02*
Y501880D01*
G01X505435Y511880D02*
X511185D01*
G01X520810Y501880D02*
X515810D01*
Y511880D01*
X520810D01*
G01X518810Y507047D02*
X515810D01*
G01X549560Y461880D02*
Y431880D01*
G01Y461880D02*
Y491880D01*
G01X560185Y501880D02*
X563310Y511880D01*
X566435Y501880D01*
G01X565310Y505380D02*
X561310D01*
G01X570810Y501880D02*
Y511880D01*
X573810D01*
X574810Y511380D01*
X575560Y510213D01*
X575810Y508880D01*
X575560Y507547D01*
X574935Y506547D01*
X573810Y506046D01*
X570810D01*
G01X580810Y501880D02*
Y511880D01*
X583810D01*
X584810Y511380D01*
X585560Y510213D01*
X585810Y508880D01*
X585560Y507547D01*
X584935Y506547D01*
X583810Y506046D01*
X580810D01*
G01X590810Y501880D02*
Y511880D01*
X593935D01*
X594935Y511380D01*
X595560Y510713D01*
X595810Y509380D01*
X595560Y508047D01*
X594810Y507213D01*
X593935Y506713D01*
X590810D01*
G01X593935D02*
X595810Y501880D01*
G01X603310D02*
X602310Y502047D01*
X601435Y502713D01*
X600685Y503713D01*
X600185Y504880D01*
X599935Y506213D01*
Y507547D01*
X600185Y508880D01*
X600685Y510047D01*
X601435Y511047D01*
X602310Y511713D01*
X603310Y511880D01*
X604310Y511713D01*
X605185Y511047D01*
X605935Y510047D01*
X606435Y508880D01*
X606685Y507547D01*
Y506213D01*
X606435Y504880D01*
X605935Y503713D01*
X605185Y502713D01*
X604310Y502047D01*
X603310Y501880D01*
G01X610185Y511880D02*
X613310Y501880D01*
X616435Y511880D01*
G01X625810Y501880D02*
X620810D01*
Y511880D01*
X625810D01*
G01X623810Y507047D02*
X620810D01*
G01X630560Y501880D02*
Y511880D01*
X633060D01*
X634060Y511380D01*
X634810Y510713D01*
X635435Y509713D01*
X635935Y508546D01*
X636060Y506880D01*
X635935Y505213D01*
X635435Y504047D01*
X634810Y503046D01*
X634060Y502380D01*
X633060Y501880D01*
X630560D01*
G01X549560Y491880D02*
Y521880D01*
G01X649560Y546880D02*
Y426880D01*
G54D18*
G01X1098Y30935D02*
Y32865D01*
G01X2862D02*
Y30935D01*
G01X27308D02*
Y32865D01*
G01X29072D02*
Y30935D01*
G01X5948Y30925D02*
Y32855D01*
G01X7712D02*
Y30925D01*
G01X22458Y30935D02*
Y32865D01*
G01X24222D02*
Y30935D01*
G01X35365Y49158D02*
X33435D01*
G01Y50922D02*
X35365D01*
G01X32492Y88945D02*
Y87015D01*
G01X30728D02*
Y88945D01*
G01X26868Y95695D02*
Y97625D01*
G01X28632D02*
Y95695D01*
G01X23812Y97625D02*
Y95695D01*
G01X22048D02*
Y97625D01*
G01X23772Y113185D02*
Y111255D01*
G01X22008D02*
Y113185D01*
G01X18065Y105302D02*
X19995D01*
G01Y103538D02*
X18065D01*
G01X49368Y30925D02*
Y32855D01*
G01X51132D02*
Y30925D01*
G01X35818Y26565D02*
Y28495D01*
G01X37582D02*
Y26565D01*
G01X35828Y14925D02*
Y16855D01*
G01X37592D02*
Y14925D01*
G01X44518Y30935D02*
Y32865D01*
G01X46282D02*
Y30935D01*
G01X36038Y56865D02*
Y58795D01*
G01X37802D02*
Y56865D01*
G01X38478Y86895D02*
Y88825D01*
G01X40242D02*
Y86895D01*
G01X43258Y86915D02*
Y88845D01*
G01X45022D02*
Y86915D01*
G01X55882Y89505D02*
Y87575D01*
G01X54118D02*
Y89505D01*
G01X37805Y121918D02*
X35875D01*
G01Y123682D02*
X37805D01*
G01X72148Y30935D02*
Y32865D01*
G01X73912D02*
Y30935D01*
G01X67268D02*
Y32865D01*
G01X69032D02*
Y30935D01*
G01X68762Y61965D02*
Y60035D01*
G01X66998D02*
Y61965D01*
M02*
