G04 ================== begin FILE IDENTIFICATION RECORD ==================*
G04 Layout Name:  msd_foot_ext1.brd*
G04 Film Name:    ASSEMBLY*
G04 File Format:  Gerber RS274X*
G04 File Origin:  Cadence Allegro 17.2-S071*
G04 Origin Date:  Mon Oct 26 21:15:35 2020*
G04 *
G04 Layer:  REF DES/ASSEMBLY_TOP*
G04 Layer:  PIN/TOP*
G04 Layer:  PACKAGE GEOMETRY/ASSEMBLY_TOP*
G04 Layer:  DRAWING FORMAT/OUTLINE*
G04 Layer:  DRAWING FORMAT/TITLE_BLOCK*
G04 Layer:  DRAWING FORMAT/TITLE_DATA*
G04 Layer:  DRAWING FORMAT/REVISION_BLOCK*
G04 Layer:  DRAWING FORMAT/REVISION_DATA*
G04 Layer:  BOARD GEOMETRY/DESIGN_OUTLINE*
G04 *
G04 Offset:    (0.00 0.00)*
G04 Mirror:    No*
G04 Mode:      Positive*
G04 Rotation:  0*
G04 FullContactRelief:  No*
G04 UndefLineWidth:     0.13*
G04 ================== end FILE IDENTIFICATION RECORD ====================*
%FSLAX25Y25*MOIN*%
%IR0*IPPOS*OFA0.00000B0.00000*MIA0B0*SFA1.00000B1.00000*%
%ADD11R,.07874X.07874*%
%ADD16R,.06X.018*%
%ADD15R,.05156X.02*%
%ADD14R,.05228X.011*%
%ADD12R,.03543X.02756*%
%ADD13R,.02756X.03543*%
%ADD10R,.09843X.03937*%
%ADD17C,.00013*%
%ADD18C,.006*%
G75*
%LPD*%
G75*
G54D10*
X7200Y25941D03*
Y33815D03*
Y41689D03*
Y49563D03*
Y57437D03*
Y65311D03*
Y73185D03*
Y81059D03*
X76300Y25578D03*
Y33452D03*
Y41326D03*
Y49200D03*
Y57074D03*
Y64948D03*
Y72822D03*
G54D11*
X10639Y6100D03*
X10539Y18100D03*
X27961Y6100D03*
X27861Y18100D03*
X53739D03*
X71061D03*
X53739Y5900D03*
X71061D03*
G54D12*
X42700Y14041D03*
Y19159D03*
X20500Y72059D03*
Y66941D03*
X25500D03*
Y72059D03*
X57500Y37359D03*
Y32241D03*
X51600Y37359D03*
Y32241D03*
X57500Y49659D03*
Y44541D03*
X63300Y37359D03*
Y32241D03*
X59200Y66741D03*
Y71859D03*
G54D13*
X27959Y53000D03*
X22841D03*
Y48100D03*
X27959D03*
Y57800D03*
X22841D03*
Y43200D03*
X27959D03*
X61359Y57400D03*
X56241D03*
X45341Y78800D03*
X50459D03*
X59241D03*
X64359D03*
G54D14*
X42714Y36237D03*
Y34268D03*
Y32300D03*
Y30332D03*
Y28363D03*
X25286D03*
Y30332D03*
Y32300D03*
Y34268D03*
Y36237D03*
G54D15*
X37100Y46460D03*
Y50200D03*
Y53940D03*
X47300D03*
Y46460D03*
G54D16*
X34450Y64361D03*
Y66920D03*
Y69480D03*
Y72039D03*
X50550D03*
Y69480D03*
Y66920D03*
Y64361D03*
G54D17*
G01X-177200Y-473300D02*
Y376700D01*
X930300D01*
Y-473300D01*
X-177200D01*
G01X-147700Y-446800D02*
Y353200D01*
X897300D01*
Y-446800D01*
X-147700D01*
G01X0Y0D02*
Y87600D01*
X83500D01*
Y0D01*
X0D01*
G01X1294Y23972D02*
X13106D01*
Y83028D01*
X1294D01*
Y23972D01*
G01X15363Y2163D02*
X23237D01*
Y10037D01*
X15363D01*
Y2163D01*
G01X15263Y14163D02*
X23137D01*
Y22037D01*
X15263D01*
Y14163D01*
G01X41500Y18781D02*
X43862D01*
Y17600D01*
X41500D01*
Y18781D01*
G01Y15581D02*
X43862D01*
Y14400D01*
X41500D01*
Y15581D01*
G01X27900Y38400D02*
Y26200D01*
G01X40100D02*
Y38400D01*
G01X27900Y26200D02*
X40100D01*
G01X23219Y51800D02*
Y54162D01*
X24400D01*
Y51800D01*
X23219D01*
G01X26419D02*
Y54162D01*
X27600D01*
Y51800D01*
X26419D01*
G01X27581Y49300D02*
Y46938D01*
X26400D01*
Y49300D01*
X27581D01*
G01X24381D02*
Y46938D01*
X23200D01*
Y49300D01*
X24381D01*
G01X23219Y56600D02*
Y58962D01*
X24400D01*
Y56600D01*
X23219D01*
G01X26419D02*
Y58962D01*
X27600D01*
Y56600D01*
X26419D01*
G01X27581Y44400D02*
Y42038D01*
X26400D01*
Y44400D01*
X27581D01*
G01X24381D02*
Y42038D01*
X23200D01*
Y44400D01*
X24381D01*
G01X32800Y38400D02*
G03X35200I1200J0D01*
G01X40100D02*
X27900D01*
G01X43950Y36787D02*
X40100D01*
G01Y35687D02*
X43950D01*
G01X40100Y36787D02*
Y35687D01*
G01X43950Y34818D02*
X40100D01*
G01Y33718D02*
X43950D01*
G01X40100Y34818D02*
Y33718D01*
G01X43950Y32850D02*
X40100D01*
G01Y31750D02*
X43950D01*
G01X40100Y32850D02*
Y31750D01*
G01X43950Y30882D02*
X40100D01*
G01Y29782D02*
X43950D01*
G01X40100Y30882D02*
Y29782D01*
G01X43950Y28913D02*
X40100D01*
G01Y27813D02*
X43950D01*
G01X40100Y28913D02*
Y27813D01*
G01X24050D02*
X27900D01*
G01X24050Y28913D02*
Y27813D01*
G01X27900Y28913D02*
X24050D01*
G01X27900Y27813D02*
Y28913D01*
G01X24050Y29782D02*
X27900D01*
G01X24050Y30882D02*
Y29782D01*
G01X27900Y30882D02*
X24050D01*
G01X27900Y29782D02*
Y30882D01*
G01X24050Y31750D02*
X27900D01*
G01X24050Y32850D02*
Y31750D01*
G01X27900Y32850D02*
X24050D01*
G01X27900Y31750D02*
Y32850D01*
G01X24050Y33718D02*
X27900D01*
G01X24050Y34818D02*
Y33718D01*
G01X27900Y34818D02*
X24050D01*
G01X27900Y33718D02*
Y34818D01*
G01X24050Y35687D02*
X27900D01*
G01X24050Y36787D02*
Y35687D01*
G01X27900Y36787D02*
X24050D01*
G01X27900Y35687D02*
Y36787D01*
G01X35900Y45460D02*
X38650D01*
G01X35900Y47460D02*
Y45460D01*
G01X38650Y47460D02*
X35900D01*
G01X38650Y45460D02*
Y47460D01*
G01X35900Y49200D02*
X38650D01*
G01X35900Y51200D02*
Y49200D01*
G01X38650Y51200D02*
X35900D01*
G01X38650Y49200D02*
Y51200D01*
G01X35900Y52940D02*
X38650D01*
G01X35900Y54940D02*
Y52940D01*
G01X38650Y54940D02*
X35900D01*
G01X38650Y52940D02*
Y54940D01*
G01X41000Y56300D02*
G03X43400I1200J0D01*
G01X38650D02*
Y44100D01*
G01X45750Y56300D02*
X38650D01*
G01Y44100D02*
X45750D01*
G01X21700Y67319D02*
X19338D01*
Y68500D01*
X21700D01*
Y67319D01*
G01Y70519D02*
X19338D01*
Y71700D01*
X21700D01*
Y70519D01*
G01X24300Y71681D02*
X26662D01*
Y70500D01*
X24300D01*
Y71681D01*
G01Y68481D02*
X26662D01*
Y67300D01*
X24300D01*
Y68481D01*
G01X31413Y77000D02*
Y75208D01*
X31520Y74833D01*
X31733Y74583D01*
X32000Y74500D01*
X32267Y74583D01*
X32480Y74833D01*
X32587Y75208D01*
Y77000D01*
G01X33613Y74875D02*
X33773Y74667D01*
X33960Y74542D01*
X34200Y74500D01*
X34440Y74583D01*
X34627Y74750D01*
X34760Y75042D01*
X34787Y75375D01*
X34733Y75708D01*
X34600Y75917D01*
X34413Y76083D01*
X34227Y76125D01*
X34040Y76083D01*
X33800Y75917D01*
X33880Y77000D01*
X34600D01*
G01X41300Y74100D02*
G03X43700I1200J0D01*
G01X36600D02*
Y62300D01*
G01X48400Y74100D02*
X36600D01*
G01Y62300D02*
X48400D01*
G01X32850Y63561D02*
X36600D01*
G01X32850Y65161D02*
Y63561D01*
G01X36600Y65161D02*
X32850D01*
G01X36600Y63561D02*
Y65161D01*
G01X32850Y66120D02*
X36600D01*
G01X32850Y67720D02*
Y66120D01*
G01X36600Y67720D02*
X32850D01*
G01X36600Y66120D02*
Y67720D01*
G01X32850Y68680D02*
X36600D01*
G01X32850Y70280D02*
Y68680D01*
G01X36600Y70280D02*
X32850D01*
G01X36600Y68680D02*
Y70280D01*
G01X32850Y71239D02*
X36600D01*
G01X32850Y72839D02*
Y71239D01*
G01X36600Y72839D02*
X32850D01*
G01X36600Y71239D02*
Y72839D01*
G01X70394Y23609D02*
X82206D01*
Y74791D01*
X70394D01*
Y23609D01*
G01X66337Y22037D02*
X58463D01*
Y14163D01*
X66337D01*
Y22037D01*
G01Y9837D02*
X58463D01*
Y1963D01*
X66337D01*
Y9837D01*
G01X58700Y32619D02*
X56338D01*
Y33800D01*
X58700D01*
Y32619D01*
G01Y35819D02*
X56338D01*
Y37000D01*
X58700D01*
Y35819D01*
G01X56619Y56200D02*
Y58562D01*
X57800D01*
Y56200D01*
X56619D01*
G01X59819D02*
Y58562D01*
X61000D01*
Y56200D01*
X59819D01*
G01X52800Y32619D02*
X50438D01*
Y33800D01*
X52800D01*
Y32619D01*
G01Y35819D02*
X50438D01*
Y37000D01*
X52800D01*
Y35819D01*
G01X58700Y44919D02*
X56338D01*
Y46100D01*
X58700D01*
Y44919D01*
G01Y48119D02*
X56338D01*
Y49300D01*
X58700D01*
Y48119D01*
G01X64500Y32619D02*
X62138D01*
Y33800D01*
X64500D01*
Y32619D01*
G01Y35819D02*
X62138D01*
Y37000D01*
X64500D01*
Y35819D01*
G01X43950Y35687D02*
Y36787D01*
G01Y33718D02*
Y34818D01*
G01Y31750D02*
Y32850D01*
G01Y29782D02*
Y30882D01*
G01Y27813D02*
Y28913D01*
G01X44013Y60200D02*
Y58408D01*
X44120Y58033D01*
X44333Y57783D01*
X44600Y57700D01*
X44867Y57783D01*
X45080Y58033D01*
X45187Y58408D01*
Y60200D01*
G01X46293Y59783D02*
X46453Y60033D01*
X46640Y60158D01*
X46853Y60200D01*
X47120Y60117D01*
X47307Y59908D01*
X47360Y59658D01*
X47333Y59408D01*
X47227Y59200D01*
X46693Y58783D01*
X46453Y58492D01*
X46293Y58075D01*
X46240Y57700D01*
X47360D01*
G01X48500Y54940D02*
X45750D01*
G01X48500Y52940D02*
Y54940D01*
G01X45750Y52940D02*
X48500D01*
G01X45750Y54940D02*
Y52940D01*
G01X48500Y47460D02*
X45750D01*
G01X48500Y45460D02*
Y47460D01*
G01X45750Y45460D02*
X48500D01*
G01X45750Y47460D02*
Y45460D01*
G01Y44100D02*
Y56300D01*
G01X50081Y80000D02*
Y77638D01*
X48900D01*
Y80000D01*
X50081D01*
G01X46881D02*
Y77638D01*
X45700D01*
Y80000D01*
X46881D01*
G01X63981D02*
Y77638D01*
X62800D01*
Y80000D01*
X63981D01*
G01X60781D02*
Y77638D01*
X59600D01*
Y80000D01*
X60781D01*
G01X58000Y71481D02*
X60362D01*
Y70300D01*
X58000D01*
Y71481D01*
G01Y68281D02*
X60362D01*
Y67100D01*
X58000D01*
Y68281D01*
G01X48400Y62300D02*
Y74100D01*
G01X52150Y72839D02*
X48400D01*
G01X52150Y71239D02*
Y72839D01*
G01X48400Y71239D02*
X52150D01*
G01X48400Y72839D02*
Y71239D01*
G01X52150Y70280D02*
X48400D01*
G01X52150Y68680D02*
Y70280D01*
G01X48400Y68680D02*
X52150D01*
G01X48400Y70280D02*
Y68680D01*
G01X52150Y67720D02*
X48400D01*
G01X52150Y66120D02*
Y67720D01*
G01X48400Y66120D02*
X52150D01*
G01X48400Y67720D02*
Y66120D01*
G01X52150Y65161D02*
X48400D01*
G01X52150Y63561D02*
Y65161D01*
G01X48400Y63561D02*
X52150D01*
G01X48400Y65161D02*
Y63561D01*
G01X117800Y-445800D02*
Y-265800D01*
X897800D01*
G01X125997Y-388300D02*
Y-383300D01*
X128403D01*
G01X127517Y-385717D02*
X125997D01*
G01X131033Y-388300D02*
Y-383300D01*
X132617D01*
X133123Y-383550D01*
X133440Y-383883D01*
X133567Y-384550D01*
X133440Y-385217D01*
X133060Y-385633D01*
X132617Y-385883D01*
X131033D01*
G01X132617D02*
X133567Y-388300D01*
G01X135817D02*
X137400Y-383300D01*
X138983Y-388300D01*
G01X138413Y-386550D02*
X136387D01*
G01X143893Y-383717D02*
X143513Y-383467D01*
X143070Y-383300D01*
X142563D01*
X141993Y-383550D01*
X141550Y-383967D01*
X141233Y-384467D01*
X140980Y-385300D01*
X140917Y-386050D01*
X141043Y-386800D01*
X141233Y-387300D01*
X141613Y-387800D01*
X142057Y-388133D01*
X142500Y-388300D01*
X142943D01*
X143387Y-388133D01*
X143767Y-387883D01*
X144083Y-387550D01*
G01X147600Y-383300D02*
Y-388300D01*
G01X146143Y-383300D02*
X149057D01*
G01X151940D02*
X153460D01*
G01X152700D02*
Y-388300D01*
G01X151940D02*
X153460D01*
G01X157800D02*
X157293Y-388217D01*
X156850Y-387883D01*
X156470Y-387383D01*
X156217Y-386800D01*
X156090Y-386133D01*
Y-385467D01*
X156217Y-384800D01*
X156470Y-384217D01*
X156850Y-383717D01*
X157293Y-383383D01*
X157800Y-383300D01*
X158307Y-383383D01*
X158750Y-383717D01*
X159130Y-384217D01*
X159383Y-384800D01*
X159510Y-385467D01*
Y-386133D01*
X159383Y-386800D01*
X159130Y-387383D01*
X158750Y-387883D01*
X158307Y-388217D01*
X157800Y-388300D01*
G01X161443D02*
Y-383300D01*
X164357Y-388300D01*
Y-383300D01*
G01X166670Y-387633D02*
X167177Y-388050D01*
X167747Y-388300D01*
X168253D01*
X168760Y-388050D01*
X169140Y-387633D01*
X169330Y-387050D01*
X169203Y-386467D01*
X168887Y-385967D01*
X168317Y-385633D01*
X167557Y-385467D01*
X167113Y-385133D01*
X166923Y-384550D01*
X167050Y-383967D01*
X167367Y-383550D01*
X167810Y-383300D01*
X168253D01*
X168697Y-383467D01*
X169077Y-383883D01*
G01X177503Y-386633D02*
X179023D01*
G01X178200Y-385550D02*
Y-387717D01*
G01X125617Y-373300D02*
X127200Y-368300D01*
X128783Y-373300D01*
G01X128213Y-371550D02*
X126187D01*
G01X130843Y-373300D02*
Y-368300D01*
X133757Y-373300D01*
Y-368300D01*
G01X137780Y-370800D02*
X139047D01*
Y-372300D01*
X138667Y-372800D01*
X138223Y-373133D01*
X137590Y-373300D01*
X136957Y-373133D01*
X136513Y-372800D01*
X136133Y-372300D01*
X135880Y-371717D01*
X135753Y-371050D01*
Y-370467D01*
X135880Y-369967D01*
X136133Y-369383D01*
X136513Y-368883D01*
X136893Y-368550D01*
X137400Y-368300D01*
X137843D01*
X138350Y-368467D01*
X138730Y-368800D01*
G01X141233Y-368300D02*
Y-373300D01*
X143767D01*
G01X148867D02*
X146333D01*
Y-368300D01*
X148867D01*
G01X147853Y-370717D02*
X146333D01*
G01X151370Y-372633D02*
X151877Y-373050D01*
X152447Y-373300D01*
X152953D01*
X153460Y-373050D01*
X153840Y-372633D01*
X154030Y-372050D01*
X153903Y-371467D01*
X153587Y-370967D01*
X153017Y-370633D01*
X152257Y-370467D01*
X151813Y-370133D01*
X151623Y-369550D01*
X151750Y-368967D01*
X152067Y-368550D01*
X152510Y-368300D01*
X152953D01*
X153397Y-368467D01*
X153777Y-368883D01*
G01X162203Y-371633D02*
X163723D01*
G01X162900Y-370550D02*
Y-372717D01*
G01X125807Y-357300D02*
X126187Y-357883D01*
X126693Y-358217D01*
X127263Y-358300D01*
X127770Y-358217D01*
X128277Y-357800D01*
X128593Y-357300D01*
X128657Y-356800D01*
X128530Y-356217D01*
X128087Y-355800D01*
X127643Y-355633D01*
X127073D01*
G01X127643D02*
X128023Y-355383D01*
X128340Y-354967D01*
X128467Y-354467D01*
X128340Y-353967D01*
X128023Y-353550D01*
X127453Y-353300D01*
X126883Y-353383D01*
X126313Y-353717D01*
G01X136133Y-358300D02*
Y-353300D01*
X137653D01*
X138160Y-353550D01*
X138540Y-354133D01*
X138667Y-354800D01*
X138540Y-355467D01*
X138223Y-355967D01*
X137653Y-356217D01*
X136133D01*
G01X141233Y-353300D02*
Y-358300D01*
X143767D01*
G01X151307D02*
Y-353300D01*
X152573D01*
X153080Y-353550D01*
X153460Y-353883D01*
X153777Y-354383D01*
X154030Y-354967D01*
X154093Y-355800D01*
X154030Y-356633D01*
X153777Y-357217D01*
X153460Y-357717D01*
X153080Y-358050D01*
X152573Y-358300D01*
X151307D01*
G01X159067D02*
X156533D01*
Y-353300D01*
X159067D01*
G01X158053Y-355717D02*
X156533D01*
G01X164293Y-353717D02*
X163913Y-353467D01*
X163470Y-353300D01*
X162963D01*
X162393Y-353550D01*
X161950Y-353967D01*
X161633Y-354467D01*
X161380Y-355300D01*
X161317Y-356050D01*
X161443Y-356800D01*
X161633Y-357300D01*
X162013Y-357800D01*
X162457Y-358133D01*
X162900Y-358300D01*
X163343D01*
X163787Y-358133D01*
X164167Y-357883D01*
X164483Y-357550D01*
G01X167240Y-353300D02*
X168760D01*
G01X168000D02*
Y-358300D01*
G01X167240D02*
X168760D01*
G01X171453D02*
Y-353300D01*
X173100Y-357467D01*
X174747Y-353300D01*
Y-358300D01*
G01X176617D02*
X178200Y-353300D01*
X179783Y-358300D01*
G01X179213Y-356550D02*
X177187D01*
G01X182033Y-353300D02*
Y-358300D01*
X184567D01*
G01X187070Y-357633D02*
X187577Y-358050D01*
X188147Y-358300D01*
X188653D01*
X189160Y-358050D01*
X189540Y-357633D01*
X189730Y-357050D01*
X189603Y-356467D01*
X189287Y-355967D01*
X188717Y-355633D01*
X187957Y-355467D01*
X187513Y-355133D01*
X187323Y-354550D01*
X187450Y-353967D01*
X187767Y-353550D01*
X188210Y-353300D01*
X188653D01*
X189097Y-353467D01*
X189477Y-353883D01*
G01X197903Y-356633D02*
X199423D01*
G01X198600Y-355550D02*
Y-357717D01*
G01X125997Y-339133D02*
X126377Y-338633D01*
X126820Y-338383D01*
X127327Y-338300D01*
X127960Y-338467D01*
X128403Y-338883D01*
X128530Y-339383D01*
X128467Y-339883D01*
X128213Y-340300D01*
X126947Y-341133D01*
X126377Y-341717D01*
X125997Y-342550D01*
X125870Y-343300D01*
X128530D01*
G01X136133D02*
Y-338300D01*
X137653D01*
X138160Y-338550D01*
X138540Y-339133D01*
X138667Y-339800D01*
X138540Y-340467D01*
X138223Y-340967D01*
X137653Y-341217D01*
X136133D01*
G01X141233Y-338300D02*
Y-343300D01*
X143767D01*
G01X151307D02*
Y-338300D01*
X152573D01*
X153080Y-338550D01*
X153460Y-338883D01*
X153777Y-339383D01*
X154030Y-339967D01*
X154093Y-340800D01*
X154030Y-341633D01*
X153777Y-342217D01*
X153460Y-342717D01*
X153080Y-343050D01*
X152573Y-343300D01*
X151307D01*
G01X159067D02*
X156533D01*
Y-338300D01*
X159067D01*
G01X158053Y-340717D02*
X156533D01*
G01X164293Y-338717D02*
X163913Y-338467D01*
X163470Y-338300D01*
X162963D01*
X162393Y-338550D01*
X161950Y-338967D01*
X161633Y-339467D01*
X161380Y-340300D01*
X161317Y-341050D01*
X161443Y-341800D01*
X161633Y-342300D01*
X162013Y-342800D01*
X162457Y-343133D01*
X162900Y-343300D01*
X163343D01*
X163787Y-343133D01*
X164167Y-342883D01*
X164483Y-342550D01*
G01X167240Y-338300D02*
X168760D01*
G01X168000D02*
Y-343300D01*
G01X167240D02*
X168760D01*
G01X171453D02*
Y-338300D01*
X173100Y-342467D01*
X174747Y-338300D01*
Y-343300D01*
G01X176617D02*
X178200Y-338300D01*
X179783Y-343300D01*
G01X179213Y-341550D02*
X177187D01*
G01X182033Y-338300D02*
Y-343300D01*
X184567D01*
G01X187070Y-342633D02*
X187577Y-343050D01*
X188147Y-343300D01*
X188653D01*
X189160Y-343050D01*
X189540Y-342633D01*
X189730Y-342050D01*
X189603Y-341467D01*
X189287Y-340967D01*
X188717Y-340633D01*
X187957Y-340467D01*
X187513Y-340133D01*
X187323Y-339550D01*
X187450Y-338967D01*
X187767Y-338550D01*
X188210Y-338300D01*
X188653D01*
X189097Y-338467D01*
X189477Y-338883D01*
G01X197903Y-341633D02*
X199423D01*
G01X198600Y-340550D02*
Y-342717D01*
G01X127200Y-323300D02*
Y-328300D01*
G01X125743Y-323300D02*
X128657D01*
G01X132300Y-328300D02*
X131793Y-328217D01*
X131350Y-327883D01*
X130970Y-327383D01*
X130717Y-326800D01*
X130590Y-326133D01*
Y-325467D01*
X130717Y-324800D01*
X130970Y-324217D01*
X131350Y-323717D01*
X131793Y-323383D01*
X132300Y-323300D01*
X132807Y-323383D01*
X133250Y-323717D01*
X133630Y-324217D01*
X133883Y-324800D01*
X134010Y-325467D01*
Y-326133D01*
X133883Y-326800D01*
X133630Y-327383D01*
X133250Y-327883D01*
X132807Y-328217D01*
X132300Y-328300D01*
G01X136133Y-323300D02*
Y-328300D01*
X138667D01*
G01X143767D02*
X141233D01*
Y-323300D01*
X143767D01*
G01X142753Y-325717D02*
X141233D01*
G01X146333Y-328300D02*
Y-323300D01*
X147917D01*
X148423Y-323550D01*
X148740Y-323883D01*
X148867Y-324550D01*
X148740Y-325217D01*
X148360Y-325633D01*
X147917Y-325883D01*
X146333D01*
G01X147917D02*
X148867Y-328300D01*
G01X151117D02*
X152700Y-323300D01*
X154283Y-328300D01*
G01X153713Y-326550D02*
X151687D01*
G01X156343Y-328300D02*
Y-323300D01*
X159257Y-328300D01*
Y-323300D01*
G01X164293Y-323717D02*
X163913Y-323467D01*
X163470Y-323300D01*
X162963D01*
X162393Y-323550D01*
X161950Y-323967D01*
X161633Y-324467D01*
X161380Y-325300D01*
X161317Y-326050D01*
X161443Y-326800D01*
X161633Y-327300D01*
X162013Y-327800D01*
X162457Y-328133D01*
X162900Y-328300D01*
X163343D01*
X163787Y-328133D01*
X164167Y-327883D01*
X164483Y-327550D01*
G01X169267Y-328300D02*
X166733D01*
Y-323300D01*
X169267D01*
G01X168253Y-325717D02*
X166733D01*
G01X171770Y-327633D02*
X172277Y-328050D01*
X172847Y-328300D01*
X173353D01*
X173860Y-328050D01*
X174240Y-327633D01*
X174430Y-327050D01*
X174303Y-326467D01*
X173987Y-325967D01*
X173417Y-325633D01*
X172657Y-325467D01*
X172213Y-325133D01*
X172023Y-324550D01*
X172150Y-323967D01*
X172467Y-323550D01*
X172910Y-323300D01*
X173353D01*
X173797Y-323467D01*
X174177Y-323883D01*
G01X183300Y-328300D02*
X182793Y-328217D01*
X182350Y-327883D01*
X181970Y-327383D01*
X181717Y-326800D01*
X181590Y-326133D01*
Y-325467D01*
X181717Y-324800D01*
X181970Y-324217D01*
X182350Y-323717D01*
X182793Y-323383D01*
X183300Y-323300D01*
X183807Y-323383D01*
X184250Y-323717D01*
X184630Y-324217D01*
X184883Y-324800D01*
X185010Y-325467D01*
Y-326133D01*
X184883Y-326800D01*
X184630Y-327383D01*
X184250Y-327883D01*
X183807Y-328217D01*
X183300Y-328300D01*
G01X186943D02*
Y-323300D01*
X189857Y-328300D01*
Y-323300D01*
G01X193500Y-328467D02*
X193373Y-328383D01*
Y-328217D01*
X193500Y-328133D01*
X193627Y-328217D01*
Y-328383D01*
X193500Y-328467D01*
G01Y-326217D02*
X193373Y-326133D01*
Y-325967D01*
X193500Y-325883D01*
X193627Y-325967D01*
Y-326133D01*
X193500Y-326217D01*
G01X125807Y-310800D02*
Y-305800D01*
X127073D01*
X127580Y-306050D01*
X127960Y-306383D01*
X128277Y-306883D01*
X128530Y-307467D01*
X128593Y-308300D01*
X128530Y-309133D01*
X128277Y-309717D01*
X127960Y-310217D01*
X127580Y-310550D01*
X127073Y-310800D01*
X125807D01*
G01X131540Y-305800D02*
X133060D01*
G01X132300D02*
Y-310800D01*
G01X131540D02*
X133060D01*
G01X135753D02*
Y-305800D01*
X137400Y-309967D01*
X139047Y-305800D01*
Y-310800D01*
G01X143767D02*
X141233D01*
Y-305800D01*
X143767D01*
G01X142753Y-308217D02*
X141233D01*
G01X146143Y-310800D02*
Y-305800D01*
X149057Y-310800D01*
Y-305800D01*
G01X151370Y-310133D02*
X151877Y-310550D01*
X152447Y-310800D01*
X152953D01*
X153460Y-310550D01*
X153840Y-310133D01*
X154030Y-309550D01*
X153903Y-308967D01*
X153587Y-308467D01*
X153017Y-308133D01*
X152257Y-307967D01*
X151813Y-307633D01*
X151623Y-307050D01*
X151750Y-306467D01*
X152067Y-306050D01*
X152510Y-305800D01*
X152953D01*
X153397Y-305967D01*
X153777Y-306383D01*
G01X157040Y-305800D02*
X158560D01*
G01X157800D02*
Y-310800D01*
G01X157040D02*
X158560D01*
G01X162900D02*
X162393Y-310717D01*
X161950Y-310383D01*
X161570Y-309883D01*
X161317Y-309300D01*
X161190Y-308633D01*
Y-307967D01*
X161317Y-307300D01*
X161570Y-306717D01*
X161950Y-306217D01*
X162393Y-305883D01*
X162900Y-305800D01*
X163407Y-305883D01*
X163850Y-306217D01*
X164230Y-306717D01*
X164483Y-307300D01*
X164610Y-307967D01*
Y-308633D01*
X164483Y-309300D01*
X164230Y-309883D01*
X163850Y-310383D01*
X163407Y-310717D01*
X162900Y-310800D01*
G01X166543D02*
Y-305800D01*
X169457Y-310800D01*
Y-305800D01*
G01X171770Y-310133D02*
X172277Y-310550D01*
X172847Y-310800D01*
X173353D01*
X173860Y-310550D01*
X174240Y-310133D01*
X174430Y-309550D01*
X174303Y-308967D01*
X173987Y-308467D01*
X173417Y-308133D01*
X172657Y-307967D01*
X172213Y-307633D01*
X172023Y-307050D01*
X172150Y-306467D01*
X172467Y-306050D01*
X172910Y-305800D01*
X173353D01*
X173797Y-305967D01*
X174177Y-306383D01*
G01X181717Y-310800D02*
X183300Y-305800D01*
X184883Y-310800D01*
G01X184313Y-309050D02*
X182287D01*
G01X187133Y-310800D02*
Y-305800D01*
X188717D01*
X189223Y-306050D01*
X189540Y-306383D01*
X189667Y-307050D01*
X189540Y-307717D01*
X189160Y-308133D01*
X188717Y-308383D01*
X187133D01*
G01X188717D02*
X189667Y-310800D01*
G01X194767D02*
X192233D01*
Y-305800D01*
X194767D01*
G01X193753Y-308217D02*
X192233D01*
G01X202940Y-305800D02*
X204460D01*
G01X203700D02*
Y-310800D01*
G01X202940D02*
X204460D01*
G01X207343D02*
Y-305800D01*
X210257Y-310800D01*
Y-305800D01*
G01X218240D02*
X219760D01*
G01X219000D02*
Y-310800D01*
G01X218240D02*
X219760D01*
G01X222643D02*
Y-305800D01*
X225557Y-310800D01*
Y-305800D01*
G01X230593Y-306217D02*
X230213Y-305967D01*
X229770Y-305800D01*
X229263D01*
X228693Y-306050D01*
X228250Y-306467D01*
X227933Y-306967D01*
X227680Y-307800D01*
X227617Y-308550D01*
X227743Y-309300D01*
X227933Y-309800D01*
X228313Y-310300D01*
X228757Y-310633D01*
X229200Y-310800D01*
X229643D01*
X230087Y-310633D01*
X230467Y-310383D01*
X230783Y-310050D01*
G01X232970Y-310800D02*
Y-305800D01*
G01X235630D02*
Y-310800D01*
G01Y-308300D02*
X232970D01*
G01X240667Y-310800D02*
X238133D01*
Y-305800D01*
X240667D01*
G01X239653Y-308217D02*
X238133D01*
G01X243170Y-310133D02*
X243677Y-310550D01*
X244247Y-310800D01*
X244753D01*
X245260Y-310550D01*
X245640Y-310133D01*
X245830Y-309550D01*
X245703Y-308967D01*
X245387Y-308467D01*
X244817Y-308133D01*
X244057Y-307967D01*
X243613Y-307633D01*
X243423Y-307050D01*
X243550Y-306467D01*
X243867Y-306050D01*
X244310Y-305800D01*
X244753D01*
X245197Y-305967D01*
X245577Y-306383D01*
G01X125807Y-278300D02*
Y-281883D01*
X126060Y-282633D01*
X126567Y-283133D01*
X127200Y-283300D01*
X127833Y-283133D01*
X128340Y-282633D01*
X128593Y-281883D01*
Y-278300D01*
G01X130843Y-283300D02*
Y-278300D01*
X133757Y-283300D01*
Y-278300D01*
G01X136133D02*
Y-283300D01*
X138667D01*
G01X143767D02*
X141233D01*
Y-278300D01*
X143767D01*
G01X142753Y-280717D02*
X141233D01*
G01X146270Y-282633D02*
X146777Y-283050D01*
X147347Y-283300D01*
X147853D01*
X148360Y-283050D01*
X148740Y-282633D01*
X148930Y-282050D01*
X148803Y-281467D01*
X148487Y-280967D01*
X147917Y-280633D01*
X147157Y-280467D01*
X146713Y-280133D01*
X146523Y-279550D01*
X146650Y-278967D01*
X146967Y-278550D01*
X147410Y-278300D01*
X147853D01*
X148297Y-278467D01*
X148677Y-278883D01*
G01X151370Y-282633D02*
X151877Y-283050D01*
X152447Y-283300D01*
X152953D01*
X153460Y-283050D01*
X153840Y-282633D01*
X154030Y-282050D01*
X153903Y-281467D01*
X153587Y-280967D01*
X153017Y-280633D01*
X152257Y-280467D01*
X151813Y-280133D01*
X151623Y-279550D01*
X151750Y-278967D01*
X152067Y-278550D01*
X152510Y-278300D01*
X152953D01*
X153397Y-278467D01*
X153777Y-278883D01*
G01X162900Y-283300D02*
X162393Y-283217D01*
X161950Y-282883D01*
X161570Y-282383D01*
X161317Y-281800D01*
X161190Y-281133D01*
Y-280467D01*
X161317Y-279800D01*
X161570Y-279217D01*
X161950Y-278717D01*
X162393Y-278383D01*
X162900Y-278300D01*
X163407Y-278383D01*
X163850Y-278717D01*
X164230Y-279217D01*
X164483Y-279800D01*
X164610Y-280467D01*
Y-281133D01*
X164483Y-281800D01*
X164230Y-282383D01*
X163850Y-282883D01*
X163407Y-283217D01*
X162900Y-283300D01*
G01X168000Y-278300D02*
Y-283300D01*
G01X166543Y-278300D02*
X169457D01*
G01X171770Y-283300D02*
Y-278300D01*
G01X174430D02*
Y-283300D01*
G01Y-280800D02*
X171770D01*
G01X179467Y-283300D02*
X176933D01*
Y-278300D01*
X179467D01*
G01X178453Y-280717D02*
X176933D01*
G01X182033Y-283300D02*
Y-278300D01*
X183617D01*
X184123Y-278550D01*
X184440Y-278883D01*
X184567Y-279550D01*
X184440Y-280217D01*
X184060Y-280633D01*
X183617Y-280883D01*
X182033D01*
G01X183617D02*
X184567Y-283300D01*
G01X186500Y-278300D02*
X187387Y-283300D01*
X188400Y-278300D01*
X189413Y-283300D01*
X190300Y-278300D01*
G01X192740D02*
X194260D01*
G01X193500D02*
Y-283300D01*
G01X192740D02*
X194260D01*
G01X197270Y-282633D02*
X197777Y-283050D01*
X198347Y-283300D01*
X198853D01*
X199360Y-283050D01*
X199740Y-282633D01*
X199930Y-282050D01*
X199803Y-281467D01*
X199487Y-280967D01*
X198917Y-280633D01*
X198157Y-280467D01*
X197713Y-280133D01*
X197523Y-279550D01*
X197650Y-278967D01*
X197967Y-278550D01*
X198410Y-278300D01*
X198853D01*
X199297Y-278467D01*
X199677Y-278883D01*
G01X204967Y-283300D02*
X202433D01*
Y-278300D01*
X204967D01*
G01X203953Y-280717D02*
X202433D01*
G01X212570Y-282633D02*
X213077Y-283050D01*
X213647Y-283300D01*
X214153D01*
X214660Y-283050D01*
X215040Y-282633D01*
X215230Y-282050D01*
X215103Y-281467D01*
X214787Y-280967D01*
X214217Y-280633D01*
X213457Y-280467D01*
X213013Y-280133D01*
X212823Y-279550D01*
X212950Y-278967D01*
X213267Y-278550D01*
X213710Y-278300D01*
X214153D01*
X214597Y-278467D01*
X214977Y-278883D01*
G01X217733Y-283300D02*
Y-278300D01*
X219253D01*
X219760Y-278550D01*
X220140Y-279133D01*
X220267Y-279800D01*
X220140Y-280467D01*
X219823Y-280967D01*
X219253Y-281217D01*
X217733D01*
G01X225367Y-283300D02*
X222833D01*
Y-278300D01*
X225367D01*
G01X224353Y-280717D02*
X222833D01*
G01X230593Y-278717D02*
X230213Y-278467D01*
X229770Y-278300D01*
X229263D01*
X228693Y-278550D01*
X228250Y-278967D01*
X227933Y-279467D01*
X227680Y-280300D01*
X227617Y-281050D01*
X227743Y-281800D01*
X227933Y-282300D01*
X228313Y-282800D01*
X228757Y-283133D01*
X229200Y-283300D01*
X229643D01*
X230087Y-283133D01*
X230467Y-282883D01*
X230783Y-282550D01*
G01X233540Y-278300D02*
X235060D01*
G01X234300D02*
Y-283300D01*
G01X233540D02*
X235060D01*
G01X238197D02*
Y-278300D01*
X240603D01*
G01X239717Y-280717D02*
X238197D01*
G01X243740Y-278300D02*
X245260D01*
G01X244500D02*
Y-283300D01*
G01X243740D02*
X245260D01*
G01X250867D02*
X248333D01*
Y-278300D01*
X250867D01*
G01X249853Y-280717D02*
X248333D01*
G01X253307Y-283300D02*
Y-278300D01*
X254573D01*
X255080Y-278550D01*
X255460Y-278883D01*
X255777Y-279383D01*
X256030Y-279967D01*
X256093Y-280800D01*
X256030Y-281633D01*
X255777Y-282217D01*
X255460Y-282717D01*
X255080Y-283050D01*
X254573Y-283300D01*
X253307D01*
G01X117800Y-295800D02*
X477800D01*
G01X267800Y-265800D02*
Y-445800D01*
G01Y-410800D02*
X477800D01*
G01X267800Y-385800D02*
X477800D01*
G01X267800Y-355800D02*
X477800D01*
G01X267800Y-325800D02*
X477800D01*
G01X311005Y-282460D02*
X311632Y-282985D01*
X312337Y-283300D01*
X312963D01*
X313590Y-282985D01*
X314060Y-282460D01*
X314295Y-281725D01*
X314138Y-280990D01*
X313747Y-280360D01*
X313042Y-279940D01*
X312102Y-279730D01*
X311553Y-279310D01*
X311318Y-278575D01*
X311475Y-277840D01*
X311867Y-277315D01*
X312415Y-277000D01*
X312963D01*
X313512Y-277210D01*
X313982Y-277735D01*
G01X318010Y-277000D02*
X319890D01*
G01X318950D02*
Y-283300D01*
G01X318010D02*
X319890D01*
G01X325720Y-280150D02*
X327287D01*
Y-282040D01*
X326817Y-282670D01*
X326268Y-283090D01*
X325485Y-283300D01*
X324702Y-283090D01*
X324153Y-282670D01*
X323683Y-282040D01*
X323370Y-281305D01*
X323213Y-280465D01*
Y-279730D01*
X323370Y-279100D01*
X323683Y-278365D01*
X324153Y-277735D01*
X324623Y-277315D01*
X325250Y-277000D01*
X325798D01*
X326425Y-277210D01*
X326895Y-277630D01*
G01X329748Y-283300D02*
Y-277000D01*
X333352Y-283300D01*
Y-277000D01*
G01X335892Y-283300D02*
X337850Y-277000D01*
X339808Y-283300D01*
G01X339103Y-281095D02*
X336597D01*
G01X344150Y-277000D02*
Y-283300D01*
G01X342348Y-277000D02*
X345952D01*
G01X348727D02*
Y-281515D01*
X349040Y-282460D01*
X349667Y-283090D01*
X350450Y-283300D01*
X351233Y-283090D01*
X351860Y-282460D01*
X352173Y-281515D01*
Y-277000D01*
G01X355183Y-283300D02*
Y-277000D01*
X357142D01*
X357768Y-277315D01*
X358160Y-277735D01*
X358317Y-278575D01*
X358160Y-279415D01*
X357690Y-279940D01*
X357142Y-280255D01*
X355183D01*
G01X357142D02*
X358317Y-283300D01*
G01X364617D02*
X361483D01*
Y-277000D01*
X364617D01*
G01X363363Y-280045D02*
X361483D01*
G01X367705Y-282460D02*
X368332Y-282985D01*
X369037Y-283300D01*
X369663D01*
X370290Y-282985D01*
X370760Y-282460D01*
X370995Y-281725D01*
X370838Y-280990D01*
X370447Y-280360D01*
X369742Y-279940D01*
X368802Y-279730D01*
X368253Y-279310D01*
X368018Y-278575D01*
X368175Y-277840D01*
X368567Y-277315D01*
X369115Y-277000D01*
X369663D01*
X370212Y-277210D01*
X370682Y-277735D01*
G01X397800Y-383300D02*
Y-385800D01*
G01Y-383300D02*
Y-265800D01*
G01Y261700D02*
Y231700D01*
G01Y351700D02*
Y261700D01*
G01Y291700D02*
X897800D01*
G01X397800Y321700D02*
X897800D01*
G01X423427Y-283300D02*
Y-277000D01*
X424993D01*
X425620Y-277315D01*
X426090Y-277735D01*
X426482Y-278365D01*
X426795Y-279100D01*
X426873Y-280150D01*
X426795Y-281200D01*
X426482Y-281935D01*
X426090Y-282565D01*
X425620Y-282985D01*
X424993Y-283300D01*
X423427D01*
G01X429492D02*
X431450Y-277000D01*
X433408Y-283300D01*
G01X432703Y-281095D02*
X430197D01*
G01X437750Y-277000D02*
Y-283300D01*
G01X435948Y-277000D02*
X439552D01*
G01X445617Y-283300D02*
X442483D01*
Y-277000D01*
X445617D01*
G01X444363Y-280045D02*
X442483D01*
G01X404050Y301700D02*
Y311700D01*
X407175D01*
X408175Y311200D01*
X408800Y310533D01*
X409050Y309200D01*
X408800Y307867D01*
X408050Y307033D01*
X407175Y306533D01*
X404050D01*
G01X407175D02*
X409050Y301700D01*
G01X419050D02*
X414050D01*
Y311700D01*
X419050D01*
G01X417050Y306867D02*
X414050D01*
G01X423425Y311700D02*
X426550Y301700D01*
X429675Y311700D01*
G01X437800Y261700D02*
Y231700D01*
G01Y261700D02*
Y321700D01*
G01X483925Y-429467D02*
X484925Y-430300D01*
X486050Y-430800D01*
X487050D01*
X488050Y-430300D01*
X488800Y-429467D01*
X489175Y-428300D01*
X488925Y-427134D01*
X488300Y-426133D01*
X487175Y-425467D01*
X485675Y-425133D01*
X484800Y-424467D01*
X484425Y-423300D01*
X484675Y-422133D01*
X485300Y-421300D01*
X486175Y-420800D01*
X487050D01*
X487925Y-421133D01*
X488675Y-421967D01*
G01X499300Y-421633D02*
X498550Y-421133D01*
X497675Y-420800D01*
X496675D01*
X495550Y-421300D01*
X494675Y-422133D01*
X494050Y-423133D01*
X493550Y-424800D01*
X493425Y-426300D01*
X493675Y-427800D01*
X494050Y-428800D01*
X494800Y-429800D01*
X495675Y-430467D01*
X496550Y-430800D01*
X497425D01*
X498300Y-430467D01*
X499050Y-429967D01*
X499675Y-429300D01*
G01X503425Y-430800D02*
X506550Y-420800D01*
X509675Y-430800D01*
G01X508550Y-427300D02*
X504550D01*
G01X514050Y-420800D02*
Y-430800D01*
X519050D01*
G01X529050D02*
X524050D01*
Y-420800D01*
X529050D01*
G01X527050Y-425633D02*
X524050D01*
G01X477800Y-265800D02*
Y-445800D01*
G01X483925Y-389467D02*
X484925Y-390300D01*
X486050Y-390800D01*
X487050D01*
X488050Y-390300D01*
X488800Y-389467D01*
X489175Y-388300D01*
X488925Y-387134D01*
X488300Y-386133D01*
X487175Y-385467D01*
X485675Y-385133D01*
X484800Y-384467D01*
X484425Y-383300D01*
X484675Y-382133D01*
X485300Y-381300D01*
X486175Y-380800D01*
X487050D01*
X487925Y-381133D01*
X488675Y-381967D01*
G01X495050Y-380800D02*
X498050D01*
G01X496550D02*
Y-390800D01*
G01X495050D02*
X498050D01*
G01X504175Y-380800D02*
X508925D01*
X504175Y-390800D01*
X508925D01*
G01X519050D02*
X514050D01*
Y-380800D01*
X519050D01*
G01X517050Y-385633D02*
X514050D01*
G01X727800Y-415800D02*
X477800D01*
G01X897800Y-375800D02*
X477800D01*
G01X897800Y-315800D02*
X477800D01*
G01X508800Y301700D02*
Y311700D01*
X511300D01*
X512300Y311200D01*
X513050Y310533D01*
X513675Y309533D01*
X514175Y308366D01*
X514300Y306700D01*
X514175Y305033D01*
X513675Y303867D01*
X513050Y302866D01*
X512300Y302200D01*
X511300Y301700D01*
X508800D01*
G01X524050D02*
X519050D01*
Y311700D01*
X524050D01*
G01X522050Y306867D02*
X519050D01*
G01X528925Y303033D02*
X529925Y302200D01*
X531050Y301700D01*
X532050D01*
X533050Y302200D01*
X533800Y303033D01*
X534175Y304200D01*
X533925Y305366D01*
X533300Y306367D01*
X532175Y307033D01*
X530675Y307367D01*
X529800Y308033D01*
X529425Y309200D01*
X529675Y310367D01*
X530300Y311200D01*
X531175Y311700D01*
X532050D01*
X532925Y311367D01*
X533675Y310533D01*
G01X544300Y310867D02*
X543550Y311367D01*
X542675Y311700D01*
X541675D01*
X540550Y311200D01*
X539675Y310367D01*
X539050Y309367D01*
X538550Y307700D01*
X538425Y306200D01*
X538675Y304700D01*
X539050Y303700D01*
X539800Y302700D01*
X540675Y302033D01*
X541550Y301700D01*
X542425D01*
X543300Y302033D01*
X544050Y302533D01*
X544675Y303200D01*
G01X549050Y301700D02*
Y311700D01*
X552175D01*
X553175Y311200D01*
X553800Y310533D01*
X554050Y309200D01*
X553800Y307867D01*
X553050Y307033D01*
X552175Y306533D01*
X549050D01*
G01X552175D02*
X554050Y301700D01*
G01X560050Y311700D02*
X563050D01*
G01X561550D02*
Y301700D01*
G01X560050D02*
X563050D01*
G01X569050D02*
Y311700D01*
X572050D01*
X573050Y311200D01*
X573800Y310033D01*
X574050Y308700D01*
X573800Y307367D01*
X573175Y306367D01*
X572050Y305866D01*
X569050D01*
G01X581550Y311700D02*
Y301700D01*
G01X578675Y311700D02*
X584425D01*
G01X590050D02*
X593050D01*
G01X591550D02*
Y301700D01*
G01X590050D02*
X593050D01*
G01X601550D02*
X600550Y301867D01*
X599675Y302533D01*
X598925Y303533D01*
X598425Y304700D01*
X598175Y306033D01*
Y307367D01*
X598425Y308700D01*
X598925Y309867D01*
X599675Y310867D01*
X600550Y311533D01*
X601550Y311700D01*
X602550Y311533D01*
X603425Y310867D01*
X604175Y309867D01*
X604675Y308700D01*
X604925Y307367D01*
Y306033D01*
X604675Y304700D01*
X604175Y303533D01*
X603425Y302533D01*
X602550Y301867D01*
X601550Y301700D01*
G01X608675D02*
Y311700D01*
X614425Y301700D01*
Y311700D01*
G01X539175Y-390800D02*
Y-380800D01*
X543925D01*
G01X542175Y-385633D02*
X539175D01*
G01X548925Y-389467D02*
X549925Y-390300D01*
X551050Y-390800D01*
X552050D01*
X553050Y-390300D01*
X553800Y-389467D01*
X554175Y-388300D01*
X553925Y-387134D01*
X553300Y-386133D01*
X552175Y-385467D01*
X550675Y-385133D01*
X549800Y-384467D01*
X549425Y-383300D01*
X549675Y-382133D01*
X550300Y-381300D01*
X551175Y-380800D01*
X552050D01*
X552925Y-381133D01*
X553675Y-381967D01*
G01X564300Y-381633D02*
X563550Y-381133D01*
X562675Y-380800D01*
X561675D01*
X560550Y-381300D01*
X559675Y-382133D01*
X559050Y-383133D01*
X558550Y-384800D01*
X558425Y-386300D01*
X558675Y-387800D01*
X559050Y-388800D01*
X559800Y-389800D01*
X560675Y-390467D01*
X561550Y-390800D01*
X562425D01*
X563300Y-390467D01*
X564050Y-389967D01*
X564675Y-389300D01*
G01X568300Y-390800D02*
Y-380800D01*
X571550Y-389133D01*
X574800Y-380800D01*
Y-390800D01*
G01X588675D02*
Y-380800D01*
X594425Y-390800D01*
Y-380800D01*
G01X601550Y-390800D02*
X600550Y-390633D01*
X599675Y-389967D01*
X598925Y-388967D01*
X598425Y-387800D01*
X598175Y-386467D01*
Y-385133D01*
X598425Y-383800D01*
X598925Y-382633D01*
X599675Y-381633D01*
X600550Y-380967D01*
X601550Y-380800D01*
X602550Y-380967D01*
X603425Y-381633D01*
X604175Y-382633D01*
X604675Y-383800D01*
X604925Y-385133D01*
Y-386467D01*
X604675Y-387800D01*
X604175Y-388967D01*
X603425Y-389967D01*
X602550Y-390633D01*
X601550Y-390800D01*
G01X527800Y-415800D02*
Y-375800D01*
G01X549050Y-295800D02*
Y-285800D01*
X552050D01*
X553050Y-286300D01*
X553800Y-287467D01*
X554050Y-288800D01*
X553800Y-290133D01*
X553175Y-291133D01*
X552050Y-291634D01*
X549050D01*
G01X559175Y-287467D02*
X559925Y-286467D01*
X560800Y-285967D01*
X561800Y-285800D01*
X563050Y-286133D01*
X563925Y-286967D01*
X564175Y-287967D01*
X564050Y-288967D01*
X563550Y-289800D01*
X561050Y-291467D01*
X559925Y-292633D01*
X559175Y-294300D01*
X558925Y-295800D01*
X564175D01*
G01X571550Y-285800D02*
X570550Y-286133D01*
X569800Y-286967D01*
X569300Y-287967D01*
X568925Y-289300D01*
X568800Y-290800D01*
X568925Y-292300D01*
X569300Y-293633D01*
X569800Y-294634D01*
X570550Y-295467D01*
X571550Y-295800D01*
X572550Y-295467D01*
X573300Y-294634D01*
X573800Y-293633D01*
X574175Y-292300D01*
X574300Y-290800D01*
X574175Y-289300D01*
X573800Y-287967D01*
X573300Y-286967D01*
X572550Y-286133D01*
X571550Y-285800D01*
G01X581550D02*
X580550Y-286133D01*
X579800Y-286967D01*
X579300Y-287967D01*
X578925Y-289300D01*
X578800Y-290800D01*
X578925Y-292300D01*
X579300Y-293633D01*
X579800Y-294634D01*
X580550Y-295467D01*
X581550Y-295800D01*
X582550Y-295467D01*
X583300Y-294634D01*
X583800Y-293633D01*
X584175Y-292300D01*
X584300Y-290800D01*
X584175Y-289300D01*
X583800Y-287967D01*
X583300Y-286967D01*
X582550Y-286133D01*
X581550Y-285800D01*
G01X591550Y-295800D02*
Y-285800D01*
X590050Y-287800D01*
G01Y-295800D02*
X593050D01*
G01X599175Y-291634D02*
X600050Y-290467D01*
X600800Y-289800D01*
X601800Y-289467D01*
X602675Y-289800D01*
X603300Y-290467D01*
X603800Y-291467D01*
X603925Y-292633D01*
X603800Y-293633D01*
X603300Y-294634D01*
X602550Y-295467D01*
X601675Y-295800D01*
X600675Y-295467D01*
X599800Y-294467D01*
X599300Y-292967D01*
X599175Y-291300D01*
X599425Y-289134D01*
X599800Y-287967D01*
X600425Y-286800D01*
X601300Y-285967D01*
X602175Y-285800D01*
X603050Y-286133D01*
X603675Y-286967D01*
G01X618300Y-295800D02*
Y-285800D01*
X621550Y-294133D01*
X624800Y-285800D01*
Y-295800D01*
G01X628925Y-294467D02*
X629925Y-295300D01*
X631050Y-295800D01*
X632050D01*
X633050Y-295300D01*
X633800Y-294467D01*
X634175Y-293300D01*
X633925Y-292134D01*
X633300Y-291133D01*
X632175Y-290467D01*
X630675Y-290133D01*
X629800Y-289467D01*
X629425Y-288300D01*
X629675Y-287133D01*
X630300Y-286300D01*
X631175Y-285800D01*
X632050D01*
X632925Y-286133D01*
X633675Y-286967D01*
G01X638800Y-295800D02*
Y-285800D01*
X641300D01*
X642300Y-286300D01*
X643050Y-286967D01*
X643675Y-287967D01*
X644175Y-289134D01*
X644300Y-290800D01*
X644175Y-292467D01*
X643675Y-293633D01*
X643050Y-294634D01*
X642300Y-295300D01*
X641300Y-295800D01*
X638800D01*
G01X659050D02*
Y-285800D01*
X662050D01*
X663050Y-286300D01*
X663800Y-287467D01*
X664050Y-288800D01*
X663800Y-290133D01*
X663175Y-291133D01*
X662050Y-291634D01*
X659050D01*
G01X669800Y-295800D02*
Y-289134D01*
G01Y-290467D02*
X670425Y-289800D01*
X671050Y-289300D01*
X671925Y-289134D01*
X672550Y-289300D01*
X673300Y-289800D01*
G01X681550Y-295800D02*
X680800Y-295633D01*
X680050Y-294967D01*
X679550Y-293800D01*
X679300Y-292467D01*
X679550Y-291133D01*
X680050Y-289967D01*
X680800Y-289300D01*
X681550Y-289134D01*
X682300Y-289300D01*
X683050Y-289967D01*
X683550Y-291133D01*
X683675Y-292467D01*
X683550Y-293800D01*
X683050Y-294967D01*
X682300Y-295633D01*
X681550Y-295800D01*
G01X689550Y-298300D02*
X690425Y-298967D01*
X691175Y-299133D01*
X692175Y-298800D01*
X692925Y-297967D01*
X693300Y-296467D01*
Y-289134D01*
G01Y-286467D02*
X693050Y-286300D01*
Y-285967D01*
X693300Y-285800D01*
X693550Y-285967D01*
Y-286300D01*
X693300Y-286467D01*
G01X699675Y-291300D02*
X703675D01*
X703300Y-290133D01*
X702675Y-289467D01*
X701800Y-289134D01*
X700925Y-289300D01*
X700175Y-289800D01*
X699675Y-290967D01*
X699425Y-291967D01*
Y-292967D01*
X699675Y-293967D01*
X700300Y-294967D01*
X701050Y-295633D01*
X701925Y-295800D01*
X702800Y-295467D01*
X703675Y-294467D01*
G01X713550Y-289967D02*
X712675Y-289300D01*
X711925Y-289134D01*
X710925Y-289467D01*
X710175Y-290133D01*
X709675Y-291300D01*
X709550Y-292467D01*
X709675Y-293633D01*
X710175Y-294634D01*
X710925Y-295467D01*
X711925Y-295800D01*
X712800Y-295467D01*
X713550Y-294800D01*
G01X721550Y-285800D02*
Y-295800D01*
G01X719800Y-289134D02*
X723300D01*
G01X731300Y-297633D02*
X731800Y-295467D01*
G01X749050Y-295800D02*
Y-285800D01*
X752175D01*
X753175Y-286300D01*
X753800Y-286967D01*
X754050Y-288300D01*
X753800Y-289633D01*
X753050Y-290467D01*
X752175Y-290967D01*
X749050D01*
G01X752175D02*
X754050Y-295800D01*
G01X760050Y-285800D02*
X763050D01*
G01X761550D02*
Y-295800D01*
G01X760050D02*
X763050D01*
G01X771550Y-285800D02*
Y-295800D01*
G01X768675Y-285800D02*
X774425D01*
G01X567800Y-415800D02*
Y-445800D01*
G01X614050Y331700D02*
Y341700D01*
X617175D01*
X618175Y341200D01*
X618800Y340533D01*
X619050Y339200D01*
X618800Y337867D01*
X618050Y337033D01*
X617175Y336533D01*
X614050D01*
G01X617175D02*
X619050Y331700D01*
G01X629050D02*
X624050D01*
Y341700D01*
X629050D01*
G01X627050Y336867D02*
X624050D01*
G01X633425Y341700D02*
X636550Y331700D01*
X639675Y341700D01*
G01X645050D02*
X648050D01*
G01X646550D02*
Y331700D01*
G01X645050D02*
X648050D01*
G01X653925Y333033D02*
X654925Y332200D01*
X656050Y331700D01*
X657050D01*
X658050Y332200D01*
X658800Y333033D01*
X659175Y334200D01*
X658925Y335366D01*
X658300Y336367D01*
X657175Y337033D01*
X655675Y337367D01*
X654800Y338033D01*
X654425Y339200D01*
X654675Y340367D01*
X655300Y341200D01*
X656175Y341700D01*
X657050D01*
X657925Y341367D01*
X658675Y340533D01*
G01X665050Y341700D02*
X668050D01*
G01X666550D02*
Y331700D01*
G01X665050D02*
X668050D01*
G01X676550D02*
X675550Y331867D01*
X674675Y332533D01*
X673925Y333533D01*
X673425Y334700D01*
X673175Y336033D01*
Y337367D01*
X673425Y338700D01*
X673925Y339867D01*
X674675Y340867D01*
X675550Y341533D01*
X676550Y341700D01*
X677550Y341533D01*
X678425Y340867D01*
X679175Y339867D01*
X679675Y338700D01*
X679925Y337367D01*
Y336033D01*
X679675Y334700D01*
X679175Y333533D01*
X678425Y332533D01*
X677550Y331867D01*
X676550Y331700D01*
G01X683675D02*
Y341700D01*
X689425Y331700D01*
Y341700D01*
G01X693925Y333033D02*
X694925Y332200D01*
X696050Y331700D01*
X697050D01*
X698050Y332200D01*
X698800Y333033D01*
X699175Y334200D01*
X698925Y335366D01*
X698300Y336367D01*
X697175Y337033D01*
X695675Y337367D01*
X694800Y338033D01*
X694425Y339200D01*
X694675Y340367D01*
X695300Y341200D01*
X696175Y341700D01*
X697050D01*
X697925Y341367D01*
X698675Y340533D01*
G01X658800Y-390800D02*
Y-380800D01*
X661300D01*
X662300Y-381300D01*
X663050Y-381967D01*
X663675Y-382967D01*
X664175Y-384134D01*
X664300Y-385800D01*
X664175Y-387467D01*
X663675Y-388633D01*
X663050Y-389634D01*
X662300Y-390300D01*
X661300Y-390800D01*
X658800D01*
G01X667800Y-380800D02*
X669550Y-390800D01*
X671550Y-380800D01*
X673550Y-390800D01*
X675300Y-380800D01*
G01X682300Y-385800D02*
X684800D01*
Y-388800D01*
X684050Y-389800D01*
X683175Y-390467D01*
X681925Y-390800D01*
X680675Y-390467D01*
X679800Y-389800D01*
X679050Y-388800D01*
X678550Y-387633D01*
X678300Y-386300D01*
Y-385133D01*
X678550Y-384134D01*
X679050Y-382967D01*
X679800Y-381967D01*
X680550Y-381300D01*
X681550Y-380800D01*
X682425D01*
X683425Y-381133D01*
X684175Y-381800D01*
G01X698675Y-390800D02*
Y-380800D01*
X704425Y-390800D01*
Y-380800D01*
G01X711550Y-390800D02*
X710550Y-390633D01*
X709675Y-389967D01*
X708925Y-388967D01*
X708425Y-387800D01*
X708175Y-386467D01*
Y-385133D01*
X708425Y-383800D01*
X708925Y-382633D01*
X709675Y-381633D01*
X710550Y-380967D01*
X711550Y-380800D01*
X712550Y-380967D01*
X713425Y-381633D01*
X714175Y-382633D01*
X714675Y-383800D01*
X714925Y-385133D01*
Y-386467D01*
X714675Y-387800D01*
X714175Y-388967D01*
X713425Y-389967D01*
X712550Y-390633D01*
X711550Y-390800D01*
G01X647800Y-415800D02*
Y-375800D01*
G01X727800Y-445800D02*
Y-415800D01*
X897800D01*
G01X707800Y261700D02*
Y231700D01*
G01Y251700D02*
Y291700D01*
G01D02*
Y321700D01*
G01X738925Y-429467D02*
X739925Y-430300D01*
X741050Y-430800D01*
X742050D01*
X743050Y-430300D01*
X743800Y-429467D01*
X744175Y-428300D01*
X743925Y-427134D01*
X743300Y-426133D01*
X742175Y-425467D01*
X740675Y-425133D01*
X739800Y-424467D01*
X739425Y-423300D01*
X739675Y-422133D01*
X740300Y-421300D01*
X741175Y-420800D01*
X742050D01*
X742925Y-421133D01*
X743675Y-421967D01*
G01X748925Y-430800D02*
Y-420800D01*
G01X754175D02*
Y-430800D01*
G01Y-425800D02*
X748925D01*
G01X764050Y-430800D02*
X759050D01*
Y-420800D01*
X764050D01*
G01X762050Y-425633D02*
X759050D01*
G01X774050Y-430800D02*
X769050D01*
Y-420800D01*
X774050D01*
G01X772050Y-425633D02*
X769050D01*
G01X781550Y-420800D02*
Y-430800D01*
G01X778675Y-420800D02*
X784425D01*
G01X733800Y301700D02*
Y311700D01*
X736300D01*
X737300Y311200D01*
X738050Y310533D01*
X738675Y309533D01*
X739175Y308366D01*
X739300Y306700D01*
X739175Y305033D01*
X738675Y303867D01*
X738050Y302866D01*
X737300Y302200D01*
X736300Y301700D01*
X733800D01*
G01X743425D02*
X746550Y311700D01*
X749675Y301700D01*
G01X748550Y305200D02*
X744550D01*
G01X756550Y311700D02*
Y301700D01*
G01X753675Y311700D02*
X759425D01*
G01X769050Y301700D02*
X764050D01*
Y311700D01*
X769050D01*
G01X767050Y306867D02*
X764050D01*
G01X797800Y261700D02*
Y231700D01*
G01Y261700D02*
Y291700D01*
G01D02*
Y321700D01*
G01X808425Y301700D02*
X811550Y311700D01*
X814675Y301700D01*
G01X813550Y305200D02*
X809550D01*
G01X819050Y301700D02*
Y311700D01*
X822050D01*
X823050Y311200D01*
X823800Y310033D01*
X824050Y308700D01*
X823800Y307367D01*
X823175Y306367D01*
X822050Y305866D01*
X819050D01*
G01X829050Y301700D02*
Y311700D01*
X832050D01*
X833050Y311200D01*
X833800Y310033D01*
X834050Y308700D01*
X833800Y307367D01*
X833175Y306367D01*
X832050Y305866D01*
X829050D01*
G01X839050Y301700D02*
Y311700D01*
X842175D01*
X843175Y311200D01*
X843800Y310533D01*
X844050Y309200D01*
X843800Y307867D01*
X843050Y307033D01*
X842175Y306533D01*
X839050D01*
G01X842175D02*
X844050Y301700D01*
G01X851550D02*
X850550Y301867D01*
X849675Y302533D01*
X848925Y303533D01*
X848425Y304700D01*
X848175Y306033D01*
Y307367D01*
X848425Y308700D01*
X848925Y309867D01*
X849675Y310867D01*
X850550Y311533D01*
X851550Y311700D01*
X852550Y311533D01*
X853425Y310867D01*
X854175Y309867D01*
X854675Y308700D01*
X854925Y307367D01*
Y306033D01*
X854675Y304700D01*
X854175Y303533D01*
X853425Y302533D01*
X852550Y301867D01*
X851550Y301700D01*
G01X858425Y311700D02*
X861550Y301700D01*
X864675Y311700D01*
G01X874050Y301700D02*
X869050D01*
Y311700D01*
X874050D01*
G01X872050Y306867D02*
X869050D01*
G01X878800Y301700D02*
Y311700D01*
X881300D01*
X882300Y311200D01*
X883050Y310533D01*
X883675Y309533D01*
X884175Y308366D01*
X884300Y306700D01*
X884175Y305033D01*
X883675Y303867D01*
X883050Y302866D01*
X882300Y302200D01*
X881300Y301700D01*
X878800D01*
G01X897800Y351700D02*
Y231700D01*
G54D18*
G01X41818Y15635D02*
Y17565D01*
G01X24435Y53882D02*
X26365D01*
G01Y52118D02*
X24435D01*
G01X26365Y47218D02*
X24435D01*
G01Y48982D02*
X26365D01*
G01Y56918D02*
X24435D01*
G01X26365Y42318D02*
X24435D01*
G01Y44082D02*
X26365D01*
G01X19618Y68535D02*
Y70465D01*
G01X21382D02*
Y68535D01*
G01X26382Y70465D02*
Y68535D01*
G01X24618D02*
Y70465D01*
G01X24435Y58682D02*
X26365D01*
G01X43582Y17565D02*
Y15635D01*
G01X56618Y33835D02*
Y35765D01*
G01X58382D02*
Y33835D01*
G01X59765Y56518D02*
X57835D01*
G01X50718Y33835D02*
Y35765D01*
G01X52482D02*
Y33835D01*
G01X56618Y46135D02*
Y48065D01*
G01X58382D02*
Y46135D01*
G01X62418Y33835D02*
Y35765D01*
G01X64182D02*
Y33835D01*
G01X57835Y58282D02*
X59765D01*
G01X48865Y77918D02*
X46935D01*
G01Y79682D02*
X48865D01*
G01X62765Y77918D02*
X60835D01*
G01Y79682D02*
X62765D01*
G01X60082Y70265D02*
Y68335D01*
G01X58318D02*
Y70265D01*
M02*
