G04 ================== begin FILE IDENTIFICATION RECORD ==================*
G04 Layout Name:  msd_foot_ext1.brd*
G04 Film Name:    ASSEMBLY*
G04 File Format:  Gerber RS274X*
G04 File Origin:  Cadence Allegro 17.2-S071*
G04 Origin Date:  Tue Nov 24 21:07:37 2020*
G04 *
G04 Layer:  REF DES/ASSEMBLY_TOP*
G04 Layer:  PIN/TOP*
G04 Layer:  PACKAGE GEOMETRY/ASSEMBLY_TOP*
G04 Layer:  DRAWING FORMAT/OUTLINE*
G04 Layer:  DRAWING FORMAT/TITLE_BLOCK*
G04 Layer:  DRAWING FORMAT/TITLE_DATA*
G04 Layer:  DRAWING FORMAT/REVISION_BLOCK*
G04 Layer:  DRAWING FORMAT/REVISION_DATA*
G04 Layer:  BOARD GEOMETRY/DESIGN_OUTLINE*
G04 *
G04 Offset:    (0.00 0.00)*
G04 Mirror:    No*
G04 Mode:      Positive*
G04 Rotation:  0*
G04 FullContactRelief:  No*
G04 UndefLineWidth:     0.13*
G04 ================== end FILE IDENTIFICATION RECORD ====================*
%FSLAX25Y25*MOIN*%
%IR0*IPPOS*OFA0.00000B0.00000*MIA0B0*SFA1.00000B1.00000*%
%ADD10R,.07874X.07874*%
%ADD16R,.018X.06*%
%ADD12R,.06X.018*%
%ADD15R,.05228X.011*%
%ADD11R,.03543X.02756*%
%ADD14R,.02756X.03543*%
%ADD13R,.09843X.03937*%
%ADD17C,.00013*%
%ADD18C,.006*%
G75*
%LPD*%
G75*
G54D10*
X1050020Y721899D03*
Y739221D03*
X1071370Y721899D03*
Y739221D03*
X1093440Y721899D03*
Y739221D03*
X1116210Y721899D03*
Y739221D03*
G54D11*
X1047590Y746821D03*
Y751939D03*
X1073800Y746821D03*
X1052440Y746811D03*
X1068950Y746821D03*
X1073800Y751939D03*
X1052440Y751929D03*
X1068950Y751939D03*
X1073360Y811581D03*
X1077220Y802901D03*
Y808019D03*
X1068540Y811581D03*
X1073360Y816699D03*
X1068540D03*
X1068500Y827141D03*
Y832259D03*
X1095860Y746811D03*
X1082310Y747569D03*
Y742451D03*
X1082320Y735929D03*
Y730811D03*
X1091010Y746821D03*
X1095860Y751929D03*
X1082530Y777869D03*
Y772751D03*
X1091010Y751939D03*
X1084970Y807899D03*
Y802781D03*
X1089750Y807919D03*
Y802801D03*
X1100610Y803461D03*
Y808579D03*
X1118640Y746821D03*
X1113760D03*
X1118640Y751939D03*
X1113490Y775921D03*
Y781039D03*
X1113760Y751939D03*
G54D12*
X1052560Y759861D03*
Y762420D03*
Y764980D03*
Y767539D03*
X1068660D03*
Y764980D03*
Y762420D03*
Y759861D03*
X1097420Y760421D03*
Y762980D03*
Y765540D03*
Y768099D03*
X1113520D03*
Y765540D03*
Y762980D03*
Y760421D03*
G54D13*
X1051630Y784881D03*
Y792755D03*
Y800629D03*
Y808503D03*
Y816377D03*
Y824251D03*
Y832125D03*
Y839999D03*
X1114620Y792808D03*
Y800682D03*
Y808556D03*
Y816430D03*
Y824304D03*
Y832178D03*
Y840052D03*
G54D14*
X1077451Y767520D03*
X1079891Y840280D03*
X1067199Y821900D03*
X1062081D03*
X1082569Y767520D03*
X1085009Y840280D03*
G54D15*
X1073766Y785873D03*
Y787842D03*
Y789810D03*
Y791778D03*
Y793747D03*
X1091194D03*
Y791778D03*
Y789810D03*
Y787842D03*
Y785873D03*
G54D16*
X1079881Y832830D03*
Y816730D03*
X1082440Y832830D03*
X1085000D03*
X1087559D03*
Y816730D03*
X1085000D03*
X1082440D03*
G54D17*
G01X1045610Y717480D02*
Y842480D01*
X1120610D01*
Y717480D01*
X1045610D01*
G01X1053957Y726623D02*
Y734497D01*
X1046083D01*
Y726623D01*
X1053957D01*
G01X1048790Y747199D02*
X1046428D01*
Y748380D01*
X1048790D01*
Y747199D01*
G01Y750399D02*
X1046428D01*
Y751580D01*
X1048790D01*
Y750399D01*
G01X1045724Y782912D02*
X1057536D01*
Y841968D01*
X1045724D01*
Y782912D01*
G01X1075307Y726623D02*
Y734497D01*
X1067433D01*
Y726623D01*
X1075307D01*
G01X1075000Y747199D02*
X1072638D01*
Y748380D01*
X1075000D01*
Y747199D01*
G01X1053640Y747189D02*
X1051278D01*
Y748370D01*
X1053640D01*
Y747189D01*
G01X1070150Y747199D02*
X1067788D01*
Y748380D01*
X1070150D01*
Y747199D01*
G01X1059410Y769600D02*
G03X1061810I1200J0D01*
G01X1054710D02*
Y757800D01*
G01X1066510Y769600D02*
X1054710D01*
G01X1066510Y757800D02*
Y769600D01*
G01X1054710Y757800D02*
X1066510D01*
G01X1070260Y768339D02*
X1066510D01*
G01X1070260Y766739D02*
Y768339D01*
G01X1066510Y766739D02*
X1070260D01*
G01X1066510Y768339D02*
Y766739D01*
G01X1070260Y765780D02*
X1066510D01*
G01X1070260Y764180D02*
Y765780D01*
G01X1066510Y764180D02*
X1070260D01*
G01X1066510Y765780D02*
Y764180D01*
G01X1070260Y763220D02*
X1066510D01*
G01X1070260Y761620D02*
Y763220D01*
G01X1066510Y761620D02*
X1070260D01*
G01X1066510Y763220D02*
Y761620D01*
G01X1070260Y760661D02*
X1066510D01*
G01X1070260Y759061D02*
Y760661D01*
G01X1066510Y759061D02*
X1070260D01*
G01X1066510Y760661D02*
Y759061D01*
G01X1050960D02*
X1054710D01*
G01X1050960Y760661D02*
Y759061D01*
G01X1054710Y760661D02*
X1050960D01*
G01X1054710Y759061D02*
Y760661D01*
G01X1050960Y761620D02*
X1054710D01*
G01X1050960Y763220D02*
Y761620D01*
G01X1054710Y763220D02*
X1050960D01*
G01X1054710Y761620D02*
Y763220D01*
G01X1050960Y764180D02*
X1054710D01*
G01X1050960Y765780D02*
Y764180D01*
G01X1054710Y765780D02*
X1050960D01*
G01X1054710Y764180D02*
Y765780D01*
G01X1050960Y766739D02*
X1054710D01*
G01X1050960Y768339D02*
Y766739D01*
G01X1054710Y768339D02*
X1050960D01*
G01X1054710Y766739D02*
Y768339D01*
G01X1075000Y750399D02*
X1072638D01*
Y751580D01*
X1075000D01*
Y750399D01*
G01X1078991Y768720D02*
Y766358D01*
X1077810D01*
Y768720D01*
X1078991D01*
G01X1053640Y750389D02*
X1051278D01*
Y751570D01*
X1053640D01*
Y750389D01*
G01X1070150Y750399D02*
X1067788D01*
Y751580D01*
X1070150D01*
Y750399D01*
G01X1076020Y807641D02*
X1078382D01*
Y806460D01*
X1076020D01*
Y807641D01*
G01Y804441D02*
X1078382D01*
Y803260D01*
X1076020D01*
Y804441D01*
G01X1076380Y795910D02*
Y783710D01*
G01X1088580Y795910D02*
X1076380D01*
G01Y783710D02*
X1088580D01*
G01X1072530Y785323D02*
X1076380D01*
G01X1072530Y786423D02*
Y785323D01*
G01X1076380Y786423D02*
X1072530D01*
G01X1076380Y785323D02*
Y786423D01*
G01X1072530Y787292D02*
X1076380D01*
G01X1072530Y788392D02*
Y787292D01*
G01X1076380Y788392D02*
X1072530D01*
G01X1076380Y787292D02*
Y788392D01*
G01X1072530Y789260D02*
X1076380D01*
G01X1072530Y790360D02*
Y789260D01*
G01X1076380Y790360D02*
X1072530D01*
G01X1076380Y789260D02*
Y790360D01*
G01X1072530Y791228D02*
X1076380D01*
G01X1072530Y792328D02*
Y791228D01*
G01X1076380Y792328D02*
X1072530D01*
G01X1076380Y791228D02*
Y792328D01*
G01X1072530Y793197D02*
X1076380D01*
G01X1072530Y794297D02*
Y793197D01*
G01X1076380Y794297D02*
X1072530D01*
G01X1076380Y793197D02*
Y794297D01*
G01X1077820Y823580D02*
G03Y825980I0J1200D01*
G01Y818880D02*
X1089620D01*
G01X1077820Y830680D02*
Y818880D01*
G01X1089620Y830680D02*
X1077820D01*
G01X1079081Y834430D02*
Y830680D01*
G01X1080681Y834430D02*
X1079081D01*
G01Y830680D02*
X1080681D01*
G01X1079081Y815130D02*
X1080681D01*
G01X1079081Y818880D02*
Y815130D01*
G01X1080681Y818880D02*
X1079081D01*
G01X1074560Y811959D02*
X1072198D01*
Y813140D01*
X1074560D01*
Y811959D01*
G01Y815159D02*
X1072198D01*
Y816340D01*
X1074560D01*
Y815159D01*
G01X1067340Y816321D02*
X1069702D01*
Y815140D01*
X1067340D01*
Y816321D01*
G01Y813121D02*
X1069702D01*
Y811940D01*
X1067340D01*
Y813121D01*
G01X1067300Y831881D02*
X1069662D01*
Y830700D01*
X1067300D01*
Y831881D01*
G01Y828681D02*
X1069662D01*
Y827500D01*
X1067300D01*
Y828681D01*
G01X1062459Y820700D02*
Y823062D01*
X1063640D01*
Y820700D01*
X1062459D01*
G01X1065659D02*
Y823062D01*
X1066840D01*
Y820700D01*
X1065659D01*
G01X1097377Y726623D02*
Y734497D01*
X1089503D01*
Y726623D01*
X1097377D01*
G01X1097060Y747189D02*
X1094698D01*
Y748370D01*
X1097060D01*
Y747189D01*
G01X1083510Y742829D02*
X1081148D01*
Y744010D01*
X1083510D01*
Y742829D01*
G01Y746029D02*
X1081148D01*
Y747210D01*
X1083510D01*
Y746029D01*
G01X1083520Y731189D02*
X1081158D01*
Y732370D01*
X1083520D01*
Y731189D01*
G01Y734389D02*
X1081158D01*
Y735570D01*
X1083520D01*
Y734389D01*
G01X1092210Y747199D02*
X1089848D01*
Y748380D01*
X1092210D01*
Y747199D01*
G01X1104270Y770160D02*
G03X1106670I1200J0D01*
G01X1099570D02*
Y758360D01*
G01X1111370Y770160D02*
X1099570D01*
G01Y758360D02*
X1111370D01*
G01X1095820Y759621D02*
X1099570D01*
G01X1095820Y761221D02*
Y759621D01*
G01X1099570Y761221D02*
X1095820D01*
G01X1099570Y759621D02*
Y761221D01*
G01X1095820Y762180D02*
X1099570D01*
G01X1095820Y763780D02*
Y762180D01*
G01X1099570Y763780D02*
X1095820D01*
G01X1099570Y762180D02*
Y763780D01*
G01X1095820Y764740D02*
X1099570D01*
G01X1095820Y766340D02*
Y764740D01*
G01X1099570Y766340D02*
X1095820D01*
G01X1099570Y764740D02*
Y766340D01*
G01X1095820Y767299D02*
X1099570D01*
G01X1095820Y768899D02*
Y767299D01*
G01X1099570Y768899D02*
X1095820D01*
G01X1099570Y767299D02*
Y768899D01*
G01X1082191Y768720D02*
Y766358D01*
X1081010D01*
Y768720D01*
X1082191D01*
G01X1097060Y750389D02*
X1094698D01*
Y751570D01*
X1097060D01*
Y750389D01*
G01X1083730Y773129D02*
X1081368D01*
Y774310D01*
X1083730D01*
Y773129D01*
G01Y776329D02*
X1081368D01*
Y777510D01*
X1083730D01*
Y776329D01*
G01X1092210Y750399D02*
X1089848D01*
Y751580D01*
X1092210D01*
Y750399D01*
G01X1108714Y790839D02*
X1120526D01*
Y842021D01*
X1108714D01*
Y790839D01*
G01X1086170Y803159D02*
X1083808D01*
Y804340D01*
X1086170D01*
Y803159D01*
G01Y806359D02*
X1083808D01*
Y807540D01*
X1086170D01*
Y806359D01*
G01X1090950Y803179D02*
X1088588D01*
Y804360D01*
X1090950D01*
Y803179D01*
G01Y806379D02*
X1088588D01*
Y807560D01*
X1090950D01*
Y806379D01*
G01X1099410Y808201D02*
X1101772D01*
Y807020D01*
X1099410D01*
Y808201D01*
G01Y805001D02*
X1101772D01*
Y803820D01*
X1099410D01*
Y805001D01*
G01X1081280Y795910D02*
G03X1083680I1200J0D01*
G01X1088580Y783710D02*
Y795910D01*
G01X1092430Y794297D02*
X1088580D01*
G01X1092430Y793197D02*
Y794297D01*
G01X1088580Y793197D02*
X1092430D01*
G01X1088580Y794297D02*
Y793197D01*
G01X1092430Y792328D02*
X1088580D01*
G01X1092430Y791228D02*
Y792328D01*
G01X1088580Y791228D02*
X1092430D01*
G01X1088580Y792328D02*
Y791228D01*
G01X1092430Y790360D02*
X1088580D01*
G01X1092430Y789260D02*
Y790360D01*
G01X1088580Y789260D02*
X1092430D01*
G01X1088580Y790360D02*
Y789260D01*
G01X1092430Y788392D02*
X1088580D01*
G01X1092430Y787292D02*
Y788392D01*
G01X1088580Y787292D02*
X1092430D01*
G01X1088580Y788392D02*
Y787292D01*
G01X1092430Y786423D02*
X1088580D01*
G01X1092430Y785323D02*
Y786423D01*
G01X1088580Y785323D02*
X1092430D01*
G01X1088580Y786423D02*
Y785323D01*
G01X1089620Y818880D02*
Y830680D01*
G01X1080681D02*
Y834430D01*
G01X1081640D02*
Y830680D01*
G01X1083240Y834430D02*
X1081640D01*
G01X1083240Y830680D02*
Y834430D01*
G01X1081640Y830680D02*
X1083240D01*
G01X1084200Y834430D02*
Y830680D01*
G01X1085800Y834430D02*
X1084200D01*
G01X1085800Y830680D02*
Y834430D01*
G01X1084200Y830680D02*
X1085800D01*
G01X1086759Y834430D02*
Y830680D01*
G01X1088359Y834430D02*
X1086759D01*
G01X1088359Y830680D02*
Y834430D01*
G01X1086759Y830680D02*
X1088359D01*
G01Y815130D02*
Y818880D01*
G01X1086759Y815130D02*
X1088359D01*
G01X1086759Y818880D02*
Y815130D01*
G01X1088359Y818880D02*
X1086759D01*
G01X1085800Y815130D02*
Y818880D01*
G01X1084200Y815130D02*
X1085800D01*
G01X1084200Y818880D02*
Y815130D01*
G01X1085800Y818880D02*
X1084200D01*
G01X1083240Y815130D02*
Y818880D01*
G01X1081640Y815130D02*
X1083240D01*
G01X1081640Y818880D02*
Y815130D01*
G01X1083240Y818880D02*
X1081640D01*
G01X1080681Y815130D02*
Y818880D01*
G01X1080269Y839080D02*
Y841442D01*
X1081450D01*
Y839080D01*
X1080269D01*
G01X1083469D02*
Y841442D01*
X1084650D01*
Y839080D01*
X1083469D01*
G01X1120147Y726623D02*
Y734497D01*
X1112273D01*
Y726623D01*
X1120147D01*
G01X1119840Y747199D02*
X1117478D01*
Y748380D01*
X1119840D01*
Y747199D01*
G01X1114960D02*
X1112598D01*
Y748380D01*
X1114960D01*
Y747199D01*
G01X1111370Y758360D02*
Y770160D01*
G01X1115120Y768899D02*
X1111370D01*
G01X1115120Y767299D02*
Y768899D01*
G01X1111370Y767299D02*
X1115120D01*
G01X1111370Y768899D02*
Y767299D01*
G01X1115120Y766340D02*
X1111370D01*
G01X1115120Y764740D02*
Y766340D01*
G01X1111370Y764740D02*
X1115120D01*
G01X1111370Y766340D02*
Y764740D01*
G01X1115120Y763780D02*
X1111370D01*
G01X1115120Y762180D02*
Y763780D01*
G01X1111370Y762180D02*
X1115120D01*
G01X1111370Y763780D02*
Y762180D01*
G01X1115120Y761221D02*
X1111370D01*
G01X1115120Y759621D02*
Y761221D01*
G01X1111370Y759621D02*
X1115120D01*
G01X1111370Y761221D02*
Y759621D01*
G01X1119840Y750399D02*
X1117478D01*
Y751580D01*
X1119840D01*
Y750399D01*
G01X1112290Y780661D02*
X1114652D01*
Y779480D01*
X1112290D01*
Y780661D01*
G01Y777461D02*
X1114652D01*
Y776280D01*
X1112290D01*
Y777461D01*
G01X1114960Y750399D02*
X1112598D01*
Y751580D01*
X1114960D01*
Y750399D01*
G54D18*
G01X1046708Y748415D02*
Y750345D01*
G01X1048472D02*
Y748415D01*
G01X1072918D02*
Y750345D01*
G01X1074682D02*
Y748415D01*
G01X1051558Y748405D02*
Y750335D01*
G01X1053322D02*
Y748405D01*
G01X1068068Y748415D02*
Y750345D01*
G01X1069832D02*
Y748415D01*
G01X1080975Y766638D02*
X1079045D01*
G01Y768402D02*
X1080975D01*
G01X1078102Y806425D02*
Y804495D01*
G01X1076338D02*
Y806425D01*
G01X1072478Y813175D02*
Y815105D01*
G01X1074242D02*
Y813175D01*
G01X1069422Y815105D02*
Y813175D01*
G01X1067658D02*
Y815105D01*
G01X1069382Y830665D02*
Y828735D01*
G01X1067618D02*
Y830665D01*
G01X1063675Y822782D02*
X1065605D01*
G01Y821018D02*
X1063675D01*
G01X1094978Y748405D02*
Y750335D01*
G01X1096742D02*
Y748405D01*
G01X1081428Y744045D02*
Y745975D01*
G01X1083192D02*
Y744045D01*
G01X1081438Y732405D02*
Y734335D01*
G01X1083202D02*
Y732405D01*
G01X1090128Y748415D02*
Y750345D01*
G01X1091892D02*
Y748415D01*
G01X1081648Y774345D02*
Y776275D01*
G01X1083412D02*
Y774345D01*
G01X1084088Y804375D02*
Y806305D01*
G01X1085852D02*
Y804375D01*
G01X1088868Y804395D02*
Y806325D01*
G01X1090632D02*
Y804395D01*
G01X1101492Y806985D02*
Y805055D01*
G01X1099728D02*
Y806985D01*
G01X1083415Y839398D02*
X1081485D01*
G01Y841162D02*
X1083415D01*
G01X1117758Y748415D02*
Y750345D01*
G01X1119522D02*
Y748415D01*
G01X1112878D02*
Y750345D01*
G01X1114642D02*
Y748415D01*
G01X1114372Y779445D02*
Y777515D01*
G01X1112608D02*
Y779445D01*
M02*
