G04 ================== begin FILE IDENTIFICATION RECORD ==================*
G04 Layout Name:  msd_foot_ext1.brd*
G04 Film Name:    BOTTOM*
G04 File Format:  Gerber RS274X*
G04 File Origin:  Cadence Allegro 17.2-S071*
G04 Origin Date:  Tue Oct 13 15:53:22 2020*
G04 *
G04 Layer:  ETCH/BOTTOM*
G04 Layer:  PIN/BOTTOM*
G04 Layer:  VIA CLASS/BOTTOM*
G04 *
G04 Offset:    (0.0000 0.0000)*
G04 Mirror:    No*
G04 Mode:      Positive*
G04 Rotation:  0*
G04 FullContactRelief:  No*
G04 UndefLineWidth:     0.1270*
G04 ================== end FILE IDENTIFICATION RECORD ====================*
%FSAX25Y25*MOMM*%
%IR0*IPPOS*OFA0.00000B0.00000*MIA0B0*SFA1.00000B1.00000*%
%ADD10C,.6096*%
%ADD11C,.281*%
%ADD12C,.508*%
G75*
%LPD*%
G75*
G36*
G01X0030010Y3469990D02*
X1769990D01*
Y0030010D01*
X0030010D01*
Y3469990D01*
G37*
%LPC*%
G75*
G36*
G01X1281070Y1018930D02*
G02X1300000Y1026770I0018930J-0018934D01*
G01X1566090D01*
G02X1600000Y1043200I0033910J-0026779D01*
G02Y0956800I0J-0043200D01*
G02X1566090Y0973230I0J0043209D01*
G01X1311090D01*
X1118930Y0781070D01*
G02X1100000Y0773230I-0018930J0018934D01*
G01X0600000D01*
G02X0581070Y0781070I0J0026774D01*
G01X0405100Y0957040D01*
X0402810Y0956890D01*
G02X0400000Y0956800I-0002787J0043111D01*
G02X0443200Y1000000I0J0043200D01*
G02X0443110Y0997190I-0043201J-0000023D01*
G01X0442960Y0994900D01*
X0611090Y0826770D01*
X1088910D01*
X1281070Y1018930D01*
G37*
G36*
G01X0581070Y1418930D02*
G02X0600000Y1426770I0018930J-0018934D01*
G01X1366090D01*
G02X1400000Y1443200I0033910J-0026779D01*
G02Y1356800I0J-0043200D01*
G02X1366090Y1373230I0J0043209D01*
G01X0611090D01*
X0442960Y1205100D01*
X0443110Y1202810D01*
G02X0443200Y1200000I-0043111J-0002787D01*
G02X0400000Y1243200I-0043200J0D01*
G02X0402810Y1243110I0000023J-0043201D01*
G01X0405100Y1242960D01*
X0581070Y1418930D01*
G37*
G36*
G01X0564650Y1618930D02*
G02X0583580Y1626770I0018930J-0018934D01*
G01X1366090D01*
G02X1400000Y1643200I0033910J-0026779D01*
G02Y1556800I0J-0043200D01*
G02X1366090Y1573230I0J0043209D01*
G01X0594670D01*
X0426540Y1405100D01*
X0426690Y1402810D01*
G02X0426780Y1400000I-0043111J-0002787D01*
G02X0383580Y1443200I-0043200J0D01*
G02X0386390Y1443110I0000023J-0043201D01*
G01X0388680Y1442960D01*
X0564650Y1618930D01*
G37*
G36*
G01Y1818930D02*
G02X0583580Y1826770I0018930J-0018934D01*
G01X1366090D01*
G02X1400000Y1843200I0033910J-0026779D01*
G02Y1756800I0J-0043200D01*
G02X1366090Y1773230I0J0043209D01*
G01X0594670D01*
X0426540Y1605100D01*
X0426690Y1602810D01*
G02X0426780Y1600000I-0043111J-0002787D01*
G02X0383580Y1643200I-0043200J0D01*
G02X0386390Y1643110I0000023J-0043201D01*
G01X0388680Y1642960D01*
X0564650Y1818930D01*
G37*
G36*
G01Y2018930D02*
G02X0583580Y2026770I0018930J-0018934D01*
G01X1366090D01*
G02X1400000Y2043200I0033910J-0026779D01*
G02Y1956800I0J-0043200D01*
G02X1366090Y1973230I0J0043209D01*
G01X0594670D01*
X0426540Y1805100D01*
X0426690Y1802810D01*
G02X0426780Y1800000I-0043111J-0002787D01*
G02X0383580Y1843200I-0043200J0D01*
G02X0386390Y1843110I0000023J-0043201D01*
G01X0388680Y1842960D01*
X0564650Y2018930D01*
G37*
G36*
G01X0261880Y3085000D02*
G02X0273050Y3111950I0038117J-0000008D01*
G01X0408650Y3247560D01*
X0409030Y3248690D01*
G02X0450000Y3278200I0040970J-0013685D01*
G02X0493200Y3235000I0J-0043200D01*
G02X0463690Y3194030I-0043195J0D01*
G01X0462560Y3193650D01*
X0338120Y3069210D01*
Y2920320D01*
G02X0343200Y2900000I-0038119J-0020325D01*
G02X0313690Y2859030I-0043195J0D01*
G01X0312560Y2858650D01*
X0238120Y2784210D01*
Y2638120D01*
X1579680D01*
G02X1600000Y2643200I0020325J-0038119D01*
G02X1643200Y2600000I0J-0043200D01*
G02X1638120Y2579680I-0043199J0000005D01*
G01Y1300000D01*
G02X1626950Y1273050I-0038117J0000008D01*
G01X1537620Y1183720D01*
G02X1510670Y1172550I-0026958J0026947D01*
G01X1230990D01*
G02X1224360Y1169700I-0020315J0038123D01*
G01X1223230Y1169320D01*
X1126950Y1073050D01*
G02X1100000Y1061880I-0026958J0026947D01*
G01X0920320D01*
G02X0900000Y1056800I-0020325J0038119D01*
G02X0879680Y1061880I0000005J0043199D01*
G01X0700000D01*
G02X0673050Y1073050I0000008J0038117D01*
G01X0576770Y1169320D01*
X0575640Y1169700D01*
G02X0546130Y1210670I0013685J0040970D01*
G02X0589330Y1253870I0043200J0D01*
G02X0630300Y1224360I0J-0043195D01*
G01X0630680Y1223230D01*
X0715790Y1138120D01*
X0879680D01*
G02X0900000Y1143200I0020325J-0038119D01*
G02X0920320Y1138120I-0000005J-0043199D01*
G01X1084210D01*
X1169320Y1223230D01*
X1169700Y1224360D01*
G02X1210670Y1253870I0040970J-0013685D01*
G02X1230990Y1248790I-0000005J-0043199D01*
G01X1494880D01*
X1561880Y1315790D01*
Y2561880D01*
X0220320D01*
G02X0200000Y2556800I-0020325J0038119D01*
G02X0156800Y2600000I0J0043200D01*
G02X0161880Y2620320I0043199J-0000005D01*
G01Y2800000D01*
G02X0173050Y2826950I0038117J-0000008D01*
G01X0258650Y2912560D01*
X0259030Y2913690D01*
G02X0261880Y2920320I0040973J-0013685D01*
G01Y3085000D01*
G37*
%LPD*%
G75*
G54D10*
X0400000Y1000000D03*
Y1200000D03*
X0383580Y1400000D03*
Y1600000D03*
Y1800000D03*
X0200000Y2600000D03*
X0400000Y2200000D03*
X0300000Y2900000D03*
X0200000Y3300000D03*
X0500000Y0180000D03*
X0900000Y1100000D03*
X0589330Y1210670D03*
X0900000Y0650000D03*
Y1300000D03*
X0700000Y2500000D03*
X0450000Y3235000D03*
X1300000Y0180000D03*
X1210670Y1210670D03*
X1600000Y1000000D03*
X1400000Y1400000D03*
Y1600000D03*
Y1800000D03*
Y2000000D03*
X1600000Y2600000D03*
X1400000Y2200000D03*
X1200000Y2800000D03*
G54D11*
G01X1600000Y1000000D02*
X1300000D01*
X1100000Y0800000D01*
X0600000D01*
X0400000Y1000000D01*
G01X1400000Y1400000D02*
X0600000D01*
X0400000Y1200000D01*
G01X0383580Y1400000D02*
X0583580Y1600000D01*
X1400000D01*
G01X0383580D02*
X0583580Y1800000D01*
X1400000D01*
G01X0383580D02*
X0583580Y2000000D01*
X1400000D01*
G54D12*
G01X0200000Y2600000D02*
Y2800000D01*
X0300000Y2900000D01*
G01X0200000Y2600000D02*
X1600000D01*
G01X0450000Y3235000D02*
X0300000Y3085000D01*
Y2900000D01*
G01X0900000Y1100000D02*
X0700000D01*
X0589330Y1210670D01*
G01X0900000Y1100000D02*
X1100000D01*
X1210670Y1210670D01*
G01D02*
X1510670D01*
X1600000Y1300000D01*
Y2600000D01*
M02*
