G04 ================== begin FILE IDENTIFICATION RECORD ==================*
G04 Layout Name:  msd_foot_ext1.brd*
G04 Film Name:    BOTTOM*
G04 File Format:  Gerber RS274X*
G04 File Origin:  Cadence Allegro 17.2-S067*
G04 Origin Date:  Thu Oct 08 21:18:23 2020*
G04 *
G04 Layer:  ETCH/BOTTOM*
G04 Layer:  PIN/BOTTOM*
G04 Layer:  VIA CLASS/BOTTOM*
G04 *
G04 Offset:    (0.0000 0.0000)*
G04 Mirror:    No*
G04 Mode:      Positive*
G04 Rotation:  0*
G04 FullContactRelief:  No*
G04 UndefLineWidth:     0.0000*
G04 ================== end FILE IDENTIFICATION RECORD ====================*
%FSLAX25Y25*MOMM*%
%IR0*IPPOS*OFA0.00000B0.00000*MIA0B0*SFA1.00000B1.00000*%
%ADD10C,.6096*%
%ADD11C,.281*%
G75*
%LPD*%
G75*
G36*
G01X30010Y3469990D02*
X1769990D01*
Y30010D01*
X30010D01*
Y3469990D01*
G37*
%LPC*%
G75*
G36*
G01X1281070Y1018930D02*
G02X1300000Y1026770I18930J-18934D01*
G01X1566090D01*
G02X1600000Y1043200I33910J-26779D01*
G02Y956800I0J-43200D01*
G02X1566090Y973230I0J43209D01*
G01X1311090D01*
X1118930Y781070D01*
G02X1100000Y773230I-18930J18934D01*
G01X600000D01*
G02X581070Y781070I0J26774D01*
G01X405100Y957040D01*
X402810Y956890D01*
G02X400000Y956800I-2787J43111D01*
G02X443200Y1000000I0J43200D01*
G02X443110Y997190I-43201J-23D01*
G01X442960Y994900D01*
X611090Y826770D01*
X1088910D01*
X1281070Y1018930D01*
G37*
G36*
G01X581070Y1418930D02*
G02X600000Y1426770I18930J-18934D01*
G01X1366090D01*
G02X1400000Y1443200I33910J-26779D01*
G02Y1356800I0J-43200D01*
G02X1366090Y1373230I0J43209D01*
G01X611090D01*
X442960Y1205100D01*
X443110Y1202810D01*
G02X443200Y1200000I-43111J-2787D01*
G02X400000Y1243200I-43200J0D01*
G02X402810Y1243110I23J-43201D01*
G01X405100Y1242960D01*
X581070Y1418930D01*
G37*
G36*
G01X564650Y1618930D02*
G02X583580Y1626770I18930J-18934D01*
G01X1366090D01*
G02X1400000Y1643200I33910J-26779D01*
G02Y1556800I0J-43200D01*
G02X1366090Y1573230I0J43209D01*
G01X594670D01*
X426540Y1405100D01*
X426690Y1402810D01*
G02X426780Y1400000I-43111J-2787D01*
G02X383580Y1443200I-43200J0D01*
G02X386390Y1443110I23J-43201D01*
G01X388680Y1442960D01*
X564650Y1618930D01*
G37*
G36*
G01Y1818930D02*
G02X583580Y1826770I18930J-18934D01*
G01X1366090D01*
G02X1400000Y1843200I33910J-26779D01*
G02Y1756800I0J-43200D01*
G02X1366090Y1773230I0J43209D01*
G01X594670D01*
X426540Y1605100D01*
X426690Y1602810D01*
G02X426780Y1600000I-43111J-2787D01*
G02X383580Y1643200I-43200J0D01*
G02X386390Y1643110I23J-43201D01*
G01X388680Y1642960D01*
X564650Y1818930D01*
G37*
G36*
G01Y2018930D02*
G02X583580Y2026770I18930J-18934D01*
G01X1366090D01*
G02X1400000Y2043200I33910J-26779D01*
G02Y1956800I0J-43200D01*
G02X1366090Y1973230I0J43209D01*
G01X594670D01*
X426540Y1805100D01*
X426690Y1802810D01*
G02X426780Y1800000I-43111J-2787D01*
G02X383580Y1843200I-43200J0D01*
G02X386390Y1843110I23J-43201D01*
G01X388680Y1842960D01*
X564650Y2018930D01*
G37*
G36*
G01X416070Y3418930D02*
G02X435000Y3426770I18930J-18934D01*
G01X771090D01*
G02X805000Y3443200I33910J-26779D01*
G02Y3356800I0J-43200D01*
G02X771090Y3373230I0J43209D01*
G01X446090D01*
X361770Y3288910D01*
Y3233910D01*
G02Y3166090I-26779J-33910D01*
G01Y3142760D01*
G02X353930Y3123830I-26774J0D01*
G01X326770Y3096670D01*
Y2933910D01*
G02X343200Y2900000I-26779J-33910D01*
G02X300000Y2856800I-43200J0D01*
G02X297190Y2856890I-23J43201D01*
G01X294900Y2857040D01*
X226770Y2788910D01*
Y2633910D01*
G02X233910Y2626770I-26770J-33910D01*
G01X1566090D01*
G02X1600000Y2643200I33910J-26779D01*
G02X1643200Y2600000I0J-43200D01*
G02X1626770Y2566090I-43209J0D01*
G01Y1300000D01*
G02X1618930Y1281070I-26774J0D01*
G01X1529600Y1191740D01*
G02X1510670Y1183900I-18930J18934D01*
G01X1244580D01*
G02X1176760I-33910J26779D01*
G01X1021760D01*
X818930Y981070D01*
G02X800000Y973230I-18930J18934D01*
G01X733910D01*
G02X700000Y956800I-33910J26779D01*
G02X656800Y1000000I0J43200D01*
G02X656890Y1002810I43201J23D01*
G01X657040Y1005100D01*
X570400Y1091740D01*
G02X562560Y1110670I18934J18930D01*
G01Y1176760D01*
G02X546130Y1210670I26779J33910D01*
G02X632530I43200J0D01*
G02X616100Y1176760I-43209J0D01*
G01Y1121760D01*
X694900Y1042960D01*
X697190Y1043110D01*
G02X700000Y1043200I2787J-43111D01*
G02X733910Y1026770I0J-43209D01*
G01X788910D01*
X991740Y1229600D01*
G02X1010670Y1237440I18930J-18934D01*
G01X1176760D01*
G02X1244580I33910J-26779D01*
G01X1499580D01*
X1573230Y1311090D01*
Y2566090D01*
G02X1566090Y2573230I26770J33910D01*
G01X233910D01*
G02X200000Y2556800I-33910J26779D01*
G02X156800Y2600000I0J43200D01*
G02X173230Y2633910I43209J0D01*
G01Y2800000D01*
G02X181070Y2818930I26774J0D01*
G01X257040Y2894900D01*
X256890Y2897190D01*
G02X256800Y2900000I43111J2787D01*
G02X273230Y2933910I43209J0D01*
G01Y3107760D01*
G02X281070Y3126690I26774J0D01*
G01X308230Y3153850D01*
Y3166090D01*
G02Y3233910I26779J33910D01*
G01Y3300000D01*
G02X316070Y3318930I26774J0D01*
G01X416070Y3418930D01*
G37*
%LPD*%
G75*
G54D10*
X400000Y1000000D03*
Y1200000D03*
X383580Y1400000D03*
Y1600000D03*
Y1800000D03*
X200000Y2600000D03*
X400000Y2700000D03*
Y2200000D03*
X300000Y2900000D03*
X335000Y3200000D03*
X500000Y200000D03*
X589330Y1210670D03*
X700000Y1000000D03*
X1100000D03*
X900000Y1300000D03*
X700000Y2500000D03*
X1100000D03*
X805000Y3400000D03*
X900000Y2800000D03*
X465000Y3200000D03*
X1300000Y180000D03*
X1210670Y1210670D03*
X1600000Y1000000D03*
X1400000Y1400000D03*
Y1600000D03*
Y1800000D03*
Y2000000D03*
X1600000Y2600000D03*
X1400000Y2200000D03*
Y2900000D03*
G54D11*
G01X200000Y2600000D02*
Y2800000D01*
X300000Y2900000D01*
G01X200000Y2600000D02*
X1600000D01*
G01X300000Y2900000D02*
Y3107760D01*
X335000Y3142760D01*
Y3200000D01*
G01D02*
Y3300000D01*
X435000Y3400000D01*
X805000D01*
G01X700000Y1000000D02*
X800000D01*
X1010670Y1210670D01*
X1210670D01*
G01X700000Y1000000D02*
X589330Y1110670D01*
Y1210670D01*
G01X1600000Y1000000D02*
X1300000D01*
X1100000Y800000D01*
X600000D01*
X400000Y1000000D01*
G01X1400000Y1400000D02*
X600000D01*
X400000Y1200000D01*
G01X383580Y1400000D02*
X583580Y1600000D01*
X1400000D01*
G01X383580D02*
X583580Y1800000D01*
X1400000D01*
G01X383580D02*
X583580Y2000000D01*
X1400000D01*
G01X1210670Y1210670D02*
X1510670D01*
X1600000Y1300000D01*
Y2600000D01*
M02*
