G04 ================== begin FILE IDENTIFICATION RECORD ==================*
G04 Layout Name:  msd_foot_ext1.brd*
G04 Film Name:    BOTTOM*
G04 File Format:  Gerber RS274X*
G04 File Origin:  Cadence Allegro 17.2-S071*
G04 Origin Date:  Tue Nov 24 21:07:37 2020*
G04 *
G04 Layer:  ETCH/BOTTOM*
G04 Layer:  PIN/BOTTOM*
G04 Layer:  VIA CLASS/BOTTOM*
G04 *
G04 Offset:    (0.00 0.00)*
G04 Mirror:    No*
G04 Mode:      Positive*
G04 Rotation:  0*
G04 FullContactRelief:  No*
G04 UndefLineWidth:     0.13*
G04 ================== end FILE IDENTIFICATION RECORD ====================*
%FSLAX25Y25*MOIN*%
%IR0*IPPOS*OFA0.00000B0.00000*MIA0B0*SFA1.00000B1.00000*%
%ADD10C,.024*%
%ADD11C,.03*%
%ADD12C,.015*%
%ADD13C,.03404*%
G75*
%LPD*%
G75*
G36*
G01X1045651Y842439D02*
X1075178D01*
G02X1075450Y841746I0J-400D01*
G03X1074812Y840280I1363J-1465D01*
G03X1076813Y838278I2002J0D01*
G01X1103870D01*
G03X1104798Y838050I928J1775D01*
G01X1107169D01*
X1116298Y828921D01*
Y778482D01*
X1113490Y775674D01*
X1106801Y782362D01*
G03X1105386Y782948I-1415J-1415D01*
G01X1082530D01*
G03Y778946I0J-2001D01*
G01X1104557D01*
X1112075Y771428D01*
G03X1114905I1415J1415D01*
G01X1119715Y776238D01*
G03X1119858Y776396I-1410J1420D01*
G02X1120569Y776145I311J-251D01*
G01Y717521D01*
X1045651D01*
Y842439D01*
G37*
G36*
G01X1109347D02*
X1120569D01*
Y831258D01*
G02X1119858Y831007I-400J0D01*
G03X1119715Y831165I-1553J-1262D01*
G01X1109413Y841467D01*
G03X1109122Y841708I-1416J-1414D01*
G02X1109347Y842439I225J331D01*
G37*
%LPC*%
G75*
G36*
G01X1058183Y794457D02*
X1069151Y805425D01*
G02X1070036Y805792I886J-885D01*
G01X1104140D01*
G02X1105025Y805425I-1J-1252D01*
G01X1108066Y802384D01*
X1108139Y802378D01*
G02X1109700Y800682I-141J-1696D01*
G02X1107998Y798980I-1702J0D01*
G02X1106302Y800541I0J1702D01*
G01X1106296Y800614D01*
X1103622Y803288D01*
X1070554D01*
X1059953Y792687D01*
X1059947Y792614D01*
G02X1058251Y791053I-1696J141D01*
G02X1056549Y792755I0J1702D01*
G02X1058110Y794451I1702J0D01*
G01X1058183Y794457D01*
G37*
G36*
G01X1068394Y812542D02*
G02X1069279Y812908I884J-885D01*
G01X1099457D01*
G02X1100610Y813359I1154J-1251D01*
G02Y809955I0J-1702D01*
G02X1099457Y810406I1J1702D01*
G01X1069797D01*
X1059953Y800561D01*
X1059947Y800488D01*
G02X1058251Y798927I-1696J141D01*
G02X1056549Y800629I0J1702D01*
G02X1058110Y802325I1702J0D01*
G01X1058183Y802331D01*
X1068394Y812542D01*
G37*
G36*
G01X1065293Y817315D02*
G02X1066178Y817682I886J-885D01*
G01X1106845D01*
G02X1107998Y818132I1153J-1252D01*
G02Y814728I0J-1702D01*
G02X1106845Y815178I0J1702D01*
G01X1066696D01*
X1059953Y808435D01*
X1059947Y808362D01*
G02X1058251Y806801I-1696J141D01*
G02X1056549Y808503I0J1702D01*
G02X1058110Y810199I1702J0D01*
G01X1058183Y810205D01*
X1065293Y817315D01*
G37*
G36*
G01X1062843Y825189D02*
G02X1063728Y825556I886J-885D01*
G01X1106845D01*
G02X1107998Y826006I1153J-1252D01*
G02Y822602I0J-1702D01*
G02X1106845Y823052I0J1702D01*
G01X1064246D01*
X1059502Y818309D01*
Y817530D01*
G02X1059953Y816377I-1251J-1154D01*
G02X1056549I-1702J0D01*
G02X1057000Y817530I1702J-1D01*
G01Y818827D01*
G02X1057366Y819712I1251J1D01*
G01X1062843Y825189D01*
G37*
G36*
G01X1083411Y798762D02*
G02X1083128Y799703I1419J940D01*
G02X1086532I1702J0D01*
G02X1085234Y798050I-1702J0D01*
G03X1085047Y797378I95J-389D01*
G01X1087388Y795036D01*
X1088382D01*
X1091120Y797775D01*
G02X1092005Y798142I886J-885D01*
G01X1103916D01*
G02X1104801Y797775I-1J-1252D01*
G01X1108066Y794510D01*
X1108139Y794504D01*
G02X1109700Y792808I-141J-1696D01*
G02X1107998Y791106I-1702J0D01*
G02X1106302Y792667I0J1702D01*
G01X1106296Y792740D01*
X1103398Y795638D01*
X1092523D01*
X1089785Y792900D01*
G02X1088900Y792534I-884J885D01*
G01X1086870D01*
G02X1085985Y792900I-1J1251D01*
G01X1083247Y795638D01*
X1083131D01*
G03X1082775Y795056I0J-400D01*
G02X1082956Y794421I-1515J-775D01*
G01X1082962Y794348D01*
X1084835Y792475D01*
G02X1085202Y791590I-885J-886D01*
G01Y789110D01*
G02X1084835Y788225I-1252J1D01*
G01X1060964Y764354D01*
G03X1061247Y763672I283J-282D01*
G01X1063501D01*
G02X1064386Y763305I-1J-1252D01*
G01X1068660Y759031D01*
X1073494Y763865D01*
G02X1074379Y764232I886J-885D01*
G01X1100967D01*
G02X1102120Y764682I1153J-1252D01*
G02X1103822Y762980I0J-1702D01*
G02X1103372Y761827I-1702J0D01*
G01Y759072D01*
X1112367D01*
G02X1113520Y759523I1154J-1251D01*
G02Y756119I0J-1702D01*
G02X1112367Y756570I1J1702D01*
G01X1101652D01*
X1084022Y738939D01*
X1084016Y738866D01*
G02X1082320Y737305I-1696J141D01*
G02X1080618Y739007I0J1702D01*
G02X1082179Y740703I1702J0D01*
G01X1082252Y740709D01*
X1100249Y758706D01*
G02X1100733Y759006I884J-886D01*
G01X1100868Y759052D01*
Y761728D01*
X1074897D01*
X1070362Y757193D01*
X1070356Y757120D01*
G02X1066964I-1696J141D01*
G01X1066958Y757193D01*
X1062983Y761168D01*
X1058413D01*
G02X1057260Y760718I-1153J1252D01*
G02X1055558Y762420I0J1702D01*
G02X1057119Y764116I1702J0D01*
G01X1057192Y764122D01*
X1082698Y789628D01*
Y791072D01*
X1081192Y792578D01*
X1081119Y792584D01*
G02X1079558Y794280I141J1696D01*
G02X1079745Y795056I1702J0D01*
G03X1079389Y795638I-356J182D01*
G01X1067826D01*
X1053332Y781144D01*
X1053326Y781071D01*
G02X1051630Y779510I-1696J141D01*
G02X1049928Y781212I0J1702D01*
G02X1051489Y782908I1702J0D01*
G01X1051562Y782914D01*
X1066423Y797775D01*
G02X1067308Y798142I886J-885D01*
G01X1083078D01*
G03X1083411Y798762I0J400D01*
G37*
G54D13*
X1058252Y839999D03*
X1092310Y775420D03*
X1094820Y828490D03*
X1055230Y777120D03*
X1068650Y779270D03*
X1105070Y775190D03*
%LPD*%
G75*
G54D10*
X1060330Y721899D03*
X1052560Y756250D03*
X1051630Y781212D03*
X1055230Y777120D03*
X1068650Y779270D03*
X1057260Y762420D03*
X1068660Y757261D03*
X1079950Y789810D03*
X1058251Y792755D03*
Y800629D03*
Y808503D03*
X1081260Y794280D03*
X1076813Y840280D03*
X1058252Y839999D03*
X1062081Y819132D03*
X1058252Y832125D03*
X1058251Y816377D03*
X1105410Y721899D03*
X1082320Y727733D03*
Y739007D03*
X1082530Y780947D03*
X1092720Y760421D03*
X1088110Y767520D03*
X1092310Y775420D03*
X1105070Y775190D03*
X1102120Y762980D03*
X1089750Y799723D03*
X1107998Y792808D03*
Y800682D03*
X1084830Y799703D03*
X1107998Y840052D03*
X1097990Y835970D03*
X1100610Y811657D03*
X1107998Y816430D03*
Y824304D03*
X1094820Y828490D03*
X1113490Y772843D03*
X1113520Y757821D03*
X1113490Y784117D03*
G54D11*
G01X1076813Y840280D02*
X1104570D01*
X1104798Y840052D01*
X1107998D01*
G01X1113490Y772843D02*
X1105386Y780947D01*
X1082530D01*
G01X1113490Y772843D02*
X1118300Y777653D01*
Y829750D01*
X1107998Y840052D01*
G54D12*
G01X1057260Y762420D02*
X1063501D01*
X1068660Y757261D01*
G01X1102120Y762980D02*
X1074379D01*
X1068660Y757261D01*
G01X1057260Y762420D02*
X1083950Y789110D01*
Y791590D01*
X1081260Y794280D01*
G01X1051630Y781212D02*
X1067308Y796890D01*
X1083765D01*
X1086870Y793785D01*
X1088900D01*
X1092005Y796890D01*
X1103916D01*
X1107998Y792808D01*
G01X1058251Y792755D02*
X1070036Y804540D01*
X1104140D01*
X1107998Y800682D01*
G01X1100610Y811657D02*
X1069279D01*
X1058251Y800629D01*
G01X1107998Y816430D02*
X1066178D01*
X1058251Y808503D01*
G01X1107998Y824304D02*
X1063728D01*
X1058251Y818827D01*
Y816377D01*
G01X1102240Y757821D02*
X1101134D01*
X1082320Y739007D01*
G01X1113520Y757821D02*
X1102240D01*
G01X1102120Y762980D02*
Y757941D01*
X1102240Y757821D01*
M02*
