G04 ================== begin FILE IDENTIFICATION RECORD ==================*
G04 Layout Name:  msd_foot_ext1.brd*
G04 Film Name:    BOTTOM*
G04 File Format:  Gerber RS274X*
G04 File Origin:  Cadence Allegro 17.2-S071*
G04 Origin Date:  Mon Oct 26 21:15:35 2020*
G04 *
G04 Layer:  ETCH/BOTTOM*
G04 Layer:  PIN/BOTTOM*
G04 Layer:  VIA CLASS/BOTTOM*
G04 *
G04 Offset:    (0.00 0.00)*
G04 Mirror:    No*
G04 Mode:      Positive*
G04 Rotation:  0*
G04 FullContactRelief:  No*
G04 UndefLineWidth:     0.13*
G04 ================== end FILE IDENTIFICATION RECORD ====================*
%FSLAX25Y25*MOIN*%
%IR0*IPPOS*OFA0.00000B0.00000*MIA0B0*SFA1.00000B1.00000*%
%ADD10C,.024*%
%ADD11C,.02*%
%ADD12C,.012*%
%ADD13C,.03404*%
G75*
%LPD*%
G75*
G36*
G01X1101Y86499D02*
X82399D01*
Y1101D01*
X1101D01*
Y86499D01*
G37*
%LPC*%
G75*
G36*
G01X42841Y29427D02*
G02X43900Y29864I1059J-1065D01*
G01X46227D01*
G02X47028Y30065I802J-1501D01*
G02Y26661I0J-1702D01*
G02X46227Y26862I1J1702D01*
G01X44522D01*
X44202Y26541D01*
Y23038D01*
G02X44402Y22237I-1502J-801D01*
G02X40998I-1702J0D01*
G02X41198Y23038I1702J0D01*
G01Y26541D01*
X40878Y26862D01*
X21773D01*
G02X20972Y26661I-802J1501D01*
G02Y30065I0J1702D01*
G02X21773Y29864I-1J-1702D01*
G01X41500D01*
G02X42559Y29427I0J-1502D01*
G03X42841I141J142D01*
G37*
G36*
G01X34148Y39606D02*
G02X34927Y39928I778J-779D01*
G01X55673D01*
G02X56452Y39606I1J-1101D01*
G01X61504Y34554D01*
X68381D01*
G02X69678Y35154I1297J-1102D01*
G02Y31750I0J-1702D01*
G02X68381Y32350I0J1702D01*
G01X61048D01*
G02X60269Y32673I0J1101D01*
G01X55217Y37726D01*
X49197D01*
G03X48922Y37036I0J-400D01*
G02X48942Y37016I-769J-789D01*
G01X59278Y26680D01*
X68381D01*
G02X69678Y27280I1297J-1102D01*
G02Y23876I0J-1702D01*
G02X68381Y24476I0J1702D01*
G01X58822D01*
G02X58043Y24799I0J1101D01*
G01X47707Y35136D01*
X37697D01*
G02X37502Y34940I-1300J1098D01*
G01Y33937D01*
G02X37179Y33158I-1101J0D01*
G01X35042Y31021D01*
G02X34263Y30698I-779J778D01*
G01X28800D01*
G02X28021Y31021I0J1101D01*
G01X25544Y33498D01*
X20256D01*
X14922Y28165D01*
Y27238D01*
G02X15523Y25941I-1101J-1298D01*
G02X12119I-1702J0D01*
G02X12720Y27238I1702J-1D01*
G01Y28621D01*
G02X13042Y29400I1101J1D01*
G01X19021Y35379D01*
G02X19800Y35702I779J-778D01*
G01X26000D01*
G02X26779Y35379I0J-1101D01*
G01X29256Y32902D01*
X33807D01*
X35298Y34393D01*
Y34940D01*
G02X34698Y36237I1102J1297D01*
G02X34728Y36553I1702J-2D01*
G01X34747Y36657D01*
X34531Y36873D01*
X33998Y36341D01*
X34001Y36254D01*
G02X34002Y36200I-1701J-59D01*
G02X30598I-1702J0D01*
G02X30599Y36254I1702J-5D01*
G01X30602Y36341D01*
X29217Y37726D01*
X16989D01*
X14922Y35659D01*
Y35112D01*
G02X15523Y33815I-1101J-1298D01*
G02X12119I-1702J0D01*
G02X12720Y35112I1702J-1D01*
G01Y36115D01*
G02X13042Y36894I1101J1D01*
G01X15754Y39606D01*
G02X16533Y39928I778J-779D01*
G01X29673D01*
G02X30452Y39606I1J-1101D01*
G01X32159Y37898D01*
X32246Y37901D01*
G02X32300Y37902I59J-1701D01*
G02X32354Y37901I-5J-1702D01*
G01X32441Y37898D01*
X34148Y39606D01*
G37*
G36*
G01X15684Y42790D02*
G02X16332Y43002I650J-889D01*
G01X32103D01*
G02X34697I1297J-1102D01*
G01X66804D01*
G02X67583Y42679I0J-1101D01*
G01X67834Y42428D01*
X68381D01*
G02X69678Y43028I1297J-1102D01*
G02Y39624I0J-1702D01*
G02X68381Y40224I0J1702D01*
G01X67378D01*
G02X66599Y40547I0J1101D01*
G01X66348Y40798D01*
X34697D01*
G02X32103I-1297J1102D01*
G01X16769D01*
G02X16121Y40588I-647J891D01*
G01X15118D01*
G02X13821Y39987I-1298J1101D01*
G02Y43391I0J1702D01*
G02X15118Y42790I-1J-1702D01*
G01X15684D01*
G37*
G36*
G01X23382Y48462D02*
X15118D01*
G02X13821Y47861I-1298J1101D01*
G02Y51265I0J1702D01*
G02X15118Y50664I-1J-1702D01*
G01X23838D01*
G02X24617Y50342I1J-1101D01*
G01X27757Y47202D01*
X66122D01*
X67980Y49059D01*
X67977Y49146D01*
G02X67976Y49200I1701J59D01*
G02X69678Y47498I1702J0D01*
G02X69624Y47499I5J1702D01*
G01X69537Y47502D01*
X67357Y45321D01*
G02X66578Y44998I-779J778D01*
G01X27301D01*
G02X26522Y45321I0J1101D01*
G01X23382Y48462D01*
G37*
G36*
G01X54107Y56336D02*
X15118D01*
G02X13821Y55735I-1298J1101D01*
G02Y59139I0J1702D01*
G02X15118Y58538I-1J-1702D01*
G01X54563D01*
G02X55342Y58216I1J-1101D01*
G01X58956Y54602D01*
X65648D01*
X67980Y56933D01*
X67977Y57020D01*
G02X67976Y57074I1701J59D01*
G02X69678Y55372I1702J0D01*
G02X69624Y55373I5J1702D01*
G01X69537Y55376D01*
X66883Y52721D01*
G02X66104Y52398I-779J778D01*
G01X58500D01*
G02X57721Y52721I0J1101D01*
G01X54107Y56336D01*
G37*
G36*
G01X53298Y72256D02*
Y74103D01*
G02X52698Y75400I1102J1297D01*
G02X56102I1702J0D01*
G02X55502Y74103I-1702J0D01*
G01Y71800D01*
G02X55179Y71021I-1101J0D01*
G01X53979Y69821D01*
G02X53200Y69498I-779J778D01*
G01X26256D01*
X21290Y64532D01*
G02X20511Y64210I-778J779D01*
G01X15118D01*
G02X13821Y63609I-1298J1101D01*
G02Y67013I0J1702D01*
G02X15118Y66412I-1J-1702D01*
G01X20055D01*
X25021Y71379D01*
G02X25800Y71702I779J-778D01*
G01X52744D01*
X53298Y72256D01*
G37*
G54D13*
X42263Y78800D03*
X19763Y53000D03*
X13821Y81059D03*
X69678Y72822D03*
%LPD*%
G75*
G54D10*
X10639Y12100D03*
X20972Y28363D03*
X42700Y22237D03*
Y10963D03*
X13821Y25941D03*
X19763Y53000D03*
X19817Y45400D03*
X20972Y32300D03*
X32822Y50200D03*
X36400Y36237D03*
X13821Y33815D03*
X32300Y36200D03*
X13821Y41689D03*
X33400Y41900D03*
X13821Y49563D03*
Y57437D03*
Y81059D03*
X42263Y78800D03*
X13821Y73185D03*
X29750Y64361D03*
X13821Y65311D03*
X47028Y28363D03*
X71061Y12600D03*
X69678Y25578D03*
X63300Y29163D03*
X64437Y57400D03*
X69678Y33452D03*
Y41326D03*
Y49200D03*
Y57074D03*
Y72822D03*
Y64948D03*
X69800Y78800D03*
X54400Y75400D03*
G54D11*
G01X20972Y28363D02*
X41500D01*
X42700Y27163D01*
G01D02*
X43900Y28363D01*
X47028D01*
G01X42700Y27163D02*
Y22237D01*
G54D12*
G01X13821Y25941D02*
Y28621D01*
X19800Y34600D01*
X26000D01*
X28800Y31800D01*
X34263D01*
X36400Y33937D01*
Y36237D01*
G01D02*
X48163D01*
X58822Y25578D01*
X69678D01*
G01X13821Y33815D02*
Y36115D01*
X16533Y38827D01*
X29673D01*
X32300Y36200D01*
G01D02*
X34927Y38827D01*
X55673D01*
X61048Y33452D01*
X69678D01*
G01X33400Y41900D02*
X66804D01*
X67378Y41326D01*
X69678D01*
G01X13821Y41689D02*
X16121D01*
X16332Y41900D01*
X33400D01*
G01X69678Y49200D02*
X66578Y46100D01*
X27301D01*
X23838Y49563D01*
X13821D01*
G01Y57437D02*
X54563D01*
X58500Y53500D01*
X66104D01*
X69678Y57074D01*
G01X54400Y75400D02*
Y71800D01*
X53200Y70600D01*
X25800D01*
X20511Y65311D01*
X13821D01*
M02*
