G04 ================== begin FILE IDENTIFICATION RECORD ==================*
G04 Layout Name:  msd_foot_ext1.brd*
G04 Film Name:    FAB*
G04 File Format:  Gerber RS274X*
G04 File Origin:  Cadence Allegro 17.2-S071*
G04 Origin Date:  Mon Oct 26 21:15:35 2020*
G04 *
G04 Layer:  MANUFACTURING/XSECTION_CHART*
G04 Layer:  DRAWING FORMAT/TITLE_DATA*
G04 Layer:  DRAWING FORMAT/TITLE_BLOCK*
G04 Layer:  DRAWING FORMAT/REVISION_DATA*
G04 Layer:  DRAWING FORMAT/REVISION_BLOCK*
G04 Layer:  DRAWING FORMAT/OUTLINE*
G04 Layer:  DRAWING FORMAT/DRAWING_ORIGIN*
G04 Layer:  BOARD GEOMETRY/DIMENSION*
G04 Layer:  BOARD GEOMETRY/DESIGN_OUTLINE*
G04 *
G04 Offset:    (0.00 0.00)*
G04 Mirror:    No*
G04 Mode:      Positive*
G04 Rotation:  0*
G04 FullContactRelief:  No*
G04 UndefLineWidth:     0.13*
G04 ================== end FILE IDENTIFICATION RECORD ====================*
%FSLAX25Y25*MOIN*%
%IR0*IPPOS*OFA0.00000B0.00000*MIA0B0*SFA1.00000B1.00000*%
%AMMACRO10*
1,1,.00013,.025,0.0*
20,1,.00013,.025,0.0,-.025,0.0,0.0*
1,1,.00013,-.025,0.0*
1,1,.00013,0.0,.025*
20,1,.00013,0.0,.025,0.0,-.025,0.0*
1,1,.00013,0.0,-.025*
%
%ADD10MACRO10*%
%ADD11C,.00013*%
G75*
%LPD*%
G75*
G36*
G01X379600Y151778D02*
Y128738D01*
X382100D01*
Y-24862D01*
X379600D01*
Y-47902D01*
X394600D01*
Y-24862D01*
X392100D01*
Y128738D01*
X394600D01*
Y151778D01*
X379600D01*
G37*
G36*
G01X359600Y-47902D02*
Y-24862D01*
X419600D01*
Y-47902D01*
X359600D01*
G37*
G36*
G01Y128738D02*
Y151778D01*
X419600D01*
Y128738D01*
X359600D01*
G37*
G54D10*
X0Y0D03*
G54D11*
G01X-177200Y-473300D02*
Y376700D01*
X930300D01*
Y-473300D01*
X-177200D01*
G01X-147700Y-446800D02*
Y353200D01*
X897300D01*
Y-446800D01*
X-147700D01*
G01X0Y0D02*
Y87600D01*
X83500D01*
Y0D01*
X0D01*
G01Y97600D02*
Y117400D01*
G01X83500Y107400D02*
X0D01*
G01X15000Y109900D02*
X0Y107400D01*
X15000Y104900D01*
Y109900D01*
G01X68500Y104900D02*
X83500Y107400D01*
X68500Y109900D01*
Y104900D01*
G01X93500Y0D02*
X111800D01*
G01X99300Y15000D02*
X101800Y0D01*
X104300Y15000D01*
X99300D01*
G01X89400Y34031D02*
X89090Y34240D01*
Y34656D01*
X89400Y34865D01*
X89710Y34656D01*
Y34240D01*
X89400Y34031D01*
G01X101800Y34448D02*
X102885Y34656D01*
X104125Y35281D01*
X104900Y36323D01*
X105210Y37781D01*
X104900Y39239D01*
X103970Y40490D01*
X102575Y41115D01*
X101025D01*
X100095Y41531D01*
X99320Y42573D01*
X99010Y44031D01*
X99475Y45490D01*
X100560Y46531D01*
X101800Y46948D01*
X103040Y46531D01*
X104125Y45490D01*
X104590Y44031D01*
X104280Y42573D01*
X103505Y41531D01*
X102575Y41115D01*
X101025D01*
X99630Y40490D01*
X98700Y39239D01*
X98390Y37781D01*
X98700Y36323D01*
X99475Y35281D01*
X100715Y34656D01*
X101800Y34448D01*
G01X114200D02*
X115285Y34656D01*
X116525Y35281D01*
X117300Y36323D01*
X117610Y37781D01*
X117300Y39239D01*
X116370Y40490D01*
X114975Y41115D01*
X113425D01*
X112495Y41531D01*
X111720Y42573D01*
X111410Y44031D01*
X111875Y45490D01*
X112960Y46531D01*
X114200Y46948D01*
X115440Y46531D01*
X116525Y45490D01*
X116990Y44031D01*
X116680Y42573D01*
X115905Y41531D01*
X114975Y41115D01*
X113425D01*
X112030Y40490D01*
X111100Y39239D01*
X110790Y37781D01*
X111100Y36323D01*
X111875Y35281D01*
X113115Y34656D01*
X114200Y34448D01*
G01X104300Y72600D02*
X101800Y87600D01*
X99300Y72600D01*
X104300D01*
G01X83500Y97600D02*
Y117400D01*
G01X113425Y107400D02*
X83500D01*
G01X93500Y87600D02*
X111800D01*
G01X117800Y-445800D02*
Y-265800D01*
X897800D01*
G01X125997Y-388300D02*
Y-383300D01*
X128403D01*
G01X127517Y-385717D02*
X125997D01*
G01X131033Y-388300D02*
Y-383300D01*
X132617D01*
X133123Y-383550D01*
X133440Y-383883D01*
X133567Y-384550D01*
X133440Y-385217D01*
X133060Y-385633D01*
X132617Y-385883D01*
X131033D01*
G01X132617D02*
X133567Y-388300D01*
G01X135817D02*
X137400Y-383300D01*
X138983Y-388300D01*
G01X138413Y-386550D02*
X136387D01*
G01X143893Y-383717D02*
X143513Y-383467D01*
X143070Y-383300D01*
X142563D01*
X141993Y-383550D01*
X141550Y-383967D01*
X141233Y-384467D01*
X140980Y-385300D01*
X140917Y-386050D01*
X141043Y-386800D01*
X141233Y-387300D01*
X141613Y-387800D01*
X142057Y-388133D01*
X142500Y-388300D01*
X142943D01*
X143387Y-388133D01*
X143767Y-387883D01*
X144083Y-387550D01*
G01X147600Y-383300D02*
Y-388300D01*
G01X146143Y-383300D02*
X149057D01*
G01X151940D02*
X153460D01*
G01X152700D02*
Y-388300D01*
G01X151940D02*
X153460D01*
G01X157800D02*
X157293Y-388217D01*
X156850Y-387883D01*
X156470Y-387383D01*
X156217Y-386800D01*
X156090Y-386133D01*
Y-385467D01*
X156217Y-384800D01*
X156470Y-384217D01*
X156850Y-383717D01*
X157293Y-383383D01*
X157800Y-383300D01*
X158307Y-383383D01*
X158750Y-383717D01*
X159130Y-384217D01*
X159383Y-384800D01*
X159510Y-385467D01*
Y-386133D01*
X159383Y-386800D01*
X159130Y-387383D01*
X158750Y-387883D01*
X158307Y-388217D01*
X157800Y-388300D01*
G01X161443D02*
Y-383300D01*
X164357Y-388300D01*
Y-383300D01*
G01X166670Y-387633D02*
X167177Y-388050D01*
X167747Y-388300D01*
X168253D01*
X168760Y-388050D01*
X169140Y-387633D01*
X169330Y-387050D01*
X169203Y-386467D01*
X168887Y-385967D01*
X168317Y-385633D01*
X167557Y-385467D01*
X167113Y-385133D01*
X166923Y-384550D01*
X167050Y-383967D01*
X167367Y-383550D01*
X167810Y-383300D01*
X168253D01*
X168697Y-383467D01*
X169077Y-383883D01*
G01X177503Y-386633D02*
X179023D01*
G01X178200Y-385550D02*
Y-387717D01*
G01X125617Y-373300D02*
X127200Y-368300D01*
X128783Y-373300D01*
G01X128213Y-371550D02*
X126187D01*
G01X130843Y-373300D02*
Y-368300D01*
X133757Y-373300D01*
Y-368300D01*
G01X137780Y-370800D02*
X139047D01*
Y-372300D01*
X138667Y-372800D01*
X138223Y-373133D01*
X137590Y-373300D01*
X136957Y-373133D01*
X136513Y-372800D01*
X136133Y-372300D01*
X135880Y-371717D01*
X135753Y-371050D01*
Y-370467D01*
X135880Y-369967D01*
X136133Y-369383D01*
X136513Y-368883D01*
X136893Y-368550D01*
X137400Y-368300D01*
X137843D01*
X138350Y-368467D01*
X138730Y-368800D01*
G01X141233Y-368300D02*
Y-373300D01*
X143767D01*
G01X148867D02*
X146333D01*
Y-368300D01*
X148867D01*
G01X147853Y-370717D02*
X146333D01*
G01X151370Y-372633D02*
X151877Y-373050D01*
X152447Y-373300D01*
X152953D01*
X153460Y-373050D01*
X153840Y-372633D01*
X154030Y-372050D01*
X153903Y-371467D01*
X153587Y-370967D01*
X153017Y-370633D01*
X152257Y-370467D01*
X151813Y-370133D01*
X151623Y-369550D01*
X151750Y-368967D01*
X152067Y-368550D01*
X152510Y-368300D01*
X152953D01*
X153397Y-368467D01*
X153777Y-368883D01*
G01X162203Y-371633D02*
X163723D01*
G01X162900Y-370550D02*
Y-372717D01*
G01X125807Y-357300D02*
X126187Y-357883D01*
X126693Y-358217D01*
X127263Y-358300D01*
X127770Y-358217D01*
X128277Y-357800D01*
X128593Y-357300D01*
X128657Y-356800D01*
X128530Y-356217D01*
X128087Y-355800D01*
X127643Y-355633D01*
X127073D01*
G01X127643D02*
X128023Y-355383D01*
X128340Y-354967D01*
X128467Y-354467D01*
X128340Y-353967D01*
X128023Y-353550D01*
X127453Y-353300D01*
X126883Y-353383D01*
X126313Y-353717D01*
G01X136133Y-358300D02*
Y-353300D01*
X137653D01*
X138160Y-353550D01*
X138540Y-354133D01*
X138667Y-354800D01*
X138540Y-355467D01*
X138223Y-355967D01*
X137653Y-356217D01*
X136133D01*
G01X141233Y-353300D02*
Y-358300D01*
X143767D01*
G01X151307D02*
Y-353300D01*
X152573D01*
X153080Y-353550D01*
X153460Y-353883D01*
X153777Y-354383D01*
X154030Y-354967D01*
X154093Y-355800D01*
X154030Y-356633D01*
X153777Y-357217D01*
X153460Y-357717D01*
X153080Y-358050D01*
X152573Y-358300D01*
X151307D01*
G01X159067D02*
X156533D01*
Y-353300D01*
X159067D01*
G01X158053Y-355717D02*
X156533D01*
G01X164293Y-353717D02*
X163913Y-353467D01*
X163470Y-353300D01*
X162963D01*
X162393Y-353550D01*
X161950Y-353967D01*
X161633Y-354467D01*
X161380Y-355300D01*
X161317Y-356050D01*
X161443Y-356800D01*
X161633Y-357300D01*
X162013Y-357800D01*
X162457Y-358133D01*
X162900Y-358300D01*
X163343D01*
X163787Y-358133D01*
X164167Y-357883D01*
X164483Y-357550D01*
G01X167240Y-353300D02*
X168760D01*
G01X168000D02*
Y-358300D01*
G01X167240D02*
X168760D01*
G01X171453D02*
Y-353300D01*
X173100Y-357467D01*
X174747Y-353300D01*
Y-358300D01*
G01X176617D02*
X178200Y-353300D01*
X179783Y-358300D01*
G01X179213Y-356550D02*
X177187D01*
G01X182033Y-353300D02*
Y-358300D01*
X184567D01*
G01X187070Y-357633D02*
X187577Y-358050D01*
X188147Y-358300D01*
X188653D01*
X189160Y-358050D01*
X189540Y-357633D01*
X189730Y-357050D01*
X189603Y-356467D01*
X189287Y-355967D01*
X188717Y-355633D01*
X187957Y-355467D01*
X187513Y-355133D01*
X187323Y-354550D01*
X187450Y-353967D01*
X187767Y-353550D01*
X188210Y-353300D01*
X188653D01*
X189097Y-353467D01*
X189477Y-353883D01*
G01X197903Y-356633D02*
X199423D01*
G01X198600Y-355550D02*
Y-357717D01*
G01X125997Y-339133D02*
X126377Y-338633D01*
X126820Y-338383D01*
X127327Y-338300D01*
X127960Y-338467D01*
X128403Y-338883D01*
X128530Y-339383D01*
X128467Y-339883D01*
X128213Y-340300D01*
X126947Y-341133D01*
X126377Y-341717D01*
X125997Y-342550D01*
X125870Y-343300D01*
X128530D01*
G01X136133D02*
Y-338300D01*
X137653D01*
X138160Y-338550D01*
X138540Y-339133D01*
X138667Y-339800D01*
X138540Y-340467D01*
X138223Y-340967D01*
X137653Y-341217D01*
X136133D01*
G01X141233Y-338300D02*
Y-343300D01*
X143767D01*
G01X151307D02*
Y-338300D01*
X152573D01*
X153080Y-338550D01*
X153460Y-338883D01*
X153777Y-339383D01*
X154030Y-339967D01*
X154093Y-340800D01*
X154030Y-341633D01*
X153777Y-342217D01*
X153460Y-342717D01*
X153080Y-343050D01*
X152573Y-343300D01*
X151307D01*
G01X159067D02*
X156533D01*
Y-338300D01*
X159067D01*
G01X158053Y-340717D02*
X156533D01*
G01X164293Y-338717D02*
X163913Y-338467D01*
X163470Y-338300D01*
X162963D01*
X162393Y-338550D01*
X161950Y-338967D01*
X161633Y-339467D01*
X161380Y-340300D01*
X161317Y-341050D01*
X161443Y-341800D01*
X161633Y-342300D01*
X162013Y-342800D01*
X162457Y-343133D01*
X162900Y-343300D01*
X163343D01*
X163787Y-343133D01*
X164167Y-342883D01*
X164483Y-342550D01*
G01X167240Y-338300D02*
X168760D01*
G01X168000D02*
Y-343300D01*
G01X167240D02*
X168760D01*
G01X171453D02*
Y-338300D01*
X173100Y-342467D01*
X174747Y-338300D01*
Y-343300D01*
G01X176617D02*
X178200Y-338300D01*
X179783Y-343300D01*
G01X179213Y-341550D02*
X177187D01*
G01X182033Y-338300D02*
Y-343300D01*
X184567D01*
G01X187070Y-342633D02*
X187577Y-343050D01*
X188147Y-343300D01*
X188653D01*
X189160Y-343050D01*
X189540Y-342633D01*
X189730Y-342050D01*
X189603Y-341467D01*
X189287Y-340967D01*
X188717Y-340633D01*
X187957Y-340467D01*
X187513Y-340133D01*
X187323Y-339550D01*
X187450Y-338967D01*
X187767Y-338550D01*
X188210Y-338300D01*
X188653D01*
X189097Y-338467D01*
X189477Y-338883D01*
G01X197903Y-341633D02*
X199423D01*
G01X198600Y-340550D02*
Y-342717D01*
G01X127200Y-323300D02*
Y-328300D01*
G01X125743Y-323300D02*
X128657D01*
G01X132300Y-328300D02*
X131793Y-328217D01*
X131350Y-327883D01*
X130970Y-327383D01*
X130717Y-326800D01*
X130590Y-326133D01*
Y-325467D01*
X130717Y-324800D01*
X130970Y-324217D01*
X131350Y-323717D01*
X131793Y-323383D01*
X132300Y-323300D01*
X132807Y-323383D01*
X133250Y-323717D01*
X133630Y-324217D01*
X133883Y-324800D01*
X134010Y-325467D01*
Y-326133D01*
X133883Y-326800D01*
X133630Y-327383D01*
X133250Y-327883D01*
X132807Y-328217D01*
X132300Y-328300D01*
G01X136133Y-323300D02*
Y-328300D01*
X138667D01*
G01X143767D02*
X141233D01*
Y-323300D01*
X143767D01*
G01X142753Y-325717D02*
X141233D01*
G01X146333Y-328300D02*
Y-323300D01*
X147917D01*
X148423Y-323550D01*
X148740Y-323883D01*
X148867Y-324550D01*
X148740Y-325217D01*
X148360Y-325633D01*
X147917Y-325883D01*
X146333D01*
G01X147917D02*
X148867Y-328300D01*
G01X151117D02*
X152700Y-323300D01*
X154283Y-328300D01*
G01X153713Y-326550D02*
X151687D01*
G01X156343Y-328300D02*
Y-323300D01*
X159257Y-328300D01*
Y-323300D01*
G01X164293Y-323717D02*
X163913Y-323467D01*
X163470Y-323300D01*
X162963D01*
X162393Y-323550D01*
X161950Y-323967D01*
X161633Y-324467D01*
X161380Y-325300D01*
X161317Y-326050D01*
X161443Y-326800D01*
X161633Y-327300D01*
X162013Y-327800D01*
X162457Y-328133D01*
X162900Y-328300D01*
X163343D01*
X163787Y-328133D01*
X164167Y-327883D01*
X164483Y-327550D01*
G01X169267Y-328300D02*
X166733D01*
Y-323300D01*
X169267D01*
G01X168253Y-325717D02*
X166733D01*
G01X171770Y-327633D02*
X172277Y-328050D01*
X172847Y-328300D01*
X173353D01*
X173860Y-328050D01*
X174240Y-327633D01*
X174430Y-327050D01*
X174303Y-326467D01*
X173987Y-325967D01*
X173417Y-325633D01*
X172657Y-325467D01*
X172213Y-325133D01*
X172023Y-324550D01*
X172150Y-323967D01*
X172467Y-323550D01*
X172910Y-323300D01*
X173353D01*
X173797Y-323467D01*
X174177Y-323883D01*
G01X183300Y-328300D02*
X182793Y-328217D01*
X182350Y-327883D01*
X181970Y-327383D01*
X181717Y-326800D01*
X181590Y-326133D01*
Y-325467D01*
X181717Y-324800D01*
X181970Y-324217D01*
X182350Y-323717D01*
X182793Y-323383D01*
X183300Y-323300D01*
X183807Y-323383D01*
X184250Y-323717D01*
X184630Y-324217D01*
X184883Y-324800D01*
X185010Y-325467D01*
Y-326133D01*
X184883Y-326800D01*
X184630Y-327383D01*
X184250Y-327883D01*
X183807Y-328217D01*
X183300Y-328300D01*
G01X186943D02*
Y-323300D01*
X189857Y-328300D01*
Y-323300D01*
G01X193500Y-328467D02*
X193373Y-328383D01*
Y-328217D01*
X193500Y-328133D01*
X193627Y-328217D01*
Y-328383D01*
X193500Y-328467D01*
G01Y-326217D02*
X193373Y-326133D01*
Y-325967D01*
X193500Y-325883D01*
X193627Y-325967D01*
Y-326133D01*
X193500Y-326217D01*
G01X125807Y-310800D02*
Y-305800D01*
X127073D01*
X127580Y-306050D01*
X127960Y-306383D01*
X128277Y-306883D01*
X128530Y-307467D01*
X128593Y-308300D01*
X128530Y-309133D01*
X128277Y-309717D01*
X127960Y-310217D01*
X127580Y-310550D01*
X127073Y-310800D01*
X125807D01*
G01X131540Y-305800D02*
X133060D01*
G01X132300D02*
Y-310800D01*
G01X131540D02*
X133060D01*
G01X135753D02*
Y-305800D01*
X137400Y-309967D01*
X139047Y-305800D01*
Y-310800D01*
G01X143767D02*
X141233D01*
Y-305800D01*
X143767D01*
G01X142753Y-308217D02*
X141233D01*
G01X146143Y-310800D02*
Y-305800D01*
X149057Y-310800D01*
Y-305800D01*
G01X151370Y-310133D02*
X151877Y-310550D01*
X152447Y-310800D01*
X152953D01*
X153460Y-310550D01*
X153840Y-310133D01*
X154030Y-309550D01*
X153903Y-308967D01*
X153587Y-308467D01*
X153017Y-308133D01*
X152257Y-307967D01*
X151813Y-307633D01*
X151623Y-307050D01*
X151750Y-306467D01*
X152067Y-306050D01*
X152510Y-305800D01*
X152953D01*
X153397Y-305967D01*
X153777Y-306383D01*
G01X157040Y-305800D02*
X158560D01*
G01X157800D02*
Y-310800D01*
G01X157040D02*
X158560D01*
G01X162900D02*
X162393Y-310717D01*
X161950Y-310383D01*
X161570Y-309883D01*
X161317Y-309300D01*
X161190Y-308633D01*
Y-307967D01*
X161317Y-307300D01*
X161570Y-306717D01*
X161950Y-306217D01*
X162393Y-305883D01*
X162900Y-305800D01*
X163407Y-305883D01*
X163850Y-306217D01*
X164230Y-306717D01*
X164483Y-307300D01*
X164610Y-307967D01*
Y-308633D01*
X164483Y-309300D01*
X164230Y-309883D01*
X163850Y-310383D01*
X163407Y-310717D01*
X162900Y-310800D01*
G01X166543D02*
Y-305800D01*
X169457Y-310800D01*
Y-305800D01*
G01X171770Y-310133D02*
X172277Y-310550D01*
X172847Y-310800D01*
X173353D01*
X173860Y-310550D01*
X174240Y-310133D01*
X174430Y-309550D01*
X174303Y-308967D01*
X173987Y-308467D01*
X173417Y-308133D01*
X172657Y-307967D01*
X172213Y-307633D01*
X172023Y-307050D01*
X172150Y-306467D01*
X172467Y-306050D01*
X172910Y-305800D01*
X173353D01*
X173797Y-305967D01*
X174177Y-306383D01*
G01X181717Y-310800D02*
X183300Y-305800D01*
X184883Y-310800D01*
G01X184313Y-309050D02*
X182287D01*
G01X187133Y-310800D02*
Y-305800D01*
X188717D01*
X189223Y-306050D01*
X189540Y-306383D01*
X189667Y-307050D01*
X189540Y-307717D01*
X189160Y-308133D01*
X188717Y-308383D01*
X187133D01*
G01X188717D02*
X189667Y-310800D01*
G01X194767D02*
X192233D01*
Y-305800D01*
X194767D01*
G01X193753Y-308217D02*
X192233D01*
G01X202940Y-305800D02*
X204460D01*
G01X203700D02*
Y-310800D01*
G01X202940D02*
X204460D01*
G01X207343D02*
Y-305800D01*
X210257Y-310800D01*
Y-305800D01*
G01X218240D02*
X219760D01*
G01X219000D02*
Y-310800D01*
G01X218240D02*
X219760D01*
G01X222643D02*
Y-305800D01*
X225557Y-310800D01*
Y-305800D01*
G01X230593Y-306217D02*
X230213Y-305967D01*
X229770Y-305800D01*
X229263D01*
X228693Y-306050D01*
X228250Y-306467D01*
X227933Y-306967D01*
X227680Y-307800D01*
X227617Y-308550D01*
X227743Y-309300D01*
X227933Y-309800D01*
X228313Y-310300D01*
X228757Y-310633D01*
X229200Y-310800D01*
X229643D01*
X230087Y-310633D01*
X230467Y-310383D01*
X230783Y-310050D01*
G01X232970Y-310800D02*
Y-305800D01*
G01X235630D02*
Y-310800D01*
G01Y-308300D02*
X232970D01*
G01X240667Y-310800D02*
X238133D01*
Y-305800D01*
X240667D01*
G01X239653Y-308217D02*
X238133D01*
G01X243170Y-310133D02*
X243677Y-310550D01*
X244247Y-310800D01*
X244753D01*
X245260Y-310550D01*
X245640Y-310133D01*
X245830Y-309550D01*
X245703Y-308967D01*
X245387Y-308467D01*
X244817Y-308133D01*
X244057Y-307967D01*
X243613Y-307633D01*
X243423Y-307050D01*
X243550Y-306467D01*
X243867Y-306050D01*
X244310Y-305800D01*
X244753D01*
X245197Y-305967D01*
X245577Y-306383D01*
G01X125807Y-278300D02*
Y-281883D01*
X126060Y-282633D01*
X126567Y-283133D01*
X127200Y-283300D01*
X127833Y-283133D01*
X128340Y-282633D01*
X128593Y-281883D01*
Y-278300D01*
G01X130843Y-283300D02*
Y-278300D01*
X133757Y-283300D01*
Y-278300D01*
G01X136133D02*
Y-283300D01*
X138667D01*
G01X143767D02*
X141233D01*
Y-278300D01*
X143767D01*
G01X142753Y-280717D02*
X141233D01*
G01X146270Y-282633D02*
X146777Y-283050D01*
X147347Y-283300D01*
X147853D01*
X148360Y-283050D01*
X148740Y-282633D01*
X148930Y-282050D01*
X148803Y-281467D01*
X148487Y-280967D01*
X147917Y-280633D01*
X147157Y-280467D01*
X146713Y-280133D01*
X146523Y-279550D01*
X146650Y-278967D01*
X146967Y-278550D01*
X147410Y-278300D01*
X147853D01*
X148297Y-278467D01*
X148677Y-278883D01*
G01X151370Y-282633D02*
X151877Y-283050D01*
X152447Y-283300D01*
X152953D01*
X153460Y-283050D01*
X153840Y-282633D01*
X154030Y-282050D01*
X153903Y-281467D01*
X153587Y-280967D01*
X153017Y-280633D01*
X152257Y-280467D01*
X151813Y-280133D01*
X151623Y-279550D01*
X151750Y-278967D01*
X152067Y-278550D01*
X152510Y-278300D01*
X152953D01*
X153397Y-278467D01*
X153777Y-278883D01*
G01X162900Y-283300D02*
X162393Y-283217D01*
X161950Y-282883D01*
X161570Y-282383D01*
X161317Y-281800D01*
X161190Y-281133D01*
Y-280467D01*
X161317Y-279800D01*
X161570Y-279217D01*
X161950Y-278717D01*
X162393Y-278383D01*
X162900Y-278300D01*
X163407Y-278383D01*
X163850Y-278717D01*
X164230Y-279217D01*
X164483Y-279800D01*
X164610Y-280467D01*
Y-281133D01*
X164483Y-281800D01*
X164230Y-282383D01*
X163850Y-282883D01*
X163407Y-283217D01*
X162900Y-283300D01*
G01X168000Y-278300D02*
Y-283300D01*
G01X166543Y-278300D02*
X169457D01*
G01X171770Y-283300D02*
Y-278300D01*
G01X174430D02*
Y-283300D01*
G01Y-280800D02*
X171770D01*
G01X179467Y-283300D02*
X176933D01*
Y-278300D01*
X179467D01*
G01X178453Y-280717D02*
X176933D01*
G01X182033Y-283300D02*
Y-278300D01*
X183617D01*
X184123Y-278550D01*
X184440Y-278883D01*
X184567Y-279550D01*
X184440Y-280217D01*
X184060Y-280633D01*
X183617Y-280883D01*
X182033D01*
G01X183617D02*
X184567Y-283300D01*
G01X186500Y-278300D02*
X187387Y-283300D01*
X188400Y-278300D01*
X189413Y-283300D01*
X190300Y-278300D01*
G01X192740D02*
X194260D01*
G01X193500D02*
Y-283300D01*
G01X192740D02*
X194260D01*
G01X197270Y-282633D02*
X197777Y-283050D01*
X198347Y-283300D01*
X198853D01*
X199360Y-283050D01*
X199740Y-282633D01*
X199930Y-282050D01*
X199803Y-281467D01*
X199487Y-280967D01*
X198917Y-280633D01*
X198157Y-280467D01*
X197713Y-280133D01*
X197523Y-279550D01*
X197650Y-278967D01*
X197967Y-278550D01*
X198410Y-278300D01*
X198853D01*
X199297Y-278467D01*
X199677Y-278883D01*
G01X204967Y-283300D02*
X202433D01*
Y-278300D01*
X204967D01*
G01X203953Y-280717D02*
X202433D01*
G01X212570Y-282633D02*
X213077Y-283050D01*
X213647Y-283300D01*
X214153D01*
X214660Y-283050D01*
X215040Y-282633D01*
X215230Y-282050D01*
X215103Y-281467D01*
X214787Y-280967D01*
X214217Y-280633D01*
X213457Y-280467D01*
X213013Y-280133D01*
X212823Y-279550D01*
X212950Y-278967D01*
X213267Y-278550D01*
X213710Y-278300D01*
X214153D01*
X214597Y-278467D01*
X214977Y-278883D01*
G01X217733Y-283300D02*
Y-278300D01*
X219253D01*
X219760Y-278550D01*
X220140Y-279133D01*
X220267Y-279800D01*
X220140Y-280467D01*
X219823Y-280967D01*
X219253Y-281217D01*
X217733D01*
G01X225367Y-283300D02*
X222833D01*
Y-278300D01*
X225367D01*
G01X224353Y-280717D02*
X222833D01*
G01X230593Y-278717D02*
X230213Y-278467D01*
X229770Y-278300D01*
X229263D01*
X228693Y-278550D01*
X228250Y-278967D01*
X227933Y-279467D01*
X227680Y-280300D01*
X227617Y-281050D01*
X227743Y-281800D01*
X227933Y-282300D01*
X228313Y-282800D01*
X228757Y-283133D01*
X229200Y-283300D01*
X229643D01*
X230087Y-283133D01*
X230467Y-282883D01*
X230783Y-282550D01*
G01X233540Y-278300D02*
X235060D01*
G01X234300D02*
Y-283300D01*
G01X233540D02*
X235060D01*
G01X238197D02*
Y-278300D01*
X240603D01*
G01X239717Y-280717D02*
X238197D01*
G01X243740Y-278300D02*
X245260D01*
G01X244500D02*
Y-283300D01*
G01X243740D02*
X245260D01*
G01X250867D02*
X248333D01*
Y-278300D01*
X250867D01*
G01X249853Y-280717D02*
X248333D01*
G01X253307Y-283300D02*
Y-278300D01*
X254573D01*
X255080Y-278550D01*
X255460Y-278883D01*
X255777Y-279383D01*
X256030Y-279967D01*
X256093Y-280800D01*
X256030Y-281633D01*
X255777Y-282217D01*
X255460Y-282717D01*
X255080Y-283050D01*
X254573Y-283300D01*
X253307D01*
G01X117800Y-295800D02*
X477800D01*
G01X101800Y25073D02*
Y0D01*
G01Y56323D02*
Y87600D01*
G01X127450Y100733D02*
X127140Y100942D01*
Y101358D01*
X127450Y101567D01*
X127760Y101358D01*
Y100942D01*
X127450Y100733D01*
G01X139850Y101150D02*
X140935Y101358D01*
X142175Y101983D01*
X142950Y103025D01*
X143260Y104483D01*
X142950Y105941D01*
X142020Y107192D01*
X140625Y107817D01*
X139075D01*
X138145Y108233D01*
X137370Y109275D01*
X137060Y110733D01*
X137525Y112192D01*
X138610Y113233D01*
X139850Y113650D01*
X141090Y113233D01*
X142175Y112192D01*
X142640Y110733D01*
X142330Y109275D01*
X141555Y108233D01*
X140625Y107817D01*
X139075D01*
X137680Y107192D01*
X136750Y105941D01*
X136440Y104483D01*
X136750Y103025D01*
X137525Y101983D01*
X138765Y101358D01*
X139850Y101150D01*
G01X148840Y103650D02*
X149770Y102191D01*
X151010Y101358D01*
X152405Y101150D01*
X153645Y101358D01*
X154885Y102400D01*
X155660Y103650D01*
X155815Y104900D01*
X155505Y106358D01*
X154420Y107400D01*
X153335Y107817D01*
X151940D01*
G01X153335D02*
X154265Y108442D01*
X155040Y109483D01*
X155350Y110733D01*
X155040Y111983D01*
X154265Y113025D01*
X152870Y113650D01*
X151475Y113442D01*
X150080Y112608D01*
G01X267800Y-265800D02*
Y-445800D01*
G01Y-410800D02*
X477800D01*
G01X267800Y-385800D02*
X477800D01*
G01X267800Y-355800D02*
X477800D01*
G01X267800Y-325800D02*
X477800D01*
G01X311005Y-282460D02*
X311632Y-282985D01*
X312337Y-283300D01*
X312963D01*
X313590Y-282985D01*
X314060Y-282460D01*
X314295Y-281725D01*
X314138Y-280990D01*
X313747Y-280360D01*
X313042Y-279940D01*
X312102Y-279730D01*
X311553Y-279310D01*
X311318Y-278575D01*
X311475Y-277840D01*
X311867Y-277315D01*
X312415Y-277000D01*
X312963D01*
X313512Y-277210D01*
X313982Y-277735D01*
G01X318010Y-277000D02*
X319890D01*
G01X318950D02*
Y-283300D01*
G01X318010D02*
X319890D01*
G01X325720Y-280150D02*
X327287D01*
Y-282040D01*
X326817Y-282670D01*
X326268Y-283090D01*
X325485Y-283300D01*
X324702Y-283090D01*
X324153Y-282670D01*
X323683Y-282040D01*
X323370Y-281305D01*
X323213Y-280465D01*
Y-279730D01*
X323370Y-279100D01*
X323683Y-278365D01*
X324153Y-277735D01*
X324623Y-277315D01*
X325250Y-277000D01*
X325798D01*
X326425Y-277210D01*
X326895Y-277630D01*
G01X329748Y-283300D02*
Y-277000D01*
X333352Y-283300D01*
Y-277000D01*
G01X335892Y-283300D02*
X337850Y-277000D01*
X339808Y-283300D01*
G01X339103Y-281095D02*
X336597D01*
G01X344150Y-277000D02*
Y-283300D01*
G01X342348Y-277000D02*
X345952D01*
G01X348727D02*
Y-281515D01*
X349040Y-282460D01*
X349667Y-283090D01*
X350450Y-283300D01*
X351233Y-283090D01*
X351860Y-282460D01*
X352173Y-281515D01*
Y-277000D01*
G01X355183Y-283300D02*
Y-277000D01*
X357142D01*
X357768Y-277315D01*
X358160Y-277735D01*
X358317Y-278575D01*
X358160Y-279415D01*
X357690Y-279940D01*
X357142Y-280255D01*
X355183D01*
G01X357142D02*
X358317Y-283300D01*
G01X364617D02*
X361483D01*
Y-277000D01*
X364617D01*
G01X363363Y-280045D02*
X361483D01*
G01X367705Y-282460D02*
X368332Y-282985D01*
X369037Y-283300D01*
X369663D01*
X370290Y-282985D01*
X370760Y-282460D01*
X370995Y-281725D01*
X370838Y-280990D01*
X370447Y-280360D01*
X369742Y-279940D01*
X368802Y-279730D01*
X368253Y-279310D01*
X368018Y-278575D01*
X368175Y-277840D01*
X368567Y-277315D01*
X369115Y-277000D01*
X369663D01*
X370212Y-277210D01*
X370682Y-277735D01*
G01X324457Y-66234D02*
Y-61234D01*
X325723D01*
X326230Y-61484D01*
X326610Y-61817D01*
X326927Y-62317D01*
X327180Y-62901D01*
X327243Y-63734D01*
X327180Y-64567D01*
X326927Y-65151D01*
X326610Y-65651D01*
X326230Y-65984D01*
X325723Y-66234D01*
X324457D01*
G01X332217D02*
X329683D01*
Y-61234D01*
X332217D01*
G01X331203Y-63651D02*
X329683D01*
G01X334720Y-65567D02*
X335227Y-65984D01*
X335797Y-66234D01*
X336303D01*
X336810Y-65984D01*
X337190Y-65567D01*
X337380Y-64984D01*
X337253Y-64401D01*
X336937Y-63901D01*
X336367Y-63567D01*
X335607Y-63401D01*
X335163Y-63067D01*
X334973Y-62484D01*
X335100Y-61901D01*
X335417Y-61484D01*
X335860Y-61234D01*
X336303D01*
X336747Y-61401D01*
X337127Y-61817D01*
G01X340390Y-61234D02*
X341910D01*
G01X341150D02*
Y-66234D01*
G01X340390D02*
X341910D01*
G01X346630Y-63734D02*
X347897D01*
Y-65234D01*
X347517Y-65734D01*
X347073Y-66067D01*
X346440Y-66234D01*
X345807Y-66067D01*
X345363Y-65734D01*
X344983Y-65234D01*
X344730Y-64651D01*
X344603Y-63984D01*
Y-63401D01*
X344730Y-62901D01*
X344983Y-62317D01*
X345363Y-61817D01*
X345743Y-61484D01*
X346250Y-61234D01*
X346693D01*
X347200Y-61401D01*
X347580Y-61734D01*
G01X349893Y-66234D02*
Y-61234D01*
X352807Y-66234D01*
Y-61234D01*
G01X362943Y-61651D02*
X362563Y-61401D01*
X362120Y-61234D01*
X361613D01*
X361043Y-61484D01*
X360600Y-61901D01*
X360283Y-62401D01*
X360030Y-63234D01*
X359967Y-63984D01*
X360093Y-64734D01*
X360283Y-65234D01*
X360663Y-65734D01*
X361107Y-66067D01*
X361550Y-66234D01*
X361993D01*
X362437Y-66067D01*
X362817Y-65817D01*
X363133Y-65484D01*
G01X365383Y-66234D02*
Y-61234D01*
X366967D01*
X367473Y-61484D01*
X367790Y-61817D01*
X367917Y-62484D01*
X367790Y-63151D01*
X367410Y-63567D01*
X366967Y-63817D01*
X365383D01*
G01X366967D02*
X367917Y-66234D01*
G01X371750D02*
X371243Y-66151D01*
X370800Y-65817D01*
X370420Y-65317D01*
X370167Y-64734D01*
X370040Y-64067D01*
Y-63401D01*
X370167Y-62734D01*
X370420Y-62151D01*
X370800Y-61651D01*
X371243Y-61317D01*
X371750Y-61234D01*
X372257Y-61317D01*
X372700Y-61651D01*
X373080Y-62151D01*
X373333Y-62734D01*
X373460Y-63401D01*
Y-64067D01*
X373333Y-64734D01*
X373080Y-65317D01*
X372700Y-65817D01*
X372257Y-66151D01*
X371750Y-66234D01*
G01X375520Y-65567D02*
X376027Y-65984D01*
X376597Y-66234D01*
X377103D01*
X377610Y-65984D01*
X377990Y-65567D01*
X378180Y-64984D01*
X378053Y-64401D01*
X377737Y-63901D01*
X377167Y-63567D01*
X376407Y-63401D01*
X375963Y-63067D01*
X375773Y-62484D01*
X375900Y-61901D01*
X376217Y-61484D01*
X376660Y-61234D01*
X377103D01*
X377547Y-61401D01*
X377927Y-61817D01*
G01X380620Y-65567D02*
X381127Y-65984D01*
X381697Y-66234D01*
X382203D01*
X382710Y-65984D01*
X383090Y-65567D01*
X383280Y-64984D01*
X383153Y-64401D01*
X382837Y-63901D01*
X382267Y-63567D01*
X381507Y-63401D01*
X381063Y-63067D01*
X380873Y-62484D01*
X381000Y-61901D01*
X381317Y-61484D01*
X381760Y-61234D01*
X382203D01*
X382647Y-61401D01*
X383027Y-61817D01*
G01X390820Y-65567D02*
X391327Y-65984D01*
X391897Y-66234D01*
X392403D01*
X392910Y-65984D01*
X393290Y-65567D01*
X393480Y-64984D01*
X393353Y-64401D01*
X393037Y-63901D01*
X392467Y-63567D01*
X391707Y-63401D01*
X391263Y-63067D01*
X391073Y-62484D01*
X391200Y-61901D01*
X391517Y-61484D01*
X391960Y-61234D01*
X392403D01*
X392847Y-61401D01*
X393227Y-61817D01*
G01X398517Y-66234D02*
X395983D01*
Y-61234D01*
X398517D01*
G01X397503Y-63651D02*
X395983D01*
G01X403743Y-61651D02*
X403363Y-61401D01*
X402920Y-61234D01*
X402413D01*
X401843Y-61484D01*
X401400Y-61901D01*
X401083Y-62401D01*
X400830Y-63234D01*
X400767Y-63984D01*
X400893Y-64734D01*
X401083Y-65234D01*
X401463Y-65734D01*
X401907Y-66067D01*
X402350Y-66234D01*
X402793D01*
X403237Y-66067D01*
X403617Y-65817D01*
X403933Y-65484D01*
G01X407450Y-61234D02*
Y-66234D01*
G01X405993Y-61234D02*
X408907D01*
G01X411790D02*
X413310D01*
G01X412550D02*
Y-66234D01*
G01X411790D02*
X413310D01*
G01X417650D02*
X417143Y-66151D01*
X416700Y-65817D01*
X416320Y-65317D01*
X416067Y-64734D01*
X415940Y-64067D01*
Y-63401D01*
X416067Y-62734D01*
X416320Y-62151D01*
X416700Y-61651D01*
X417143Y-61317D01*
X417650Y-61234D01*
X418157Y-61317D01*
X418600Y-61651D01*
X418980Y-62151D01*
X419233Y-62734D01*
X419360Y-63401D01*
Y-64067D01*
X419233Y-64734D01*
X418980Y-65317D01*
X418600Y-65817D01*
X418157Y-66151D01*
X417650Y-66234D01*
G01X421293D02*
Y-61234D01*
X424207Y-66234D01*
Y-61234D01*
G01X434343Y-61651D02*
X433963Y-61401D01*
X433520Y-61234D01*
X433013D01*
X432443Y-61484D01*
X432000Y-61901D01*
X431683Y-62401D01*
X431430Y-63234D01*
X431367Y-63984D01*
X431493Y-64734D01*
X431683Y-65234D01*
X432063Y-65734D01*
X432507Y-66067D01*
X432950Y-66234D01*
X433393D01*
X433837Y-66067D01*
X434217Y-65817D01*
X434533Y-65484D01*
G01X436720Y-66234D02*
Y-61234D01*
G01X439380D02*
Y-66234D01*
G01Y-63734D02*
X436720D01*
G01X441567Y-66234D02*
X443150Y-61234D01*
X444733Y-66234D01*
G01X444163Y-64484D02*
X442137D01*
G01X446983Y-66234D02*
Y-61234D01*
X448567D01*
X449073Y-61484D01*
X449390Y-61817D01*
X449517Y-62484D01*
X449390Y-63151D01*
X449010Y-63567D01*
X448567Y-63817D01*
X446983D01*
G01X448567D02*
X449517Y-66234D01*
G01X453350Y-61234D02*
Y-66234D01*
G01X451893Y-61234D02*
X454807D01*
G01X321400Y-67901D02*
X325200D01*
G01X326500D02*
X330300D01*
G01X331600D02*
X335400D01*
G01X336700D02*
X340500D01*
G01X341800D02*
X345600D01*
G01X346900D02*
X350700D01*
G01X352000D02*
X355800D01*
G01X357100D02*
X360900D01*
G01X362200D02*
X366000D01*
G01X367300D02*
X371100D01*
G01X372400D02*
X376200D01*
G01X377500D02*
X381300D01*
G01X382600D02*
X386400D01*
G01X387700D02*
X391500D01*
G01X392800D02*
X396600D01*
G01X397900D02*
X401700D01*
G01X403000D02*
X406800D01*
G01X408100D02*
X411900D01*
G01X413200D02*
X417000D01*
G01X418300D02*
X422100D01*
G01X423400D02*
X427200D01*
G01X428500D02*
X432300D01*
G01X433600D02*
X437400D01*
G01X438700D02*
X442500D01*
G01X443800D02*
X447600D01*
G01X448900D02*
X452700D01*
G01X454000D02*
X457800D01*
G01X325850Y-70234D02*
Y-75234D01*
G01X324393Y-70234D02*
X327307D01*
G01X330950Y-75234D02*
X330443Y-75151D01*
X330000Y-74817D01*
X329620Y-74317D01*
X329367Y-73734D01*
X329240Y-73067D01*
Y-72401D01*
X329367Y-71734D01*
X329620Y-71151D01*
X330000Y-70651D01*
X330443Y-70317D01*
X330950Y-70234D01*
X331457Y-70317D01*
X331900Y-70651D01*
X332280Y-71151D01*
X332533Y-71734D01*
X332660Y-72401D01*
Y-73067D01*
X332533Y-73734D01*
X332280Y-74317D01*
X331900Y-74817D01*
X331457Y-75151D01*
X330950Y-75234D01*
G01X336050Y-70234D02*
Y-75234D01*
G01X334593Y-70234D02*
X337507D01*
G01X339567Y-75234D02*
X341150Y-70234D01*
X342733Y-75234D01*
G01X342163Y-73484D02*
X340137D01*
G01X344983Y-70234D02*
Y-75234D01*
X347517D01*
G01X356450Y-70234D02*
Y-75234D01*
G01X354993Y-70234D02*
X357907D01*
G01X360220Y-75234D02*
Y-70234D01*
G01X362880D02*
Y-75234D01*
G01Y-72734D02*
X360220D01*
G01X365890Y-70234D02*
X367410D01*
G01X366650D02*
Y-75234D01*
G01X365890D02*
X367410D01*
G01X373143Y-70651D02*
X372763Y-70401D01*
X372320Y-70234D01*
X371813D01*
X371243Y-70484D01*
X370800Y-70901D01*
X370483Y-71401D01*
X370230Y-72234D01*
X370167Y-72984D01*
X370293Y-73734D01*
X370483Y-74234D01*
X370863Y-74734D01*
X371307Y-75067D01*
X371750Y-75234D01*
X372193D01*
X372637Y-75067D01*
X373017Y-74817D01*
X373333Y-74484D01*
G01X375457Y-75234D02*
Y-70234D01*
G01X377863D02*
X375457Y-73317D01*
G01X378243Y-75234D02*
X376533Y-71901D01*
G01X380493Y-75234D02*
Y-70234D01*
X383407Y-75234D01*
Y-70234D01*
G01X388317Y-75234D02*
X385783D01*
Y-70234D01*
X388317D01*
G01X387303Y-72651D02*
X385783D01*
G01X390820Y-74567D02*
X391327Y-74984D01*
X391897Y-75234D01*
X392403D01*
X392910Y-74984D01*
X393290Y-74567D01*
X393480Y-73984D01*
X393353Y-73401D01*
X393037Y-72901D01*
X392467Y-72567D01*
X391707Y-72401D01*
X391263Y-72067D01*
X391073Y-71484D01*
X391200Y-70901D01*
X391517Y-70484D01*
X391960Y-70234D01*
X392403D01*
X392847Y-70401D01*
X393227Y-70817D01*
G01X395920Y-74567D02*
X396427Y-74984D01*
X396997Y-75234D01*
X397503D01*
X398010Y-74984D01*
X398390Y-74567D01*
X398580Y-73984D01*
X398453Y-73401D01*
X398137Y-72901D01*
X397567Y-72567D01*
X396807Y-72401D01*
X396363Y-72067D01*
X396173Y-71484D01*
X396300Y-70901D01*
X396617Y-70484D01*
X397060Y-70234D01*
X397503D01*
X397947Y-70401D01*
X398327Y-70817D01*
G01X407450Y-70234D02*
X406943Y-70401D01*
X406563Y-70817D01*
X406310Y-71317D01*
X406120Y-71984D01*
X406057Y-72734D01*
X406120Y-73484D01*
X406310Y-74151D01*
X406563Y-74651D01*
X406943Y-75067D01*
X407450Y-75234D01*
X407957Y-75067D01*
X408337Y-74651D01*
X408590Y-74151D01*
X408780Y-73484D01*
X408843Y-72734D01*
X408780Y-71984D01*
X408590Y-71317D01*
X408337Y-70817D01*
X407957Y-70401D01*
X407450Y-70234D01*
G01X412550Y-75401D02*
X412423Y-75317D01*
Y-75151D01*
X412550Y-75067D01*
X412677Y-75151D01*
Y-75317D01*
X412550Y-75401D01*
G01X416447Y-71067D02*
X416827Y-70567D01*
X417270Y-70317D01*
X417777Y-70234D01*
X418410Y-70401D01*
X418853Y-70817D01*
X418980Y-71317D01*
X418917Y-71817D01*
X418663Y-72234D01*
X417397Y-73067D01*
X416827Y-73651D01*
X416447Y-74484D01*
X416320Y-75234D01*
X418980D01*
G01X421547Y-73151D02*
X421990Y-72567D01*
X422370Y-72234D01*
X422877Y-72067D01*
X423320Y-72234D01*
X423637Y-72567D01*
X423890Y-73067D01*
X423953Y-73651D01*
X423890Y-74151D01*
X423637Y-74651D01*
X423257Y-75067D01*
X422813Y-75234D01*
X422307Y-75067D01*
X421863Y-74567D01*
X421610Y-73817D01*
X421547Y-72984D01*
X421673Y-71901D01*
X421863Y-71317D01*
X422180Y-70734D01*
X422623Y-70317D01*
X423067Y-70234D01*
X423510Y-70401D01*
X423827Y-70817D01*
G01X428610Y-75234D02*
Y-70234D01*
X426267Y-73817D01*
X429433D01*
G01X432950Y-75234D02*
Y-70234D01*
X432190Y-71234D01*
G01Y-75234D02*
X433710D01*
G01X436847Y-73151D02*
X437290Y-72567D01*
X437670Y-72234D01*
X438177Y-72067D01*
X438620Y-72234D01*
X438937Y-72567D01*
X439190Y-73067D01*
X439253Y-73651D01*
X439190Y-74151D01*
X438937Y-74651D01*
X438557Y-75067D01*
X438113Y-75234D01*
X437607Y-75067D01*
X437163Y-74567D01*
X436910Y-73817D01*
X436847Y-72984D01*
X436973Y-71901D01*
X437163Y-71317D01*
X437480Y-70734D01*
X437923Y-70317D01*
X438367Y-70234D01*
X438810Y-70401D01*
X439127Y-70817D01*
G01X446603Y-75234D02*
Y-70234D01*
X448250Y-74401D01*
X449897Y-70234D01*
Y-75234D01*
G01X451703D02*
Y-70234D01*
X453350Y-74401D01*
X454997Y-70234D01*
Y-75234D01*
G01X359600Y-24862D02*
Y128738D01*
X419600D01*
Y-24862D01*
X359600D01*
G01X397800Y-383300D02*
Y-385800D01*
G01Y-383300D02*
Y-265800D01*
G01X387100Y158678D02*
X382100D01*
X383100Y157918D01*
G01X387100D02*
Y159438D01*
G01X385433Y162955D02*
Y164601D01*
G01X382933Y167675D02*
X382433Y168055D01*
X382183Y168498D01*
X382100Y169005D01*
X382267Y169638D01*
X382683Y170081D01*
X383183Y170208D01*
X383683Y170145D01*
X384100Y169891D01*
X384933Y168625D01*
X385517Y168055D01*
X386350Y167675D01*
X387100Y167548D01*
Y170208D01*
G01X397800Y261700D02*
Y231700D01*
G01Y351700D02*
Y261700D01*
G01Y291700D02*
X897800D01*
G01X397800Y321700D02*
X897800D01*
G01X423427Y-283300D02*
Y-277000D01*
X424993D01*
X425620Y-277315D01*
X426090Y-277735D01*
X426482Y-278365D01*
X426795Y-279100D01*
X426873Y-280150D01*
X426795Y-281200D01*
X426482Y-281935D01*
X426090Y-282565D01*
X425620Y-282985D01*
X424993Y-283300D01*
X423427D01*
G01X429492D02*
X431450Y-277000D01*
X433408Y-283300D01*
G01X432703Y-281095D02*
X430197D01*
G01X437750Y-277000D02*
Y-283300D01*
G01X435948Y-277000D02*
X439552D01*
G01X445617Y-283300D02*
X442483D01*
Y-277000D01*
X445617D01*
G01X444363Y-280045D02*
X442483D01*
G01X425333Y-31382D02*
Y-36382D01*
X427867D01*
G01X430497Y-32215D02*
X430877Y-31715D01*
X431320Y-31465D01*
X431827Y-31382D01*
X432460Y-31549D01*
X432903Y-31965D01*
X433030Y-32465D01*
X432967Y-32965D01*
X432713Y-33382D01*
X431447Y-34215D01*
X430877Y-34799D01*
X430497Y-35632D01*
X430370Y-36382D01*
X433030D01*
G01X442407Y-33715D02*
X442660Y-33465D01*
X442850Y-33049D01*
X442977Y-32465D01*
X442850Y-31965D01*
X442597Y-31632D01*
X442153Y-31382D01*
X440443D01*
Y-36382D01*
X442533D01*
X442977Y-36049D01*
X443230Y-35549D01*
X443357Y-34965D01*
X443230Y-34382D01*
X442850Y-33882D01*
X442407Y-33715D01*
X440443D01*
G01X447000Y-36382D02*
X446493Y-36299D01*
X446050Y-35965D01*
X445670Y-35465D01*
X445417Y-34882D01*
X445290Y-34215D01*
Y-33549D01*
X445417Y-32882D01*
X445670Y-32299D01*
X446050Y-31799D01*
X446493Y-31465D01*
X447000Y-31382D01*
X447507Y-31465D01*
X447950Y-31799D01*
X448330Y-32299D01*
X448583Y-32882D01*
X448710Y-33549D01*
Y-34215D01*
X448583Y-34882D01*
X448330Y-35465D01*
X447950Y-35965D01*
X447507Y-36299D01*
X447000Y-36382D01*
G01X452100Y-31382D02*
Y-36382D01*
G01X450643Y-31382D02*
X453557D01*
G01X457200D02*
Y-36382D01*
G01X455743Y-31382D02*
X458657D01*
G01X462300Y-36382D02*
X461793Y-36299D01*
X461350Y-35965D01*
X460970Y-35465D01*
X460717Y-34882D01*
X460590Y-34215D01*
Y-33549D01*
X460717Y-32882D01*
X460970Y-32299D01*
X461350Y-31799D01*
X461793Y-31465D01*
X462300Y-31382D01*
X462807Y-31465D01*
X463250Y-31799D01*
X463630Y-32299D01*
X463883Y-32882D01*
X464010Y-33549D01*
Y-34215D01*
X463883Y-34882D01*
X463630Y-35465D01*
X463250Y-35965D01*
X462807Y-36299D01*
X462300Y-36382D01*
G01X465753D02*
Y-31382D01*
X467400Y-35549D01*
X469047Y-31382D01*
Y-36382D01*
G01X478993Y-31799D02*
X478613Y-31549D01*
X478170Y-31382D01*
X477663D01*
X477093Y-31632D01*
X476650Y-32049D01*
X476333Y-32549D01*
X476080Y-33382D01*
X476017Y-34132D01*
X476143Y-34882D01*
X476333Y-35382D01*
X476713Y-35882D01*
X477157Y-36215D01*
X477600Y-36382D01*
X478043D01*
X478487Y-36215D01*
X478867Y-35965D01*
X479183Y-35632D01*
G01X482700Y-36382D02*
X482193Y-36299D01*
X481750Y-35965D01*
X481370Y-35465D01*
X481117Y-34882D01*
X480990Y-34215D01*
Y-33549D01*
X481117Y-32882D01*
X481370Y-32299D01*
X481750Y-31799D01*
X482193Y-31465D01*
X482700Y-31382D01*
X483207Y-31465D01*
X483650Y-31799D01*
X484030Y-32299D01*
X484283Y-32882D01*
X484410Y-33549D01*
Y-34215D01*
X484283Y-34882D01*
X484030Y-35465D01*
X483650Y-35965D01*
X483207Y-36299D01*
X482700Y-36382D01*
G01X486343D02*
Y-31382D01*
X489257Y-36382D01*
Y-31382D01*
G01X491507Y-36382D02*
Y-31382D01*
X492773D01*
X493280Y-31632D01*
X493660Y-31965D01*
X493977Y-32465D01*
X494230Y-33049D01*
X494293Y-33882D01*
X494230Y-34715D01*
X493977Y-35299D01*
X493660Y-35799D01*
X493280Y-36132D01*
X492773Y-36382D01*
X491507D01*
G01X496607Y-31382D02*
Y-34965D01*
X496860Y-35715D01*
X497367Y-36215D01*
X498000Y-36382D01*
X498633Y-36215D01*
X499140Y-35715D01*
X499393Y-34965D01*
Y-31382D01*
G01X504493Y-31799D02*
X504113Y-31549D01*
X503670Y-31382D01*
X503163D01*
X502593Y-31632D01*
X502150Y-32049D01*
X501833Y-32549D01*
X501580Y-33382D01*
X501517Y-34132D01*
X501643Y-34882D01*
X501833Y-35382D01*
X502213Y-35882D01*
X502657Y-36215D01*
X503100Y-36382D01*
X503543D01*
X503987Y-36215D01*
X504367Y-35965D01*
X504683Y-35632D01*
G01X508200Y-31382D02*
Y-36382D01*
G01X506743Y-31382D02*
X509657D01*
G01X513300Y-36382D02*
X512793Y-36299D01*
X512350Y-35965D01*
X511970Y-35465D01*
X511717Y-34882D01*
X511590Y-34215D01*
Y-33549D01*
X511717Y-32882D01*
X511970Y-32299D01*
X512350Y-31799D01*
X512793Y-31465D01*
X513300Y-31382D01*
X513807Y-31465D01*
X514250Y-31799D01*
X514630Y-32299D01*
X514883Y-32882D01*
X515010Y-33549D01*
Y-34215D01*
X514883Y-34882D01*
X514630Y-35465D01*
X514250Y-35965D01*
X513807Y-36299D01*
X513300Y-36382D01*
G01X517133D02*
Y-31382D01*
X518717D01*
X519223Y-31632D01*
X519540Y-31965D01*
X519667Y-32632D01*
X519540Y-33299D01*
X519160Y-33715D01*
X518717Y-33965D01*
X517133D01*
G01X518717D02*
X519667Y-36382D01*
G01X435407Y-54735D02*
X438193Y-51068D01*
G01X436800Y-50401D02*
Y-55401D01*
G01X438193Y-54735D02*
X435407Y-51068D01*
G01X434900Y-52901D02*
X438700D01*
G01X450770Y-53901D02*
X451277Y-54318D01*
X451847Y-54568D01*
X452353D01*
X452860Y-54318D01*
X453240Y-53901D01*
X453430Y-53318D01*
X453303Y-52735D01*
X452987Y-52235D01*
X452417Y-51901D01*
X451657Y-51735D01*
X451213Y-51401D01*
X451023Y-50818D01*
X451150Y-50235D01*
X451467Y-49818D01*
X451910Y-49568D01*
X452353D01*
X452797Y-49735D01*
X453177Y-50151D01*
G01X455807Y-49568D02*
Y-53151D01*
X456060Y-53901D01*
X456567Y-54401D01*
X457200Y-54568D01*
X457833Y-54401D01*
X458340Y-53901D01*
X458593Y-53151D01*
Y-49568D01*
G01X461033Y-54568D02*
Y-49568D01*
X462617D01*
X463123Y-49818D01*
X463440Y-50151D01*
X463567Y-50818D01*
X463440Y-51485D01*
X463060Y-51901D01*
X462617Y-52151D01*
X461033D01*
G01X462617D02*
X463567Y-54568D01*
G01X466197D02*
Y-49568D01*
X468603D01*
G01X467717Y-51985D02*
X466197D01*
G01X470917Y-54568D02*
X472500Y-49568D01*
X474083Y-54568D01*
G01X473513Y-52818D02*
X471487D01*
G01X478993Y-49985D02*
X478613Y-49735D01*
X478170Y-49568D01*
X477663D01*
X477093Y-49818D01*
X476650Y-50235D01*
X476333Y-50735D01*
X476080Y-51568D01*
X476017Y-52318D01*
X476143Y-53068D01*
X476333Y-53568D01*
X476713Y-54068D01*
X477157Y-54401D01*
X477600Y-54568D01*
X478043D01*
X478487Y-54401D01*
X478867Y-54151D01*
X479183Y-53818D01*
G01X483967Y-54568D02*
X481433D01*
Y-49568D01*
X483967D01*
G01X482953Y-51985D02*
X481433D01*
G01X435407Y51771D02*
X438193Y55438D01*
G01X436800Y56105D02*
Y51105D01*
G01X438193Y51771D02*
X435407Y55438D01*
G01X434900Y53605D02*
X438700D01*
G01X450707Y51938D02*
Y56938D01*
X451973D01*
X452480Y56688D01*
X452860Y56355D01*
X453177Y55855D01*
X453430Y55271D01*
X453493Y54438D01*
X453430Y53605D01*
X453177Y53021D01*
X452860Y52521D01*
X452480Y52188D01*
X451973Y51938D01*
X450707D01*
G01X456440Y56938D02*
X457960D01*
G01X457200D02*
Y51938D01*
G01X456440D02*
X457960D01*
G01X463567D02*
X461033D01*
Y56938D01*
X463567D01*
G01X462553Y54521D02*
X461033D01*
G01X466133Y56938D02*
Y51938D01*
X468667D01*
G01X473767D02*
X471233D01*
Y56938D01*
X473767D01*
G01X472753Y54521D02*
X471233D01*
G01X478993Y56521D02*
X478613Y56771D01*
X478170Y56938D01*
X477663D01*
X477093Y56688D01*
X476650Y56271D01*
X476333Y55771D01*
X476080Y54938D01*
X476017Y54188D01*
X476143Y53438D01*
X476333Y52938D01*
X476713Y52438D01*
X477157Y52105D01*
X477600Y51938D01*
X478043D01*
X478487Y52105D01*
X478867Y52355D01*
X479183Y52688D01*
G01X482700Y56938D02*
Y51938D01*
G01X481243Y56938D02*
X484157D01*
G01X486533Y51938D02*
Y56938D01*
X488117D01*
X488623Y56688D01*
X488940Y56355D01*
X489067Y55688D01*
X488940Y55021D01*
X488560Y54605D01*
X488117Y54355D01*
X486533D01*
G01X488117D02*
X489067Y51938D01*
G01X492140Y56938D02*
X493660D01*
G01X492900D02*
Y51938D01*
G01X492140D02*
X493660D01*
G01X499393Y56521D02*
X499013Y56771D01*
X498570Y56938D01*
X498063D01*
X497493Y56688D01*
X497050Y56271D01*
X496733Y55771D01*
X496480Y54938D01*
X496417Y54188D01*
X496543Y53438D01*
X496733Y52938D01*
X497113Y52438D01*
X497557Y52105D01*
X498000Y51938D01*
X498443D01*
X498887Y52105D01*
X499267Y52355D01*
X499583Y52688D01*
G01X425333Y145258D02*
Y140258D01*
X427867D01*
G01X431700D02*
Y145258D01*
X430940Y144258D01*
G01Y140258D02*
X432460D01*
G01X441900Y145258D02*
Y140258D01*
G01X440443Y145258D02*
X443357D01*
G01X447000Y140258D02*
X446493Y140341D01*
X446050Y140675D01*
X445670Y141175D01*
X445417Y141758D01*
X445290Y142425D01*
Y143091D01*
X445417Y143758D01*
X445670Y144341D01*
X446050Y144841D01*
X446493Y145175D01*
X447000Y145258D01*
X447507Y145175D01*
X447950Y144841D01*
X448330Y144341D01*
X448583Y143758D01*
X448710Y143091D01*
Y142425D01*
X448583Y141758D01*
X448330Y141175D01*
X447950Y140675D01*
X447507Y140341D01*
X447000Y140258D01*
G01X450833D02*
Y145258D01*
X452353D01*
X452860Y145008D01*
X453240Y144425D01*
X453367Y143758D01*
X453240Y143091D01*
X452923Y142591D01*
X452353Y142341D01*
X450833D01*
G01X463693Y144841D02*
X463313Y145091D01*
X462870Y145258D01*
X462363D01*
X461793Y145008D01*
X461350Y144591D01*
X461033Y144091D01*
X460780Y143258D01*
X460717Y142508D01*
X460843Y141758D01*
X461033Y141258D01*
X461413Y140758D01*
X461857Y140425D01*
X462300Y140258D01*
X462743D01*
X463187Y140425D01*
X463567Y140675D01*
X463883Y141008D01*
G01X467400Y140258D02*
X466893Y140341D01*
X466450Y140675D01*
X466070Y141175D01*
X465817Y141758D01*
X465690Y142425D01*
Y143091D01*
X465817Y143758D01*
X466070Y144341D01*
X466450Y144841D01*
X466893Y145175D01*
X467400Y145258D01*
X467907Y145175D01*
X468350Y144841D01*
X468730Y144341D01*
X468983Y143758D01*
X469110Y143091D01*
Y142425D01*
X468983Y141758D01*
X468730Y141175D01*
X468350Y140675D01*
X467907Y140341D01*
X467400Y140258D01*
G01X471043D02*
Y145258D01*
X473957Y140258D01*
Y145258D01*
G01X476207Y140258D02*
Y145258D01*
X477473D01*
X477980Y145008D01*
X478360Y144675D01*
X478677Y144175D01*
X478930Y143591D01*
X478993Y142758D01*
X478930Y141925D01*
X478677Y141341D01*
X478360Y140841D01*
X477980Y140508D01*
X477473Y140258D01*
X476207D01*
G01X481307Y145258D02*
Y141675D01*
X481560Y140925D01*
X482067Y140425D01*
X482700Y140258D01*
X483333Y140425D01*
X483840Y140925D01*
X484093Y141675D01*
Y145258D01*
G01X489193Y144841D02*
X488813Y145091D01*
X488370Y145258D01*
X487863D01*
X487293Y145008D01*
X486850Y144591D01*
X486533Y144091D01*
X486280Y143258D01*
X486217Y142508D01*
X486343Y141758D01*
X486533Y141258D01*
X486913Y140758D01*
X487357Y140425D01*
X487800Y140258D01*
X488243D01*
X488687Y140425D01*
X489067Y140675D01*
X489383Y141008D01*
G01X492900Y145258D02*
Y140258D01*
G01X491443Y145258D02*
X494357D01*
G01X498000Y140258D02*
X497493Y140341D01*
X497050Y140675D01*
X496670Y141175D01*
X496417Y141758D01*
X496290Y142425D01*
Y143091D01*
X496417Y143758D01*
X496670Y144341D01*
X497050Y144841D01*
X497493Y145175D01*
X498000Y145258D01*
X498507Y145175D01*
X498950Y144841D01*
X499330Y144341D01*
X499583Y143758D01*
X499710Y143091D01*
Y142425D01*
X499583Y141758D01*
X499330Y141175D01*
X498950Y140675D01*
X498507Y140341D01*
X498000Y140258D01*
G01X501833D02*
Y145258D01*
X503417D01*
X503923Y145008D01*
X504240Y144675D01*
X504367Y144008D01*
X504240Y143341D01*
X503860Y142925D01*
X503417Y142675D01*
X501833D01*
G01X503417D02*
X504367Y140258D01*
G01X435407Y153277D02*
X438193Y156944D01*
G01X436800Y157611D02*
Y152611D01*
G01X438193Y153277D02*
X435407Y156944D01*
G01X434900Y155111D02*
X438700D01*
G01X450770Y154111D02*
X451277Y153694D01*
X451847Y153444D01*
X452353D01*
X452860Y153694D01*
X453240Y154111D01*
X453430Y154694D01*
X453303Y155277D01*
X452987Y155777D01*
X452417Y156111D01*
X451657Y156277D01*
X451213Y156611D01*
X451023Y157194D01*
X451150Y157777D01*
X451467Y158194D01*
X451910Y158444D01*
X452353D01*
X452797Y158277D01*
X453177Y157861D01*
G01X455807Y158444D02*
Y154861D01*
X456060Y154111D01*
X456567Y153611D01*
X457200Y153444D01*
X457833Y153611D01*
X458340Y154111D01*
X458593Y154861D01*
Y158444D01*
G01X461033Y153444D02*
Y158444D01*
X462617D01*
X463123Y158194D01*
X463440Y157861D01*
X463567Y157194D01*
X463440Y156527D01*
X463060Y156111D01*
X462617Y155861D01*
X461033D01*
G01X462617D02*
X463567Y153444D01*
G01X466197D02*
Y158444D01*
X468603D01*
G01X467717Y156027D02*
X466197D01*
G01X470917Y153444D02*
X472500Y158444D01*
X474083Y153444D01*
G01X473513Y155194D02*
X471487D01*
G01X478993Y158027D02*
X478613Y158277D01*
X478170Y158444D01*
X477663D01*
X477093Y158194D01*
X476650Y157777D01*
X476333Y157277D01*
X476080Y156444D01*
X476017Y155694D01*
X476143Y154944D01*
X476333Y154444D01*
X476713Y153944D01*
X477157Y153611D01*
X477600Y153444D01*
X478043D01*
X478487Y153611D01*
X478867Y153861D01*
X479183Y154194D01*
G01X483967Y153444D02*
X481433D01*
Y158444D01*
X483967D01*
G01X482953Y156027D02*
X481433D01*
G01X404050Y301700D02*
Y311700D01*
X407175D01*
X408175Y311200D01*
X408800Y310533D01*
X409050Y309200D01*
X408800Y307867D01*
X408050Y307033D01*
X407175Y306533D01*
X404050D01*
G01X407175D02*
X409050Y301700D01*
G01X419050D02*
X414050D01*
Y311700D01*
X419050D01*
G01X417050Y306867D02*
X414050D01*
G01X423425Y311700D02*
X426550Y301700D01*
X429675Y311700D01*
G01X437800Y261700D02*
Y231700D01*
G01Y261700D02*
Y321700D01*
G01X483925Y-429467D02*
X484925Y-430300D01*
X486050Y-430800D01*
X487050D01*
X488050Y-430300D01*
X488800Y-429467D01*
X489175Y-428300D01*
X488925Y-427134D01*
X488300Y-426133D01*
X487175Y-425467D01*
X485675Y-425133D01*
X484800Y-424467D01*
X484425Y-423300D01*
X484675Y-422133D01*
X485300Y-421300D01*
X486175Y-420800D01*
X487050D01*
X487925Y-421133D01*
X488675Y-421967D01*
G01X499300Y-421633D02*
X498550Y-421133D01*
X497675Y-420800D01*
X496675D01*
X495550Y-421300D01*
X494675Y-422133D01*
X494050Y-423133D01*
X493550Y-424800D01*
X493425Y-426300D01*
X493675Y-427800D01*
X494050Y-428800D01*
X494800Y-429800D01*
X495675Y-430467D01*
X496550Y-430800D01*
X497425D01*
X498300Y-430467D01*
X499050Y-429967D01*
X499675Y-429300D01*
G01X503425Y-430800D02*
X506550Y-420800D01*
X509675Y-430800D01*
G01X508550Y-427300D02*
X504550D01*
G01X514050Y-420800D02*
Y-430800D01*
X519050D01*
G01X529050D02*
X524050D01*
Y-420800D01*
X529050D01*
G01X527050Y-425633D02*
X524050D01*
G01X477800Y-265800D02*
Y-445800D01*
G01X483925Y-389467D02*
X484925Y-390300D01*
X486050Y-390800D01*
X487050D01*
X488050Y-390300D01*
X488800Y-389467D01*
X489175Y-388300D01*
X488925Y-387134D01*
X488300Y-386133D01*
X487175Y-385467D01*
X485675Y-385133D01*
X484800Y-384467D01*
X484425Y-383300D01*
X484675Y-382133D01*
X485300Y-381300D01*
X486175Y-380800D01*
X487050D01*
X487925Y-381133D01*
X488675Y-381967D01*
G01X495050Y-380800D02*
X498050D01*
G01X496550D02*
Y-390800D01*
G01X495050D02*
X498050D01*
G01X504175Y-380800D02*
X508925D01*
X504175Y-390800D01*
X508925D01*
G01X519050D02*
X514050D01*
Y-380800D01*
X519050D01*
G01X517050Y-385633D02*
X514050D01*
G01X727800Y-415800D02*
X477800D01*
G01X897800Y-375800D02*
X477800D01*
G01X897800Y-315800D02*
X477800D01*
G01X508800Y301700D02*
Y311700D01*
X511300D01*
X512300Y311200D01*
X513050Y310533D01*
X513675Y309533D01*
X514175Y308366D01*
X514300Y306700D01*
X514175Y305033D01*
X513675Y303867D01*
X513050Y302866D01*
X512300Y302200D01*
X511300Y301700D01*
X508800D01*
G01X524050D02*
X519050D01*
Y311700D01*
X524050D01*
G01X522050Y306867D02*
X519050D01*
G01X528925Y303033D02*
X529925Y302200D01*
X531050Y301700D01*
X532050D01*
X533050Y302200D01*
X533800Y303033D01*
X534175Y304200D01*
X533925Y305366D01*
X533300Y306367D01*
X532175Y307033D01*
X530675Y307367D01*
X529800Y308033D01*
X529425Y309200D01*
X529675Y310367D01*
X530300Y311200D01*
X531175Y311700D01*
X532050D01*
X532925Y311367D01*
X533675Y310533D01*
G01X544300Y310867D02*
X543550Y311367D01*
X542675Y311700D01*
X541675D01*
X540550Y311200D01*
X539675Y310367D01*
X539050Y309367D01*
X538550Y307700D01*
X538425Y306200D01*
X538675Y304700D01*
X539050Y303700D01*
X539800Y302700D01*
X540675Y302033D01*
X541550Y301700D01*
X542425D01*
X543300Y302033D01*
X544050Y302533D01*
X544675Y303200D01*
G01X549050Y301700D02*
Y311700D01*
X552175D01*
X553175Y311200D01*
X553800Y310533D01*
X554050Y309200D01*
X553800Y307867D01*
X553050Y307033D01*
X552175Y306533D01*
X549050D01*
G01X552175D02*
X554050Y301700D01*
G01X560050Y311700D02*
X563050D01*
G01X561550D02*
Y301700D01*
G01X560050D02*
X563050D01*
G01X569050D02*
Y311700D01*
X572050D01*
X573050Y311200D01*
X573800Y310033D01*
X574050Y308700D01*
X573800Y307367D01*
X573175Y306367D01*
X572050Y305866D01*
X569050D01*
G01X581550Y311700D02*
Y301700D01*
G01X578675Y311700D02*
X584425D01*
G01X590050D02*
X593050D01*
G01X591550D02*
Y301700D01*
G01X590050D02*
X593050D01*
G01X601550D02*
X600550Y301867D01*
X599675Y302533D01*
X598925Y303533D01*
X598425Y304700D01*
X598175Y306033D01*
Y307367D01*
X598425Y308700D01*
X598925Y309867D01*
X599675Y310867D01*
X600550Y311533D01*
X601550Y311700D01*
X602550Y311533D01*
X603425Y310867D01*
X604175Y309867D01*
X604675Y308700D01*
X604925Y307367D01*
Y306033D01*
X604675Y304700D01*
X604175Y303533D01*
X603425Y302533D01*
X602550Y301867D01*
X601550Y301700D01*
G01X608675D02*
Y311700D01*
X614425Y301700D01*
Y311700D01*
G01X539175Y-390800D02*
Y-380800D01*
X543925D01*
G01X542175Y-385633D02*
X539175D01*
G01X548925Y-389467D02*
X549925Y-390300D01*
X551050Y-390800D01*
X552050D01*
X553050Y-390300D01*
X553800Y-389467D01*
X554175Y-388300D01*
X553925Y-387134D01*
X553300Y-386133D01*
X552175Y-385467D01*
X550675Y-385133D01*
X549800Y-384467D01*
X549425Y-383300D01*
X549675Y-382133D01*
X550300Y-381300D01*
X551175Y-380800D01*
X552050D01*
X552925Y-381133D01*
X553675Y-381967D01*
G01X564300Y-381633D02*
X563550Y-381133D01*
X562675Y-380800D01*
X561675D01*
X560550Y-381300D01*
X559675Y-382133D01*
X559050Y-383133D01*
X558550Y-384800D01*
X558425Y-386300D01*
X558675Y-387800D01*
X559050Y-388800D01*
X559800Y-389800D01*
X560675Y-390467D01*
X561550Y-390800D01*
X562425D01*
X563300Y-390467D01*
X564050Y-389967D01*
X564675Y-389300D01*
G01X568300Y-390800D02*
Y-380800D01*
X571550Y-389133D01*
X574800Y-380800D01*
Y-390800D01*
G01X588675D02*
Y-380800D01*
X594425Y-390800D01*
Y-380800D01*
G01X601550Y-390800D02*
X600550Y-390633D01*
X599675Y-389967D01*
X598925Y-388967D01*
X598425Y-387800D01*
X598175Y-386467D01*
Y-385133D01*
X598425Y-383800D01*
X598925Y-382633D01*
X599675Y-381633D01*
X600550Y-380967D01*
X601550Y-380800D01*
X602550Y-380967D01*
X603425Y-381633D01*
X604175Y-382633D01*
X604675Y-383800D01*
X604925Y-385133D01*
Y-386467D01*
X604675Y-387800D01*
X604175Y-388967D01*
X603425Y-389967D01*
X602550Y-390633D01*
X601550Y-390800D01*
G01X527800Y-415800D02*
Y-375800D01*
G01X549050Y-295800D02*
Y-285800D01*
X552050D01*
X553050Y-286300D01*
X553800Y-287467D01*
X554050Y-288800D01*
X553800Y-290133D01*
X553175Y-291133D01*
X552050Y-291634D01*
X549050D01*
G01X559175Y-287467D02*
X559925Y-286467D01*
X560800Y-285967D01*
X561800Y-285800D01*
X563050Y-286133D01*
X563925Y-286967D01*
X564175Y-287967D01*
X564050Y-288967D01*
X563550Y-289800D01*
X561050Y-291467D01*
X559925Y-292633D01*
X559175Y-294300D01*
X558925Y-295800D01*
X564175D01*
G01X571550Y-285800D02*
X570550Y-286133D01*
X569800Y-286967D01*
X569300Y-287967D01*
X568925Y-289300D01*
X568800Y-290800D01*
X568925Y-292300D01*
X569300Y-293633D01*
X569800Y-294634D01*
X570550Y-295467D01*
X571550Y-295800D01*
X572550Y-295467D01*
X573300Y-294634D01*
X573800Y-293633D01*
X574175Y-292300D01*
X574300Y-290800D01*
X574175Y-289300D01*
X573800Y-287967D01*
X573300Y-286967D01*
X572550Y-286133D01*
X571550Y-285800D01*
G01X581550D02*
X580550Y-286133D01*
X579800Y-286967D01*
X579300Y-287967D01*
X578925Y-289300D01*
X578800Y-290800D01*
X578925Y-292300D01*
X579300Y-293633D01*
X579800Y-294634D01*
X580550Y-295467D01*
X581550Y-295800D01*
X582550Y-295467D01*
X583300Y-294634D01*
X583800Y-293633D01*
X584175Y-292300D01*
X584300Y-290800D01*
X584175Y-289300D01*
X583800Y-287967D01*
X583300Y-286967D01*
X582550Y-286133D01*
X581550Y-285800D01*
G01X591550Y-295800D02*
Y-285800D01*
X590050Y-287800D01*
G01Y-295800D02*
X593050D01*
G01X599175Y-291634D02*
X600050Y-290467D01*
X600800Y-289800D01*
X601800Y-289467D01*
X602675Y-289800D01*
X603300Y-290467D01*
X603800Y-291467D01*
X603925Y-292633D01*
X603800Y-293633D01*
X603300Y-294634D01*
X602550Y-295467D01*
X601675Y-295800D01*
X600675Y-295467D01*
X599800Y-294467D01*
X599300Y-292967D01*
X599175Y-291300D01*
X599425Y-289134D01*
X599800Y-287967D01*
X600425Y-286800D01*
X601300Y-285967D01*
X602175Y-285800D01*
X603050Y-286133D01*
X603675Y-286967D01*
G01X618300Y-295800D02*
Y-285800D01*
X621550Y-294133D01*
X624800Y-285800D01*
Y-295800D01*
G01X628925Y-294467D02*
X629925Y-295300D01*
X631050Y-295800D01*
X632050D01*
X633050Y-295300D01*
X633800Y-294467D01*
X634175Y-293300D01*
X633925Y-292134D01*
X633300Y-291133D01*
X632175Y-290467D01*
X630675Y-290133D01*
X629800Y-289467D01*
X629425Y-288300D01*
X629675Y-287133D01*
X630300Y-286300D01*
X631175Y-285800D01*
X632050D01*
X632925Y-286133D01*
X633675Y-286967D01*
G01X638800Y-295800D02*
Y-285800D01*
X641300D01*
X642300Y-286300D01*
X643050Y-286967D01*
X643675Y-287967D01*
X644175Y-289134D01*
X644300Y-290800D01*
X644175Y-292467D01*
X643675Y-293633D01*
X643050Y-294634D01*
X642300Y-295300D01*
X641300Y-295800D01*
X638800D01*
G01X659050D02*
Y-285800D01*
X662050D01*
X663050Y-286300D01*
X663800Y-287467D01*
X664050Y-288800D01*
X663800Y-290133D01*
X663175Y-291133D01*
X662050Y-291634D01*
X659050D01*
G01X669800Y-295800D02*
Y-289134D01*
G01Y-290467D02*
X670425Y-289800D01*
X671050Y-289300D01*
X671925Y-289134D01*
X672550Y-289300D01*
X673300Y-289800D01*
G01X681550Y-295800D02*
X680800Y-295633D01*
X680050Y-294967D01*
X679550Y-293800D01*
X679300Y-292467D01*
X679550Y-291133D01*
X680050Y-289967D01*
X680800Y-289300D01*
X681550Y-289134D01*
X682300Y-289300D01*
X683050Y-289967D01*
X683550Y-291133D01*
X683675Y-292467D01*
X683550Y-293800D01*
X683050Y-294967D01*
X682300Y-295633D01*
X681550Y-295800D01*
G01X689550Y-298300D02*
X690425Y-298967D01*
X691175Y-299133D01*
X692175Y-298800D01*
X692925Y-297967D01*
X693300Y-296467D01*
Y-289134D01*
G01Y-286467D02*
X693050Y-286300D01*
Y-285967D01*
X693300Y-285800D01*
X693550Y-285967D01*
Y-286300D01*
X693300Y-286467D01*
G01X699675Y-291300D02*
X703675D01*
X703300Y-290133D01*
X702675Y-289467D01*
X701800Y-289134D01*
X700925Y-289300D01*
X700175Y-289800D01*
X699675Y-290967D01*
X699425Y-291967D01*
Y-292967D01*
X699675Y-293967D01*
X700300Y-294967D01*
X701050Y-295633D01*
X701925Y-295800D01*
X702800Y-295467D01*
X703675Y-294467D01*
G01X713550Y-289967D02*
X712675Y-289300D01*
X711925Y-289134D01*
X710925Y-289467D01*
X710175Y-290133D01*
X709675Y-291300D01*
X709550Y-292467D01*
X709675Y-293633D01*
X710175Y-294634D01*
X710925Y-295467D01*
X711925Y-295800D01*
X712800Y-295467D01*
X713550Y-294800D01*
G01X721550Y-285800D02*
Y-295800D01*
G01X719800Y-289134D02*
X723300D01*
G01X731300Y-297633D02*
X731800Y-295467D01*
G01X749050Y-295800D02*
Y-285800D01*
X752175D01*
X753175Y-286300D01*
X753800Y-286967D01*
X754050Y-288300D01*
X753800Y-289633D01*
X753050Y-290467D01*
X752175Y-290967D01*
X749050D01*
G01X752175D02*
X754050Y-295800D01*
G01X760050Y-285800D02*
X763050D01*
G01X761550D02*
Y-295800D01*
G01X760050D02*
X763050D01*
G01X771550Y-285800D02*
Y-295800D01*
G01X768675Y-285800D02*
X774425D01*
G01X567800Y-415800D02*
Y-445800D01*
G01X614050Y331700D02*
Y341700D01*
X617175D01*
X618175Y341200D01*
X618800Y340533D01*
X619050Y339200D01*
X618800Y337867D01*
X618050Y337033D01*
X617175Y336533D01*
X614050D01*
G01X617175D02*
X619050Y331700D01*
G01X629050D02*
X624050D01*
Y341700D01*
X629050D01*
G01X627050Y336867D02*
X624050D01*
G01X633425Y341700D02*
X636550Y331700D01*
X639675Y341700D01*
G01X645050D02*
X648050D01*
G01X646550D02*
Y331700D01*
G01X645050D02*
X648050D01*
G01X653925Y333033D02*
X654925Y332200D01*
X656050Y331700D01*
X657050D01*
X658050Y332200D01*
X658800Y333033D01*
X659175Y334200D01*
X658925Y335366D01*
X658300Y336367D01*
X657175Y337033D01*
X655675Y337367D01*
X654800Y338033D01*
X654425Y339200D01*
X654675Y340367D01*
X655300Y341200D01*
X656175Y341700D01*
X657050D01*
X657925Y341367D01*
X658675Y340533D01*
G01X665050Y341700D02*
X668050D01*
G01X666550D02*
Y331700D01*
G01X665050D02*
X668050D01*
G01X676550D02*
X675550Y331867D01*
X674675Y332533D01*
X673925Y333533D01*
X673425Y334700D01*
X673175Y336033D01*
Y337367D01*
X673425Y338700D01*
X673925Y339867D01*
X674675Y340867D01*
X675550Y341533D01*
X676550Y341700D01*
X677550Y341533D01*
X678425Y340867D01*
X679175Y339867D01*
X679675Y338700D01*
X679925Y337367D01*
Y336033D01*
X679675Y334700D01*
X679175Y333533D01*
X678425Y332533D01*
X677550Y331867D01*
X676550Y331700D01*
G01X683675D02*
Y341700D01*
X689425Y331700D01*
Y341700D01*
G01X693925Y333033D02*
X694925Y332200D01*
X696050Y331700D01*
X697050D01*
X698050Y332200D01*
X698800Y333033D01*
X699175Y334200D01*
X698925Y335366D01*
X698300Y336367D01*
X697175Y337033D01*
X695675Y337367D01*
X694800Y338033D01*
X694425Y339200D01*
X694675Y340367D01*
X695300Y341200D01*
X696175Y341700D01*
X697050D01*
X697925Y341367D01*
X698675Y340533D01*
G01X658800Y-390800D02*
Y-380800D01*
X661300D01*
X662300Y-381300D01*
X663050Y-381967D01*
X663675Y-382967D01*
X664175Y-384134D01*
X664300Y-385800D01*
X664175Y-387467D01*
X663675Y-388633D01*
X663050Y-389634D01*
X662300Y-390300D01*
X661300Y-390800D01*
X658800D01*
G01X667800Y-380800D02*
X669550Y-390800D01*
X671550Y-380800D01*
X673550Y-390800D01*
X675300Y-380800D01*
G01X682300Y-385800D02*
X684800D01*
Y-388800D01*
X684050Y-389800D01*
X683175Y-390467D01*
X681925Y-390800D01*
X680675Y-390467D01*
X679800Y-389800D01*
X679050Y-388800D01*
X678550Y-387633D01*
X678300Y-386300D01*
Y-385133D01*
X678550Y-384134D01*
X679050Y-382967D01*
X679800Y-381967D01*
X680550Y-381300D01*
X681550Y-380800D01*
X682425D01*
X683425Y-381133D01*
X684175Y-381800D01*
G01X698675Y-390800D02*
Y-380800D01*
X704425Y-390800D01*
Y-380800D01*
G01X711550Y-390800D02*
X710550Y-390633D01*
X709675Y-389967D01*
X708925Y-388967D01*
X708425Y-387800D01*
X708175Y-386467D01*
Y-385133D01*
X708425Y-383800D01*
X708925Y-382633D01*
X709675Y-381633D01*
X710550Y-380967D01*
X711550Y-380800D01*
X712550Y-380967D01*
X713425Y-381633D01*
X714175Y-382633D01*
X714675Y-383800D01*
X714925Y-385133D01*
Y-386467D01*
X714675Y-387800D01*
X714175Y-388967D01*
X713425Y-389967D01*
X712550Y-390633D01*
X711550Y-390800D01*
G01X647800Y-415800D02*
Y-375800D01*
G01X727800Y-445800D02*
Y-415800D01*
X897800D01*
G01X707800Y261700D02*
Y231700D01*
G01Y251700D02*
Y291700D01*
G01D02*
Y321700D01*
G01X738925Y-429467D02*
X739925Y-430300D01*
X741050Y-430800D01*
X742050D01*
X743050Y-430300D01*
X743800Y-429467D01*
X744175Y-428300D01*
X743925Y-427134D01*
X743300Y-426133D01*
X742175Y-425467D01*
X740675Y-425133D01*
X739800Y-424467D01*
X739425Y-423300D01*
X739675Y-422133D01*
X740300Y-421300D01*
X741175Y-420800D01*
X742050D01*
X742925Y-421133D01*
X743675Y-421967D01*
G01X748925Y-430800D02*
Y-420800D01*
G01X754175D02*
Y-430800D01*
G01Y-425800D02*
X748925D01*
G01X764050Y-430800D02*
X759050D01*
Y-420800D01*
X764050D01*
G01X762050Y-425633D02*
X759050D01*
G01X774050Y-430800D02*
X769050D01*
Y-420800D01*
X774050D01*
G01X772050Y-425633D02*
X769050D01*
G01X781550Y-420800D02*
Y-430800D01*
G01X778675Y-420800D02*
X784425D01*
G01X733800Y301700D02*
Y311700D01*
X736300D01*
X737300Y311200D01*
X738050Y310533D01*
X738675Y309533D01*
X739175Y308366D01*
X739300Y306700D01*
X739175Y305033D01*
X738675Y303867D01*
X738050Y302866D01*
X737300Y302200D01*
X736300Y301700D01*
X733800D01*
G01X743425D02*
X746550Y311700D01*
X749675Y301700D01*
G01X748550Y305200D02*
X744550D01*
G01X756550Y311700D02*
Y301700D01*
G01X753675Y311700D02*
X759425D01*
G01X769050Y301700D02*
X764050D01*
Y311700D01*
X769050D01*
G01X767050Y306867D02*
X764050D01*
G01X797800Y261700D02*
Y231700D01*
G01Y261700D02*
Y291700D01*
G01D02*
Y321700D01*
G01X808425Y301700D02*
X811550Y311700D01*
X814675Y301700D01*
G01X813550Y305200D02*
X809550D01*
G01X819050Y301700D02*
Y311700D01*
X822050D01*
X823050Y311200D01*
X823800Y310033D01*
X824050Y308700D01*
X823800Y307367D01*
X823175Y306367D01*
X822050Y305866D01*
X819050D01*
G01X829050Y301700D02*
Y311700D01*
X832050D01*
X833050Y311200D01*
X833800Y310033D01*
X834050Y308700D01*
X833800Y307367D01*
X833175Y306367D01*
X832050Y305866D01*
X829050D01*
G01X839050Y301700D02*
Y311700D01*
X842175D01*
X843175Y311200D01*
X843800Y310533D01*
X844050Y309200D01*
X843800Y307867D01*
X843050Y307033D01*
X842175Y306533D01*
X839050D01*
G01X842175D02*
X844050Y301700D01*
G01X851550D02*
X850550Y301867D01*
X849675Y302533D01*
X848925Y303533D01*
X848425Y304700D01*
X848175Y306033D01*
Y307367D01*
X848425Y308700D01*
X848925Y309867D01*
X849675Y310867D01*
X850550Y311533D01*
X851550Y311700D01*
X852550Y311533D01*
X853425Y310867D01*
X854175Y309867D01*
X854675Y308700D01*
X854925Y307367D01*
Y306033D01*
X854675Y304700D01*
X854175Y303533D01*
X853425Y302533D01*
X852550Y301867D01*
X851550Y301700D01*
G01X858425Y311700D02*
X861550Y301700D01*
X864675Y311700D01*
G01X874050Y301700D02*
X869050D01*
Y311700D01*
X874050D01*
G01X872050Y306867D02*
X869050D01*
G01X878800Y301700D02*
Y311700D01*
X881300D01*
X882300Y311200D01*
X883050Y310533D01*
X883675Y309533D01*
X884175Y308366D01*
X884300Y306700D01*
X884175Y305033D01*
X883675Y303867D01*
X883050Y302866D01*
X882300Y302200D01*
X881300Y301700D01*
X878800D01*
G01X897800Y351700D02*
Y231700D01*
M02*
