M48
INCH
T01C.013
;LEADER: 12 
;HEADER: 
;CODE  : ASCII 
;FILE  : msd_foot_ext1-1-2.drl for  ... layers TOP and BOTTOM
;DESIGN: msd_foot_ext1.brd
;T01 Holesize 1. = 13.000000 Tolerance = +0.000000/-0.000000 PLATED MILS Quantity = 34
%
G90
T01
X005440Y007540
X001982Y004540
X007106Y001260
X004270Y001096
X004270Y002224
X006444Y005740
X004226Y007880
X001382Y006531
R05Y-000787
X001382Y007318
X001382Y008106
X001976Y005300
X006330Y002916
X006980Y007880
X003340Y004190
X001064Y001210
X003230Y003620
X003640Y003624
X002097Y003230
X002097Y002836
X004703Y002836
X003282Y005020
X002975Y006436
X006968Y005707
R04Y-000787
X006968Y006495
X006968Y007282
M30
