M48
INCH
T01C.013
;LEADER: 12 
;HEADER: 
;CODE  : ASCII 
;FILE  : msd_foot_ext1-1-2.drl for  ... layers TOP and BOTTOM
;DESIGN: msd_foot_ext1.brd
;T01 Holesize 1. = 13.000000 Tolerance = +0.000000/-0.000000 PLATED MILS Quantity = 26
%
G90
T01
X003543Y002559
X003543Y004331
X001510Y007087
R02Y-000787
X001575Y004724
X001575Y003937
X001575Y008661
X000787Y010236
X001969Y000709
X005118Y000709
X003543Y005118
X004766Y004766
X002320Y004766
X000787Y012992
X001772Y012736
X001181Y011417
X004724Y011024
X002756Y009843
X005512Y007874
R03Y-000787
X006299Y003937
X005512Y008661
X006299Y010236
M30
