M48
INCH,TZ
T01C.013
;LEADER: 12 
;HEADER: 
;CODE  : ASCII 
;FILE  : msd_foot_ext1-1-2.drl for  ... layers TOP and BOTTOM
;DESIGN: msd_foot_ext1.brd
;T01 Holesize 1. = 13.000000 Tolerance = +0.000000/-0.000000 PLATED MILS Quantity = 39
%
G90
T01
X49210Y111010
X39220Y82223
X23040Y61790
X59460Y57710
X46700Y57940
X9620Y59640
X42500Y50040
X36920Y63467
X12641Y98897
R03Y-7874
X6020Y63732
X12642Y114645
X12642Y122519
X36710Y21527
X36710Y10253
X35650Y76800
X44140Y82243
X16471Y101652
X55000Y94177
X14720Y4419
X23050Y39781
X11650Y44940
X6950Y38770
X67910Y40341
X56510Y45500
X47110Y42941
X34340Y72330
X67880Y66637
X67880Y55363
X31203Y122800
X62388Y106824
X62388Y98950
X62388Y83202
X62388Y75328
X52380Y118490
X62388Y122572
X59800Y4419
M30
