G04 ================== begin FILE IDENTIFICATION RECORD ==================*
G04 Layout Name:  msd_foot_ext1.brd*
G04 Film Name:    PASTEMASK_TOP*
G04 File Format:  Gerber RS274X*
G04 File Origin:  Cadence Allegro 17.2-S071*
G04 Origin Date:  Wed Nov 25 01:55:09 2020*
G04 *
G04 Layer:  VIA CLASS/PASTEMASK_TOP*
G04 Layer:  PIN/PASTEMASK_TOP*
G04 Layer:  PACKAGE GEOMETRY/PASTEMASK_TOP*
G04 Layer:  DRC ERROR CLASS/PASTEMASK_TOP*
G04 Layer:  BOARD GEOMETRY/DESIGN_OUTLINE*
G04 *
G04 Offset:    (0.00 0.00)*
G04 Mirror:    No*
G04 Mode:      Positive*
G04 Rotation:  0*
G04 FullContactRelief:  No*
G04 UndefLineWidth:     0.13*
G04 ================== end FILE IDENTIFICATION RECORD ====================*
%FSLAX25Y25*MOIN*%
%IR0*IPPOS*OFA0.00000B0.00000*MIA0B0*SFA1.00000B1.00000*%
%ADD14R,.018X.06*%
%ADD11R,.06X.018*%
%ADD13R,.05228X.011*%
%ADD10R,.03543X.02756*%
%ADD12R,.02756X.03543*%
%ADD15C,.00013*%
G75*
%LPD*%
G75*
G54D10*
X1980Y29341D03*
Y34459D03*
X28190Y29341D03*
X6830Y29331D03*
X23340Y29341D03*
X28190Y34459D03*
X6830Y34449D03*
X23340Y34459D03*
X27750Y94101D03*
X31610Y85421D03*
Y90539D03*
X22930Y94101D03*
X27750Y99219D03*
X22930D03*
X22890Y109661D03*
Y114779D03*
X50250Y29331D03*
X36700Y30089D03*
Y24971D03*
X36710Y18449D03*
Y13331D03*
X45400Y29341D03*
X50250Y34449D03*
X36920Y60389D03*
Y55271D03*
X45400Y34459D03*
X39360Y90419D03*
Y85301D03*
X44140Y90439D03*
Y85321D03*
X55000Y85981D03*
Y91099D03*
X73030Y29341D03*
X68150D03*
X73030Y34459D03*
X67880Y58441D03*
Y63559D03*
X68150Y34459D03*
G54D11*
X6950Y42381D03*
Y44940D03*
Y47500D03*
Y50059D03*
X23050D03*
Y47500D03*
Y44940D03*
Y42381D03*
X51810Y42941D03*
Y45500D03*
Y48060D03*
Y50619D03*
X67910D03*
Y48060D03*
Y45500D03*
Y42941D03*
G54D12*
X31841Y50040D03*
X34281Y122800D03*
X21589Y104420D03*
X16471D03*
X36959Y50040D03*
X39399Y122800D03*
G54D13*
X28156Y68393D03*
Y70362D03*
Y72330D03*
Y74298D03*
Y76267D03*
X45584D03*
Y74298D03*
Y72330D03*
Y70362D03*
Y68393D03*
G54D14*
X34271Y115350D03*
Y99250D03*
X36830Y115350D03*
X39390D03*
X41949D03*
Y99250D03*
X39390D03*
X36830D03*
G54D15*
G01X0Y0D02*
Y125000D01*
X75000D01*
Y0D01*
X0D01*
M02*
