G04 ================== begin FILE IDENTIFICATION RECORD ==================*
G04 Layout Name:  msd_foot_ext1.brd*
G04 Film Name:    SILKSCREENTOP*
G04 File Format:  Gerber RS274X*
G04 File Origin:  Cadence Allegro 17.2-S067*
G04 Origin Date:  Thu Oct 08 21:18:23 2020*
G04 *
G04 Layer:  REF DES/SILKSCREEN_TOP*
G04 Layer:  PACKAGE GEOMETRY/SILKSCREEN_TOP*
G04 Layer:  BOARD GEOMETRY/SILKSCREEN_TOP*
G04 Layer:  BOARD GEOMETRY/DESIGN_OUTLINE*
G04 *
G04 Offset:    (0.0000 0.0000)*
G04 Mirror:    No*
G04 Mode:      Positive*
G04 Rotation:  0*
G04 FullContactRelief:  No*
G04 UndefLineWidth:     0.1270*
G04 ================== end FILE IDENTIFICATION RECORD ====================*
%FSLAX25Y25*MOMM*%
%IR0*IPPOS*OFA0.00000B0.00000*MIA0B0*SFA1.00000B1.00000*%
%ADD10C,.1524*%
%ADD11C,.4064*%
%ADD12C,.05*%
%ADD13C,.127*%
G75*
%LPD*%
G75*
G36*
G01X1238530Y1519050D02*
Y1480950D01*
X1213130D01*
Y1519050D01*
X1238530D01*
G37*
G54D10*
G01X1067640Y1547240D02*
Y1567640D01*
G01X732360Y1252760D02*
Y1232360D01*
G01Y1567640D02*
Y1547240D01*
G01X1067640Y1567640D02*
X732360D01*
G01X1067640Y1232360D02*
Y1252760D01*
G01X732360Y1232360D02*
X1067640D01*
G01X732360Y3202870D02*
Y2997130D01*
G01X936330Y3202870D02*
X863670D01*
G01X1067640Y2997130D02*
Y3202870D01*
G54D11*
G01X900000Y1003050D02*
Y996950D01*
G01X400000Y3303050D02*
Y3296950D01*
G01X1296950Y3200000D02*
X1303050D01*
G54D12*
G01X335370Y3406520D02*
X332570Y3408520D01*
X329300Y3409850D01*
X325570D01*
X321370Y3407850D01*
X318100Y3404520D01*
X315770Y3400520D01*
X313900Y3393850D01*
X313430Y3387850D01*
X314370Y3381850D01*
X315770Y3377850D01*
X318570Y3373850D01*
X321830Y3371180D01*
X325100Y3369850D01*
X328370D01*
X331630Y3371180D01*
X334430Y3373180D01*
X336770Y3375850D01*
G01X346830Y3377850D02*
X349630Y3373180D01*
X353370Y3370520D01*
X357570Y3369850D01*
X361300Y3370520D01*
X365030Y3373850D01*
X367370Y3377850D01*
X367830Y3381850D01*
X366900Y3386520D01*
X363630Y3389850D01*
X360370Y3391180D01*
X356170D01*
G01X360370D02*
X363170Y3393180D01*
X365500Y3396520D01*
X366430Y3400520D01*
X365500Y3404520D01*
X363170Y3407850D01*
X358970Y3409850D01*
X354770Y3409180D01*
X350570Y3406520D01*
G01X835370Y1106520D02*
X832570Y1108520D01*
X829300Y1109850D01*
X825570D01*
X821370Y1107850D01*
X818100Y1104520D01*
X815770Y1100520D01*
X813900Y1093850D01*
X813430Y1087850D01*
X814370Y1081850D01*
X815770Y1077850D01*
X818570Y1073850D01*
X821830Y1071180D01*
X825100Y1069850D01*
X828370D01*
X831630Y1071180D01*
X834430Y1073180D01*
X836770Y1075850D01*
G01X848230Y1103180D02*
X851030Y1107180D01*
X854300Y1109180D01*
X858030Y1109850D01*
X862700Y1108520D01*
X865970Y1105180D01*
X866900Y1101180D01*
X866430Y1097180D01*
X864570Y1093850D01*
X855230Y1087180D01*
X851030Y1082520D01*
X848230Y1075850D01*
X847300Y1069850D01*
X866900D01*
G01X415770Y2969850D02*
Y3009850D01*
X427430D01*
X431170Y3007850D01*
X433500Y3005180D01*
X434430Y2999850D01*
X433500Y2994520D01*
X430700Y2991180D01*
X427430Y2989180D01*
X415770D01*
G01X427430D02*
X434430Y2969850D01*
G01X457100D02*
Y3009850D01*
X451500Y3001850D01*
G01Y2969850D02*
X462700D01*
G01X504670Y2800000D02*
Y2840000D01*
X516330D01*
X520070Y2838000D01*
X522400Y2835330D01*
X523330Y2830000D01*
X522400Y2824670D01*
X519600Y2821330D01*
X516330Y2819330D01*
X504670D01*
G01X516330D02*
X523330Y2800000D01*
G01X537130Y2833330D02*
X539930Y2837330D01*
X543200Y2839330D01*
X546930Y2840000D01*
X551600Y2838670D01*
X554870Y2835330D01*
X555800Y2831330D01*
X555330Y2827330D01*
X553470Y2824000D01*
X544130Y2817330D01*
X539930Y2812670D01*
X537130Y2806000D01*
X536200Y2800000D01*
X555800D01*
G01X1330150Y2615770D02*
X1290150D01*
Y2627430D01*
X1292150Y2631170D01*
X1294820Y2633500D01*
X1300150Y2634430D01*
X1305480Y2633500D01*
X1308820Y2630700D01*
X1310820Y2627430D01*
Y2615770D01*
G01Y2627430D02*
X1330150Y2634430D01*
G01X1343480Y2643100D02*
Y2671100D01*
G01X1324820Y2679300D02*
X1328150Y2683030D01*
X1330150Y2687230D01*
Y2690970D01*
X1328150Y2694700D01*
X1324820Y2697500D01*
X1320150Y2698900D01*
X1315480Y2697970D01*
X1311480Y2695630D01*
X1308820Y2691430D01*
X1307480Y2685830D01*
X1304820Y2682570D01*
X1300150Y2681170D01*
X1295480Y2682100D01*
X1292150Y2684430D01*
X1290150Y2687700D01*
Y2690970D01*
X1291480Y2694230D01*
X1294820Y2697030D01*
G01X1330150Y2730430D02*
Y2711770D01*
X1290150D01*
Y2730430D01*
G01X1309480Y2722970D02*
Y2711770D01*
G01X1330150Y2742370D02*
X1290150D01*
X1330150Y2763830D01*
X1290150D01*
G01X1324820Y2775300D02*
X1328150Y2779030D01*
X1330150Y2783230D01*
Y2786970D01*
X1328150Y2790700D01*
X1324820Y2793500D01*
X1320150Y2794900D01*
X1315480Y2793970D01*
X1311480Y2791630D01*
X1308820Y2787430D01*
X1307480Y2781830D01*
X1304820Y2778570D01*
X1300150Y2777170D01*
X1295480Y2778100D01*
X1292150Y2780430D01*
X1290150Y2783700D01*
Y2786970D01*
X1291480Y2790230D01*
X1294820Y2793030D01*
G01X1290150Y2811500D02*
Y2822700D01*
G01Y2817100D02*
X1330150D01*
G01Y2811500D02*
Y2822700D01*
G01Y2838370D02*
X1290150D01*
X1330150Y2859830D01*
X1290150D01*
G01X1310150Y2883900D02*
Y2893230D01*
X1322150D01*
X1326150Y2890430D01*
X1328820Y2887170D01*
X1330150Y2882500D01*
X1328820Y2877830D01*
X1326150Y2874570D01*
X1322150Y2871770D01*
X1317480Y2869900D01*
X1312150Y2868970D01*
X1307480D01*
X1303480Y2869900D01*
X1298820Y2871770D01*
X1294820Y2874570D01*
X1292150Y2877370D01*
X1290150Y2881100D01*
Y2884370D01*
X1291480Y2888100D01*
X1294150Y2890900D01*
G01X1193480Y3135370D02*
X1191480Y3132570D01*
X1190150Y3129300D01*
Y3125570D01*
X1192150Y3121370D01*
X1195480Y3118100D01*
X1199480Y3115770D01*
X1206150Y3113900D01*
X1212150Y3113430D01*
X1218150Y3114370D01*
X1222150Y3115770D01*
X1226150Y3118570D01*
X1228820Y3121830D01*
X1230150Y3125100D01*
Y3128370D01*
X1228820Y3131630D01*
X1226820Y3134430D01*
X1224150Y3136770D01*
G01X1230150Y3157100D02*
X1190150D01*
X1198150Y3151500D01*
G01X1230150D02*
Y3162700D01*
G01X1600000Y3304670D02*
X1560000D01*
Y3316330D01*
X1562000Y3320070D01*
X1564670Y3322400D01*
X1570000Y3323330D01*
X1575330Y3322400D01*
X1578670Y3319600D01*
X1580670Y3316330D01*
Y3304670D01*
G01Y3316330D02*
X1600000Y3323330D01*
G01X1592000Y3335730D02*
X1596670Y3338530D01*
X1599330Y3342270D01*
X1600000Y3346470D01*
X1599330Y3350200D01*
X1596000Y3353930D01*
X1592000Y3356270D01*
X1588000Y3356730D01*
X1583330Y3355800D01*
X1580000Y3352530D01*
X1578670Y3349270D01*
Y3345070D01*
G01Y3349270D02*
X1576670Y3352070D01*
X1573330Y3354400D01*
X1569330Y3355330D01*
X1565330Y3354400D01*
X1562000Y3352070D01*
X1560000Y3347870D01*
X1560670Y3343670D01*
X1563330Y3339470D01*
G54D13*
G01X0Y0D02*
Y3500000D01*
X1800000D01*
Y0D01*
X0D01*
G01X50000Y950000D02*
X350000D01*
Y2450000D01*
X50000D01*
Y950000D01*
G01X800000Y300000D02*
Y500000D01*
X600000D01*
Y300000D01*
X800000D01*
G01X1200000D02*
Y500000D01*
X1000000D01*
Y300000D01*
X1200000D01*
G01X620320Y2735560D02*
Y2664440D01*
X579680D01*
Y2735560D01*
X620320D01*
G01X600000Y2200000D02*
Y2000000D01*
X800000D01*
Y2200000D01*
X600000D01*
G01X1000000D02*
Y2000000D01*
X1200000D01*
Y2200000D01*
X1000000D01*
G01X479680Y2864440D02*
Y2935560D01*
X520320D01*
Y2864440D01*
X479680D01*
G01X1450000Y1150000D02*
X1750000D01*
Y2450000D01*
X1450000D01*
Y1150000D01*
G01X1435560Y2679680D02*
X1364440D01*
Y2720320D01*
X1435560D01*
Y2679680D01*
G01X1535560Y3179680D02*
X1464440D01*
Y3220320D01*
X1535560D01*
Y3179680D01*
M02*
