G04 ================== begin FILE IDENTIFICATION RECORD ==================*
G04 Layout Name:  msd_foot_ext1.brd*
G04 Film Name:    SOLDERMASKTOP*
G04 File Format:  Gerber RS274X*
G04 File Origin:  Cadence Allegro 17.2-S071*
G04 Origin Date:  Tue Oct 13 15:53:22 2020*
G04 *
G04 Layer:  VIA CLASS/SOLDERMASK_TOP*
G04 Layer:  PIN/SOLDERMASK_TOP*
G04 Layer:  PACKAGE GEOMETRY/SOLDERMASK_TOP*
G04 Layer:  DRC ERROR CLASS/SOLDERMASK_TOP*
G04 Layer:  BOARD GEOMETRY/SOLDERMASK_TOP*
G04 Layer:  BOARD GEOMETRY/DESIGN_OUTLINE*
G04 *
G04 Offset:    (0.0000 0.0000)*
G04 Mirror:    No*
G04 Mode:      Positive*
G04 Rotation:  0*
G04 FullContactRelief:  No*
G04 UndefLineWidth:     0.1270*
G04 ================== end FILE IDENTIFICATION RECORD ====================*
%FSAX25Y25*MOMM*%
%IR0*IPPOS*OFA0.00000B0.00000*MIA0B0*SFA1.00000B1.00000*%
%ADD10R,2.5999X1.1999*%
%ADD13R,1.1031X.9032*%
%ADD15R,.9032X1.1031*%
%ADD16R,.508X1.3096*%
%ADD14R,1.3279X.2794*%
%ADD11C,1.1176*%
%ADD12R,2.1999X2.1999*%
%ADD17C,.127*%
G75*
%LPD*%
G75*
G54D10*
X0200000Y1000000D03*
Y1200000D03*
Y1400000D03*
Y1600000D03*
Y1800000D03*
Y2000000D03*
Y2200000D03*
Y2400000D03*
X1600000Y1200000D03*
Y1400000D03*
Y1600000D03*
Y1800000D03*
Y2000000D03*
Y2200000D03*
Y2400000D03*
G54D11*
X0400000Y1000000D03*
Y1200000D03*
X0383580Y1400000D03*
Y1600000D03*
Y1800000D03*
X0200000Y2600000D03*
X0400000Y2200000D03*
X0300000Y2900000D03*
X0200000Y3300000D03*
X0500000Y0180000D03*
X0900000Y1100000D03*
X0589330Y1210670D03*
X0900000Y0650000D03*
Y1300000D03*
X0700000Y2500000D03*
X0450000Y3235000D03*
X1300000Y0180000D03*
X1210670Y1210670D03*
X1600000Y1000000D03*
X1400000Y1400000D03*
Y1600000D03*
Y1800000D03*
Y2000000D03*
X1600000Y2600000D03*
X1400000Y2200000D03*
X1200000Y2800000D03*
G54D12*
X0700000Y0180000D03*
X1100000D03*
X0700000Y0620000D03*
X1100000D03*
X0700000Y1880000D03*
X1100000D03*
X0700000Y2320000D03*
X1100000D03*
G54D13*
X0900000Y0835000D03*
Y0965000D03*
X0650000Y3365000D03*
Y3235000D03*
X1400000Y2765000D03*
Y2635000D03*
X1300000Y3265000D03*
Y3135000D03*
X1500000Y3265000D03*
Y3135000D03*
G54D14*
X1121340Y1500000D03*
Y1450000D03*
Y1400000D03*
Y1350000D03*
Y1300000D03*
X0678660D03*
Y1350000D03*
Y1400000D03*
Y1450000D03*
Y1500000D03*
G54D15*
X0535000Y2700000D03*
X0665000D03*
X0565000Y2900000D03*
X0435000D03*
G54D16*
X0805000Y3229540D03*
X0995000D03*
Y2970460D03*
X0900000D03*
X0805000D03*
G54D17*
G01X0Y0D02*
Y3500000D01*
X1800000D01*
Y0D01*
X0D01*
M02*
