G04 ================== begin FILE IDENTIFICATION RECORD ==================*
G04 Layout Name:  msd_foot_ext1.brd*
G04 Film Name:    SOLDERMASK_TOP*
G04 File Format:  Gerber RS274X*
G04 File Origin:  Cadence Allegro 17.2-S071*
G04 Origin Date:  Tue Nov 24 21:07:37 2020*
G04 *
G04 Layer:  VIA CLASS/SOLDERMASK_TOP*
G04 Layer:  PIN/SOLDERMASK_TOP*
G04 Layer:  PACKAGE GEOMETRY/SOLDERMASK_TOP*
G04 Layer:  DRC ERROR CLASS/SOLDERMASK_TOP*
G04 Layer:  BOARD GEOMETRY/SOLDERMASK_TOP*
G04 Layer:  BOARD GEOMETRY/DESIGN_OUTLINE*
G04 *
G04 Offset:    (0.00 0.00)*
G04 Mirror:    No*
G04 Mode:      Positive*
G04 Rotation:  0*
G04 FullContactRelief:  No*
G04 UndefLineWidth:     0.13*
G04 ================== end FILE IDENTIFICATION RECORD ====================*
%FSLAX25Y25*MOIN*%
%IR0*IPPOS*OFA0.00000B0.00000*MIA0B0*SFA1.00000B1.00000*%
%ADD15C,.044*%
%ADD13R,.10236X.04724*%
%ADD10R,.08661X.08661*%
%ADD17R,.018X.06*%
%ADD12R,.06X.018*%
%ADD16R,.05228X.011*%
%ADD11R,.04343X.03556*%
%ADD14R,.03556X.04343*%
%ADD18C,.00013*%
G75*
%LPD*%
G75*
G54D10*
X1050020Y721899D03*
Y739221D03*
X1071370Y721899D03*
Y739221D03*
X1093440Y721899D03*
Y739221D03*
X1116210Y721899D03*
Y739221D03*
G54D11*
X1047590Y746821D03*
Y751939D03*
X1073800Y746821D03*
X1052440Y746811D03*
X1068950Y746821D03*
X1073800Y751939D03*
X1052440Y751929D03*
X1068950Y751939D03*
X1073360Y811581D03*
X1077220Y802901D03*
Y808019D03*
X1068540Y811581D03*
X1073360Y816699D03*
X1068540D03*
X1068500Y827141D03*
Y832259D03*
X1095860Y746811D03*
X1082310Y747569D03*
Y742451D03*
X1082320Y735929D03*
Y730811D03*
X1091010Y746821D03*
X1095860Y751929D03*
X1082530Y777869D03*
Y772751D03*
X1091010Y751939D03*
X1084970Y807899D03*
Y802781D03*
X1089750Y807919D03*
Y802801D03*
X1100610Y803461D03*
Y808579D03*
X1118640Y746821D03*
X1113760D03*
X1118640Y751939D03*
X1113490Y775921D03*
Y781039D03*
X1113760Y751939D03*
G54D12*
X1052560Y759861D03*
Y762420D03*
Y764980D03*
Y767539D03*
X1068660D03*
Y764980D03*
Y762420D03*
Y759861D03*
X1097420Y760421D03*
Y762980D03*
Y765540D03*
Y768099D03*
X1113520D03*
Y765540D03*
Y762980D03*
Y760421D03*
G54D13*
X1051630Y784881D03*
Y792755D03*
Y800629D03*
Y808503D03*
Y816377D03*
Y824251D03*
Y832125D03*
Y839999D03*
X1114620Y792808D03*
Y800682D03*
Y808556D03*
Y816430D03*
Y824304D03*
Y832178D03*
Y840052D03*
G54D14*
X1077451Y767520D03*
X1079891Y840280D03*
X1067199Y821900D03*
X1062081D03*
X1082569Y767520D03*
X1085009Y840280D03*
G54D15*
X1055230Y777120D03*
X1068650Y779270D03*
X1092310Y775420D03*
X1105070Y775190D03*
X1084830Y799703D03*
X1094820Y828490D03*
G54D16*
X1073766Y785873D03*
Y787842D03*
Y789810D03*
Y791778D03*
Y793747D03*
X1091194D03*
Y791778D03*
Y789810D03*
Y787842D03*
Y785873D03*
G54D17*
X1079881Y832830D03*
Y816730D03*
X1082440Y832830D03*
X1085000D03*
X1087559D03*
Y816730D03*
X1085000D03*
X1082440D03*
G54D18*
G01X1045610Y717480D02*
Y842480D01*
X1120610D01*
Y717480D01*
X1045610D01*
M02*
