G04 ================== begin FILE IDENTIFICATION RECORD ==================*
G04 Layout Name:  msd_foot_ext1.brd*
G04 Film Name:    TOP*
G04 File Format:  Gerber RS274X*
G04 File Origin:  Cadence Allegro 17.2-S071*
G04 Origin Date:  Wed Nov 25 01:55:09 2020*
G04 *
G04 Layer:  ETCH/TOP*
G04 Layer:  PIN/TOP*
G04 Layer:  VIA CLASS/TOP*
G04 *
G04 Offset:    (0.00 0.00)*
G04 Mirror:    No*
G04 Mode:      Positive*
G04 Rotation:  0*
G04 FullContactRelief:  No*
G04 UndefLineWidth:     0.13*
G04 ================== end FILE IDENTIFICATION RECORD ====================*
%FSLAX25Y25*MOIN*%
%IR0*IPPOS*OFA0.00000B0.00000*MIA0B0*SFA1.00000B1.00000*%
%ADD14C,.024*%
%ADD10R,.07874X.07874*%
%ADD17R,.018X.06*%
%ADD12R,.06X.018*%
%ADD16R,.05228X.011*%
%ADD11R,.03543X.02756*%
%ADD15R,.02756X.03543*%
%ADD13R,.09843X.03937*%
%ADD18C,.012*%
%ADD19C,.03*%
%ADD20C,.015*%
G75*
%LPD*%
G75*
G54D10*
X4410Y4419D03*
Y21741D03*
X25760Y4419D03*
Y21741D03*
X47830Y4419D03*
Y21741D03*
X70600Y4419D03*
Y21741D03*
G54D20*
G01X4410D02*
X1980Y24171D01*
Y29341D01*
G01X6830Y29331D02*
Y24161D01*
X4410Y21741D01*
G01D02*
X9561D01*
X14100Y26280D01*
Y45955D01*
X12555Y47500D01*
X6950D01*
G01X1980Y34459D02*
Y48198D01*
X3841Y50059D01*
X6950D01*
G01X6830Y34449D02*
X1990D01*
X1980Y34459D01*
G01X23340Y29341D02*
Y24161D01*
X25760Y21741D01*
G01X28190Y29341D02*
Y24171D01*
X25760Y21741D01*
G01X23050Y44940D02*
X18800D01*
X17610Y43750D01*
Y24704D01*
X20573Y21741D01*
X25760D01*
G01X36920Y63467D02*
X33082D01*
X28156Y68393D01*
G01X23050Y50059D02*
X31822D01*
X31841Y50040D01*
G01X6950Y42381D02*
Y38770D01*
G01X23340Y34459D02*
X28190D01*
G01X23050Y47500D02*
X26690D01*
X28190Y46000D01*
Y34459D01*
G01X6950Y44940D02*
X11650D01*
G01X23050Y42381D02*
Y39781D01*
G01X6020Y67401D02*
Y63732D01*
G01Y75275D02*
X12641D01*
G01X6020Y83149D02*
X12641D01*
G01X6020Y91023D02*
X12641D01*
G01X31610Y90539D02*
Y93757D01*
G01Y85421D02*
Y80840D01*
X35650Y76800D01*
G01X34281Y122800D02*
Y115360D01*
X34271Y115350D01*
G01X36830D02*
Y112241D01*
X35689Y111100D01*
X29591D01*
X25912Y114779D01*
X22890D01*
G01X6020Y106771D02*
X12452D01*
X17938Y112257D01*
Y112937D01*
X19780Y114779D01*
X22890D01*
G01X6020Y98897D02*
X12641D01*
G01X21589Y104420D02*
X32710D01*
X39390Y111100D01*
Y115350D01*
G01X21589Y104420D02*
Y108360D01*
X22890Y109661D01*
G01X22930Y94101D02*
X27750D01*
G01X31610Y93757D02*
X32853Y95000D01*
X35689D01*
X36830Y96141D01*
Y99250D01*
G01X27750Y94101D02*
X31266D01*
X31610Y93757D01*
G01X34271Y99250D02*
X30803D01*
X30772Y99219D01*
X27750D01*
G01X22930D02*
X27750D01*
G01X34271Y99250D02*
Y102359D01*
X41949Y110037D01*
Y113250D01*
G01X36710Y18449D02*
Y21527D01*
G01X36700Y24971D02*
Y21537D01*
X36710Y21527D01*
G01X47830Y21741D02*
X45400Y24171D01*
Y29341D01*
G01X47830Y21741D02*
X50250Y24161D01*
Y29331D01*
G01X51810Y48060D02*
X57415D01*
X58960Y46515D01*
Y27020D01*
X53681Y21741D01*
X47830D01*
G01X67910Y45500D02*
X63660D01*
X62150Y43990D01*
Y25004D01*
X65413Y21741D01*
X70600D01*
G01X36920Y63467D02*
X40658D01*
X45584Y68393D01*
G01X51810Y42941D02*
X47110D01*
G01X50250Y34449D02*
X45410D01*
X45400Y34459D01*
G01X51810Y50619D02*
X47560D01*
X42744Y45803D01*
Y36721D01*
X45006Y34459D01*
X45400D01*
G01X51810Y45500D02*
X56510D01*
G01X69010Y75328D02*
X62388D01*
G01X69010Y83202D02*
X62388D01*
G01X69010Y91076D02*
X62388D01*
G01X55000Y91099D02*
Y94177D01*
G01X62388Y91076D02*
X59287Y94177D01*
X55000D01*
G01X44140Y90439D02*
X39380D01*
X39360Y90419D01*
G01X39390Y99250D02*
Y95000D01*
X39360Y94970D01*
Y90419D01*
G01X52380Y118490D02*
Y109681D01*
X41949Y99250D01*
G01X69010Y98950D02*
X62388D01*
G01X69010Y106824D02*
X62388D01*
G01X41949Y113250D02*
Y115350D01*
G01X49210Y111010D02*
X44189D01*
X41949Y113250D01*
G01X70600Y21741D02*
X68150Y24191D01*
Y29341D01*
G01X70600Y21741D02*
X73030Y24171D01*
Y29341D01*
G01X67910Y50619D02*
Y55333D01*
X67880Y55363D01*
G01X68150Y34459D02*
X73030D01*
G01D02*
Y46048D01*
X71018Y48060D01*
X67910D01*
G01Y42941D02*
Y40341D01*
G54D11*
X1980Y29341D03*
Y34459D03*
X28190Y29341D03*
X6830Y29331D03*
X23340Y29341D03*
X28190Y34459D03*
X6830Y34449D03*
X23340Y34459D03*
X27750Y94101D03*
X31610Y85421D03*
Y90539D03*
X22930Y94101D03*
X27750Y99219D03*
X22930D03*
X22890Y109661D03*
Y114779D03*
X50250Y29331D03*
X36700Y30089D03*
Y24971D03*
X36710Y18449D03*
Y13331D03*
X45400Y29341D03*
X50250Y34449D03*
X36920Y60389D03*
Y55271D03*
X45400Y34459D03*
X39360Y90419D03*
Y85301D03*
X44140Y90439D03*
Y85321D03*
X55000Y85981D03*
Y91099D03*
X73030Y29341D03*
X68150D03*
X73030Y34459D03*
X67880Y58441D03*
Y63559D03*
X68150Y34459D03*
G54D12*
X6950Y42381D03*
Y44940D03*
Y47500D03*
Y50059D03*
X23050D03*
Y47500D03*
Y44940D03*
Y42381D03*
X51810Y42941D03*
Y45500D03*
Y48060D03*
Y50619D03*
X67910D03*
Y48060D03*
Y45500D03*
Y42941D03*
G54D13*
X6020Y67401D03*
Y75275D03*
Y83149D03*
Y91023D03*
Y98897D03*
Y106771D03*
Y114645D03*
Y122519D03*
X69010Y75328D03*
Y83202D03*
Y91076D03*
Y98950D03*
Y106824D03*
Y114698D03*
Y122572D03*
G54D14*
X14720Y4419D03*
X6950Y38770D03*
X6020Y63732D03*
X9620Y59640D03*
X23040Y61790D03*
X11650Y44940D03*
X23050Y39781D03*
X34340Y72330D03*
X12641Y75275D03*
Y83149D03*
Y91023D03*
X35650Y76800D03*
X31203Y122800D03*
X12642Y122519D03*
X16471Y101652D03*
X12642Y114645D03*
X12641Y98897D03*
X59800Y4419D03*
X36710Y10253D03*
Y21527D03*
X36920Y63467D03*
X47110Y42941D03*
X42500Y50040D03*
X46700Y57940D03*
X59460Y57710D03*
X56510Y45500D03*
X44140Y82243D03*
X62388Y75328D03*
Y83202D03*
X39220Y82223D03*
X62388Y122572D03*
X52380Y118490D03*
X55000Y94177D03*
X62388Y98950D03*
Y106824D03*
X49210Y111010D03*
X67880Y55363D03*
X67910Y40341D03*
X67880Y66637D03*
G54D15*
X31841Y50040D03*
X34281Y122800D03*
X21589Y104420D03*
X16471D03*
X36959Y50040D03*
X39399Y122800D03*
G54D16*
X28156Y68393D03*
Y70362D03*
Y72330D03*
Y74298D03*
Y76267D03*
X45584D03*
Y74298D03*
Y72330D03*
Y70362D03*
Y68393D03*
G54D17*
X34271Y115350D03*
Y99250D03*
X36830Y115350D03*
X39390D03*
X41949D03*
Y99250D03*
X39390D03*
X36830D03*
G54D18*
G01X28156Y74298D02*
X22108D01*
X14690Y66880D01*
Y59640D01*
G01D02*
Y53549D01*
X11200Y50059D01*
X6950D01*
G01X9620Y59640D02*
X14690D01*
G01X28156Y70362D02*
X23413D01*
X18800Y65749D01*
Y61790D01*
G01D02*
Y48641D01*
X19941Y47500D01*
X23050D01*
G01X23040Y61790D02*
X18800D01*
G01X28156Y72330D02*
X34340D01*
G01X12641Y75275D02*
X20468D01*
X21460Y76267D01*
X28156D01*
G01X51810Y50619D02*
Y57940D01*
G01D02*
Y68000D01*
X49448Y70362D01*
X45584D01*
G01X46700Y57940D02*
X51810D01*
G01X45584Y74298D02*
X49448D01*
X56520Y67226D01*
Y57710D01*
G01D02*
Y55200D01*
X63660Y48060D01*
X67910D01*
G01X59460Y57710D02*
X56520D01*
G01X62388Y75328D02*
X51035D01*
X50096Y76267D01*
X45584D01*
G01X39220Y82223D02*
Y85161D01*
X39360Y85301D01*
G01X39220Y82223D02*
Y79923D01*
X39360Y79783D01*
Y74690D01*
X41720Y72330D01*
X45584D01*
G54D19*
G01X4410Y4419D02*
X14720D01*
G01X25760D02*
X30876D01*
X36710Y10253D01*
G01X25760Y4419D02*
X14720D01*
G01X31841Y50040D02*
Y57962D01*
X34268Y60389D01*
X36920D01*
G01X36700Y30089D02*
Y39249D01*
X31841Y44108D01*
Y50040D01*
G01X12642Y122519D02*
X30922D01*
X31203Y122800D01*
G01X34281D02*
X31203D01*
G01X6020Y122519D02*
X12642D01*
G01X16471Y104420D02*
Y101652D01*
G01X6020Y114645D02*
X12642D01*
G01X47830Y4419D02*
X42544D01*
X36710Y10253D01*
G01X70600Y4419D02*
X59800D01*
G01D02*
X47830D01*
G01X36710Y13331D02*
Y10253D01*
G01X36920Y60389D02*
Y63467D01*
G01X36959Y50040D02*
X42500D01*
G01X36920Y55271D02*
Y50079D01*
X36959Y50040D01*
G01X44140Y85321D02*
Y82243D01*
G01Y85321D02*
X50568D01*
X51228Y85981D01*
X55000D01*
G01X69010Y122572D02*
X62388D01*
G01X69010Y114698D02*
X56172D01*
X52380Y118490D01*
G01X39399Y122800D02*
X48070D01*
X52380Y118490D01*
G01X67880Y58441D02*
Y55363D01*
G01Y63559D02*
Y66637D01*
M02*
