G04 ================== begin FILE IDENTIFICATION RECORD ==================*
G04 Layout Name:  msd_foot_ext1.brd*
G04 Film Name:    TOP*
G04 File Format:  Gerber RS274X*
G04 File Origin:  Cadence Allegro 17.2-S071*
G04 Origin Date:  Mon Oct 26 21:15:35 2020*
G04 *
G04 Layer:  ETCH/TOP*
G04 Layer:  PIN/TOP*
G04 Layer:  VIA CLASS/TOP*
G04 *
G04 Offset:    (0.00 0.00)*
G04 Mirror:    No*
G04 Mode:      Positive*
G04 Rotation:  0*
G04 FullContactRelief:  No*
G04 UndefLineWidth:     0.13*
G04 ================== end FILE IDENTIFICATION RECORD ====================*
%FSLAX25Y25*MOIN*%
%IR0*IPPOS*OFA0.00000B0.00000*MIA0B0*SFA1.00000B1.00000*%
%ADD12C,.024*%
%ADD11R,.07874X.07874*%
%ADD17R,.06X.018*%
%ADD16R,.05156X.02*%
%ADD15R,.05228X.011*%
%ADD13R,.03543X.02756*%
%ADD14R,.02756X.03543*%
%ADD10R,.09843X.03937*%
%ADD18C,.02*%
%ADD19C,.012*%
G75*
%LPD*%
G75*
G54D10*
X7200Y25941D03*
Y33815D03*
Y41689D03*
Y49563D03*
Y57437D03*
Y65311D03*
Y73185D03*
Y81059D03*
X76300Y25578D03*
Y33452D03*
Y41326D03*
Y49200D03*
Y57074D03*
Y64948D03*
Y72822D03*
G54D11*
X10639Y6100D03*
X10539Y18100D03*
X27961Y6100D03*
X27861Y18100D03*
X53739D03*
X71061D03*
X53739Y5900D03*
X71061D03*
G54D12*
X10639Y12100D03*
X20972Y28363D03*
X42700Y22237D03*
Y10963D03*
X13821Y25941D03*
X19763Y53000D03*
X19817Y45400D03*
X20972Y32300D03*
X32822Y50200D03*
X36400Y36237D03*
X13821Y33815D03*
X32300Y36200D03*
X13821Y41689D03*
X33400Y41900D03*
X13821Y49563D03*
Y57437D03*
Y81059D03*
X42263Y78800D03*
X13821Y73185D03*
X29750Y64361D03*
X13821Y65311D03*
X47028Y28363D03*
X71061Y12600D03*
X69678Y25578D03*
X63300Y29163D03*
X64437Y57400D03*
X69678Y33452D03*
Y41326D03*
Y49200D03*
Y57074D03*
Y72822D03*
Y64948D03*
X69800Y78800D03*
X54400Y75400D03*
G54D13*
X42700Y14041D03*
Y19159D03*
X20500Y72059D03*
Y66941D03*
X25500D03*
Y72059D03*
X57500Y37359D03*
Y32241D03*
X51600Y37359D03*
Y32241D03*
X57500Y49659D03*
Y44541D03*
X63300Y37359D03*
Y32241D03*
X59200Y66741D03*
Y71859D03*
G54D14*
X27959Y53000D03*
X22841D03*
Y48100D03*
X27959D03*
Y57800D03*
X22841D03*
Y43200D03*
X27959D03*
X61359Y57400D03*
X56241D03*
X45341Y78800D03*
X50459D03*
X59241D03*
X64359D03*
G54D15*
X42714Y36237D03*
Y34268D03*
Y32300D03*
Y30332D03*
Y28363D03*
X25286D03*
Y30332D03*
Y32300D03*
Y34268D03*
Y36237D03*
G54D16*
X37100Y46460D03*
Y50200D03*
Y53940D03*
X47300D03*
Y46460D03*
G54D17*
X34450Y64361D03*
Y66920D03*
Y69480D03*
Y72039D03*
X50550D03*
Y69480D03*
Y66920D03*
Y64361D03*
G54D18*
G01X10639Y6100D02*
Y12100D01*
G01X10539Y18100D02*
X10639Y18000D01*
Y12100D01*
G01X7200Y81059D02*
X13821D01*
G01X7200Y73185D02*
X13821D01*
G01X19763Y53000D02*
X16800Y50037D01*
Y29863D01*
X18300Y28363D01*
X20972D01*
G01X22841Y53000D02*
X19763D01*
G01D02*
X17100Y55663D01*
Y77780D01*
X17080Y77800D01*
G01X19900Y45400D02*
X19817D01*
G01X22841Y43200D02*
X22100D01*
X19900Y45400D01*
G01D02*
X20141D01*
X22841Y48100D01*
G01X45341Y78800D02*
X42263D01*
G01X17080Y77800D02*
X18080Y78800D01*
X42263D01*
G01X76300Y72822D02*
Y78300D01*
X71600Y83000D01*
X43763D01*
X42263Y81500D01*
Y78800D01*
G01X17080Y77800D02*
X13821Y81059D01*
G01X34450Y64361D02*
X29750D01*
G01X42700Y19159D02*
Y22237D01*
G01Y14041D02*
Y10963D01*
G01X71061Y5900D02*
Y12600D01*
G01Y18100D02*
Y12600D01*
G01X56241Y57400D02*
Y60272D01*
X57969Y62000D01*
X62700D01*
X66200Y65500D01*
Y69344D01*
X69678Y72822D01*
G01X52500Y54000D02*
X55900Y57400D01*
X56241D01*
G01X63300Y32241D02*
Y29163D01*
G01X61359Y57400D02*
X64437D01*
G01X76300Y64948D02*
X69678D01*
G01X64359Y78800D02*
X69800D01*
G54D19*
G01X7200Y25941D02*
X13821D01*
G01X7200Y33815D02*
X13821D01*
G01X7200Y41689D02*
X13821D01*
G01X7200Y49563D02*
X13821D01*
G01X7200Y57437D02*
X13821D01*
G01X7200Y65311D02*
X13821D01*
G01X53739Y18100D02*
X46539Y25300D01*
X40043D01*
X38336Y27007D01*
Y29132D01*
X39536Y30332D01*
X42714D01*
G01Y34268D02*
X39962D01*
X36300Y30606D01*
Y13300D01*
X43700Y5900D01*
X53739D01*
G01X27861Y18100D02*
Y23137D01*
X30200Y25476D01*
Y28169D01*
X28037Y30332D01*
X25286D01*
G01X27961Y6100D02*
X34300Y12439D01*
Y28968D01*
X29000Y34268D01*
X25286D01*
G01X34450Y66920D02*
X38550D01*
X42200Y63270D01*
Y51600D01*
X44141Y49659D01*
X57500D01*
G01X25286Y28363D02*
X20972D01*
G01X25286Y32300D02*
X20972D01*
G01X37100Y50200D02*
X32822D01*
G01X36400Y36237D02*
X42714D01*
G01X32300Y36200D02*
X29774D01*
X29737Y36237D01*
X25286D01*
G01X27959Y43200D02*
X32100D01*
X33400Y41900D01*
G01X48669Y32300D02*
X47500Y33469D01*
Y39738D01*
X40778Y46460D01*
X37100D01*
G01X27959Y57800D02*
Y53000D01*
G01Y48100D02*
Y53000D01*
G01D02*
X31360D01*
X32300Y53940D01*
X37100D01*
G01X20500Y66941D02*
X25500D01*
G01X34450Y69480D02*
X28433D01*
X25894Y66941D01*
X25500D01*
G01X22841Y57800D02*
Y61804D01*
X25500Y64463D01*
Y66941D01*
G01X20500Y72059D02*
X25500D01*
G01X50550Y64361D02*
X46228D01*
X38550Y72039D01*
X34450D01*
G01X25500Y72059D02*
X28372D01*
X28392Y72039D01*
X34450D01*
G01X76300Y25578D02*
X69678D01*
G01X63300Y37359D02*
Y46731D01*
X60372Y49659D01*
X57500D01*
G01X42714Y28363D02*
X47028D01*
G01X76300Y33452D02*
X69678D01*
G01X76300Y41326D02*
X69678D01*
G01X76300Y49200D02*
X69678D01*
G01X76300Y57074D02*
X69678D01*
G01X51600Y32241D02*
X48728D01*
X48669Y32300D01*
G01D02*
X42714D01*
G01X51600Y32241D02*
X57500D01*
G01Y37359D02*
Y44541D01*
G01X47300Y46460D02*
X48878D01*
X51600Y43738D01*
Y37359D01*
G01X57500D02*
X51600D01*
G01X69678Y72822D02*
X76300D01*
G01X50550Y66920D02*
X56328D01*
Y66741D01*
X59200D01*
G01X59241Y78800D02*
Y78406D01*
X62800Y74847D01*
Y69947D01*
X59594Y66741D01*
X59200D01*
G01X50550Y72039D02*
Y75837D01*
X50459Y75928D01*
Y78800D01*
G01X59200Y71900D02*
Y71859D01*
G01X54400Y75400D02*
X56736D01*
X59200Y72936D01*
Y71900D01*
G01D02*
X56200D01*
X53780Y69480D01*
X50550D01*
M02*
