G04 ================== begin FILE IDENTIFICATION RECORD ==================*
G04 Layout Name:  msd_foot_main.brd*
G04 Film Name:    ASSEMBLY*
G04 File Format:  Gerber RS274X*
G04 File Origin:  Cadence Allegro 17.2-S071*
G04 Origin Date:  Wed Nov 25 01:49:06 2020*
G04 *
G04 Layer:  REF DES/ASSEMBLY_TOP*
G04 Layer:  PIN/TOP*
G04 Layer:  PACKAGE GEOMETRY/ASSEMBLY_TOP*
G04 Layer:  DRAWING FORMAT/OUTLINE*
G04 Layer:  DRAWING FORMAT/TITLE_BLOCK*
G04 Layer:  DRAWING FORMAT/TITLE_DATA*
G04 Layer:  DRAWING FORMAT/REVISION_BLOCK*
G04 Layer:  DRAWING FORMAT/REVISION_DATA*
G04 Layer:  BOARD GEOMETRY/DESIGN_OUTLINE*
G04 *
G04 Offset:    (0.00 0.00)*
G04 Mirror:    No*
G04 Mode:      Positive*
G04 Rotation:  0*
G04 FullContactRelief:  No*
G04 UndefLineWidth:     5.00*
G04 ================== end FILE IDENTIFICATION RECORD ====================*
%FSLAX25Y25*MOIN*%
%IR0*IPPOS*OFA0.00000B0.00000*MIA0B0*SFA1.00000B1.00000*%
%ADD16R,.05X.05*%
%AMMACRO20*
21,1,.00787,.02953,0.0,0.0,45.*%
%ADD20MACRO20*%
%ADD11R,.07874X.07874*%
%AMMACRO19*
21,1,.00787,.02559,0.0,0.0,45.*%
%ADD19MACRO19*%
%ADD15R,.018X.06*%
%ADD17R,.014X.0335*%
%ADD13R,.06X.018*%
%ADD10R,.03543X.02756*%
%ADD12R,.02756X.03543*%
%AMMACRO18*
21,1,.00787,.02559,0.0,0.0,135.*%
%ADD18MACRO18*%
%ADD14R,.03937X.09843*%
%ADD21C,.005*%
%ADD22C,.006*%
G75*
%LPD*%
G75*
G54D10*
X3850Y67629D03*
Y62511D03*
X2100Y113011D03*
Y118129D03*
X1950Y154401D03*
Y159519D03*
X1960Y178301D03*
Y183419D03*
X17210Y21281D03*
Y26399D03*
X9290Y26329D03*
Y21211D03*
X23360Y41899D03*
Y36781D03*
X14330Y66809D03*
Y61691D03*
X20550Y113001D03*
X6950Y113031D03*
X25400Y112991D03*
X20550Y118119D03*
X6950Y118149D03*
X25400Y118109D03*
X20420Y178261D03*
Y183379D03*
X25290Y178271D03*
Y183389D03*
X6810Y178301D03*
Y183419D03*
X40150Y184761D03*
Y189879D03*
X40100Y199971D03*
Y205089D03*
X66660Y22541D03*
Y27659D03*
X58700D03*
Y22541D03*
X63440Y67049D03*
Y61931D03*
X55740Y67119D03*
Y62001D03*
X54550Y112821D03*
X59360D03*
X54550Y117939D03*
X59360D03*
X54630Y178611D03*
Y183729D03*
X59510Y178591D03*
Y183709D03*
X72470Y41929D03*
Y36811D03*
X72970Y112821D03*
X77840D03*
X72970Y117939D03*
X78030Y133469D03*
Y128351D03*
X77840Y117939D03*
X77910Y178621D03*
Y183739D03*
X73080Y178641D03*
Y183759D03*
G54D11*
X4530Y88099D03*
Y105421D03*
X4390Y191019D03*
Y208341D03*
X22990Y88049D03*
Y105371D03*
X22850Y190969D03*
Y208291D03*
X56940Y87879D03*
Y105201D03*
X57070Y191329D03*
Y208651D03*
X75400Y87909D03*
Y105231D03*
X75490Y191339D03*
Y208661D03*
G54D20*
X38784Y151026D03*
G54D21*
G01X-167590Y-496660D02*
Y632340D01*
X644410D01*
Y-496660D01*
X-167590D01*
G01X-152590Y-463660D02*
Y604340D01*
X626410D01*
Y-463660D01*
X-152590D01*
G01X-151590Y-462160D02*
Y-282160D01*
X628410D01*
G01X-143393Y-404660D02*
Y-399660D01*
X-140987D01*
G01X-141873Y-402077D02*
X-143393D01*
G01X-138357Y-404660D02*
Y-399660D01*
X-136773D01*
X-136267Y-399910D01*
X-135950Y-400243D01*
X-135823Y-400910D01*
X-135950Y-401577D01*
X-136330Y-401993D01*
X-136773Y-402243D01*
X-138357D01*
G01X-136773D02*
X-135823Y-404660D01*
G01X-133573D02*
X-131990Y-399660D01*
X-130407Y-404660D01*
G01X-130977Y-402910D02*
X-133003D01*
G01X-125497Y-400077D02*
X-125877Y-399827D01*
X-126320Y-399660D01*
X-126827D01*
X-127397Y-399910D01*
X-127840Y-400327D01*
X-128157Y-400827D01*
X-128410Y-401660D01*
X-128473Y-402410D01*
X-128347Y-403160D01*
X-128157Y-403660D01*
X-127777Y-404160D01*
X-127333Y-404493D01*
X-126890Y-404660D01*
X-126447D01*
X-126003Y-404493D01*
X-125623Y-404243D01*
X-125307Y-403910D01*
G01X-121790Y-399660D02*
Y-404660D01*
G01X-123247Y-399660D02*
X-120333D01*
G01X-117450D02*
X-115930D01*
G01X-116690D02*
Y-404660D01*
G01X-117450D02*
X-115930D01*
G01X-111590D02*
X-112097Y-404577D01*
X-112540Y-404243D01*
X-112920Y-403743D01*
X-113173Y-403160D01*
X-113300Y-402493D01*
Y-401827D01*
X-113173Y-401160D01*
X-112920Y-400577D01*
X-112540Y-400077D01*
X-112097Y-399743D01*
X-111590Y-399660D01*
X-111083Y-399743D01*
X-110640Y-400077D01*
X-110260Y-400577D01*
X-110007Y-401160D01*
X-109880Y-401827D01*
Y-402493D01*
X-110007Y-403160D01*
X-110260Y-403743D01*
X-110640Y-404243D01*
X-111083Y-404577D01*
X-111590Y-404660D01*
G01X-107947D02*
Y-399660D01*
X-105033Y-404660D01*
Y-399660D01*
G01X-102720Y-403993D02*
X-102213Y-404410D01*
X-101643Y-404660D01*
X-101137D01*
X-100630Y-404410D01*
X-100250Y-403993D01*
X-100060Y-403410D01*
X-100187Y-402827D01*
X-100503Y-402327D01*
X-101073Y-401993D01*
X-101833Y-401827D01*
X-102277Y-401493D01*
X-102467Y-400910D01*
X-102340Y-400327D01*
X-102023Y-399910D01*
X-101580Y-399660D01*
X-101137D01*
X-100693Y-399827D01*
X-100313Y-400243D01*
G01X-91887Y-402993D02*
X-90367D01*
G01X-91190Y-401910D02*
Y-404077D01*
G01X-143773Y-389660D02*
X-142190Y-384660D01*
X-140607Y-389660D01*
G01X-141177Y-387910D02*
X-143203D01*
G01X-138547Y-389660D02*
Y-384660D01*
X-135633Y-389660D01*
Y-384660D01*
G01X-131610Y-387160D02*
X-130343D01*
Y-388660D01*
X-130723Y-389160D01*
X-131167Y-389493D01*
X-131800Y-389660D01*
X-132433Y-389493D01*
X-132877Y-389160D01*
X-133257Y-388660D01*
X-133510Y-388077D01*
X-133637Y-387410D01*
Y-386827D01*
X-133510Y-386327D01*
X-133257Y-385743D01*
X-132877Y-385243D01*
X-132497Y-384910D01*
X-131990Y-384660D01*
X-131547D01*
X-131040Y-384827D01*
X-130660Y-385160D01*
G01X-128157Y-384660D02*
Y-389660D01*
X-125623D01*
G01X-120523D02*
X-123057D01*
Y-384660D01*
X-120523D01*
G01X-121537Y-387077D02*
X-123057D01*
G01X-118020Y-388993D02*
X-117513Y-389410D01*
X-116943Y-389660D01*
X-116437D01*
X-115930Y-389410D01*
X-115550Y-388993D01*
X-115360Y-388410D01*
X-115487Y-387827D01*
X-115803Y-387327D01*
X-116373Y-386993D01*
X-117133Y-386827D01*
X-117577Y-386493D01*
X-117767Y-385910D01*
X-117640Y-385327D01*
X-117323Y-384910D01*
X-116880Y-384660D01*
X-116437D01*
X-115993Y-384827D01*
X-115613Y-385243D01*
G01X-107187Y-387993D02*
X-105667D01*
G01X-106490Y-386910D02*
Y-389077D01*
G01X-143583Y-373660D02*
X-143203Y-374243D01*
X-142697Y-374577D01*
X-142127Y-374660D01*
X-141620Y-374577D01*
X-141113Y-374160D01*
X-140797Y-373660D01*
X-140733Y-373160D01*
X-140860Y-372577D01*
X-141303Y-372160D01*
X-141747Y-371993D01*
X-142317D01*
G01X-141747D02*
X-141367Y-371743D01*
X-141050Y-371327D01*
X-140923Y-370827D01*
X-141050Y-370327D01*
X-141367Y-369910D01*
X-141937Y-369660D01*
X-142507Y-369743D01*
X-143077Y-370077D01*
G01X-133257Y-374660D02*
Y-369660D01*
X-131737D01*
X-131230Y-369910D01*
X-130850Y-370493D01*
X-130723Y-371160D01*
X-130850Y-371827D01*
X-131167Y-372327D01*
X-131737Y-372577D01*
X-133257D01*
G01X-128157Y-369660D02*
Y-374660D01*
X-125623D01*
G01X-118083D02*
Y-369660D01*
X-116817D01*
X-116310Y-369910D01*
X-115930Y-370243D01*
X-115613Y-370743D01*
X-115360Y-371327D01*
X-115297Y-372160D01*
X-115360Y-372993D01*
X-115613Y-373577D01*
X-115930Y-374077D01*
X-116310Y-374410D01*
X-116817Y-374660D01*
X-118083D01*
G01X-110323D02*
X-112857D01*
Y-369660D01*
X-110323D01*
G01X-111337Y-372077D02*
X-112857D01*
G01X-105097Y-370077D02*
X-105477Y-369827D01*
X-105920Y-369660D01*
X-106427D01*
X-106997Y-369910D01*
X-107440Y-370327D01*
X-107757Y-370827D01*
X-108010Y-371660D01*
X-108073Y-372410D01*
X-107947Y-373160D01*
X-107757Y-373660D01*
X-107377Y-374160D01*
X-106933Y-374493D01*
X-106490Y-374660D01*
X-106047D01*
X-105603Y-374493D01*
X-105223Y-374243D01*
X-104907Y-373910D01*
G01X-102150Y-369660D02*
X-100630D01*
G01X-101390D02*
Y-374660D01*
G01X-102150D02*
X-100630D01*
G01X-97937D02*
Y-369660D01*
X-96290Y-373827D01*
X-94643Y-369660D01*
Y-374660D01*
G01X-92773D02*
X-91190Y-369660D01*
X-89607Y-374660D01*
G01X-90177Y-372910D02*
X-92203D01*
G01X-87357Y-369660D02*
Y-374660D01*
X-84823D01*
G01X-82320Y-373993D02*
X-81813Y-374410D01*
X-81243Y-374660D01*
X-80737D01*
X-80230Y-374410D01*
X-79850Y-373993D01*
X-79660Y-373410D01*
X-79787Y-372827D01*
X-80103Y-372327D01*
X-80673Y-371993D01*
X-81433Y-371827D01*
X-81877Y-371493D01*
X-82067Y-370910D01*
X-81940Y-370327D01*
X-81623Y-369910D01*
X-81180Y-369660D01*
X-80737D01*
X-80293Y-369827D01*
X-79913Y-370243D01*
G01X-71487Y-372993D02*
X-69967D01*
G01X-70790Y-371910D02*
Y-374077D01*
G01X-143393Y-355493D02*
X-143013Y-354993D01*
X-142570Y-354743D01*
X-142063Y-354660D01*
X-141430Y-354827D01*
X-140987Y-355243D01*
X-140860Y-355743D01*
X-140923Y-356243D01*
X-141177Y-356660D01*
X-142443Y-357493D01*
X-143013Y-358077D01*
X-143393Y-358910D01*
X-143520Y-359660D01*
X-140860D01*
G01X-133257D02*
Y-354660D01*
X-131737D01*
X-131230Y-354910D01*
X-130850Y-355493D01*
X-130723Y-356160D01*
X-130850Y-356827D01*
X-131167Y-357327D01*
X-131737Y-357577D01*
X-133257D01*
G01X-128157Y-354660D02*
Y-359660D01*
X-125623D01*
G01X-118083D02*
Y-354660D01*
X-116817D01*
X-116310Y-354910D01*
X-115930Y-355243D01*
X-115613Y-355743D01*
X-115360Y-356327D01*
X-115297Y-357160D01*
X-115360Y-357993D01*
X-115613Y-358577D01*
X-115930Y-359077D01*
X-116310Y-359410D01*
X-116817Y-359660D01*
X-118083D01*
G01X-110323D02*
X-112857D01*
Y-354660D01*
X-110323D01*
G01X-111337Y-357077D02*
X-112857D01*
G01X-105097Y-355077D02*
X-105477Y-354827D01*
X-105920Y-354660D01*
X-106427D01*
X-106997Y-354910D01*
X-107440Y-355327D01*
X-107757Y-355827D01*
X-108010Y-356660D01*
X-108073Y-357410D01*
X-107947Y-358160D01*
X-107757Y-358660D01*
X-107377Y-359160D01*
X-106933Y-359493D01*
X-106490Y-359660D01*
X-106047D01*
X-105603Y-359493D01*
X-105223Y-359243D01*
X-104907Y-358910D01*
G01X-102150Y-354660D02*
X-100630D01*
G01X-101390D02*
Y-359660D01*
G01X-102150D02*
X-100630D01*
G01X-97937D02*
Y-354660D01*
X-96290Y-358827D01*
X-94643Y-354660D01*
Y-359660D01*
G01X-92773D02*
X-91190Y-354660D01*
X-89607Y-359660D01*
G01X-90177Y-357910D02*
X-92203D01*
G01X-87357Y-354660D02*
Y-359660D01*
X-84823D01*
G01X-82320Y-358993D02*
X-81813Y-359410D01*
X-81243Y-359660D01*
X-80737D01*
X-80230Y-359410D01*
X-79850Y-358993D01*
X-79660Y-358410D01*
X-79787Y-357827D01*
X-80103Y-357327D01*
X-80673Y-356993D01*
X-81433Y-356827D01*
X-81877Y-356493D01*
X-82067Y-355910D01*
X-81940Y-355327D01*
X-81623Y-354910D01*
X-81180Y-354660D01*
X-80737D01*
X-80293Y-354827D01*
X-79913Y-355243D01*
G01X-71487Y-357993D02*
X-69967D01*
G01X-70790Y-356910D02*
Y-359077D01*
G01X-142190Y-339660D02*
Y-344660D01*
G01X-143647Y-339660D02*
X-140733D01*
G01X-137090Y-344660D02*
X-137597Y-344577D01*
X-138040Y-344243D01*
X-138420Y-343743D01*
X-138673Y-343160D01*
X-138800Y-342493D01*
Y-341827D01*
X-138673Y-341160D01*
X-138420Y-340577D01*
X-138040Y-340077D01*
X-137597Y-339743D01*
X-137090Y-339660D01*
X-136583Y-339743D01*
X-136140Y-340077D01*
X-135760Y-340577D01*
X-135507Y-341160D01*
X-135380Y-341827D01*
Y-342493D01*
X-135507Y-343160D01*
X-135760Y-343743D01*
X-136140Y-344243D01*
X-136583Y-344577D01*
X-137090Y-344660D01*
G01X-133257Y-339660D02*
Y-344660D01*
X-130723D01*
G01X-125623D02*
X-128157D01*
Y-339660D01*
X-125623D01*
G01X-126637Y-342077D02*
X-128157D01*
G01X-123057Y-344660D02*
Y-339660D01*
X-121473D01*
X-120967Y-339910D01*
X-120650Y-340243D01*
X-120523Y-340910D01*
X-120650Y-341577D01*
X-121030Y-341993D01*
X-121473Y-342243D01*
X-123057D01*
G01X-121473D02*
X-120523Y-344660D01*
G01X-118273D02*
X-116690Y-339660D01*
X-115107Y-344660D01*
G01X-115677Y-342910D02*
X-117703D01*
G01X-113047Y-344660D02*
Y-339660D01*
X-110133Y-344660D01*
Y-339660D01*
G01X-105097Y-340077D02*
X-105477Y-339827D01*
X-105920Y-339660D01*
X-106427D01*
X-106997Y-339910D01*
X-107440Y-340327D01*
X-107757Y-340827D01*
X-108010Y-341660D01*
X-108073Y-342410D01*
X-107947Y-343160D01*
X-107757Y-343660D01*
X-107377Y-344160D01*
X-106933Y-344493D01*
X-106490Y-344660D01*
X-106047D01*
X-105603Y-344493D01*
X-105223Y-344243D01*
X-104907Y-343910D01*
G01X-100123Y-344660D02*
X-102657D01*
Y-339660D01*
X-100123D01*
G01X-101137Y-342077D02*
X-102657D01*
G01X-97620Y-343993D02*
X-97113Y-344410D01*
X-96543Y-344660D01*
X-96037D01*
X-95530Y-344410D01*
X-95150Y-343993D01*
X-94960Y-343410D01*
X-95087Y-342827D01*
X-95403Y-342327D01*
X-95973Y-341993D01*
X-96733Y-341827D01*
X-97177Y-341493D01*
X-97367Y-340910D01*
X-97240Y-340327D01*
X-96923Y-339910D01*
X-96480Y-339660D01*
X-96037D01*
X-95593Y-339827D01*
X-95213Y-340243D01*
G01X-86090Y-344660D02*
X-86597Y-344577D01*
X-87040Y-344243D01*
X-87420Y-343743D01*
X-87673Y-343160D01*
X-87800Y-342493D01*
Y-341827D01*
X-87673Y-341160D01*
X-87420Y-340577D01*
X-87040Y-340077D01*
X-86597Y-339743D01*
X-86090Y-339660D01*
X-85583Y-339743D01*
X-85140Y-340077D01*
X-84760Y-340577D01*
X-84507Y-341160D01*
X-84380Y-341827D01*
Y-342493D01*
X-84507Y-343160D01*
X-84760Y-343743D01*
X-85140Y-344243D01*
X-85583Y-344577D01*
X-86090Y-344660D01*
G01X-82447D02*
Y-339660D01*
X-79533Y-344660D01*
Y-339660D01*
G01X-75890Y-344827D02*
X-76017Y-344743D01*
Y-344577D01*
X-75890Y-344493D01*
X-75763Y-344577D01*
Y-344743D01*
X-75890Y-344827D01*
G01Y-342577D02*
X-76017Y-342493D01*
Y-342327D01*
X-75890Y-342243D01*
X-75763Y-342327D01*
Y-342493D01*
X-75890Y-342577D01*
G01X-143583Y-327160D02*
Y-322160D01*
X-142317D01*
X-141810Y-322410D01*
X-141430Y-322743D01*
X-141113Y-323243D01*
X-140860Y-323827D01*
X-140797Y-324660D01*
X-140860Y-325493D01*
X-141113Y-326077D01*
X-141430Y-326577D01*
X-141810Y-326910D01*
X-142317Y-327160D01*
X-143583D01*
G01X-137850Y-322160D02*
X-136330D01*
G01X-137090D02*
Y-327160D01*
G01X-137850D02*
X-136330D01*
G01X-133637D02*
Y-322160D01*
X-131990Y-326327D01*
X-130343Y-322160D01*
Y-327160D01*
G01X-125623D02*
X-128157D01*
Y-322160D01*
X-125623D01*
G01X-126637Y-324577D02*
X-128157D01*
G01X-123247Y-327160D02*
Y-322160D01*
X-120333Y-327160D01*
Y-322160D01*
G01X-118020Y-326493D02*
X-117513Y-326910D01*
X-116943Y-327160D01*
X-116437D01*
X-115930Y-326910D01*
X-115550Y-326493D01*
X-115360Y-325910D01*
X-115487Y-325327D01*
X-115803Y-324827D01*
X-116373Y-324493D01*
X-117133Y-324327D01*
X-117577Y-323993D01*
X-117767Y-323410D01*
X-117640Y-322827D01*
X-117323Y-322410D01*
X-116880Y-322160D01*
X-116437D01*
X-115993Y-322327D01*
X-115613Y-322743D01*
G01X-112350Y-322160D02*
X-110830D01*
G01X-111590D02*
Y-327160D01*
G01X-112350D02*
X-110830D01*
G01X-106490D02*
X-106997Y-327077D01*
X-107440Y-326743D01*
X-107820Y-326243D01*
X-108073Y-325660D01*
X-108200Y-324993D01*
Y-324327D01*
X-108073Y-323660D01*
X-107820Y-323077D01*
X-107440Y-322577D01*
X-106997Y-322243D01*
X-106490Y-322160D01*
X-105983Y-322243D01*
X-105540Y-322577D01*
X-105160Y-323077D01*
X-104907Y-323660D01*
X-104780Y-324327D01*
Y-324993D01*
X-104907Y-325660D01*
X-105160Y-326243D01*
X-105540Y-326743D01*
X-105983Y-327077D01*
X-106490Y-327160D01*
G01X-102847D02*
Y-322160D01*
X-99933Y-327160D01*
Y-322160D01*
G01X-97620Y-326493D02*
X-97113Y-326910D01*
X-96543Y-327160D01*
X-96037D01*
X-95530Y-326910D01*
X-95150Y-326493D01*
X-94960Y-325910D01*
X-95087Y-325327D01*
X-95403Y-324827D01*
X-95973Y-324493D01*
X-96733Y-324327D01*
X-97177Y-323993D01*
X-97367Y-323410D01*
X-97240Y-322827D01*
X-96923Y-322410D01*
X-96480Y-322160D01*
X-96037D01*
X-95593Y-322327D01*
X-95213Y-322743D01*
G01X-87673Y-327160D02*
X-86090Y-322160D01*
X-84507Y-327160D01*
G01X-85077Y-325410D02*
X-87103D01*
G01X-82257Y-327160D02*
Y-322160D01*
X-80673D01*
X-80167Y-322410D01*
X-79850Y-322743D01*
X-79723Y-323410D01*
X-79850Y-324077D01*
X-80230Y-324493D01*
X-80673Y-324743D01*
X-82257D01*
G01X-80673D02*
X-79723Y-327160D01*
G01X-74623D02*
X-77157D01*
Y-322160D01*
X-74623D01*
G01X-75637Y-324577D02*
X-77157D01*
G01X-66450Y-322160D02*
X-64930D01*
G01X-65690D02*
Y-327160D01*
G01X-66450D02*
X-64930D01*
G01X-62047D02*
Y-322160D01*
X-59133Y-327160D01*
Y-322160D01*
G01X-51150D02*
X-49630D01*
G01X-50390D02*
Y-327160D01*
G01X-51150D02*
X-49630D01*
G01X-46747D02*
Y-322160D01*
X-43833Y-327160D01*
Y-322160D01*
G01X-38797Y-322577D02*
X-39177Y-322327D01*
X-39620Y-322160D01*
X-40127D01*
X-40697Y-322410D01*
X-41140Y-322827D01*
X-41457Y-323327D01*
X-41710Y-324160D01*
X-41773Y-324910D01*
X-41647Y-325660D01*
X-41457Y-326160D01*
X-41077Y-326660D01*
X-40633Y-326993D01*
X-40190Y-327160D01*
X-39747D01*
X-39303Y-326993D01*
X-38923Y-326743D01*
X-38607Y-326410D01*
G01X-36420Y-327160D02*
Y-322160D01*
G01X-33760D02*
Y-327160D01*
G01Y-324660D02*
X-36420D01*
G01X-28723Y-327160D02*
X-31257D01*
Y-322160D01*
X-28723D01*
G01X-29737Y-324577D02*
X-31257D01*
G01X-26220Y-326493D02*
X-25713Y-326910D01*
X-25143Y-327160D01*
X-24637D01*
X-24130Y-326910D01*
X-23750Y-326493D01*
X-23560Y-325910D01*
X-23687Y-325327D01*
X-24003Y-324827D01*
X-24573Y-324493D01*
X-25333Y-324327D01*
X-25777Y-323993D01*
X-25967Y-323410D01*
X-25840Y-322827D01*
X-25523Y-322410D01*
X-25080Y-322160D01*
X-24637D01*
X-24193Y-322327D01*
X-23813Y-322743D01*
G01X-151590Y-312160D02*
X208410D01*
G01X-143583Y-294660D02*
Y-298243D01*
X-143330Y-298993D01*
X-142823Y-299493D01*
X-142190Y-299660D01*
X-141557Y-299493D01*
X-141050Y-298993D01*
X-140797Y-298243D01*
Y-294660D01*
G01X-138547Y-299660D02*
Y-294660D01*
X-135633Y-299660D01*
Y-294660D01*
G01X-133257D02*
Y-299660D01*
X-130723D01*
G01X-125623D02*
X-128157D01*
Y-294660D01*
X-125623D01*
G01X-126637Y-297077D02*
X-128157D01*
G01X-123120Y-298993D02*
X-122613Y-299410D01*
X-122043Y-299660D01*
X-121537D01*
X-121030Y-299410D01*
X-120650Y-298993D01*
X-120460Y-298410D01*
X-120587Y-297827D01*
X-120903Y-297327D01*
X-121473Y-296993D01*
X-122233Y-296827D01*
X-122677Y-296493D01*
X-122867Y-295910D01*
X-122740Y-295327D01*
X-122423Y-294910D01*
X-121980Y-294660D01*
X-121537D01*
X-121093Y-294827D01*
X-120713Y-295243D01*
G01X-118020Y-298993D02*
X-117513Y-299410D01*
X-116943Y-299660D01*
X-116437D01*
X-115930Y-299410D01*
X-115550Y-298993D01*
X-115360Y-298410D01*
X-115487Y-297827D01*
X-115803Y-297327D01*
X-116373Y-296993D01*
X-117133Y-296827D01*
X-117577Y-296493D01*
X-117767Y-295910D01*
X-117640Y-295327D01*
X-117323Y-294910D01*
X-116880Y-294660D01*
X-116437D01*
X-115993Y-294827D01*
X-115613Y-295243D01*
G01X-106490Y-299660D02*
X-106997Y-299577D01*
X-107440Y-299243D01*
X-107820Y-298743D01*
X-108073Y-298160D01*
X-108200Y-297493D01*
Y-296827D01*
X-108073Y-296160D01*
X-107820Y-295577D01*
X-107440Y-295077D01*
X-106997Y-294743D01*
X-106490Y-294660D01*
X-105983Y-294743D01*
X-105540Y-295077D01*
X-105160Y-295577D01*
X-104907Y-296160D01*
X-104780Y-296827D01*
Y-297493D01*
X-104907Y-298160D01*
X-105160Y-298743D01*
X-105540Y-299243D01*
X-105983Y-299577D01*
X-106490Y-299660D01*
G01X-101390Y-294660D02*
Y-299660D01*
G01X-102847Y-294660D02*
X-99933D01*
G01X-97620Y-299660D02*
Y-294660D01*
G01X-94960D02*
Y-299660D01*
G01Y-297160D02*
X-97620D01*
G01X-89923Y-299660D02*
X-92457D01*
Y-294660D01*
X-89923D01*
G01X-90937Y-297077D02*
X-92457D01*
G01X-87357Y-299660D02*
Y-294660D01*
X-85773D01*
X-85267Y-294910D01*
X-84950Y-295243D01*
X-84823Y-295910D01*
X-84950Y-296577D01*
X-85330Y-296993D01*
X-85773Y-297243D01*
X-87357D01*
G01X-85773D02*
X-84823Y-299660D01*
G01X-82890Y-294660D02*
X-82003Y-299660D01*
X-80990Y-294660D01*
X-79977Y-299660D01*
X-79090Y-294660D01*
G01X-76650D02*
X-75130D01*
G01X-75890D02*
Y-299660D01*
G01X-76650D02*
X-75130D01*
G01X-72120Y-298993D02*
X-71613Y-299410D01*
X-71043Y-299660D01*
X-70537D01*
X-70030Y-299410D01*
X-69650Y-298993D01*
X-69460Y-298410D01*
X-69587Y-297827D01*
X-69903Y-297327D01*
X-70473Y-296993D01*
X-71233Y-296827D01*
X-71677Y-296493D01*
X-71867Y-295910D01*
X-71740Y-295327D01*
X-71423Y-294910D01*
X-70980Y-294660D01*
X-70537D01*
X-70093Y-294827D01*
X-69713Y-295243D01*
G01X-64423Y-299660D02*
X-66957D01*
Y-294660D01*
X-64423D01*
G01X-65437Y-297077D02*
X-66957D01*
G01X-56820Y-298993D02*
X-56313Y-299410D01*
X-55743Y-299660D01*
X-55237D01*
X-54730Y-299410D01*
X-54350Y-298993D01*
X-54160Y-298410D01*
X-54287Y-297827D01*
X-54603Y-297327D01*
X-55173Y-296993D01*
X-55933Y-296827D01*
X-56377Y-296493D01*
X-56567Y-295910D01*
X-56440Y-295327D01*
X-56123Y-294910D01*
X-55680Y-294660D01*
X-55237D01*
X-54793Y-294827D01*
X-54413Y-295243D01*
G01X-51657Y-299660D02*
Y-294660D01*
X-50137D01*
X-49630Y-294910D01*
X-49250Y-295493D01*
X-49123Y-296160D01*
X-49250Y-296827D01*
X-49567Y-297327D01*
X-50137Y-297577D01*
X-51657D01*
G01X-44023Y-299660D02*
X-46557D01*
Y-294660D01*
X-44023D01*
G01X-45037Y-297077D02*
X-46557D01*
G01X-38797Y-295077D02*
X-39177Y-294827D01*
X-39620Y-294660D01*
X-40127D01*
X-40697Y-294910D01*
X-41140Y-295327D01*
X-41457Y-295827D01*
X-41710Y-296660D01*
X-41773Y-297410D01*
X-41647Y-298160D01*
X-41457Y-298660D01*
X-41077Y-299160D01*
X-40633Y-299493D01*
X-40190Y-299660D01*
X-39747D01*
X-39303Y-299493D01*
X-38923Y-299243D01*
X-38607Y-298910D01*
G01X-35850Y-294660D02*
X-34330D01*
G01X-35090D02*
Y-299660D01*
G01X-35850D02*
X-34330D01*
G01X-31193D02*
Y-294660D01*
X-28787D01*
G01X-29673Y-297077D02*
X-31193D01*
G01X-25650Y-294660D02*
X-24130D01*
G01X-24890D02*
Y-299660D01*
G01X-25650D02*
X-24130D01*
G01X-18523D02*
X-21057D01*
Y-294660D01*
X-18523D01*
G01X-19537Y-297077D02*
X-21057D01*
G01X-16083Y-299660D02*
Y-294660D01*
X-14817D01*
X-14310Y-294910D01*
X-13930Y-295243D01*
X-13613Y-295743D01*
X-13360Y-296327D01*
X-13297Y-297160D01*
X-13360Y-297993D01*
X-13613Y-298577D01*
X-13930Y-299077D01*
X-14310Y-299410D01*
X-14817Y-299660D01*
X-16083D01*
G01X-1590Y-282160D02*
Y-462160D01*
G01Y-427160D02*
X208410D01*
G01X-1590Y-402160D02*
X208410D01*
G01X-1590Y-372160D02*
X208410D01*
G01X-1590Y-342160D02*
X208410D01*
G01X0Y0D02*
Y232950D01*
X80000D01*
Y0D01*
X0D01*
G01X5050Y62889D02*
X2688D01*
Y64070D01*
X5050D01*
Y62889D01*
G01Y66089D02*
X2688D01*
Y67270D01*
X5050D01*
Y66089D01*
G01X5481Y74550D02*
Y72188D01*
X4300D01*
Y74550D01*
X5481D01*
G01X8467Y92823D02*
Y100697D01*
X593D01*
Y92823D01*
X8467D01*
G01X4100Y125141D02*
X7850D01*
G01X4100Y126741D02*
Y125141D01*
G01X7850Y126741D02*
X4100D01*
G01Y127700D02*
X7850D01*
G01X4100Y129300D02*
Y127700D01*
G01X7850Y129300D02*
X4100D01*
G01Y130260D02*
X7850D01*
G01X4100Y131860D02*
Y130260D01*
G01X7850Y131860D02*
X4100D01*
G01Y132819D02*
X7850D01*
G01X4100Y134419D02*
Y132819D01*
G01X3300Y113389D02*
X938D01*
Y114570D01*
X3300D01*
Y113389D01*
G01Y116589D02*
X938D01*
Y117770D01*
X3300D01*
Y116589D01*
G01X7850Y134419D02*
X4100D01*
G01X3150Y154779D02*
X788D01*
Y155960D01*
X3150D01*
Y154779D01*
G01Y157979D02*
X788D01*
Y159160D01*
X3150D01*
Y157979D01*
G01X453Y203617D02*
Y195743D01*
X8327D01*
Y203617D01*
X453D01*
G01X760Y183041D02*
X3122D01*
Y181860D01*
X760D01*
Y183041D01*
G01Y179841D02*
X3122D01*
Y178660D01*
X760D01*
Y179841D01*
G01X3088Y232536D02*
Y220724D01*
X77892D01*
Y232536D01*
X3088D01*
G01X8242Y12066D02*
Y254D01*
X67298D01*
Y12066D01*
X8242D01*
G01X16010Y26021D02*
X18372D01*
Y24840D01*
X16010D01*
Y26021D01*
G01Y22821D02*
X18372D01*
Y21640D01*
X16010D01*
Y22821D01*
G01X10490Y21589D02*
X8128D01*
Y22770D01*
X10490D01*
Y21589D01*
G01Y24789D02*
X8128D01*
Y25970D01*
X10490D01*
Y24789D01*
G01X18930Y46020D02*
G03Y43620I0J-1200D01*
G01Y38920D02*
Y50720D01*
G01X7130Y38920D02*
X18930D01*
G01X7130Y50720D02*
Y38920D01*
G01X17669Y35170D02*
Y38920D01*
G01X16069Y35170D02*
X17669D01*
G01X16069Y38920D02*
Y35170D01*
G01X17669Y38920D02*
X16069D01*
G01X15110Y35170D02*
Y38920D01*
G01X13510Y35170D02*
X15110D01*
G01X13510Y38920D02*
Y35170D01*
G01X15110Y38920D02*
X13510D01*
G01X12550Y35170D02*
Y38920D01*
G01X10950Y35170D02*
X12550D01*
G01X10950Y38920D02*
Y35170D01*
G01X12550Y38920D02*
X10950D01*
G01X9991Y35170D02*
Y38920D01*
G01X8391Y35170D02*
X9991D01*
G01X8391Y38920D02*
Y35170D01*
G01X9991Y38920D02*
X8391D01*
G01X24560Y37159D02*
X22198D01*
Y38340D01*
X24560D01*
Y37159D01*
G01Y40359D02*
X22198D01*
Y41540D01*
X24560D01*
Y40359D01*
G01X18930Y50720D02*
X7130D01*
G01X8391Y54470D02*
Y50720D01*
G01X9991Y54470D02*
X8391D01*
G01X9991Y50720D02*
Y54470D01*
G01X8391Y50720D02*
X9991D01*
G01X10950Y54470D02*
Y50720D01*
G01X12550Y54470D02*
X10950D01*
G01X12550Y50720D02*
Y54470D01*
G01X10950Y50720D02*
X12550D01*
G01X13510Y54470D02*
Y50720D01*
G01X15110Y54470D02*
X13510D01*
G01X15110Y50720D02*
Y54470D01*
G01X13510Y50720D02*
X15110D01*
G01X16069Y54470D02*
Y50720D01*
G01X17669Y54470D02*
X16069D01*
G01X17669Y50720D02*
Y54470D01*
G01X16069Y50720D02*
X17669D01*
G01X20849Y66530D02*
Y68892D01*
X22030D01*
Y66530D01*
X20849D01*
G01X24049D02*
Y68892D01*
X25230D01*
Y66530D01*
X24049D01*
G01X15530Y62069D02*
X13168D01*
Y63250D01*
X15530D01*
Y62069D01*
G01Y65269D02*
X13168D01*
Y66450D01*
X15530D01*
Y65269D01*
G01X25161Y62790D02*
Y60428D01*
X23980D01*
Y62790D01*
X25161D01*
G01X21961D02*
Y60428D01*
X20780D01*
Y62790D01*
X21961D01*
G01X8681Y74550D02*
Y72188D01*
X7500D01*
Y74550D01*
X8681D01*
G01X26927Y92773D02*
Y100647D01*
X19053D01*
Y92773D01*
X26927D01*
G01X7850Y135680D02*
Y123880D01*
G01X19650D02*
Y135680D01*
G01X7850Y123880D02*
X19650D01*
G01X23400Y132819D02*
Y134419D01*
G01X19650Y132819D02*
X23400D01*
G01X19650Y134419D02*
Y132819D01*
G01X23400Y131860D02*
X19650D01*
G01X23400Y130260D02*
Y131860D01*
G01X19650Y130260D02*
X23400D01*
G01X19650Y131860D02*
Y130260D01*
G01X23400Y129300D02*
X19650D01*
G01X23400Y127700D02*
Y129300D01*
G01X19650Y127700D02*
X23400D01*
G01X19650Y129300D02*
Y127700D01*
G01X23400Y126741D02*
X19650D01*
G01X23400Y125141D02*
Y126741D01*
G01X19650Y125141D02*
X23400D01*
G01X19650Y126741D02*
Y125141D01*
G01X7850D02*
Y126741D01*
G01Y127700D02*
Y129300D01*
G01Y130260D02*
Y131860D01*
G01Y132819D02*
Y134419D01*
G01X21750Y113379D02*
X19388D01*
Y114560D01*
X21750D01*
Y113379D01*
G01Y116579D02*
X19388D01*
Y117760D01*
X21750D01*
Y116579D01*
G01X8150Y113409D02*
X5788D01*
Y114590D01*
X8150D01*
Y113409D01*
G01Y116609D02*
X5788D01*
Y117790D01*
X8150D01*
Y116609D01*
G01X26600Y113369D02*
X24238D01*
Y114550D01*
X26600D01*
Y113369D01*
G01Y116569D02*
X24238D01*
Y117750D01*
X26600D01*
Y116569D01*
G01X12550Y135680D02*
G03X14950I1200J0D01*
G01X19650D02*
X7850D01*
G01X23400Y134419D02*
X19650D01*
G01X18580Y160710D02*
G03X16180I-1200J0D01*
G01X23280D02*
Y172510D01*
G01X11480Y160710D02*
X23280D01*
G01X11480Y172510D02*
Y160710D01*
G01X23280Y172510D02*
X11480D01*
G01X7730Y161971D02*
X11480D01*
G01X7730Y163571D02*
Y161971D01*
G01X11480Y163571D02*
X7730D01*
G01X11480Y161971D02*
Y163571D01*
G01X7730Y164530D02*
X11480D01*
G01X7730Y166130D02*
Y164530D01*
G01X11480Y166130D02*
X7730D01*
G01X11480Y164530D02*
Y166130D01*
G01X7730Y167090D02*
X11480D01*
G01X7730Y168690D02*
Y167090D01*
G01X11480Y168690D02*
X7730D01*
G01X11480Y167090D02*
Y168690D01*
G01X7730Y169649D02*
X11480D01*
G01X7730Y171249D02*
Y169649D01*
G01X11480Y171249D02*
X7730D01*
G01X11480Y169649D02*
Y171249D01*
G01X27030D02*
X23280D01*
G01Y169649D02*
X27030D01*
G01X23280Y171249D02*
Y169649D01*
G01X27030Y168690D02*
X23280D01*
G01Y167090D02*
X27030D01*
G01X23280Y168690D02*
Y167090D01*
G01X27030Y166130D02*
X23280D01*
G01Y164530D02*
X27030D01*
G01X23280Y166130D02*
Y164530D01*
G01X27030Y163571D02*
X23280D01*
G01Y161971D02*
X27030D01*
G01X23280Y163571D02*
Y161971D01*
G01X18913Y203567D02*
Y195693D01*
X26787D01*
Y203567D01*
X18913D01*
G01X19220Y183001D02*
X21582D01*
Y181820D01*
X19220D01*
Y183001D01*
G01Y179801D02*
X21582D01*
Y178620D01*
X19220D01*
Y179801D01*
G01X24090Y183011D02*
X26452D01*
Y181830D01*
X24090D01*
Y183011D01*
G01Y179811D02*
X26452D01*
Y178630D01*
X24090D01*
Y179811D01*
G01X5610Y183041D02*
X7972D01*
Y181860D01*
X5610D01*
Y183041D01*
G01Y179841D02*
X7972D01*
Y178660D01*
X5610D01*
Y179841D01*
G01X41615Y-298820D02*
X42242Y-299345D01*
X42947Y-299660D01*
X43573D01*
X44200Y-299345D01*
X44670Y-298820D01*
X44905Y-298085D01*
X44748Y-297350D01*
X44357Y-296720D01*
X43652Y-296300D01*
X42712Y-296090D01*
X42163Y-295670D01*
X41928Y-294935D01*
X42085Y-294200D01*
X42477Y-293675D01*
X43025Y-293360D01*
X43573D01*
X44122Y-293570D01*
X44592Y-294095D01*
G01X48620Y-293360D02*
X50500D01*
G01X49560D02*
Y-299660D01*
G01X48620D02*
X50500D01*
G01X56330Y-296510D02*
X57897D01*
Y-298400D01*
X57427Y-299030D01*
X56878Y-299450D01*
X56095Y-299660D01*
X55312Y-299450D01*
X54763Y-299030D01*
X54293Y-298400D01*
X53980Y-297665D01*
X53823Y-296825D01*
Y-296090D01*
X53980Y-295460D01*
X54293Y-294725D01*
X54763Y-294095D01*
X55233Y-293675D01*
X55860Y-293360D01*
X56408D01*
X57035Y-293570D01*
X57505Y-293990D01*
G01X60358Y-299660D02*
Y-293360D01*
X63962Y-299660D01*
Y-293360D01*
G01X66502Y-299660D02*
X68460Y-293360D01*
X70418Y-299660D01*
G01X69713Y-297455D02*
X67207D01*
G01X74760Y-293360D02*
Y-299660D01*
G01X72958Y-293360D02*
X76562D01*
G01X79337D02*
Y-297875D01*
X79650Y-298820D01*
X80277Y-299450D01*
X81060Y-299660D01*
X81843Y-299450D01*
X82470Y-298820D01*
X82783Y-297875D01*
Y-293360D01*
G01X85793Y-299660D02*
Y-293360D01*
X87752D01*
X88378Y-293675D01*
X88770Y-294095D01*
X88927Y-294935D01*
X88770Y-295775D01*
X88300Y-296300D01*
X87752Y-296615D01*
X85793D01*
G01X87752D02*
X88927Y-299660D01*
G01X95227D02*
X92093D01*
Y-293360D01*
X95227D01*
G01X93973Y-296405D02*
X92093D01*
G01X98315Y-298820D02*
X98942Y-299345D01*
X99647Y-299660D01*
X100273D01*
X100900Y-299345D01*
X101370Y-298820D01*
X101605Y-298085D01*
X101448Y-297350D01*
X101057Y-296720D01*
X100352Y-296300D01*
X99412Y-296090D01*
X98863Y-295670D01*
X98628Y-294935D01*
X98785Y-294200D01*
X99177Y-293675D01*
X99725Y-293360D01*
X100273D01*
X100822Y-293570D01*
X101292Y-294095D01*
G01X40741Y50930D02*
Y48568D01*
X39560D01*
Y50930D01*
X40741D01*
G01X37541D02*
Y48568D01*
X36360D01*
Y50930D01*
X37541D01*
G01X42810Y40420D02*
G03Y38020I0J-1200D01*
G01Y41970D02*
X34310D01*
G01X42810Y36470D02*
Y41970D01*
G01X34310Y36470D02*
X42810D01*
G01X34310Y41970D02*
Y36470D01*
G01X41719Y34520D02*
Y36470D01*
G01X40519Y34520D02*
X41719D01*
G01X40519Y36470D02*
Y34520D01*
G01X41719Y36470D02*
X40519D01*
G01X39160Y34520D02*
Y36470D01*
G01X37960Y34520D02*
X39160D01*
G01X37960Y36470D02*
Y34520D01*
G01X39160Y36470D02*
X37960D01*
G01X36601Y34520D02*
Y36470D01*
G01X35401Y34520D02*
X36601D01*
G01X35401Y36470D02*
Y34520D01*
G01X36601Y36470D02*
X35401D01*
G01Y43920D02*
Y41970D01*
G01X36601Y43920D02*
X35401D01*
G01X36601Y41970D02*
Y43920D01*
G01X35401Y41970D02*
X36601D01*
G01X37960Y43920D02*
Y41970D01*
G01X39160Y43920D02*
X37960D01*
G01X39160Y41970D02*
Y43920D01*
G01X37960Y41970D02*
X39160D01*
G01X40519Y43920D02*
Y41970D01*
G01X41719Y43920D02*
X40519D01*
G01X41719Y41970D02*
Y43920D01*
G01X40519Y41970D02*
X41719D01*
G01X35291Y134940D02*
Y132578D01*
X34110D01*
Y134940D01*
X35291D01*
G01X32091D02*
Y132578D01*
X30910D01*
Y134940D01*
X32091D01*
G01X34716Y154559D02*
X39280Y155181D01*
G01X38766Y156638D02*
X35230Y153102D01*
G01X36687Y152588D02*
X37309Y157152D01*
G01X35654Y156213D02*
X38341Y153526D01*
G01X40243Y153604D02*
X32866Y146227D01*
G01X45394Y148453D02*
X40243Y153604D01*
G01X38017Y141076D02*
X45394Y148453D01*
G01X32866Y146227D02*
X38017Y141076D01*
G01X43028Y146087D02*
X43723Y146783D01*
G01D02*
X43028Y146087D01*
G01X41914Y144973D02*
X42610Y145670D01*
G01D02*
X41914Y144973D01*
G01X40800Y143860D02*
X41497Y144556D01*
G01D02*
X40800Y143860D01*
G01X39687Y142747D02*
X40383Y143442D01*
G01D02*
X39687Y142747D01*
G01X36764Y142329D02*
X37460Y141634D01*
G01D02*
X36764Y142329D01*
G01X35650Y143443D02*
X36347Y142747D01*
G01D02*
X35650Y143443D01*
G01X34537Y144557D02*
X35233Y143860D01*
G01D02*
X34537Y144557D01*
G01X33424Y145670D02*
X34119Y144974D01*
G01D02*
X33424Y145670D01*
G01X35232Y148593D02*
X34537Y147897D01*
G01D02*
X35232Y148593D01*
G01X36346Y149707D02*
X35650Y149010D01*
G01D02*
X36346Y149707D01*
G01X37460Y150820D02*
X36763Y150124D01*
G01D02*
X37460Y150820D01*
G01X38573Y151933D02*
X37877Y151238D01*
G01D02*
X38573Y151933D01*
G01X41496Y152351D02*
X40800Y153046D01*
G01D02*
X41496Y152351D01*
G01X42610Y151237D02*
X41913Y151933D01*
G01D02*
X42610Y151237D01*
G01X43723Y150123D02*
X43027Y150820D01*
G01D02*
X43723Y150123D01*
G01X44836Y149010D02*
X44141Y149706D01*
G01D02*
X44836Y149010D01*
G01X36707Y150068D02*
X43779D01*
G01X27030Y169649D02*
Y171249D01*
G01Y167090D02*
Y168690D01*
G01Y164530D02*
Y166130D01*
G01Y161971D02*
Y163571D01*
G01X45881Y164310D02*
Y161948D01*
X44700D01*
Y164310D01*
X45881D01*
G01X38950Y189501D02*
X41312D01*
Y188320D01*
X38950D01*
Y189501D01*
G01Y186301D02*
X41312D01*
Y185120D01*
X38950D01*
Y186301D01*
G01X38900Y204711D02*
X41262D01*
Y203530D01*
X38900D01*
Y204711D01*
G01Y201511D02*
X41262D01*
Y200330D01*
X38900D01*
Y201511D01*
G01X65460Y27281D02*
X67822D01*
Y26100D01*
X65460D01*
Y27281D01*
G01Y24081D02*
X67822D01*
Y22900D01*
X65460D01*
Y24081D01*
G01X59900Y22919D02*
X57538D01*
Y24100D01*
X59900D01*
Y22919D01*
G01Y26119D02*
X57538D01*
Y27300D01*
X59900D01*
Y26119D01*
G01X68070Y46060D02*
G03Y43660I0J-1200D01*
G01X56270Y38960D02*
X68070D01*
G01X56270Y50760D02*
Y38960D01*
G01X66809Y35210D02*
Y38960D01*
G01X65209Y35210D02*
X66809D01*
G01X65209Y38960D02*
Y35210D01*
G01X66809Y38960D02*
X65209D01*
G01X64250Y35210D02*
Y38960D01*
G01X62650Y35210D02*
X64250D01*
G01X62650Y38960D02*
Y35210D01*
G01X64250Y38960D02*
X62650D01*
G01X61690Y35210D02*
Y38960D01*
G01X60090Y35210D02*
X61690D01*
G01X60090Y38960D02*
Y35210D01*
G01X61690Y38960D02*
X60090D01*
G01X59131Y35210D02*
Y38960D01*
G01X57531Y35210D02*
X59131D01*
G01X57531Y38960D02*
Y35210D01*
G01X59131Y38960D02*
X57531D01*
G01X68070Y50760D02*
X56270D01*
G01X57531Y54510D02*
Y50760D01*
G01X59131Y54510D02*
X57531D01*
G01X59131Y50760D02*
Y54510D01*
G01X57531Y50760D02*
X59131D01*
G01X60090Y54510D02*
Y50760D01*
G01X61690Y54510D02*
X60090D01*
G01X61690Y50760D02*
Y54510D01*
G01X60090Y50760D02*
X61690D01*
G01X62650Y54510D02*
Y50760D01*
G01X64250Y54510D02*
X62650D01*
G01X64250Y50760D02*
Y54510D01*
G01X62650Y50760D02*
X64250D01*
G01X65209Y54510D02*
Y50760D01*
G01X66809Y54510D02*
X65209D01*
G01X66809Y50760D02*
Y54510D01*
G01X65209Y50760D02*
X66809D01*
G01X64640Y62309D02*
X62278D01*
Y63490D01*
X64640D01*
Y62309D01*
G01Y65509D02*
X62278D01*
Y66690D01*
X64640D01*
Y65509D01*
G01X56940Y62379D02*
X54578D01*
Y63560D01*
X56940D01*
Y62379D01*
G01Y65579D02*
X54578D01*
Y66760D01*
X56940D01*
Y65579D01*
G01X51019Y72090D02*
Y74452D01*
X52200D01*
Y72090D01*
X51019D01*
G01X54219D02*
Y74452D01*
X55400D01*
Y72090D01*
X54219D01*
G01X60877Y92603D02*
Y100477D01*
X53003D01*
Y92603D01*
X60877D01*
G01X56670Y135530D02*
Y123730D01*
G01D02*
X68470D01*
G01X52920Y124991D02*
X56670D01*
G01X52920Y126591D02*
Y124991D01*
G01X56670Y126591D02*
X52920D01*
G01X56670Y124991D02*
Y126591D01*
G01X52920Y127550D02*
X56670D01*
G01X52920Y129150D02*
Y127550D01*
G01X56670Y129150D02*
X52920D01*
G01X56670Y127550D02*
Y129150D01*
G01X52920Y130110D02*
X56670D01*
G01X52920Y131710D02*
Y130110D01*
G01X56670Y131710D02*
X52920D01*
G01X56670Y130110D02*
Y131710D01*
G01X52920Y132669D02*
X56670D01*
G01X52920Y134269D02*
Y132669D01*
G01X56670D02*
Y134269D01*
G01X55750Y113199D02*
X53388D01*
Y114380D01*
X55750D01*
Y113199D01*
G01Y116399D02*
X53388D01*
Y117580D01*
X55750D01*
Y116399D01*
G01X60560Y113199D02*
X58198D01*
Y114380D01*
X60560D01*
Y113199D01*
G01Y116399D02*
X58198D01*
Y117580D01*
X60560D01*
Y116399D01*
G01X61370Y135530D02*
G03X63770I1200J0D01*
G01X68470D02*
X56670D01*
G01Y134269D02*
X52920D01*
G01X67490Y161030D02*
G03X65090I-1200J0D01*
G01X60390D02*
X72190D01*
G01X60390Y172830D02*
Y161030D01*
G01X72190Y172830D02*
X60390D01*
G01X56640Y162291D02*
X60390D01*
G01X56640Y163891D02*
Y162291D01*
G01X60390Y163891D02*
X56640D01*
G01X60390Y162291D02*
Y163891D01*
G01X56640Y164850D02*
X60390D01*
G01X56640Y166450D02*
Y164850D01*
G01X60390Y166450D02*
X56640D01*
G01X60390Y164850D02*
Y166450D01*
G01X56640Y167410D02*
X60390D01*
G01X56640Y169010D02*
Y167410D01*
G01X60390Y169010D02*
X56640D01*
G01X60390Y167410D02*
Y169010D01*
G01X56640Y169969D02*
X60390D01*
G01X56640Y171569D02*
Y169969D01*
G01X60390Y171569D02*
X56640D01*
G01X60390Y169969D02*
Y171569D01*
G01X49081Y164310D02*
Y161948D01*
X47900D01*
Y164310D01*
X49081D01*
G01X52481Y157680D02*
Y155318D01*
X51300D01*
Y157680D01*
X52481D01*
G01X49281D02*
Y155318D01*
X48100D01*
Y157680D01*
X49281D01*
G01X53133Y203927D02*
Y196053D01*
X61007D01*
Y203927D01*
X53133D01*
G01X53430Y183351D02*
X55792D01*
Y182170D01*
X53430D01*
Y183351D01*
G01Y180151D02*
X55792D01*
Y178970D01*
X53430D01*
Y180151D01*
G01X58310Y183331D02*
X60672D01*
Y182150D01*
X58310D01*
Y183331D01*
G01Y180131D02*
X60672D01*
Y178950D01*
X58310D01*
Y180131D01*
G01X68070Y38960D02*
Y50760D01*
G01X73670Y37189D02*
X71308D01*
Y38370D01*
X73670D01*
Y37189D01*
G01Y40389D02*
X71308D01*
Y41570D01*
X73670D01*
Y40389D01*
G01X70529Y66420D02*
Y68782D01*
X71710D01*
Y66420D01*
X70529D01*
G01X73729D02*
Y68782D01*
X74910D01*
Y66420D01*
X73729D01*
G01X74881Y63030D02*
Y60668D01*
X73700D01*
Y63030D01*
X74881D01*
G01X71681D02*
Y60668D01*
X70500D01*
Y63030D01*
X71681D01*
G01X79337Y92633D02*
Y100507D01*
X71463D01*
Y92633D01*
X79337D01*
G01X68470Y123730D02*
Y135530D01*
G01X72220Y132669D02*
Y134269D01*
G01X68470Y132669D02*
X72220D01*
G01X68470Y134269D02*
Y132669D01*
G01X72220Y131710D02*
X68470D01*
G01X72220Y130110D02*
Y131710D01*
G01X68470Y130110D02*
X72220D01*
G01X68470Y131710D02*
Y130110D01*
G01X72220Y129150D02*
X68470D01*
G01X72220Y127550D02*
Y129150D01*
G01X68470Y127550D02*
X72220D01*
G01X68470Y129150D02*
Y127550D01*
G01X72220Y126591D02*
X68470D01*
G01X72220Y124991D02*
Y126591D01*
G01X68470Y124991D02*
X72220D01*
G01X68470Y126591D02*
Y124991D01*
G01X74170Y113199D02*
X71808D01*
Y114380D01*
X74170D01*
Y113199D01*
G01Y116399D02*
X71808D01*
Y117580D01*
X74170D01*
Y116399D01*
G01X79230Y128729D02*
X76868D01*
Y129910D01*
X79230D01*
Y128729D01*
G01Y131929D02*
X76868D01*
Y133110D01*
X79230D01*
Y131929D01*
G01X79040Y113199D02*
X76678D01*
Y114380D01*
X79040D01*
Y113199D01*
G01Y116399D02*
X76678D01*
Y117580D01*
X79040D01*
Y116399D01*
G01X72220Y134269D02*
X68470D01*
G01X72190Y161030D02*
Y172830D01*
G01X75940Y171569D02*
X72190D01*
G01X75940Y169969D02*
Y171569D01*
G01X72190Y169969D02*
X75940D01*
G01X72190Y171569D02*
Y169969D01*
G01X75940Y169010D02*
X72190D01*
G01X75940Y167410D02*
Y169010D01*
G01X72190Y167410D02*
X75940D01*
G01X72190Y169010D02*
Y167410D01*
G01X75940Y166450D02*
X72190D01*
G01X75940Y164850D02*
Y166450D01*
G01X72190Y164850D02*
X75940D01*
G01X72190Y166450D02*
Y164850D01*
G01X75940Y163891D02*
X72190D01*
G01X75940Y162291D02*
Y163891D01*
G01X72190Y162291D02*
X75940D01*
G01X72190Y163891D02*
Y162291D01*
G01X71553Y203937D02*
Y196063D01*
X79427D01*
Y203937D01*
X71553D01*
G01X76710Y183361D02*
X79072D01*
Y182180D01*
X76710D01*
Y183361D01*
G01Y180161D02*
X79072D01*
Y178980D01*
X76710D01*
Y180161D01*
G01X71880Y183381D02*
X74242D01*
Y182200D01*
X71880D01*
Y183381D01*
G01Y180181D02*
X74242D01*
Y179000D01*
X71880D01*
Y180181D01*
G01X128410Y-399660D02*
Y-402160D01*
G01Y-399660D02*
Y-282160D01*
G01X125910Y510340D02*
Y480340D01*
G01Y600340D02*
Y510340D01*
G01X132160Y550340D02*
Y560340D01*
X135285D01*
X136285Y559840D01*
X136910Y559173D01*
X137160Y557840D01*
X136910Y556507D01*
X136160Y555673D01*
X135285Y555173D01*
X132160D01*
G01X135285D02*
X137160Y550340D01*
G01X147160D02*
X142160D01*
Y560340D01*
X147160D01*
G01X145160Y555507D02*
X142160D01*
G01X151535Y560340D02*
X154660Y550340D01*
X157785Y560340D01*
G01X125910Y540340D02*
X625910D01*
G01X125910Y570340D02*
X625910D01*
G01X154037Y-299660D02*
Y-293360D01*
X155603D01*
X156230Y-293675D01*
X156700Y-294095D01*
X157092Y-294725D01*
X157405Y-295460D01*
X157483Y-296510D01*
X157405Y-297560D01*
X157092Y-298295D01*
X156700Y-298925D01*
X156230Y-299345D01*
X155603Y-299660D01*
X154037D01*
G01X160102D02*
X162060Y-293360D01*
X164018Y-299660D01*
G01X163313Y-297455D02*
X160807D01*
G01X168360Y-293360D02*
Y-299660D01*
G01X166558Y-293360D02*
X170162D01*
G01X176227Y-299660D02*
X173093D01*
Y-293360D01*
X176227D01*
G01X174973Y-296405D02*
X173093D01*
G01X165910Y510340D02*
Y480340D01*
G01Y510340D02*
Y570340D01*
G01X208410Y-282160D02*
Y-462160D01*
G01X214535Y-445827D02*
X215535Y-446660D01*
X216660Y-447160D01*
X217660D01*
X218660Y-446660D01*
X219410Y-445827D01*
X219785Y-444660D01*
X219535Y-443494D01*
X218910Y-442493D01*
X217785Y-441827D01*
X216285Y-441493D01*
X215410Y-440827D01*
X215035Y-439660D01*
X215285Y-438493D01*
X215910Y-437660D01*
X216785Y-437160D01*
X217660D01*
X218535Y-437493D01*
X219285Y-438327D01*
G01X229910Y-437993D02*
X229160Y-437493D01*
X228285Y-437160D01*
X227285D01*
X226160Y-437660D01*
X225285Y-438493D01*
X224660Y-439493D01*
X224160Y-441160D01*
X224035Y-442660D01*
X224285Y-444160D01*
X224660Y-445160D01*
X225410Y-446160D01*
X226285Y-446827D01*
X227160Y-447160D01*
X228035D01*
X228910Y-446827D01*
X229660Y-446327D01*
X230285Y-445660D01*
G01X234035Y-447160D02*
X237160Y-437160D01*
X240285Y-447160D01*
G01X239160Y-443660D02*
X235160D01*
G01X244660Y-437160D02*
Y-447160D01*
X249660D01*
G01X259660D02*
X254660D01*
Y-437160D01*
X259660D01*
G01X257660Y-441993D02*
X254660D01*
G01X458410Y-432160D02*
X208410D01*
G01X214535Y-405827D02*
X215535Y-406660D01*
X216660Y-407160D01*
X217660D01*
X218660Y-406660D01*
X219410Y-405827D01*
X219785Y-404660D01*
X219535Y-403494D01*
X218910Y-402493D01*
X217785Y-401827D01*
X216285Y-401493D01*
X215410Y-400827D01*
X215035Y-399660D01*
X215285Y-398493D01*
X215910Y-397660D01*
X216785Y-397160D01*
X217660D01*
X218535Y-397493D01*
X219285Y-398327D01*
G01X225660Y-397160D02*
X228660D01*
G01X227160D02*
Y-407160D01*
G01X225660D02*
X228660D01*
G01X234785Y-397160D02*
X239535D01*
X234785Y-407160D01*
X239535D01*
G01X249660D02*
X244660D01*
Y-397160D01*
X249660D01*
G01X247660Y-401993D02*
X244660D01*
G01X628410Y-392160D02*
X208410D01*
G01X628410Y-332160D02*
X208410D01*
G01X236910Y550340D02*
Y560340D01*
X239410D01*
X240410Y559840D01*
X241160Y559173D01*
X241785Y558173D01*
X242285Y557006D01*
X242410Y555340D01*
X242285Y553673D01*
X241785Y552507D01*
X241160Y551506D01*
X240410Y550840D01*
X239410Y550340D01*
X236910D01*
G01X252160D02*
X247160D01*
Y560340D01*
X252160D01*
G01X250160Y555507D02*
X247160D01*
G01X257035Y551673D02*
X258035Y550840D01*
X259160Y550340D01*
X260160D01*
X261160Y550840D01*
X261910Y551673D01*
X262285Y552840D01*
X262035Y554006D01*
X261410Y555007D01*
X260285Y555673D01*
X258785Y556007D01*
X257910Y556673D01*
X257535Y557840D01*
X257785Y559007D01*
X258410Y559840D01*
X259285Y560340D01*
X260160D01*
X261035Y560007D01*
X261785Y559173D01*
G01X272410Y559507D02*
X271660Y560007D01*
X270785Y560340D01*
X269785D01*
X268660Y559840D01*
X267785Y559007D01*
X267160Y558007D01*
X266660Y556340D01*
X266535Y554840D01*
X266785Y553340D01*
X267160Y552340D01*
X267910Y551340D01*
X268785Y550673D01*
X269660Y550340D01*
X270535D01*
X271410Y550673D01*
X272160Y551173D01*
X272785Y551840D01*
G01X277160Y550340D02*
Y560340D01*
X280285D01*
X281285Y559840D01*
X281910Y559173D01*
X282160Y557840D01*
X281910Y556507D01*
X281160Y555673D01*
X280285Y555173D01*
X277160D01*
G01X280285D02*
X282160Y550340D01*
G01X288160Y560340D02*
X291160D01*
G01X289660D02*
Y550340D01*
G01X288160D02*
X291160D01*
G01X297160D02*
Y560340D01*
X300160D01*
X301160Y559840D01*
X301910Y558673D01*
X302160Y557340D01*
X301910Y556007D01*
X301285Y555007D01*
X300160Y554506D01*
X297160D01*
G01X309660Y560340D02*
Y550340D01*
G01X306785Y560340D02*
X312535D01*
G01X318160D02*
X321160D01*
G01X319660D02*
Y550340D01*
G01X318160D02*
X321160D01*
G01X329660D02*
X328660Y550507D01*
X327785Y551173D01*
X327035Y552173D01*
X326535Y553340D01*
X326285Y554673D01*
Y556007D01*
X326535Y557340D01*
X327035Y558507D01*
X327785Y559507D01*
X328660Y560173D01*
X329660Y560340D01*
X330660Y560173D01*
X331535Y559507D01*
X332285Y558507D01*
X332785Y557340D01*
X333035Y556007D01*
Y554673D01*
X332785Y553340D01*
X332285Y552173D01*
X331535Y551173D01*
X330660Y550507D01*
X329660Y550340D01*
G01X336785D02*
Y560340D01*
X342535Y550340D01*
Y560340D01*
G01X258410Y-432160D02*
Y-392160D01*
G01X269785Y-407160D02*
Y-397160D01*
X274535D01*
G01X272785Y-401993D02*
X269785D01*
G01X279535Y-405827D02*
X280535Y-406660D01*
X281660Y-407160D01*
X282660D01*
X283660Y-406660D01*
X284410Y-405827D01*
X284785Y-404660D01*
X284535Y-403494D01*
X283910Y-402493D01*
X282785Y-401827D01*
X281285Y-401493D01*
X280410Y-400827D01*
X280035Y-399660D01*
X280285Y-398493D01*
X280910Y-397660D01*
X281785Y-397160D01*
X282660D01*
X283535Y-397493D01*
X284285Y-398327D01*
G01X294910Y-397993D02*
X294160Y-397493D01*
X293285Y-397160D01*
X292285D01*
X291160Y-397660D01*
X290285Y-398493D01*
X289660Y-399493D01*
X289160Y-401160D01*
X289035Y-402660D01*
X289285Y-404160D01*
X289660Y-405160D01*
X290410Y-406160D01*
X291285Y-406827D01*
X292160Y-407160D01*
X293035D01*
X293910Y-406827D01*
X294660Y-406327D01*
X295285Y-405660D01*
G01X298910Y-407160D02*
Y-397160D01*
X302160Y-405493D01*
X305410Y-397160D01*
Y-407160D01*
G01X319285D02*
Y-397160D01*
X325035Y-407160D01*
Y-397160D01*
G01X332160Y-407160D02*
X331160Y-406993D01*
X330285Y-406327D01*
X329535Y-405327D01*
X329035Y-404160D01*
X328785Y-402827D01*
Y-401493D01*
X329035Y-400160D01*
X329535Y-398993D01*
X330285Y-397993D01*
X331160Y-397327D01*
X332160Y-397160D01*
X333160Y-397327D01*
X334035Y-397993D01*
X334785Y-398993D01*
X335285Y-400160D01*
X335535Y-401493D01*
Y-402827D01*
X335285Y-404160D01*
X334785Y-405327D01*
X334035Y-406327D01*
X333160Y-406993D01*
X332160Y-407160D01*
G01X279660Y-312160D02*
Y-302160D01*
X282660D01*
X283660Y-302660D01*
X284410Y-303827D01*
X284660Y-305160D01*
X284410Y-306493D01*
X283785Y-307493D01*
X282660Y-307994D01*
X279660D01*
G01X289785Y-303827D02*
X290535Y-302827D01*
X291410Y-302327D01*
X292410Y-302160D01*
X293660Y-302493D01*
X294535Y-303327D01*
X294785Y-304327D01*
X294660Y-305327D01*
X294160Y-306160D01*
X291660Y-307827D01*
X290535Y-308993D01*
X289785Y-310660D01*
X289535Y-312160D01*
X294785D01*
G01X302160Y-302160D02*
X301160Y-302493D01*
X300410Y-303327D01*
X299910Y-304327D01*
X299535Y-305660D01*
X299410Y-307160D01*
X299535Y-308660D01*
X299910Y-309993D01*
X300410Y-310994D01*
X301160Y-311827D01*
X302160Y-312160D01*
X303160Y-311827D01*
X303910Y-310994D01*
X304410Y-309993D01*
X304785Y-308660D01*
X304910Y-307160D01*
X304785Y-305660D01*
X304410Y-304327D01*
X303910Y-303327D01*
X303160Y-302493D01*
X302160Y-302160D01*
G01X312160D02*
X311160Y-302493D01*
X310410Y-303327D01*
X309910Y-304327D01*
X309535Y-305660D01*
X309410Y-307160D01*
X309535Y-308660D01*
X309910Y-309993D01*
X310410Y-310994D01*
X311160Y-311827D01*
X312160Y-312160D01*
X313160Y-311827D01*
X313910Y-310994D01*
X314410Y-309993D01*
X314785Y-308660D01*
X314910Y-307160D01*
X314785Y-305660D01*
X314410Y-304327D01*
X313910Y-303327D01*
X313160Y-302493D01*
X312160Y-302160D01*
G01X322160Y-312160D02*
Y-302160D01*
X320660Y-304160D01*
G01Y-312160D02*
X323660D01*
G01X329785Y-307994D02*
X330660Y-306827D01*
X331410Y-306160D01*
X332410Y-305827D01*
X333285Y-306160D01*
X333910Y-306827D01*
X334410Y-307827D01*
X334535Y-308993D01*
X334410Y-309993D01*
X333910Y-310994D01*
X333160Y-311827D01*
X332285Y-312160D01*
X331285Y-311827D01*
X330410Y-310827D01*
X329910Y-309327D01*
X329785Y-307660D01*
X330035Y-305494D01*
X330410Y-304327D01*
X331035Y-303160D01*
X331910Y-302327D01*
X332785Y-302160D01*
X333660Y-302493D01*
X334285Y-303327D01*
G01X349660Y-312160D02*
Y-302160D01*
X352785D01*
X353785Y-302660D01*
X354410Y-303327D01*
X354660Y-304660D01*
X354410Y-305993D01*
X353660Y-306827D01*
X352785Y-307327D01*
X349660D01*
G01X352785D02*
X354660Y-312160D01*
G01X360660Y-302160D02*
X363660D01*
G01X362160D02*
Y-312160D01*
G01X360660D02*
X363660D01*
G01X372160Y-302160D02*
Y-312160D01*
G01X369285Y-302160D02*
X375035D01*
G01X388910Y-312160D02*
Y-302160D01*
X392160Y-310493D01*
X395410Y-302160D01*
Y-312160D01*
G01X399535Y-310827D02*
X400535Y-311660D01*
X401660Y-312160D01*
X402660D01*
X403660Y-311660D01*
X404410Y-310827D01*
X404785Y-309660D01*
X404535Y-308494D01*
X403910Y-307493D01*
X402785Y-306827D01*
X401285Y-306493D01*
X400410Y-305827D01*
X400035Y-304660D01*
X400285Y-303493D01*
X400910Y-302660D01*
X401785Y-302160D01*
X402660D01*
X403535Y-302493D01*
X404285Y-303327D01*
G01X409410Y-312160D02*
Y-302160D01*
X411910D01*
X412910Y-302660D01*
X413660Y-303327D01*
X414285Y-304327D01*
X414785Y-305494D01*
X414910Y-307160D01*
X414785Y-308827D01*
X414285Y-309993D01*
X413660Y-310994D01*
X412910Y-311660D01*
X411910Y-312160D01*
X409410D01*
G01X298410Y-432160D02*
Y-462160D01*
G01X342160Y580340D02*
Y590340D01*
X345285D01*
X346285Y589840D01*
X346910Y589173D01*
X347160Y587840D01*
X346910Y586507D01*
X346160Y585673D01*
X345285Y585173D01*
X342160D01*
G01X345285D02*
X347160Y580340D01*
G01X357160D02*
X352160D01*
Y590340D01*
X357160D01*
G01X355160Y585507D02*
X352160D01*
G01X361535Y590340D02*
X364660Y580340D01*
X367785Y590340D01*
G01X373160D02*
X376160D01*
G01X374660D02*
Y580340D01*
G01X373160D02*
X376160D01*
G01X382035Y581673D02*
X383035Y580840D01*
X384160Y580340D01*
X385160D01*
X386160Y580840D01*
X386910Y581673D01*
X387285Y582840D01*
X387035Y584006D01*
X386410Y585007D01*
X385285Y585673D01*
X383785Y586007D01*
X382910Y586673D01*
X382535Y587840D01*
X382785Y589007D01*
X383410Y589840D01*
X384285Y590340D01*
X385160D01*
X386035Y590007D01*
X386785Y589173D01*
G01X393160Y590340D02*
X396160D01*
G01X394660D02*
Y580340D01*
G01X393160D02*
X396160D01*
G01X404660D02*
X403660Y580507D01*
X402785Y581173D01*
X402035Y582173D01*
X401535Y583340D01*
X401285Y584673D01*
Y586007D01*
X401535Y587340D01*
X402035Y588507D01*
X402785Y589507D01*
X403660Y590173D01*
X404660Y590340D01*
X405660Y590173D01*
X406535Y589507D01*
X407285Y588507D01*
X407785Y587340D01*
X408035Y586007D01*
Y584673D01*
X407785Y583340D01*
X407285Y582173D01*
X406535Y581173D01*
X405660Y580507D01*
X404660Y580340D01*
G01X411785D02*
Y590340D01*
X417535Y580340D01*
Y590340D01*
G01X422035Y581673D02*
X423035Y580840D01*
X424160Y580340D01*
X425160D01*
X426160Y580840D01*
X426910Y581673D01*
X427285Y582840D01*
X427035Y584006D01*
X426410Y585007D01*
X425285Y585673D01*
X423785Y586007D01*
X422910Y586673D01*
X422535Y587840D01*
X422785Y589007D01*
X423410Y589840D01*
X424285Y590340D01*
X425160D01*
X426035Y590007D01*
X426785Y589173D01*
G01X378410Y-432160D02*
Y-392160D01*
G01X389410Y-407160D02*
Y-397160D01*
X391910D01*
X392910Y-397660D01*
X393660Y-398327D01*
X394285Y-399327D01*
X394785Y-400494D01*
X394910Y-402160D01*
X394785Y-403827D01*
X394285Y-404993D01*
X393660Y-405994D01*
X392910Y-406660D01*
X391910Y-407160D01*
X389410D01*
G01X398410Y-397160D02*
X400160Y-407160D01*
X402160Y-397160D01*
X404160Y-407160D01*
X405910Y-397160D01*
G01X412910Y-402160D02*
X415410D01*
Y-405160D01*
X414660Y-406160D01*
X413785Y-406827D01*
X412535Y-407160D01*
X411285Y-406827D01*
X410410Y-406160D01*
X409660Y-405160D01*
X409160Y-403993D01*
X408910Y-402660D01*
Y-401493D01*
X409160Y-400494D01*
X409660Y-399327D01*
X410410Y-398327D01*
X411160Y-397660D01*
X412160Y-397160D01*
X413035D01*
X414035Y-397493D01*
X414785Y-398160D01*
G01X429285Y-407160D02*
Y-397160D01*
X435035Y-407160D01*
Y-397160D01*
G01X442160Y-407160D02*
X441160Y-406993D01*
X440285Y-406327D01*
X439535Y-405327D01*
X439035Y-404160D01*
X438785Y-402827D01*
Y-401493D01*
X439035Y-400160D01*
X439535Y-398993D01*
X440285Y-397993D01*
X441160Y-397327D01*
X442160Y-397160D01*
X443160Y-397327D01*
X444035Y-397993D01*
X444785Y-398993D01*
X445285Y-400160D01*
X445535Y-401493D01*
Y-402827D01*
X445285Y-404160D01*
X444785Y-405327D01*
X444035Y-406327D01*
X443160Y-406993D01*
X442160Y-407160D01*
G01X435910Y510340D02*
Y480340D01*
G01Y500340D02*
Y540340D01*
G01D02*
Y570340D01*
G01X458410Y-462160D02*
Y-432160D01*
X628410D01*
G01X469535Y-445827D02*
X470535Y-446660D01*
X471660Y-447160D01*
X472660D01*
X473660Y-446660D01*
X474410Y-445827D01*
X474785Y-444660D01*
X474535Y-443494D01*
X473910Y-442493D01*
X472785Y-441827D01*
X471285Y-441493D01*
X470410Y-440827D01*
X470035Y-439660D01*
X470285Y-438493D01*
X470910Y-437660D01*
X471785Y-437160D01*
X472660D01*
X473535Y-437493D01*
X474285Y-438327D01*
G01X479535Y-447160D02*
Y-437160D01*
G01X484785D02*
Y-447160D01*
G01Y-442160D02*
X479535D01*
G01X494660Y-447160D02*
X489660D01*
Y-437160D01*
X494660D01*
G01X492660Y-441993D02*
X489660D01*
G01X504660Y-447160D02*
X499660D01*
Y-437160D01*
X504660D01*
G01X502660Y-441993D02*
X499660D01*
G01X512160Y-437160D02*
Y-447160D01*
G01X509285Y-437160D02*
X515035D01*
G01X461910Y550340D02*
Y560340D01*
X464410D01*
X465410Y559840D01*
X466160Y559173D01*
X466785Y558173D01*
X467285Y557006D01*
X467410Y555340D01*
X467285Y553673D01*
X466785Y552507D01*
X466160Y551506D01*
X465410Y550840D01*
X464410Y550340D01*
X461910D01*
G01X471535D02*
X474660Y560340D01*
X477785Y550340D01*
G01X476660Y553840D02*
X472660D01*
G01X484660Y560340D02*
Y550340D01*
G01X481785Y560340D02*
X487535D01*
G01X497160Y550340D02*
X492160D01*
Y560340D01*
X497160D01*
G01X495160Y555507D02*
X492160D01*
G01X525910Y510340D02*
Y480340D01*
G01Y510340D02*
Y540340D01*
G01D02*
Y570340D01*
G01X536535Y550340D02*
X539660Y560340D01*
X542785Y550340D01*
G01X541660Y553840D02*
X537660D01*
G01X547160Y550340D02*
Y560340D01*
X550160D01*
X551160Y559840D01*
X551910Y558673D01*
X552160Y557340D01*
X551910Y556007D01*
X551285Y555007D01*
X550160Y554506D01*
X547160D01*
G01X557160Y550340D02*
Y560340D01*
X560160D01*
X561160Y559840D01*
X561910Y558673D01*
X562160Y557340D01*
X561910Y556007D01*
X561285Y555007D01*
X560160Y554506D01*
X557160D01*
G01X567160Y550340D02*
Y560340D01*
X570285D01*
X571285Y559840D01*
X571910Y559173D01*
X572160Y557840D01*
X571910Y556507D01*
X571160Y555673D01*
X570285Y555173D01*
X567160D01*
G01X570285D02*
X572160Y550340D01*
G01X579660D02*
X578660Y550507D01*
X577785Y551173D01*
X577035Y552173D01*
X576535Y553340D01*
X576285Y554673D01*
Y556007D01*
X576535Y557340D01*
X577035Y558507D01*
X577785Y559507D01*
X578660Y560173D01*
X579660Y560340D01*
X580660Y560173D01*
X581535Y559507D01*
X582285Y558507D01*
X582785Y557340D01*
X583035Y556007D01*
Y554673D01*
X582785Y553340D01*
X582285Y552173D01*
X581535Y551173D01*
X580660Y550507D01*
X579660Y550340D01*
G01X586535Y560340D02*
X589660Y550340D01*
X592785Y560340D01*
G01X602160Y550340D02*
X597160D01*
Y560340D01*
X602160D01*
G01X600160Y555507D02*
X597160D01*
G01X606910Y550340D02*
Y560340D01*
X609410D01*
X610410Y559840D01*
X611160Y559173D01*
X611785Y558173D01*
X612285Y557006D01*
X612410Y555340D01*
X612285Y553673D01*
X611785Y552507D01*
X611160Y551506D01*
X610410Y550840D01*
X609410Y550340D01*
X606910D01*
G01X625910Y595340D02*
Y475340D01*
G54D12*
X3941Y73350D03*
X25589Y67730D03*
X20471D03*
X20421Y61590D03*
X25539D03*
X9059Y73350D03*
X36001Y49730D03*
X41119D03*
X30551Y133740D03*
X35669D03*
X47741Y156480D03*
X44341Y163110D03*
X55759Y73290D03*
X50641D03*
X52859Y156480D03*
X49459Y163110D03*
X75269Y67620D03*
X70151D03*
X70141Y61830D03*
X75259D03*
G54D22*
G01X2968Y64105D02*
Y66035D01*
G01X4732D02*
Y64105D01*
G01X1218Y114605D02*
Y116535D01*
G01X2982D02*
Y114605D01*
G01X1068Y155995D02*
Y157925D01*
G01X2832D02*
Y155995D01*
G01X2842Y181825D02*
Y179895D01*
G01X1078D02*
Y181825D01*
G01X18092Y24805D02*
Y22875D01*
G01X16328D02*
Y24805D01*
G01X8408Y22805D02*
Y24735D01*
G01X10172D02*
Y22805D01*
G01X22478Y38375D02*
Y40305D01*
G01X24242D02*
Y38375D01*
G01X22065Y68612D02*
X23995D01*
G01Y66848D02*
X22065D01*
G01X13448Y63285D02*
Y65215D01*
G01X15212D02*
Y63285D01*
G01X23945Y60708D02*
X22015D01*
G01Y62472D02*
X23945D01*
G01X7465Y72468D02*
X5535D01*
G01Y74232D02*
X7465D01*
G01X19668Y114595D02*
Y116525D01*
G01X21432D02*
Y114595D01*
G01X6068Y114625D02*
Y116555D01*
G01X7832D02*
Y114625D01*
G01X24518Y114585D02*
Y116515D01*
G01X21302Y181785D02*
Y179855D01*
G01X19538D02*
Y181785D01*
G01X24408Y179865D02*
Y181795D01*
G01X7692Y181825D02*
Y179895D01*
G01X5928D02*
Y181825D01*
G01X46530Y30010D02*
Y22510D01*
G01D02*
X30530D01*
G01D02*
Y30010D01*
G01X39525Y48848D02*
X37595D01*
G01X30530Y30010D02*
X46530D01*
G01X37595Y50612D02*
X39525D01*
G01X34075Y132858D02*
X32145D01*
G01X26282Y116515D02*
Y114585D01*
G01X32145Y134622D02*
X34075D01*
G01X47865Y162228D02*
X45935D01*
G01Y163992D02*
X47865D01*
G01X26172Y181795D02*
Y179865D01*
G01X41032Y188285D02*
Y186355D01*
G01X39268D02*
Y188285D01*
G01X40982Y203495D02*
Y201565D01*
G01X39218D02*
Y203495D01*
G01X67542Y26065D02*
Y24135D01*
G01X65778D02*
Y26065D01*
G01X57818Y24135D02*
Y26065D01*
G01X59582D02*
Y24135D01*
G01X62558Y63525D02*
Y65455D01*
G01X64322D02*
Y63525D01*
G01X54858Y63595D02*
Y65525D01*
G01X56622D02*
Y63595D01*
G01X52235Y74172D02*
X54165D01*
G01Y72408D02*
X52235D01*
G01X53668Y114415D02*
Y116345D01*
G01X55432D02*
Y114415D01*
G01X58478D02*
Y116345D01*
G01X60242D02*
Y114415D01*
G01X51265Y155598D02*
X49335D01*
G01Y157362D02*
X51265D01*
G01X55512Y182135D02*
Y180205D01*
G01X53748D02*
Y182135D01*
G01X60392Y182115D02*
Y180185D01*
G01X58628D02*
Y182115D01*
G01X71588Y38405D02*
Y40335D01*
G01X73352D02*
Y38405D01*
G01X71745Y68502D02*
X73675D01*
G01Y66738D02*
X71745D01*
G01X73665Y60948D02*
X71735D01*
G01Y62712D02*
X73665D01*
G01X72088Y114415D02*
Y116345D01*
G01X73852D02*
Y114415D01*
G01X77148Y129945D02*
Y131875D01*
G01X78912D02*
Y129945D01*
G01X76958Y114415D02*
Y116345D01*
G01X78722D02*
Y114415D01*
G01X78792Y182145D02*
Y180215D01*
G01X77028D02*
Y182145D01*
G01X73962Y182165D02*
Y180235D01*
G01X72198D02*
Y182165D01*
G54D13*
X5700Y125941D03*
Y128500D03*
Y131060D03*
Y133619D03*
X21800D03*
Y131060D03*
Y128500D03*
Y125941D03*
X9330Y162771D03*
Y165330D03*
Y167890D03*
Y170449D03*
X25430D03*
Y167890D03*
Y165330D03*
Y162771D03*
X70620Y133469D03*
Y130910D03*
Y128350D03*
Y125791D03*
X54520D03*
Y128350D03*
Y130910D03*
Y133469D03*
X58240Y163091D03*
Y165650D03*
Y168210D03*
Y170769D03*
X74340D03*
Y168210D03*
Y165650D03*
Y163091D03*
G54D14*
X5057Y226630D03*
X10211Y6160D03*
X18085D03*
X25959D03*
X12931Y226630D03*
X20805D03*
X33833Y6160D03*
X41707D03*
X28679Y226630D03*
X36553D03*
X44427D03*
X49581Y6160D03*
X57455D03*
X65329D03*
X52301Y226630D03*
X60175D03*
X68049D03*
X75923D03*
G54D15*
X16869Y36770D03*
X14310D03*
X11750D03*
X9191D03*
Y52870D03*
X11750D03*
X14310D03*
X16869D03*
X66009Y36810D03*
X63450D03*
X60890D03*
X58331D03*
Y52910D03*
X60890D03*
X63450D03*
X66009D03*
G54D16*
X42730Y26260D03*
X34330D03*
G54D17*
X41119Y34795D03*
X38560D03*
X36001D03*
Y43645D03*
X38560D03*
X41119D03*
G54D18*
X40731Y152281D03*
X41845Y151168D03*
X42958Y150055D03*
X44071Y148941D03*
X37529Y142399D03*
X36415Y143512D03*
X35302Y144625D03*
X34189Y145739D03*
G54D19*
X42958Y146853D03*
X41844Y145739D03*
X40731Y144626D03*
X39617Y143512D03*
X35302Y147827D03*
X36416Y148941D03*
X37529Y150054D03*
M02*
