G04 ================== begin FILE IDENTIFICATION RECORD ==================*
G04 Layout Name:  msd_foot_main.brd*
G04 Film Name:    FAB*
G04 File Format:  Gerber RS274X*
G04 File Origin:  Cadence Allegro 17.2-S071*
G04 Origin Date:  Wed Nov 25 01:49:06 2020*
G04 *
G04 Layer:  MANUFACTURING/XSECTION_CHART*
G04 Layer:  DRAWING FORMAT/TITLE_DATA*
G04 Layer:  DRAWING FORMAT/TITLE_BLOCK*
G04 Layer:  DRAWING FORMAT/REVISION_DATA*
G04 Layer:  DRAWING FORMAT/REVISION_BLOCK*
G04 Layer:  DRAWING FORMAT/OUTLINE*
G04 Layer:  DRAWING FORMAT/DRAWING_ORIGIN*
G04 Layer:  BOARD GEOMETRY/DIMENSION*
G04 Layer:  BOARD GEOMETRY/DESIGN_OUTLINE*
G04 *
G04 Offset:    (0.00 0.00)*
G04 Mirror:    No*
G04 Mode:      Positive*
G04 Rotation:  0*
G04 FullContactRelief:  No*
G04 UndefLineWidth:     5.00*
G04 ================== end FILE IDENTIFICATION RECORD ====================*
%FSLAX25Y25*MOIN*%
%IR0*IPPOS*OFA0.00000B0.00000*MIA0B0*SFA1.00000B1.00000*%
%AMMACRO10*
1,1,.005,.025,0.0*
20,1,.005,.025,0.0,-.025,0.0,0.0*
1,1,.005,-.025,0.0*
1,1,.005,0.0,.025*
20,1,.005,0.0,.025,0.0,-.025,0.0*
1,1,.005,0.0,-.025*
%
%ADD10MACRO10*%
%ADD11C,.005*%
G75*
%LPD*%
G75*
G36*
G01X313380Y193948D02*
Y170908D01*
X315880D01*
Y17308D01*
X313380D01*
Y-5732D01*
X328380D01*
Y17308D01*
X325880D01*
Y170908D01*
X328380D01*
Y193948D01*
X313380D01*
G37*
G36*
G01X293380Y-5732D02*
Y17308D01*
X353380D01*
Y-5732D01*
X293380D01*
G37*
G36*
G01Y170908D02*
Y193948D01*
X353380D01*
Y170908D01*
X293380D01*
G37*
G54D10*
X0Y0D03*
G54D11*
G01X-167590Y-496660D02*
Y632340D01*
X644410D01*
Y-496660D01*
X-167590D01*
G01X-152590Y-463660D02*
Y604340D01*
X626410D01*
Y-463660D01*
X-152590D01*
G01X-151590Y-462160D02*
Y-282160D01*
X628410D01*
G01X-143393Y-404660D02*
Y-399660D01*
X-140987D01*
G01X-141873Y-402077D02*
X-143393D01*
G01X-138357Y-404660D02*
Y-399660D01*
X-136773D01*
X-136267Y-399910D01*
X-135950Y-400243D01*
X-135823Y-400910D01*
X-135950Y-401577D01*
X-136330Y-401993D01*
X-136773Y-402243D01*
X-138357D01*
G01X-136773D02*
X-135823Y-404660D01*
G01X-133573D02*
X-131990Y-399660D01*
X-130407Y-404660D01*
G01X-130977Y-402910D02*
X-133003D01*
G01X-125497Y-400077D02*
X-125877Y-399827D01*
X-126320Y-399660D01*
X-126827D01*
X-127397Y-399910D01*
X-127840Y-400327D01*
X-128157Y-400827D01*
X-128410Y-401660D01*
X-128473Y-402410D01*
X-128347Y-403160D01*
X-128157Y-403660D01*
X-127777Y-404160D01*
X-127333Y-404493D01*
X-126890Y-404660D01*
X-126447D01*
X-126003Y-404493D01*
X-125623Y-404243D01*
X-125307Y-403910D01*
G01X-121790Y-399660D02*
Y-404660D01*
G01X-123247Y-399660D02*
X-120333D01*
G01X-117450D02*
X-115930D01*
G01X-116690D02*
Y-404660D01*
G01X-117450D02*
X-115930D01*
G01X-111590D02*
X-112097Y-404577D01*
X-112540Y-404243D01*
X-112920Y-403743D01*
X-113173Y-403160D01*
X-113300Y-402493D01*
Y-401827D01*
X-113173Y-401160D01*
X-112920Y-400577D01*
X-112540Y-400077D01*
X-112097Y-399743D01*
X-111590Y-399660D01*
X-111083Y-399743D01*
X-110640Y-400077D01*
X-110260Y-400577D01*
X-110007Y-401160D01*
X-109880Y-401827D01*
Y-402493D01*
X-110007Y-403160D01*
X-110260Y-403743D01*
X-110640Y-404243D01*
X-111083Y-404577D01*
X-111590Y-404660D01*
G01X-107947D02*
Y-399660D01*
X-105033Y-404660D01*
Y-399660D01*
G01X-102720Y-403993D02*
X-102213Y-404410D01*
X-101643Y-404660D01*
X-101137D01*
X-100630Y-404410D01*
X-100250Y-403993D01*
X-100060Y-403410D01*
X-100187Y-402827D01*
X-100503Y-402327D01*
X-101073Y-401993D01*
X-101833Y-401827D01*
X-102277Y-401493D01*
X-102467Y-400910D01*
X-102340Y-400327D01*
X-102023Y-399910D01*
X-101580Y-399660D01*
X-101137D01*
X-100693Y-399827D01*
X-100313Y-400243D01*
G01X-91887Y-402993D02*
X-90367D01*
G01X-91190Y-401910D02*
Y-404077D01*
G01X-143773Y-389660D02*
X-142190Y-384660D01*
X-140607Y-389660D01*
G01X-141177Y-387910D02*
X-143203D01*
G01X-138547Y-389660D02*
Y-384660D01*
X-135633Y-389660D01*
Y-384660D01*
G01X-131610Y-387160D02*
X-130343D01*
Y-388660D01*
X-130723Y-389160D01*
X-131167Y-389493D01*
X-131800Y-389660D01*
X-132433Y-389493D01*
X-132877Y-389160D01*
X-133257Y-388660D01*
X-133510Y-388077D01*
X-133637Y-387410D01*
Y-386827D01*
X-133510Y-386327D01*
X-133257Y-385743D01*
X-132877Y-385243D01*
X-132497Y-384910D01*
X-131990Y-384660D01*
X-131547D01*
X-131040Y-384827D01*
X-130660Y-385160D01*
G01X-128157Y-384660D02*
Y-389660D01*
X-125623D01*
G01X-120523D02*
X-123057D01*
Y-384660D01*
X-120523D01*
G01X-121537Y-387077D02*
X-123057D01*
G01X-118020Y-388993D02*
X-117513Y-389410D01*
X-116943Y-389660D01*
X-116437D01*
X-115930Y-389410D01*
X-115550Y-388993D01*
X-115360Y-388410D01*
X-115487Y-387827D01*
X-115803Y-387327D01*
X-116373Y-386993D01*
X-117133Y-386827D01*
X-117577Y-386493D01*
X-117767Y-385910D01*
X-117640Y-385327D01*
X-117323Y-384910D01*
X-116880Y-384660D01*
X-116437D01*
X-115993Y-384827D01*
X-115613Y-385243D01*
G01X-107187Y-387993D02*
X-105667D01*
G01X-106490Y-386910D02*
Y-389077D01*
G01X-143583Y-373660D02*
X-143203Y-374243D01*
X-142697Y-374577D01*
X-142127Y-374660D01*
X-141620Y-374577D01*
X-141113Y-374160D01*
X-140797Y-373660D01*
X-140733Y-373160D01*
X-140860Y-372577D01*
X-141303Y-372160D01*
X-141747Y-371993D01*
X-142317D01*
G01X-141747D02*
X-141367Y-371743D01*
X-141050Y-371327D01*
X-140923Y-370827D01*
X-141050Y-370327D01*
X-141367Y-369910D01*
X-141937Y-369660D01*
X-142507Y-369743D01*
X-143077Y-370077D01*
G01X-133257Y-374660D02*
Y-369660D01*
X-131737D01*
X-131230Y-369910D01*
X-130850Y-370493D01*
X-130723Y-371160D01*
X-130850Y-371827D01*
X-131167Y-372327D01*
X-131737Y-372577D01*
X-133257D01*
G01X-128157Y-369660D02*
Y-374660D01*
X-125623D01*
G01X-118083D02*
Y-369660D01*
X-116817D01*
X-116310Y-369910D01*
X-115930Y-370243D01*
X-115613Y-370743D01*
X-115360Y-371327D01*
X-115297Y-372160D01*
X-115360Y-372993D01*
X-115613Y-373577D01*
X-115930Y-374077D01*
X-116310Y-374410D01*
X-116817Y-374660D01*
X-118083D01*
G01X-110323D02*
X-112857D01*
Y-369660D01*
X-110323D01*
G01X-111337Y-372077D02*
X-112857D01*
G01X-105097Y-370077D02*
X-105477Y-369827D01*
X-105920Y-369660D01*
X-106427D01*
X-106997Y-369910D01*
X-107440Y-370327D01*
X-107757Y-370827D01*
X-108010Y-371660D01*
X-108073Y-372410D01*
X-107947Y-373160D01*
X-107757Y-373660D01*
X-107377Y-374160D01*
X-106933Y-374493D01*
X-106490Y-374660D01*
X-106047D01*
X-105603Y-374493D01*
X-105223Y-374243D01*
X-104907Y-373910D01*
G01X-102150Y-369660D02*
X-100630D01*
G01X-101390D02*
Y-374660D01*
G01X-102150D02*
X-100630D01*
G01X-97937D02*
Y-369660D01*
X-96290Y-373827D01*
X-94643Y-369660D01*
Y-374660D01*
G01X-92773D02*
X-91190Y-369660D01*
X-89607Y-374660D01*
G01X-90177Y-372910D02*
X-92203D01*
G01X-87357Y-369660D02*
Y-374660D01*
X-84823D01*
G01X-82320Y-373993D02*
X-81813Y-374410D01*
X-81243Y-374660D01*
X-80737D01*
X-80230Y-374410D01*
X-79850Y-373993D01*
X-79660Y-373410D01*
X-79787Y-372827D01*
X-80103Y-372327D01*
X-80673Y-371993D01*
X-81433Y-371827D01*
X-81877Y-371493D01*
X-82067Y-370910D01*
X-81940Y-370327D01*
X-81623Y-369910D01*
X-81180Y-369660D01*
X-80737D01*
X-80293Y-369827D01*
X-79913Y-370243D01*
G01X-71487Y-372993D02*
X-69967D01*
G01X-70790Y-371910D02*
Y-374077D01*
G01X-143393Y-355493D02*
X-143013Y-354993D01*
X-142570Y-354743D01*
X-142063Y-354660D01*
X-141430Y-354827D01*
X-140987Y-355243D01*
X-140860Y-355743D01*
X-140923Y-356243D01*
X-141177Y-356660D01*
X-142443Y-357493D01*
X-143013Y-358077D01*
X-143393Y-358910D01*
X-143520Y-359660D01*
X-140860D01*
G01X-133257D02*
Y-354660D01*
X-131737D01*
X-131230Y-354910D01*
X-130850Y-355493D01*
X-130723Y-356160D01*
X-130850Y-356827D01*
X-131167Y-357327D01*
X-131737Y-357577D01*
X-133257D01*
G01X-128157Y-354660D02*
Y-359660D01*
X-125623D01*
G01X-118083D02*
Y-354660D01*
X-116817D01*
X-116310Y-354910D01*
X-115930Y-355243D01*
X-115613Y-355743D01*
X-115360Y-356327D01*
X-115297Y-357160D01*
X-115360Y-357993D01*
X-115613Y-358577D01*
X-115930Y-359077D01*
X-116310Y-359410D01*
X-116817Y-359660D01*
X-118083D01*
G01X-110323D02*
X-112857D01*
Y-354660D01*
X-110323D01*
G01X-111337Y-357077D02*
X-112857D01*
G01X-105097Y-355077D02*
X-105477Y-354827D01*
X-105920Y-354660D01*
X-106427D01*
X-106997Y-354910D01*
X-107440Y-355327D01*
X-107757Y-355827D01*
X-108010Y-356660D01*
X-108073Y-357410D01*
X-107947Y-358160D01*
X-107757Y-358660D01*
X-107377Y-359160D01*
X-106933Y-359493D01*
X-106490Y-359660D01*
X-106047D01*
X-105603Y-359493D01*
X-105223Y-359243D01*
X-104907Y-358910D01*
G01X-102150Y-354660D02*
X-100630D01*
G01X-101390D02*
Y-359660D01*
G01X-102150D02*
X-100630D01*
G01X-97937D02*
Y-354660D01*
X-96290Y-358827D01*
X-94643Y-354660D01*
Y-359660D01*
G01X-92773D02*
X-91190Y-354660D01*
X-89607Y-359660D01*
G01X-90177Y-357910D02*
X-92203D01*
G01X-87357Y-354660D02*
Y-359660D01*
X-84823D01*
G01X-82320Y-358993D02*
X-81813Y-359410D01*
X-81243Y-359660D01*
X-80737D01*
X-80230Y-359410D01*
X-79850Y-358993D01*
X-79660Y-358410D01*
X-79787Y-357827D01*
X-80103Y-357327D01*
X-80673Y-356993D01*
X-81433Y-356827D01*
X-81877Y-356493D01*
X-82067Y-355910D01*
X-81940Y-355327D01*
X-81623Y-354910D01*
X-81180Y-354660D01*
X-80737D01*
X-80293Y-354827D01*
X-79913Y-355243D01*
G01X-71487Y-357993D02*
X-69967D01*
G01X-70790Y-356910D02*
Y-359077D01*
G01X-142190Y-339660D02*
Y-344660D01*
G01X-143647Y-339660D02*
X-140733D01*
G01X-137090Y-344660D02*
X-137597Y-344577D01*
X-138040Y-344243D01*
X-138420Y-343743D01*
X-138673Y-343160D01*
X-138800Y-342493D01*
Y-341827D01*
X-138673Y-341160D01*
X-138420Y-340577D01*
X-138040Y-340077D01*
X-137597Y-339743D01*
X-137090Y-339660D01*
X-136583Y-339743D01*
X-136140Y-340077D01*
X-135760Y-340577D01*
X-135507Y-341160D01*
X-135380Y-341827D01*
Y-342493D01*
X-135507Y-343160D01*
X-135760Y-343743D01*
X-136140Y-344243D01*
X-136583Y-344577D01*
X-137090Y-344660D01*
G01X-133257Y-339660D02*
Y-344660D01*
X-130723D01*
G01X-125623D02*
X-128157D01*
Y-339660D01*
X-125623D01*
G01X-126637Y-342077D02*
X-128157D01*
G01X-123057Y-344660D02*
Y-339660D01*
X-121473D01*
X-120967Y-339910D01*
X-120650Y-340243D01*
X-120523Y-340910D01*
X-120650Y-341577D01*
X-121030Y-341993D01*
X-121473Y-342243D01*
X-123057D01*
G01X-121473D02*
X-120523Y-344660D01*
G01X-118273D02*
X-116690Y-339660D01*
X-115107Y-344660D01*
G01X-115677Y-342910D02*
X-117703D01*
G01X-113047Y-344660D02*
Y-339660D01*
X-110133Y-344660D01*
Y-339660D01*
G01X-105097Y-340077D02*
X-105477Y-339827D01*
X-105920Y-339660D01*
X-106427D01*
X-106997Y-339910D01*
X-107440Y-340327D01*
X-107757Y-340827D01*
X-108010Y-341660D01*
X-108073Y-342410D01*
X-107947Y-343160D01*
X-107757Y-343660D01*
X-107377Y-344160D01*
X-106933Y-344493D01*
X-106490Y-344660D01*
X-106047D01*
X-105603Y-344493D01*
X-105223Y-344243D01*
X-104907Y-343910D01*
G01X-100123Y-344660D02*
X-102657D01*
Y-339660D01*
X-100123D01*
G01X-101137Y-342077D02*
X-102657D01*
G01X-97620Y-343993D02*
X-97113Y-344410D01*
X-96543Y-344660D01*
X-96037D01*
X-95530Y-344410D01*
X-95150Y-343993D01*
X-94960Y-343410D01*
X-95087Y-342827D01*
X-95403Y-342327D01*
X-95973Y-341993D01*
X-96733Y-341827D01*
X-97177Y-341493D01*
X-97367Y-340910D01*
X-97240Y-340327D01*
X-96923Y-339910D01*
X-96480Y-339660D01*
X-96037D01*
X-95593Y-339827D01*
X-95213Y-340243D01*
G01X-86090Y-344660D02*
X-86597Y-344577D01*
X-87040Y-344243D01*
X-87420Y-343743D01*
X-87673Y-343160D01*
X-87800Y-342493D01*
Y-341827D01*
X-87673Y-341160D01*
X-87420Y-340577D01*
X-87040Y-340077D01*
X-86597Y-339743D01*
X-86090Y-339660D01*
X-85583Y-339743D01*
X-85140Y-340077D01*
X-84760Y-340577D01*
X-84507Y-341160D01*
X-84380Y-341827D01*
Y-342493D01*
X-84507Y-343160D01*
X-84760Y-343743D01*
X-85140Y-344243D01*
X-85583Y-344577D01*
X-86090Y-344660D01*
G01X-82447D02*
Y-339660D01*
X-79533Y-344660D01*
Y-339660D01*
G01X-75890Y-344827D02*
X-76017Y-344743D01*
Y-344577D01*
X-75890Y-344493D01*
X-75763Y-344577D01*
Y-344743D01*
X-75890Y-344827D01*
G01Y-342577D02*
X-76017Y-342493D01*
Y-342327D01*
X-75890Y-342243D01*
X-75763Y-342327D01*
Y-342493D01*
X-75890Y-342577D01*
G01X-143583Y-327160D02*
Y-322160D01*
X-142317D01*
X-141810Y-322410D01*
X-141430Y-322743D01*
X-141113Y-323243D01*
X-140860Y-323827D01*
X-140797Y-324660D01*
X-140860Y-325493D01*
X-141113Y-326077D01*
X-141430Y-326577D01*
X-141810Y-326910D01*
X-142317Y-327160D01*
X-143583D01*
G01X-137850Y-322160D02*
X-136330D01*
G01X-137090D02*
Y-327160D01*
G01X-137850D02*
X-136330D01*
G01X-133637D02*
Y-322160D01*
X-131990Y-326327D01*
X-130343Y-322160D01*
Y-327160D01*
G01X-125623D02*
X-128157D01*
Y-322160D01*
X-125623D01*
G01X-126637Y-324577D02*
X-128157D01*
G01X-123247Y-327160D02*
Y-322160D01*
X-120333Y-327160D01*
Y-322160D01*
G01X-118020Y-326493D02*
X-117513Y-326910D01*
X-116943Y-327160D01*
X-116437D01*
X-115930Y-326910D01*
X-115550Y-326493D01*
X-115360Y-325910D01*
X-115487Y-325327D01*
X-115803Y-324827D01*
X-116373Y-324493D01*
X-117133Y-324327D01*
X-117577Y-323993D01*
X-117767Y-323410D01*
X-117640Y-322827D01*
X-117323Y-322410D01*
X-116880Y-322160D01*
X-116437D01*
X-115993Y-322327D01*
X-115613Y-322743D01*
G01X-112350Y-322160D02*
X-110830D01*
G01X-111590D02*
Y-327160D01*
G01X-112350D02*
X-110830D01*
G01X-106490D02*
X-106997Y-327077D01*
X-107440Y-326743D01*
X-107820Y-326243D01*
X-108073Y-325660D01*
X-108200Y-324993D01*
Y-324327D01*
X-108073Y-323660D01*
X-107820Y-323077D01*
X-107440Y-322577D01*
X-106997Y-322243D01*
X-106490Y-322160D01*
X-105983Y-322243D01*
X-105540Y-322577D01*
X-105160Y-323077D01*
X-104907Y-323660D01*
X-104780Y-324327D01*
Y-324993D01*
X-104907Y-325660D01*
X-105160Y-326243D01*
X-105540Y-326743D01*
X-105983Y-327077D01*
X-106490Y-327160D01*
G01X-102847D02*
Y-322160D01*
X-99933Y-327160D01*
Y-322160D01*
G01X-97620Y-326493D02*
X-97113Y-326910D01*
X-96543Y-327160D01*
X-96037D01*
X-95530Y-326910D01*
X-95150Y-326493D01*
X-94960Y-325910D01*
X-95087Y-325327D01*
X-95403Y-324827D01*
X-95973Y-324493D01*
X-96733Y-324327D01*
X-97177Y-323993D01*
X-97367Y-323410D01*
X-97240Y-322827D01*
X-96923Y-322410D01*
X-96480Y-322160D01*
X-96037D01*
X-95593Y-322327D01*
X-95213Y-322743D01*
G01X-87673Y-327160D02*
X-86090Y-322160D01*
X-84507Y-327160D01*
G01X-85077Y-325410D02*
X-87103D01*
G01X-82257Y-327160D02*
Y-322160D01*
X-80673D01*
X-80167Y-322410D01*
X-79850Y-322743D01*
X-79723Y-323410D01*
X-79850Y-324077D01*
X-80230Y-324493D01*
X-80673Y-324743D01*
X-82257D01*
G01X-80673D02*
X-79723Y-327160D01*
G01X-74623D02*
X-77157D01*
Y-322160D01*
X-74623D01*
G01X-75637Y-324577D02*
X-77157D01*
G01X-66450Y-322160D02*
X-64930D01*
G01X-65690D02*
Y-327160D01*
G01X-66450D02*
X-64930D01*
G01X-62047D02*
Y-322160D01*
X-59133Y-327160D01*
Y-322160D01*
G01X-51150D02*
X-49630D01*
G01X-50390D02*
Y-327160D01*
G01X-51150D02*
X-49630D01*
G01X-46747D02*
Y-322160D01*
X-43833Y-327160D01*
Y-322160D01*
G01X-38797Y-322577D02*
X-39177Y-322327D01*
X-39620Y-322160D01*
X-40127D01*
X-40697Y-322410D01*
X-41140Y-322827D01*
X-41457Y-323327D01*
X-41710Y-324160D01*
X-41773Y-324910D01*
X-41647Y-325660D01*
X-41457Y-326160D01*
X-41077Y-326660D01*
X-40633Y-326993D01*
X-40190Y-327160D01*
X-39747D01*
X-39303Y-326993D01*
X-38923Y-326743D01*
X-38607Y-326410D01*
G01X-36420Y-327160D02*
Y-322160D01*
G01X-33760D02*
Y-327160D01*
G01Y-324660D02*
X-36420D01*
G01X-28723Y-327160D02*
X-31257D01*
Y-322160D01*
X-28723D01*
G01X-29737Y-324577D02*
X-31257D01*
G01X-26220Y-326493D02*
X-25713Y-326910D01*
X-25143Y-327160D01*
X-24637D01*
X-24130Y-326910D01*
X-23750Y-326493D01*
X-23560Y-325910D01*
X-23687Y-325327D01*
X-24003Y-324827D01*
X-24573Y-324493D01*
X-25333Y-324327D01*
X-25777Y-323993D01*
X-25967Y-323410D01*
X-25840Y-322827D01*
X-25523Y-322410D01*
X-25080Y-322160D01*
X-24637D01*
X-24193Y-322327D01*
X-23813Y-322743D01*
G01X-151590Y-312160D02*
X208410D01*
G01X-143583Y-294660D02*
Y-298243D01*
X-143330Y-298993D01*
X-142823Y-299493D01*
X-142190Y-299660D01*
X-141557Y-299493D01*
X-141050Y-298993D01*
X-140797Y-298243D01*
Y-294660D01*
G01X-138547Y-299660D02*
Y-294660D01*
X-135633Y-299660D01*
Y-294660D01*
G01X-133257D02*
Y-299660D01*
X-130723D01*
G01X-125623D02*
X-128157D01*
Y-294660D01*
X-125623D01*
G01X-126637Y-297077D02*
X-128157D01*
G01X-123120Y-298993D02*
X-122613Y-299410D01*
X-122043Y-299660D01*
X-121537D01*
X-121030Y-299410D01*
X-120650Y-298993D01*
X-120460Y-298410D01*
X-120587Y-297827D01*
X-120903Y-297327D01*
X-121473Y-296993D01*
X-122233Y-296827D01*
X-122677Y-296493D01*
X-122867Y-295910D01*
X-122740Y-295327D01*
X-122423Y-294910D01*
X-121980Y-294660D01*
X-121537D01*
X-121093Y-294827D01*
X-120713Y-295243D01*
G01X-118020Y-298993D02*
X-117513Y-299410D01*
X-116943Y-299660D01*
X-116437D01*
X-115930Y-299410D01*
X-115550Y-298993D01*
X-115360Y-298410D01*
X-115487Y-297827D01*
X-115803Y-297327D01*
X-116373Y-296993D01*
X-117133Y-296827D01*
X-117577Y-296493D01*
X-117767Y-295910D01*
X-117640Y-295327D01*
X-117323Y-294910D01*
X-116880Y-294660D01*
X-116437D01*
X-115993Y-294827D01*
X-115613Y-295243D01*
G01X-106490Y-299660D02*
X-106997Y-299577D01*
X-107440Y-299243D01*
X-107820Y-298743D01*
X-108073Y-298160D01*
X-108200Y-297493D01*
Y-296827D01*
X-108073Y-296160D01*
X-107820Y-295577D01*
X-107440Y-295077D01*
X-106997Y-294743D01*
X-106490Y-294660D01*
X-105983Y-294743D01*
X-105540Y-295077D01*
X-105160Y-295577D01*
X-104907Y-296160D01*
X-104780Y-296827D01*
Y-297493D01*
X-104907Y-298160D01*
X-105160Y-298743D01*
X-105540Y-299243D01*
X-105983Y-299577D01*
X-106490Y-299660D01*
G01X-101390Y-294660D02*
Y-299660D01*
G01X-102847Y-294660D02*
X-99933D01*
G01X-97620Y-299660D02*
Y-294660D01*
G01X-94960D02*
Y-299660D01*
G01Y-297160D02*
X-97620D01*
G01X-89923Y-299660D02*
X-92457D01*
Y-294660D01*
X-89923D01*
G01X-90937Y-297077D02*
X-92457D01*
G01X-87357Y-299660D02*
Y-294660D01*
X-85773D01*
X-85267Y-294910D01*
X-84950Y-295243D01*
X-84823Y-295910D01*
X-84950Y-296577D01*
X-85330Y-296993D01*
X-85773Y-297243D01*
X-87357D01*
G01X-85773D02*
X-84823Y-299660D01*
G01X-82890Y-294660D02*
X-82003Y-299660D01*
X-80990Y-294660D01*
X-79977Y-299660D01*
X-79090Y-294660D01*
G01X-76650D02*
X-75130D01*
G01X-75890D02*
Y-299660D01*
G01X-76650D02*
X-75130D01*
G01X-72120Y-298993D02*
X-71613Y-299410D01*
X-71043Y-299660D01*
X-70537D01*
X-70030Y-299410D01*
X-69650Y-298993D01*
X-69460Y-298410D01*
X-69587Y-297827D01*
X-69903Y-297327D01*
X-70473Y-296993D01*
X-71233Y-296827D01*
X-71677Y-296493D01*
X-71867Y-295910D01*
X-71740Y-295327D01*
X-71423Y-294910D01*
X-70980Y-294660D01*
X-70537D01*
X-70093Y-294827D01*
X-69713Y-295243D01*
G01X-64423Y-299660D02*
X-66957D01*
Y-294660D01*
X-64423D01*
G01X-65437Y-297077D02*
X-66957D01*
G01X-56820Y-298993D02*
X-56313Y-299410D01*
X-55743Y-299660D01*
X-55237D01*
X-54730Y-299410D01*
X-54350Y-298993D01*
X-54160Y-298410D01*
X-54287Y-297827D01*
X-54603Y-297327D01*
X-55173Y-296993D01*
X-55933Y-296827D01*
X-56377Y-296493D01*
X-56567Y-295910D01*
X-56440Y-295327D01*
X-56123Y-294910D01*
X-55680Y-294660D01*
X-55237D01*
X-54793Y-294827D01*
X-54413Y-295243D01*
G01X-51657Y-299660D02*
Y-294660D01*
X-50137D01*
X-49630Y-294910D01*
X-49250Y-295493D01*
X-49123Y-296160D01*
X-49250Y-296827D01*
X-49567Y-297327D01*
X-50137Y-297577D01*
X-51657D01*
G01X-44023Y-299660D02*
X-46557D01*
Y-294660D01*
X-44023D01*
G01X-45037Y-297077D02*
X-46557D01*
G01X-38797Y-295077D02*
X-39177Y-294827D01*
X-39620Y-294660D01*
X-40127D01*
X-40697Y-294910D01*
X-41140Y-295327D01*
X-41457Y-295827D01*
X-41710Y-296660D01*
X-41773Y-297410D01*
X-41647Y-298160D01*
X-41457Y-298660D01*
X-41077Y-299160D01*
X-40633Y-299493D01*
X-40190Y-299660D01*
X-39747D01*
X-39303Y-299493D01*
X-38923Y-299243D01*
X-38607Y-298910D01*
G01X-35850Y-294660D02*
X-34330D01*
G01X-35090D02*
Y-299660D01*
G01X-35850D02*
X-34330D01*
G01X-31193D02*
Y-294660D01*
X-28787D01*
G01X-29673Y-297077D02*
X-31193D01*
G01X-25650Y-294660D02*
X-24130D01*
G01X-24890D02*
Y-299660D01*
G01X-25650D02*
X-24130D01*
G01X-18523D02*
X-21057D01*
Y-294660D01*
X-18523D01*
G01X-19537Y-297077D02*
X-21057D01*
G01X-16083Y-299660D02*
Y-294660D01*
X-14817D01*
X-14310Y-294910D01*
X-13930Y-295243D01*
X-13613Y-295743D01*
X-13360Y-296327D01*
X-13297Y-297160D01*
X-13360Y-297993D01*
X-13613Y-298577D01*
X-13930Y-299077D01*
X-14310Y-299410D01*
X-14817Y-299660D01*
X-16083D01*
G01X-1590Y-282160D02*
Y-462160D01*
G01Y-427160D02*
X208410D01*
G01X-1590Y-402160D02*
X208410D01*
G01X-1590Y-372160D02*
X208410D01*
G01X-1590Y-342160D02*
X208410D01*
G01X0Y0D02*
Y232950D01*
X80000D01*
Y0D01*
X0D01*
G01Y242950D02*
Y268590D01*
G01X6715Y258590D02*
X0D01*
G01X15000Y261090D02*
X0Y258590D01*
X15000Y256090D01*
Y261090D01*
G01X20740Y251923D02*
X20430Y252132D01*
Y252548D01*
X20740Y252757D01*
X21050Y252548D01*
Y252132D01*
X20740Y251923D01*
G01X33140Y252340D02*
X34225Y252548D01*
X35465Y253173D01*
X36240Y254215D01*
X36550Y255673D01*
X36240Y257131D01*
X35310Y258382D01*
X33915Y259007D01*
X32365D01*
X31435Y259423D01*
X30660Y260465D01*
X30350Y261923D01*
X30815Y263382D01*
X31900Y264423D01*
X33140Y264840D01*
X34380Y264423D01*
X35465Y263382D01*
X35930Y261923D01*
X35620Y260465D01*
X34845Y259423D01*
X33915Y259007D01*
X32365D01*
X30970Y258382D01*
X30040Y257131D01*
X29730Y255673D01*
X30040Y254215D01*
X30815Y253173D01*
X32055Y252548D01*
X33140Y252340D01*
G01X45540Y264840D02*
X44300Y264423D01*
X43370Y263382D01*
X42750Y262132D01*
X42285Y260465D01*
X42130Y258590D01*
X42285Y256715D01*
X42750Y255048D01*
X43370Y253798D01*
X44300Y252757D01*
X45540Y252340D01*
X46780Y252757D01*
X47710Y253798D01*
X48330Y255048D01*
X48795Y256715D01*
X48950Y258590D01*
X48795Y260465D01*
X48330Y262132D01*
X47710Y263382D01*
X46780Y264423D01*
X45540Y264840D01*
G01X41615Y-298820D02*
X42242Y-299345D01*
X42947Y-299660D01*
X43573D01*
X44200Y-299345D01*
X44670Y-298820D01*
X44905Y-298085D01*
X44748Y-297350D01*
X44357Y-296720D01*
X43652Y-296300D01*
X42712Y-296090D01*
X42163Y-295670D01*
X41928Y-294935D01*
X42085Y-294200D01*
X42477Y-293675D01*
X43025Y-293360D01*
X43573D01*
X44122Y-293570D01*
X44592Y-294095D01*
G01X48620Y-293360D02*
X50500D01*
G01X49560D02*
Y-299660D01*
G01X48620D02*
X50500D01*
G01X56330Y-296510D02*
X57897D01*
Y-298400D01*
X57427Y-299030D01*
X56878Y-299450D01*
X56095Y-299660D01*
X55312Y-299450D01*
X54763Y-299030D01*
X54293Y-298400D01*
X53980Y-297665D01*
X53823Y-296825D01*
Y-296090D01*
X53980Y-295460D01*
X54293Y-294725D01*
X54763Y-294095D01*
X55233Y-293675D01*
X55860Y-293360D01*
X56408D01*
X57035Y-293570D01*
X57505Y-293990D01*
G01X60358Y-299660D02*
Y-293360D01*
X63962Y-299660D01*
Y-293360D01*
G01X66502Y-299660D02*
X68460Y-293360D01*
X70418Y-299660D01*
G01X69713Y-297455D02*
X67207D01*
G01X74760Y-293360D02*
Y-299660D01*
G01X72958Y-293360D02*
X76562D01*
G01X79337D02*
Y-297875D01*
X79650Y-298820D01*
X80277Y-299450D01*
X81060Y-299660D01*
X81843Y-299450D01*
X82470Y-298820D01*
X82783Y-297875D01*
Y-293360D01*
G01X85793Y-299660D02*
Y-293360D01*
X87752D01*
X88378Y-293675D01*
X88770Y-294095D01*
X88927Y-294935D01*
X88770Y-295775D01*
X88300Y-296300D01*
X87752Y-296615D01*
X85793D01*
G01X87752D02*
X88927Y-299660D01*
G01X95227D02*
X92093D01*
Y-293360D01*
X95227D01*
G01X93973Y-296405D02*
X92093D01*
G01X98315Y-298820D02*
X98942Y-299345D01*
X99647Y-299660D01*
X100273D01*
X100900Y-299345D01*
X101370Y-298820D01*
X101605Y-298085D01*
X101448Y-297350D01*
X101057Y-296720D01*
X100352Y-296300D01*
X99412Y-296090D01*
X98863Y-295670D01*
X98628Y-294935D01*
X98785Y-294200D01*
X99177Y-293675D01*
X99725Y-293360D01*
X100273D01*
X100822Y-293570D01*
X101292Y-294095D01*
G01X59565Y258590D02*
X80000D01*
G01X65000Y256090D02*
X80000Y258590D01*
X65000Y261090D01*
Y256090D01*
G01X80000Y242950D02*
Y268590D01*
G01X90000Y0D02*
X124710D01*
G01X93165Y115927D02*
X94095Y117176D01*
X95180Y117802D01*
X96420Y118010D01*
X97970Y117593D01*
X99055Y116552D01*
X99365Y115302D01*
X99210Y114051D01*
X98590Y113010D01*
X95490Y110927D01*
X94095Y109468D01*
X93165Y107385D01*
X92855Y105510D01*
X99365D01*
G01X108510Y105093D02*
X108200Y105302D01*
Y105718D01*
X108510Y105927D01*
X108820Y105718D01*
Y105302D01*
X108510Y105093D01*
G01X117500Y108010D02*
X118430Y106551D01*
X119670Y105718D01*
X121065Y105510D01*
X122305Y105718D01*
X123545Y106760D01*
X124320Y108010D01*
X124475Y109260D01*
X124165Y110718D01*
X123080Y111760D01*
X121995Y112177D01*
X120600D01*
G01X121995D02*
X122925Y112802D01*
X123700Y113843D01*
X124010Y115093D01*
X123700Y116343D01*
X122925Y117385D01*
X121530Y118010D01*
X120135Y117802D01*
X118740Y116968D01*
G01X129900Y108010D02*
X130830Y106551D01*
X132070Y105718D01*
X133465Y105510D01*
X134705Y105718D01*
X135945Y106760D01*
X136720Y108010D01*
X136875Y109260D01*
X136565Y110718D01*
X135480Y111760D01*
X134395Y112177D01*
X133000D01*
G01X134395D02*
X135325Y112802D01*
X136100Y113843D01*
X136410Y115093D01*
X136100Y116343D01*
X135325Y117385D01*
X133930Y118010D01*
X132535Y117802D01*
X131140Y116968D01*
G01X90000Y232950D02*
X124710D01*
G01X128410Y-399660D02*
Y-402160D01*
G01Y-399660D02*
Y-282160D01*
G01X114710Y96135D02*
Y0D01*
G01X112210Y15000D02*
X114710Y0D01*
X117210Y15000D01*
X112210D01*
G01X114710Y127385D02*
Y232950D01*
G01X117210Y217950D02*
X114710Y232950D01*
X112210Y217950D01*
X117210D01*
G01X125910Y510340D02*
Y480340D01*
G01Y600340D02*
Y510340D01*
G01X132160Y550340D02*
Y560340D01*
X135285D01*
X136285Y559840D01*
X136910Y559173D01*
X137160Y557840D01*
X136910Y556507D01*
X136160Y555673D01*
X135285Y555173D01*
X132160D01*
G01X135285D02*
X137160Y550340D01*
G01X147160D02*
X142160D01*
Y560340D01*
X147160D01*
G01X145160Y555507D02*
X142160D01*
G01X151535Y560340D02*
X154660Y550340D01*
X157785Y560340D01*
G01X125910Y540340D02*
X625910D01*
G01X125910Y570340D02*
X625910D01*
G01X154037Y-299660D02*
Y-293360D01*
X155603D01*
X156230Y-293675D01*
X156700Y-294095D01*
X157092Y-294725D01*
X157405Y-295460D01*
X157483Y-296510D01*
X157405Y-297560D01*
X157092Y-298295D01*
X156700Y-298925D01*
X156230Y-299345D01*
X155603Y-299660D01*
X154037D01*
G01X160102D02*
X162060Y-293360D01*
X164018Y-299660D01*
G01X163313Y-297455D02*
X160807D01*
G01X168360Y-293360D02*
Y-299660D01*
G01X166558Y-293360D02*
X170162D01*
G01X176227Y-299660D02*
X173093D01*
Y-293360D01*
X176227D01*
G01X174973Y-296405D02*
X173093D01*
G01X165910Y510340D02*
Y480340D01*
G01Y510340D02*
Y570340D01*
G01X208410Y-282160D02*
Y-462160D01*
G01X214535Y-445827D02*
X215535Y-446660D01*
X216660Y-447160D01*
X217660D01*
X218660Y-446660D01*
X219410Y-445827D01*
X219785Y-444660D01*
X219535Y-443494D01*
X218910Y-442493D01*
X217785Y-441827D01*
X216285Y-441493D01*
X215410Y-440827D01*
X215035Y-439660D01*
X215285Y-438493D01*
X215910Y-437660D01*
X216785Y-437160D01*
X217660D01*
X218535Y-437493D01*
X219285Y-438327D01*
G01X229910Y-437993D02*
X229160Y-437493D01*
X228285Y-437160D01*
X227285D01*
X226160Y-437660D01*
X225285Y-438493D01*
X224660Y-439493D01*
X224160Y-441160D01*
X224035Y-442660D01*
X224285Y-444160D01*
X224660Y-445160D01*
X225410Y-446160D01*
X226285Y-446827D01*
X227160Y-447160D01*
X228035D01*
X228910Y-446827D01*
X229660Y-446327D01*
X230285Y-445660D01*
G01X234035Y-447160D02*
X237160Y-437160D01*
X240285Y-447160D01*
G01X239160Y-443660D02*
X235160D01*
G01X244660Y-437160D02*
Y-447160D01*
X249660D01*
G01X259660D02*
X254660D01*
Y-437160D01*
X259660D01*
G01X257660Y-441993D02*
X254660D01*
G01X458410Y-432160D02*
X208410D01*
G01X214535Y-405827D02*
X215535Y-406660D01*
X216660Y-407160D01*
X217660D01*
X218660Y-406660D01*
X219410Y-405827D01*
X219785Y-404660D01*
X219535Y-403494D01*
X218910Y-402493D01*
X217785Y-401827D01*
X216285Y-401493D01*
X215410Y-400827D01*
X215035Y-399660D01*
X215285Y-398493D01*
X215910Y-397660D01*
X216785Y-397160D01*
X217660D01*
X218535Y-397493D01*
X219285Y-398327D01*
G01X225660Y-397160D02*
X228660D01*
G01X227160D02*
Y-407160D01*
G01X225660D02*
X228660D01*
G01X234785Y-397160D02*
X239535D01*
X234785Y-407160D01*
X239535D01*
G01X249660D02*
X244660D01*
Y-397160D01*
X249660D01*
G01X247660Y-401993D02*
X244660D01*
G01X628410Y-392160D02*
X208410D01*
G01X628410Y-332160D02*
X208410D01*
G01X236910Y550340D02*
Y560340D01*
X239410D01*
X240410Y559840D01*
X241160Y559173D01*
X241785Y558173D01*
X242285Y557006D01*
X242410Y555340D01*
X242285Y553673D01*
X241785Y552507D01*
X241160Y551506D01*
X240410Y550840D01*
X239410Y550340D01*
X236910D01*
G01X252160D02*
X247160D01*
Y560340D01*
X252160D01*
G01X250160Y555507D02*
X247160D01*
G01X257035Y551673D02*
X258035Y550840D01*
X259160Y550340D01*
X260160D01*
X261160Y550840D01*
X261910Y551673D01*
X262285Y552840D01*
X262035Y554006D01*
X261410Y555007D01*
X260285Y555673D01*
X258785Y556007D01*
X257910Y556673D01*
X257535Y557840D01*
X257785Y559007D01*
X258410Y559840D01*
X259285Y560340D01*
X260160D01*
X261035Y560007D01*
X261785Y559173D01*
G01X272410Y559507D02*
X271660Y560007D01*
X270785Y560340D01*
X269785D01*
X268660Y559840D01*
X267785Y559007D01*
X267160Y558007D01*
X266660Y556340D01*
X266535Y554840D01*
X266785Y553340D01*
X267160Y552340D01*
X267910Y551340D01*
X268785Y550673D01*
X269660Y550340D01*
X270535D01*
X271410Y550673D01*
X272160Y551173D01*
X272785Y551840D01*
G01X277160Y550340D02*
Y560340D01*
X280285D01*
X281285Y559840D01*
X281910Y559173D01*
X282160Y557840D01*
X281910Y556507D01*
X281160Y555673D01*
X280285Y555173D01*
X277160D01*
G01X280285D02*
X282160Y550340D01*
G01X288160Y560340D02*
X291160D01*
G01X289660D02*
Y550340D01*
G01X288160D02*
X291160D01*
G01X297160D02*
Y560340D01*
X300160D01*
X301160Y559840D01*
X301910Y558673D01*
X302160Y557340D01*
X301910Y556007D01*
X301285Y555007D01*
X300160Y554506D01*
X297160D01*
G01X309660Y560340D02*
Y550340D01*
G01X306785Y560340D02*
X312535D01*
G01X318160D02*
X321160D01*
G01X319660D02*
Y550340D01*
G01X318160D02*
X321160D01*
G01X329660D02*
X328660Y550507D01*
X327785Y551173D01*
X327035Y552173D01*
X326535Y553340D01*
X326285Y554673D01*
Y556007D01*
X326535Y557340D01*
X327035Y558507D01*
X327785Y559507D01*
X328660Y560173D01*
X329660Y560340D01*
X330660Y560173D01*
X331535Y559507D01*
X332285Y558507D01*
X332785Y557340D01*
X333035Y556007D01*
Y554673D01*
X332785Y553340D01*
X332285Y552173D01*
X331535Y551173D01*
X330660Y550507D01*
X329660Y550340D01*
G01X336785D02*
Y560340D01*
X342535Y550340D01*
Y560340D01*
G01X258237Y-24064D02*
Y-19064D01*
X259503D01*
X260010Y-19314D01*
X260390Y-19647D01*
X260707Y-20147D01*
X260960Y-20731D01*
X261023Y-21564D01*
X260960Y-22397D01*
X260707Y-22981D01*
X260390Y-23481D01*
X260010Y-23814D01*
X259503Y-24064D01*
X258237D01*
G01X265997D02*
X263463D01*
Y-19064D01*
X265997D01*
G01X264983Y-21481D02*
X263463D01*
G01X268500Y-23397D02*
X269007Y-23814D01*
X269577Y-24064D01*
X270083D01*
X270590Y-23814D01*
X270970Y-23397D01*
X271160Y-22814D01*
X271033Y-22231D01*
X270717Y-21731D01*
X270147Y-21397D01*
X269387Y-21231D01*
X268943Y-20897D01*
X268753Y-20314D01*
X268880Y-19731D01*
X269197Y-19314D01*
X269640Y-19064D01*
X270083D01*
X270527Y-19231D01*
X270907Y-19647D01*
G01X274170Y-19064D02*
X275690D01*
G01X274930D02*
Y-24064D01*
G01X274170D02*
X275690D01*
G01X280410Y-21564D02*
X281677D01*
Y-23064D01*
X281297Y-23564D01*
X280853Y-23897D01*
X280220Y-24064D01*
X279587Y-23897D01*
X279143Y-23564D01*
X278763Y-23064D01*
X278510Y-22481D01*
X278383Y-21814D01*
Y-21231D01*
X278510Y-20731D01*
X278763Y-20147D01*
X279143Y-19647D01*
X279523Y-19314D01*
X280030Y-19064D01*
X280473D01*
X280980Y-19231D01*
X281360Y-19564D01*
G01X283673Y-24064D02*
Y-19064D01*
X286587Y-24064D01*
Y-19064D01*
G01X296723Y-19481D02*
X296343Y-19231D01*
X295900Y-19064D01*
X295393D01*
X294823Y-19314D01*
X294380Y-19731D01*
X294063Y-20231D01*
X293810Y-21064D01*
X293747Y-21814D01*
X293873Y-22564D01*
X294063Y-23064D01*
X294443Y-23564D01*
X294887Y-23897D01*
X295330Y-24064D01*
X295773D01*
X296217Y-23897D01*
X296597Y-23647D01*
X296913Y-23314D01*
G01X299163Y-24064D02*
Y-19064D01*
X300747D01*
X301253Y-19314D01*
X301570Y-19647D01*
X301697Y-20314D01*
X301570Y-20981D01*
X301190Y-21397D01*
X300747Y-21647D01*
X299163D01*
G01X300747D02*
X301697Y-24064D01*
G01X305530D02*
X305023Y-23981D01*
X304580Y-23647D01*
X304200Y-23147D01*
X303947Y-22564D01*
X303820Y-21897D01*
Y-21231D01*
X303947Y-20564D01*
X304200Y-19981D01*
X304580Y-19481D01*
X305023Y-19147D01*
X305530Y-19064D01*
X306037Y-19147D01*
X306480Y-19481D01*
X306860Y-19981D01*
X307113Y-20564D01*
X307240Y-21231D01*
Y-21897D01*
X307113Y-22564D01*
X306860Y-23147D01*
X306480Y-23647D01*
X306037Y-23981D01*
X305530Y-24064D01*
G01X309300Y-23397D02*
X309807Y-23814D01*
X310377Y-24064D01*
X310883D01*
X311390Y-23814D01*
X311770Y-23397D01*
X311960Y-22814D01*
X311833Y-22231D01*
X311517Y-21731D01*
X310947Y-21397D01*
X310187Y-21231D01*
X309743Y-20897D01*
X309553Y-20314D01*
X309680Y-19731D01*
X309997Y-19314D01*
X310440Y-19064D01*
X310883D01*
X311327Y-19231D01*
X311707Y-19647D01*
G01X314400Y-23397D02*
X314907Y-23814D01*
X315477Y-24064D01*
X315983D01*
X316490Y-23814D01*
X316870Y-23397D01*
X317060Y-22814D01*
X316933Y-22231D01*
X316617Y-21731D01*
X316047Y-21397D01*
X315287Y-21231D01*
X314843Y-20897D01*
X314653Y-20314D01*
X314780Y-19731D01*
X315097Y-19314D01*
X315540Y-19064D01*
X315983D01*
X316427Y-19231D01*
X316807Y-19647D01*
G01X324600Y-23397D02*
X325107Y-23814D01*
X325677Y-24064D01*
X326183D01*
X326690Y-23814D01*
X327070Y-23397D01*
X327260Y-22814D01*
X327133Y-22231D01*
X326817Y-21731D01*
X326247Y-21397D01*
X325487Y-21231D01*
X325043Y-20897D01*
X324853Y-20314D01*
X324980Y-19731D01*
X325297Y-19314D01*
X325740Y-19064D01*
X326183D01*
X326627Y-19231D01*
X327007Y-19647D01*
G01X332297Y-24064D02*
X329763D01*
Y-19064D01*
X332297D01*
G01X331283Y-21481D02*
X329763D01*
G01X337523Y-19481D02*
X337143Y-19231D01*
X336700Y-19064D01*
X336193D01*
X335623Y-19314D01*
X335180Y-19731D01*
X334863Y-20231D01*
X334610Y-21064D01*
X334547Y-21814D01*
X334673Y-22564D01*
X334863Y-23064D01*
X335243Y-23564D01*
X335687Y-23897D01*
X336130Y-24064D01*
X336573D01*
X337017Y-23897D01*
X337397Y-23647D01*
X337713Y-23314D01*
G01X341230Y-19064D02*
Y-24064D01*
G01X339773Y-19064D02*
X342687D01*
G01X345570D02*
X347090D01*
G01X346330D02*
Y-24064D01*
G01X345570D02*
X347090D01*
G01X351430D02*
X350923Y-23981D01*
X350480Y-23647D01*
X350100Y-23147D01*
X349847Y-22564D01*
X349720Y-21897D01*
Y-21231D01*
X349847Y-20564D01*
X350100Y-19981D01*
X350480Y-19481D01*
X350923Y-19147D01*
X351430Y-19064D01*
X351937Y-19147D01*
X352380Y-19481D01*
X352760Y-19981D01*
X353013Y-20564D01*
X353140Y-21231D01*
Y-21897D01*
X353013Y-22564D01*
X352760Y-23147D01*
X352380Y-23647D01*
X351937Y-23981D01*
X351430Y-24064D01*
G01X355073D02*
Y-19064D01*
X357987Y-24064D01*
Y-19064D01*
G01X368123Y-19481D02*
X367743Y-19231D01*
X367300Y-19064D01*
X366793D01*
X366223Y-19314D01*
X365780Y-19731D01*
X365463Y-20231D01*
X365210Y-21064D01*
X365147Y-21814D01*
X365273Y-22564D01*
X365463Y-23064D01*
X365843Y-23564D01*
X366287Y-23897D01*
X366730Y-24064D01*
X367173D01*
X367617Y-23897D01*
X367997Y-23647D01*
X368313Y-23314D01*
G01X370500Y-24064D02*
Y-19064D01*
G01X373160D02*
Y-24064D01*
G01Y-21564D02*
X370500D01*
G01X375347Y-24064D02*
X376930Y-19064D01*
X378513Y-24064D01*
G01X377943Y-22314D02*
X375917D01*
G01X380763Y-24064D02*
Y-19064D01*
X382347D01*
X382853Y-19314D01*
X383170Y-19647D01*
X383297Y-20314D01*
X383170Y-20981D01*
X382790Y-21397D01*
X382347Y-21647D01*
X380763D01*
G01X382347D02*
X383297Y-24064D01*
G01X387130Y-19064D02*
Y-24064D01*
G01X385673Y-19064D02*
X388587D01*
G01X255180Y-25731D02*
X258980D01*
G01X260280D02*
X264080D01*
G01X265380D02*
X269180D01*
G01X270480D02*
X274280D01*
G01X275580D02*
X279380D01*
G01X280680D02*
X284480D01*
G01X285780D02*
X289580D01*
G01X290880D02*
X294680D01*
G01X295980D02*
X299780D01*
G01X301080D02*
X304880D01*
G01X306180D02*
X309980D01*
G01X311280D02*
X315080D01*
G01X316380D02*
X320180D01*
G01X321480D02*
X325280D01*
G01X326580D02*
X330380D01*
G01X331680D02*
X335480D01*
G01X336780D02*
X340580D01*
G01X341880D02*
X345680D01*
G01X346980D02*
X350780D01*
G01X352080D02*
X355880D01*
G01X357180D02*
X360980D01*
G01X362280D02*
X366080D01*
G01X367380D02*
X371180D01*
G01X372480D02*
X376280D01*
G01X377580D02*
X381380D01*
G01X382680D02*
X386480D01*
G01X387780D02*
X391580D01*
G01X258410Y-432160D02*
Y-392160D01*
G01X269785Y-407160D02*
Y-397160D01*
X274535D01*
G01X272785Y-401993D02*
X269785D01*
G01X279535Y-405827D02*
X280535Y-406660D01*
X281660Y-407160D01*
X282660D01*
X283660Y-406660D01*
X284410Y-405827D01*
X284785Y-404660D01*
X284535Y-403494D01*
X283910Y-402493D01*
X282785Y-401827D01*
X281285Y-401493D01*
X280410Y-400827D01*
X280035Y-399660D01*
X280285Y-398493D01*
X280910Y-397660D01*
X281785Y-397160D01*
X282660D01*
X283535Y-397493D01*
X284285Y-398327D01*
G01X294910Y-397993D02*
X294160Y-397493D01*
X293285Y-397160D01*
X292285D01*
X291160Y-397660D01*
X290285Y-398493D01*
X289660Y-399493D01*
X289160Y-401160D01*
X289035Y-402660D01*
X289285Y-404160D01*
X289660Y-405160D01*
X290410Y-406160D01*
X291285Y-406827D01*
X292160Y-407160D01*
X293035D01*
X293910Y-406827D01*
X294660Y-406327D01*
X295285Y-405660D01*
G01X298910Y-407160D02*
Y-397160D01*
X302160Y-405493D01*
X305410Y-397160D01*
Y-407160D01*
G01X319285D02*
Y-397160D01*
X325035Y-407160D01*
Y-397160D01*
G01X332160Y-407160D02*
X331160Y-406993D01*
X330285Y-406327D01*
X329535Y-405327D01*
X329035Y-404160D01*
X328785Y-402827D01*
Y-401493D01*
X329035Y-400160D01*
X329535Y-398993D01*
X330285Y-397993D01*
X331160Y-397327D01*
X332160Y-397160D01*
X333160Y-397327D01*
X334035Y-397993D01*
X334785Y-398993D01*
X335285Y-400160D01*
X335535Y-401493D01*
Y-402827D01*
X335285Y-404160D01*
X334785Y-405327D01*
X334035Y-406327D01*
X333160Y-406993D01*
X332160Y-407160D01*
G01X279660Y-312160D02*
Y-302160D01*
X282660D01*
X283660Y-302660D01*
X284410Y-303827D01*
X284660Y-305160D01*
X284410Y-306493D01*
X283785Y-307493D01*
X282660Y-307994D01*
X279660D01*
G01X289785Y-303827D02*
X290535Y-302827D01*
X291410Y-302327D01*
X292410Y-302160D01*
X293660Y-302493D01*
X294535Y-303327D01*
X294785Y-304327D01*
X294660Y-305327D01*
X294160Y-306160D01*
X291660Y-307827D01*
X290535Y-308993D01*
X289785Y-310660D01*
X289535Y-312160D01*
X294785D01*
G01X302160Y-302160D02*
X301160Y-302493D01*
X300410Y-303327D01*
X299910Y-304327D01*
X299535Y-305660D01*
X299410Y-307160D01*
X299535Y-308660D01*
X299910Y-309993D01*
X300410Y-310994D01*
X301160Y-311827D01*
X302160Y-312160D01*
X303160Y-311827D01*
X303910Y-310994D01*
X304410Y-309993D01*
X304785Y-308660D01*
X304910Y-307160D01*
X304785Y-305660D01*
X304410Y-304327D01*
X303910Y-303327D01*
X303160Y-302493D01*
X302160Y-302160D01*
G01X312160D02*
X311160Y-302493D01*
X310410Y-303327D01*
X309910Y-304327D01*
X309535Y-305660D01*
X309410Y-307160D01*
X309535Y-308660D01*
X309910Y-309993D01*
X310410Y-310994D01*
X311160Y-311827D01*
X312160Y-312160D01*
X313160Y-311827D01*
X313910Y-310994D01*
X314410Y-309993D01*
X314785Y-308660D01*
X314910Y-307160D01*
X314785Y-305660D01*
X314410Y-304327D01*
X313910Y-303327D01*
X313160Y-302493D01*
X312160Y-302160D01*
G01X322160Y-312160D02*
Y-302160D01*
X320660Y-304160D01*
G01Y-312160D02*
X323660D01*
G01X329785Y-307994D02*
X330660Y-306827D01*
X331410Y-306160D01*
X332410Y-305827D01*
X333285Y-306160D01*
X333910Y-306827D01*
X334410Y-307827D01*
X334535Y-308993D01*
X334410Y-309993D01*
X333910Y-310994D01*
X333160Y-311827D01*
X332285Y-312160D01*
X331285Y-311827D01*
X330410Y-310827D01*
X329910Y-309327D01*
X329785Y-307660D01*
X330035Y-305494D01*
X330410Y-304327D01*
X331035Y-303160D01*
X331910Y-302327D01*
X332785Y-302160D01*
X333660Y-302493D01*
X334285Y-303327D01*
G01X349660Y-312160D02*
Y-302160D01*
X352785D01*
X353785Y-302660D01*
X354410Y-303327D01*
X354660Y-304660D01*
X354410Y-305993D01*
X353660Y-306827D01*
X352785Y-307327D01*
X349660D01*
G01X352785D02*
X354660Y-312160D01*
G01X360660Y-302160D02*
X363660D01*
G01X362160D02*
Y-312160D01*
G01X360660D02*
X363660D01*
G01X372160Y-302160D02*
Y-312160D01*
G01X369285Y-302160D02*
X375035D01*
G01X388910Y-312160D02*
Y-302160D01*
X392160Y-310493D01*
X395410Y-302160D01*
Y-312160D01*
G01X399535Y-310827D02*
X400535Y-311660D01*
X401660Y-312160D01*
X402660D01*
X403660Y-311660D01*
X404410Y-310827D01*
X404785Y-309660D01*
X404535Y-308494D01*
X403910Y-307493D01*
X402785Y-306827D01*
X401285Y-306493D01*
X400410Y-305827D01*
X400035Y-304660D01*
X400285Y-303493D01*
X400910Y-302660D01*
X401785Y-302160D01*
X402660D01*
X403535Y-302493D01*
X404285Y-303327D01*
G01X409410Y-312160D02*
Y-302160D01*
X411910D01*
X412910Y-302660D01*
X413660Y-303327D01*
X414285Y-304327D01*
X414785Y-305494D01*
X414910Y-307160D01*
X414785Y-308827D01*
X414285Y-309993D01*
X413660Y-310994D01*
X412910Y-311660D01*
X411910Y-312160D01*
X409410D01*
G01X264730Y-28064D02*
Y-33064D01*
G01X263273Y-28064D02*
X266187D01*
G01X269830Y-33064D02*
X269323Y-32981D01*
X268880Y-32647D01*
X268500Y-32147D01*
X268247Y-31564D01*
X268120Y-30897D01*
Y-30231D01*
X268247Y-29564D01*
X268500Y-28981D01*
X268880Y-28481D01*
X269323Y-28147D01*
X269830Y-28064D01*
X270337Y-28147D01*
X270780Y-28481D01*
X271160Y-28981D01*
X271413Y-29564D01*
X271540Y-30231D01*
Y-30897D01*
X271413Y-31564D01*
X271160Y-32147D01*
X270780Y-32647D01*
X270337Y-32981D01*
X269830Y-33064D01*
G01X274930Y-28064D02*
Y-33064D01*
G01X273473Y-28064D02*
X276387D01*
G01X278447Y-33064D02*
X280030Y-28064D01*
X281613Y-33064D01*
G01X281043Y-31314D02*
X279017D01*
G01X283863Y-28064D02*
Y-33064D01*
X286397D01*
G01X295330Y-28064D02*
Y-33064D01*
G01X293873Y-28064D02*
X296787D01*
G01X299100Y-33064D02*
Y-28064D01*
G01X301760D02*
Y-33064D01*
G01Y-30564D02*
X299100D01*
G01X304770Y-28064D02*
X306290D01*
G01X305530D02*
Y-33064D01*
G01X304770D02*
X306290D01*
G01X312023Y-28481D02*
X311643Y-28231D01*
X311200Y-28064D01*
X310693D01*
X310123Y-28314D01*
X309680Y-28731D01*
X309363Y-29231D01*
X309110Y-30064D01*
X309047Y-30814D01*
X309173Y-31564D01*
X309363Y-32064D01*
X309743Y-32564D01*
X310187Y-32897D01*
X310630Y-33064D01*
X311073D01*
X311517Y-32897D01*
X311897Y-32647D01*
X312213Y-32314D01*
G01X314337Y-33064D02*
Y-28064D01*
G01X316743D02*
X314337Y-31147D01*
G01X317123Y-33064D02*
X315413Y-29731D01*
G01X319373Y-33064D02*
Y-28064D01*
X322287Y-33064D01*
Y-28064D01*
G01X327197Y-33064D02*
X324663D01*
Y-28064D01*
X327197D01*
G01X326183Y-30481D02*
X324663D01*
G01X329700Y-32397D02*
X330207Y-32814D01*
X330777Y-33064D01*
X331283D01*
X331790Y-32814D01*
X332170Y-32397D01*
X332360Y-31814D01*
X332233Y-31231D01*
X331917Y-30731D01*
X331347Y-30397D01*
X330587Y-30231D01*
X330143Y-29897D01*
X329953Y-29314D01*
X330080Y-28731D01*
X330397Y-28314D01*
X330840Y-28064D01*
X331283D01*
X331727Y-28231D01*
X332107Y-28647D01*
G01X334800Y-32397D02*
X335307Y-32814D01*
X335877Y-33064D01*
X336383D01*
X336890Y-32814D01*
X337270Y-32397D01*
X337460Y-31814D01*
X337333Y-31231D01*
X337017Y-30731D01*
X336447Y-30397D01*
X335687Y-30231D01*
X335243Y-29897D01*
X335053Y-29314D01*
X335180Y-28731D01*
X335497Y-28314D01*
X335940Y-28064D01*
X336383D01*
X336827Y-28231D01*
X337207Y-28647D01*
G01X346330Y-33064D02*
Y-28064D01*
X345570Y-29064D01*
G01Y-33064D02*
X347090D01*
G01X351430Y-28064D02*
X350923Y-28231D01*
X350543Y-28647D01*
X350290Y-29147D01*
X350100Y-29814D01*
X350037Y-30564D01*
X350100Y-31314D01*
X350290Y-31981D01*
X350543Y-32481D01*
X350923Y-32897D01*
X351430Y-33064D01*
X351937Y-32897D01*
X352317Y-32481D01*
X352570Y-31981D01*
X352760Y-31314D01*
X352823Y-30564D01*
X352760Y-29814D01*
X352570Y-29147D01*
X352317Y-28647D01*
X351937Y-28231D01*
X351430Y-28064D01*
G01X356530Y-33231D02*
X356403Y-33147D01*
Y-32981D01*
X356530Y-32897D01*
X356657Y-32981D01*
Y-33147D01*
X356530Y-33231D01*
G01X362390Y-33064D02*
Y-28064D01*
X360047Y-31647D01*
X363213D01*
G01X370183Y-33064D02*
Y-28064D01*
X371830Y-32231D01*
X373477Y-28064D01*
Y-33064D01*
G01X376170Y-28064D02*
X377690D01*
G01X376930D02*
Y-33064D01*
G01X376170D02*
X377690D01*
G01X380763Y-28064D02*
Y-33064D01*
X383297D01*
G01X298410Y-432160D02*
Y-462160D01*
G01X293380Y17308D02*
Y170908D01*
X353380D01*
Y17308D01*
X293380D01*
G01X320880Y200848D02*
X315880D01*
X316880Y200088D01*
G01X320880D02*
Y201608D01*
G01X319213Y205125D02*
Y206771D01*
G01X316713Y209845D02*
X316213Y210225D01*
X315963Y210668D01*
X315880Y211175D01*
X316047Y211808D01*
X316463Y212251D01*
X316963Y212378D01*
X317463Y212315D01*
X317880Y212061D01*
X318713Y210795D01*
X319297Y210225D01*
X320130Y209845D01*
X320880Y209718D01*
Y212378D01*
G01X342160Y580340D02*
Y590340D01*
X345285D01*
X346285Y589840D01*
X346910Y589173D01*
X347160Y587840D01*
X346910Y586507D01*
X346160Y585673D01*
X345285Y585173D01*
X342160D01*
G01X345285D02*
X347160Y580340D01*
G01X357160D02*
X352160D01*
Y590340D01*
X357160D01*
G01X355160Y585507D02*
X352160D01*
G01X361535Y590340D02*
X364660Y580340D01*
X367785Y590340D01*
G01X373160D02*
X376160D01*
G01X374660D02*
Y580340D01*
G01X373160D02*
X376160D01*
G01X382035Y581673D02*
X383035Y580840D01*
X384160Y580340D01*
X385160D01*
X386160Y580840D01*
X386910Y581673D01*
X387285Y582840D01*
X387035Y584006D01*
X386410Y585007D01*
X385285Y585673D01*
X383785Y586007D01*
X382910Y586673D01*
X382535Y587840D01*
X382785Y589007D01*
X383410Y589840D01*
X384285Y590340D01*
X385160D01*
X386035Y590007D01*
X386785Y589173D01*
G01X393160Y590340D02*
X396160D01*
G01X394660D02*
Y580340D01*
G01X393160D02*
X396160D01*
G01X404660D02*
X403660Y580507D01*
X402785Y581173D01*
X402035Y582173D01*
X401535Y583340D01*
X401285Y584673D01*
Y586007D01*
X401535Y587340D01*
X402035Y588507D01*
X402785Y589507D01*
X403660Y590173D01*
X404660Y590340D01*
X405660Y590173D01*
X406535Y589507D01*
X407285Y588507D01*
X407785Y587340D01*
X408035Y586007D01*
Y584673D01*
X407785Y583340D01*
X407285Y582173D01*
X406535Y581173D01*
X405660Y580507D01*
X404660Y580340D01*
G01X411785D02*
Y590340D01*
X417535Y580340D01*
Y590340D01*
G01X422035Y581673D02*
X423035Y580840D01*
X424160Y580340D01*
X425160D01*
X426160Y580840D01*
X426910Y581673D01*
X427285Y582840D01*
X427035Y584006D01*
X426410Y585007D01*
X425285Y585673D01*
X423785Y586007D01*
X422910Y586673D01*
X422535Y587840D01*
X422785Y589007D01*
X423410Y589840D01*
X424285Y590340D01*
X425160D01*
X426035Y590007D01*
X426785Y589173D01*
G01X359113Y10788D02*
Y5788D01*
X361647D01*
G01X364277Y9955D02*
X364657Y10455D01*
X365100Y10705D01*
X365607Y10788D01*
X366240Y10621D01*
X366683Y10205D01*
X366810Y9705D01*
X366747Y9205D01*
X366493Y8788D01*
X365227Y7955D01*
X364657Y7371D01*
X364277Y6538D01*
X364150Y5788D01*
X366810D01*
G01X376187Y8455D02*
X376440Y8705D01*
X376630Y9121D01*
X376757Y9705D01*
X376630Y10205D01*
X376377Y10538D01*
X375933Y10788D01*
X374223D01*
Y5788D01*
X376313D01*
X376757Y6121D01*
X377010Y6621D01*
X377137Y7205D01*
X377010Y7788D01*
X376630Y8288D01*
X376187Y8455D01*
X374223D01*
G01X380780Y5788D02*
X380273Y5871D01*
X379830Y6205D01*
X379450Y6705D01*
X379197Y7288D01*
X379070Y7955D01*
Y8621D01*
X379197Y9288D01*
X379450Y9871D01*
X379830Y10371D01*
X380273Y10705D01*
X380780Y10788D01*
X381287Y10705D01*
X381730Y10371D01*
X382110Y9871D01*
X382363Y9288D01*
X382490Y8621D01*
Y7955D01*
X382363Y7288D01*
X382110Y6705D01*
X381730Y6205D01*
X381287Y5871D01*
X380780Y5788D01*
G01X385880Y10788D02*
Y5788D01*
G01X384423Y10788D02*
X387337D01*
G01X390980D02*
Y5788D01*
G01X389523Y10788D02*
X392437D01*
G01X396080Y5788D02*
X395573Y5871D01*
X395130Y6205D01*
X394750Y6705D01*
X394497Y7288D01*
X394370Y7955D01*
Y8621D01*
X394497Y9288D01*
X394750Y9871D01*
X395130Y10371D01*
X395573Y10705D01*
X396080Y10788D01*
X396587Y10705D01*
X397030Y10371D01*
X397410Y9871D01*
X397663Y9288D01*
X397790Y8621D01*
Y7955D01*
X397663Y7288D01*
X397410Y6705D01*
X397030Y6205D01*
X396587Y5871D01*
X396080Y5788D01*
G01X399533D02*
Y10788D01*
X401180Y6621D01*
X402827Y10788D01*
Y5788D01*
G01X412773Y10371D02*
X412393Y10621D01*
X411950Y10788D01*
X411443D01*
X410873Y10538D01*
X410430Y10121D01*
X410113Y9621D01*
X409860Y8788D01*
X409797Y8038D01*
X409923Y7288D01*
X410113Y6788D01*
X410493Y6288D01*
X410937Y5955D01*
X411380Y5788D01*
X411823D01*
X412267Y5955D01*
X412647Y6205D01*
X412963Y6538D01*
G01X416480Y5788D02*
X415973Y5871D01*
X415530Y6205D01*
X415150Y6705D01*
X414897Y7288D01*
X414770Y7955D01*
Y8621D01*
X414897Y9288D01*
X415150Y9871D01*
X415530Y10371D01*
X415973Y10705D01*
X416480Y10788D01*
X416987Y10705D01*
X417430Y10371D01*
X417810Y9871D01*
X418063Y9288D01*
X418190Y8621D01*
Y7955D01*
X418063Y7288D01*
X417810Y6705D01*
X417430Y6205D01*
X416987Y5871D01*
X416480Y5788D01*
G01X420123D02*
Y10788D01*
X423037Y5788D01*
Y10788D01*
G01X425287Y5788D02*
Y10788D01*
X426553D01*
X427060Y10538D01*
X427440Y10205D01*
X427757Y9705D01*
X428010Y9121D01*
X428073Y8288D01*
X428010Y7455D01*
X427757Y6871D01*
X427440Y6371D01*
X427060Y6038D01*
X426553Y5788D01*
X425287D01*
G01X430387Y10788D02*
Y7205D01*
X430640Y6455D01*
X431147Y5955D01*
X431780Y5788D01*
X432413Y5955D01*
X432920Y6455D01*
X433173Y7205D01*
Y10788D01*
G01X438273Y10371D02*
X437893Y10621D01*
X437450Y10788D01*
X436943D01*
X436373Y10538D01*
X435930Y10121D01*
X435613Y9621D01*
X435360Y8788D01*
X435297Y8038D01*
X435423Y7288D01*
X435613Y6788D01*
X435993Y6288D01*
X436437Y5955D01*
X436880Y5788D01*
X437323D01*
X437767Y5955D01*
X438147Y6205D01*
X438463Y6538D01*
G01X441980Y10788D02*
Y5788D01*
G01X440523Y10788D02*
X443437D01*
G01X447080Y5788D02*
X446573Y5871D01*
X446130Y6205D01*
X445750Y6705D01*
X445497Y7288D01*
X445370Y7955D01*
Y8621D01*
X445497Y9288D01*
X445750Y9871D01*
X446130Y10371D01*
X446573Y10705D01*
X447080Y10788D01*
X447587Y10705D01*
X448030Y10371D01*
X448410Y9871D01*
X448663Y9288D01*
X448790Y8621D01*
Y7955D01*
X448663Y7288D01*
X448410Y6705D01*
X448030Y6205D01*
X447587Y5871D01*
X447080Y5788D01*
G01X450913D02*
Y10788D01*
X452497D01*
X453003Y10538D01*
X453320Y10205D01*
X453447Y9538D01*
X453320Y8871D01*
X452940Y8455D01*
X452497Y8205D01*
X450913D01*
G01X452497D02*
X453447Y5788D01*
G01X369187Y-12565D02*
X371973Y-8898D01*
G01X370580Y-8231D02*
Y-13231D01*
G01X371973Y-12565D02*
X369187Y-8898D01*
G01X368680Y-10731D02*
X372480D01*
G01X384550Y-11731D02*
X385057Y-12148D01*
X385627Y-12398D01*
X386133D01*
X386640Y-12148D01*
X387020Y-11731D01*
X387210Y-11148D01*
X387083Y-10565D01*
X386767Y-10065D01*
X386197Y-9731D01*
X385437Y-9565D01*
X384993Y-9231D01*
X384803Y-8648D01*
X384930Y-8065D01*
X385247Y-7648D01*
X385690Y-7398D01*
X386133D01*
X386577Y-7565D01*
X386957Y-7981D01*
G01X389587Y-7398D02*
Y-10981D01*
X389840Y-11731D01*
X390347Y-12231D01*
X390980Y-12398D01*
X391613Y-12231D01*
X392120Y-11731D01*
X392373Y-10981D01*
Y-7398D01*
G01X394813Y-12398D02*
Y-7398D01*
X396397D01*
X396903Y-7648D01*
X397220Y-7981D01*
X397347Y-8648D01*
X397220Y-9315D01*
X396840Y-9731D01*
X396397Y-9981D01*
X394813D01*
G01X396397D02*
X397347Y-12398D01*
G01X399977D02*
Y-7398D01*
X402383D01*
G01X401497Y-9815D02*
X399977D01*
G01X404697Y-12398D02*
X406280Y-7398D01*
X407863Y-12398D01*
G01X407293Y-10648D02*
X405267D01*
G01X412773Y-7815D02*
X412393Y-7565D01*
X411950Y-7398D01*
X411443D01*
X410873Y-7648D01*
X410430Y-8065D01*
X410113Y-8565D01*
X409860Y-9398D01*
X409797Y-10148D01*
X409923Y-10898D01*
X410113Y-11398D01*
X410493Y-11898D01*
X410937Y-12231D01*
X411380Y-12398D01*
X411823D01*
X412267Y-12231D01*
X412647Y-11981D01*
X412963Y-11648D01*
G01X417747Y-12398D02*
X415213D01*
Y-7398D01*
X417747D01*
G01X416733Y-9815D02*
X415213D01*
G01X369187Y93941D02*
X371973Y97608D01*
G01X370580Y98275D02*
Y93275D01*
G01X371973Y93941D02*
X369187Y97608D01*
G01X368680Y95775D02*
X372480D01*
G01X384487Y94108D02*
Y99108D01*
X385753D01*
X386260Y98858D01*
X386640Y98525D01*
X386957Y98025D01*
X387210Y97441D01*
X387273Y96608D01*
X387210Y95775D01*
X386957Y95191D01*
X386640Y94691D01*
X386260Y94358D01*
X385753Y94108D01*
X384487D01*
G01X390220Y99108D02*
X391740D01*
G01X390980D02*
Y94108D01*
G01X390220D02*
X391740D01*
G01X397347D02*
X394813D01*
Y99108D01*
X397347D01*
G01X396333Y96691D02*
X394813D01*
G01X399913Y99108D02*
Y94108D01*
X402447D01*
G01X407547D02*
X405013D01*
Y99108D01*
X407547D01*
G01X406533Y96691D02*
X405013D01*
G01X412773Y98691D02*
X412393Y98941D01*
X411950Y99108D01*
X411443D01*
X410873Y98858D01*
X410430Y98441D01*
X410113Y97941D01*
X409860Y97108D01*
X409797Y96358D01*
X409923Y95608D01*
X410113Y95108D01*
X410493Y94608D01*
X410937Y94275D01*
X411380Y94108D01*
X411823D01*
X412267Y94275D01*
X412647Y94525D01*
X412963Y94858D01*
G01X416480Y99108D02*
Y94108D01*
G01X415023Y99108D02*
X417937D01*
G01X420313Y94108D02*
Y99108D01*
X421897D01*
X422403Y98858D01*
X422720Y98525D01*
X422847Y97858D01*
X422720Y97191D01*
X422340Y96775D01*
X421897Y96525D01*
X420313D01*
G01X421897D02*
X422847Y94108D01*
G01X425920Y99108D02*
X427440D01*
G01X426680D02*
Y94108D01*
G01X425920D02*
X427440D01*
G01X433173Y98691D02*
X432793Y98941D01*
X432350Y99108D01*
X431843D01*
X431273Y98858D01*
X430830Y98441D01*
X430513Y97941D01*
X430260Y97108D01*
X430197Y96358D01*
X430323Y95608D01*
X430513Y95108D01*
X430893Y94608D01*
X431337Y94275D01*
X431780Y94108D01*
X432223D01*
X432667Y94275D01*
X433047Y94525D01*
X433363Y94858D01*
G01X369187Y195447D02*
X371973Y199114D01*
G01X370580Y199781D02*
Y194781D01*
G01X371973Y195447D02*
X369187Y199114D01*
G01X368680Y197281D02*
X372480D01*
G01X384550Y196281D02*
X385057Y195864D01*
X385627Y195614D01*
X386133D01*
X386640Y195864D01*
X387020Y196281D01*
X387210Y196864D01*
X387083Y197447D01*
X386767Y197947D01*
X386197Y198281D01*
X385437Y198447D01*
X384993Y198781D01*
X384803Y199364D01*
X384930Y199947D01*
X385247Y200364D01*
X385690Y200614D01*
X386133D01*
X386577Y200447D01*
X386957Y200031D01*
G01X389587Y200614D02*
Y197031D01*
X389840Y196281D01*
X390347Y195781D01*
X390980Y195614D01*
X391613Y195781D01*
X392120Y196281D01*
X392373Y197031D01*
Y200614D01*
G01X394813Y195614D02*
Y200614D01*
X396397D01*
X396903Y200364D01*
X397220Y200031D01*
X397347Y199364D01*
X397220Y198697D01*
X396840Y198281D01*
X396397Y198031D01*
X394813D01*
G01X396397D02*
X397347Y195614D01*
G01X399977D02*
Y200614D01*
X402383D01*
G01X401497Y198197D02*
X399977D01*
G01X404697Y195614D02*
X406280Y200614D01*
X407863Y195614D01*
G01X407293Y197364D02*
X405267D01*
G01X412773Y200197D02*
X412393Y200447D01*
X411950Y200614D01*
X411443D01*
X410873Y200364D01*
X410430Y199947D01*
X410113Y199447D01*
X409860Y198614D01*
X409797Y197864D01*
X409923Y197114D01*
X410113Y196614D01*
X410493Y196114D01*
X410937Y195781D01*
X411380Y195614D01*
X411823D01*
X412267Y195781D01*
X412647Y196031D01*
X412963Y196364D01*
G01X417747Y195614D02*
X415213D01*
Y200614D01*
X417747D01*
G01X416733Y198197D02*
X415213D01*
G01X359113Y187428D02*
Y182428D01*
X361647D01*
G01X365480D02*
Y187428D01*
X364720Y186428D01*
G01Y182428D02*
X366240D01*
G01X375680Y187428D02*
Y182428D01*
G01X374223Y187428D02*
X377137D01*
G01X380780Y182428D02*
X380273Y182511D01*
X379830Y182845D01*
X379450Y183345D01*
X379197Y183928D01*
X379070Y184595D01*
Y185261D01*
X379197Y185928D01*
X379450Y186511D01*
X379830Y187011D01*
X380273Y187345D01*
X380780Y187428D01*
X381287Y187345D01*
X381730Y187011D01*
X382110Y186511D01*
X382363Y185928D01*
X382490Y185261D01*
Y184595D01*
X382363Y183928D01*
X382110Y183345D01*
X381730Y182845D01*
X381287Y182511D01*
X380780Y182428D01*
G01X384613D02*
Y187428D01*
X386133D01*
X386640Y187178D01*
X387020Y186595D01*
X387147Y185928D01*
X387020Y185261D01*
X386703Y184761D01*
X386133Y184511D01*
X384613D01*
G01X397473Y187011D02*
X397093Y187261D01*
X396650Y187428D01*
X396143D01*
X395573Y187178D01*
X395130Y186761D01*
X394813Y186261D01*
X394560Y185428D01*
X394497Y184678D01*
X394623Y183928D01*
X394813Y183428D01*
X395193Y182928D01*
X395637Y182595D01*
X396080Y182428D01*
X396523D01*
X396967Y182595D01*
X397347Y182845D01*
X397663Y183178D01*
G01X401180Y182428D02*
X400673Y182511D01*
X400230Y182845D01*
X399850Y183345D01*
X399597Y183928D01*
X399470Y184595D01*
Y185261D01*
X399597Y185928D01*
X399850Y186511D01*
X400230Y187011D01*
X400673Y187345D01*
X401180Y187428D01*
X401687Y187345D01*
X402130Y187011D01*
X402510Y186511D01*
X402763Y185928D01*
X402890Y185261D01*
Y184595D01*
X402763Y183928D01*
X402510Y183345D01*
X402130Y182845D01*
X401687Y182511D01*
X401180Y182428D01*
G01X404823D02*
Y187428D01*
X407737Y182428D01*
Y187428D01*
G01X409987Y182428D02*
Y187428D01*
X411253D01*
X411760Y187178D01*
X412140Y186845D01*
X412457Y186345D01*
X412710Y185761D01*
X412773Y184928D01*
X412710Y184095D01*
X412457Y183511D01*
X412140Y183011D01*
X411760Y182678D01*
X411253Y182428D01*
X409987D01*
G01X415087Y187428D02*
Y183845D01*
X415340Y183095D01*
X415847Y182595D01*
X416480Y182428D01*
X417113Y182595D01*
X417620Y183095D01*
X417873Y183845D01*
Y187428D01*
G01X422973Y187011D02*
X422593Y187261D01*
X422150Y187428D01*
X421643D01*
X421073Y187178D01*
X420630Y186761D01*
X420313Y186261D01*
X420060Y185428D01*
X419997Y184678D01*
X420123Y183928D01*
X420313Y183428D01*
X420693Y182928D01*
X421137Y182595D01*
X421580Y182428D01*
X422023D01*
X422467Y182595D01*
X422847Y182845D01*
X423163Y183178D01*
G01X426680Y187428D02*
Y182428D01*
G01X425223Y187428D02*
X428137D01*
G01X431780Y182428D02*
X431273Y182511D01*
X430830Y182845D01*
X430450Y183345D01*
X430197Y183928D01*
X430070Y184595D01*
Y185261D01*
X430197Y185928D01*
X430450Y186511D01*
X430830Y187011D01*
X431273Y187345D01*
X431780Y187428D01*
X432287Y187345D01*
X432730Y187011D01*
X433110Y186511D01*
X433363Y185928D01*
X433490Y185261D01*
Y184595D01*
X433363Y183928D01*
X433110Y183345D01*
X432730Y182845D01*
X432287Y182511D01*
X431780Y182428D01*
G01X435613D02*
Y187428D01*
X437197D01*
X437703Y187178D01*
X438020Y186845D01*
X438147Y186178D01*
X438020Y185511D01*
X437640Y185095D01*
X437197Y184845D01*
X435613D01*
G01X437197D02*
X438147Y182428D01*
G01X378410Y-432160D02*
Y-392160D01*
G01X389410Y-407160D02*
Y-397160D01*
X391910D01*
X392910Y-397660D01*
X393660Y-398327D01*
X394285Y-399327D01*
X394785Y-400494D01*
X394910Y-402160D01*
X394785Y-403827D01*
X394285Y-404993D01*
X393660Y-405994D01*
X392910Y-406660D01*
X391910Y-407160D01*
X389410D01*
G01X398410Y-397160D02*
X400160Y-407160D01*
X402160Y-397160D01*
X404160Y-407160D01*
X405910Y-397160D01*
G01X412910Y-402160D02*
X415410D01*
Y-405160D01*
X414660Y-406160D01*
X413785Y-406827D01*
X412535Y-407160D01*
X411285Y-406827D01*
X410410Y-406160D01*
X409660Y-405160D01*
X409160Y-403993D01*
X408910Y-402660D01*
Y-401493D01*
X409160Y-400494D01*
X409660Y-399327D01*
X410410Y-398327D01*
X411160Y-397660D01*
X412160Y-397160D01*
X413035D01*
X414035Y-397493D01*
X414785Y-398160D01*
G01X429285Y-407160D02*
Y-397160D01*
X435035Y-407160D01*
Y-397160D01*
G01X442160Y-407160D02*
X441160Y-406993D01*
X440285Y-406327D01*
X439535Y-405327D01*
X439035Y-404160D01*
X438785Y-402827D01*
Y-401493D01*
X439035Y-400160D01*
X439535Y-398993D01*
X440285Y-397993D01*
X441160Y-397327D01*
X442160Y-397160D01*
X443160Y-397327D01*
X444035Y-397993D01*
X444785Y-398993D01*
X445285Y-400160D01*
X445535Y-401493D01*
Y-402827D01*
X445285Y-404160D01*
X444785Y-405327D01*
X444035Y-406327D01*
X443160Y-406993D01*
X442160Y-407160D01*
G01X435910Y510340D02*
Y480340D01*
G01Y500340D02*
Y540340D01*
G01D02*
Y570340D01*
G01X458410Y-462160D02*
Y-432160D01*
X628410D01*
G01X469535Y-445827D02*
X470535Y-446660D01*
X471660Y-447160D01*
X472660D01*
X473660Y-446660D01*
X474410Y-445827D01*
X474785Y-444660D01*
X474535Y-443494D01*
X473910Y-442493D01*
X472785Y-441827D01*
X471285Y-441493D01*
X470410Y-440827D01*
X470035Y-439660D01*
X470285Y-438493D01*
X470910Y-437660D01*
X471785Y-437160D01*
X472660D01*
X473535Y-437493D01*
X474285Y-438327D01*
G01X479535Y-447160D02*
Y-437160D01*
G01X484785D02*
Y-447160D01*
G01Y-442160D02*
X479535D01*
G01X494660Y-447160D02*
X489660D01*
Y-437160D01*
X494660D01*
G01X492660Y-441993D02*
X489660D01*
G01X504660Y-447160D02*
X499660D01*
Y-437160D01*
X504660D01*
G01X502660Y-441993D02*
X499660D01*
G01X512160Y-437160D02*
Y-447160D01*
G01X509285Y-437160D02*
X515035D01*
G01X461910Y550340D02*
Y560340D01*
X464410D01*
X465410Y559840D01*
X466160Y559173D01*
X466785Y558173D01*
X467285Y557006D01*
X467410Y555340D01*
X467285Y553673D01*
X466785Y552507D01*
X466160Y551506D01*
X465410Y550840D01*
X464410Y550340D01*
X461910D01*
G01X471535D02*
X474660Y560340D01*
X477785Y550340D01*
G01X476660Y553840D02*
X472660D01*
G01X484660Y560340D02*
Y550340D01*
G01X481785Y560340D02*
X487535D01*
G01X497160Y550340D02*
X492160D01*
Y560340D01*
X497160D01*
G01X495160Y555507D02*
X492160D01*
G01X525910Y510340D02*
Y480340D01*
G01Y510340D02*
Y540340D01*
G01D02*
Y570340D01*
G01X536535Y550340D02*
X539660Y560340D01*
X542785Y550340D01*
G01X541660Y553840D02*
X537660D01*
G01X547160Y550340D02*
Y560340D01*
X550160D01*
X551160Y559840D01*
X551910Y558673D01*
X552160Y557340D01*
X551910Y556007D01*
X551285Y555007D01*
X550160Y554506D01*
X547160D01*
G01X557160Y550340D02*
Y560340D01*
X560160D01*
X561160Y559840D01*
X561910Y558673D01*
X562160Y557340D01*
X561910Y556007D01*
X561285Y555007D01*
X560160Y554506D01*
X557160D01*
G01X567160Y550340D02*
Y560340D01*
X570285D01*
X571285Y559840D01*
X571910Y559173D01*
X572160Y557840D01*
X571910Y556507D01*
X571160Y555673D01*
X570285Y555173D01*
X567160D01*
G01X570285D02*
X572160Y550340D01*
G01X579660D02*
X578660Y550507D01*
X577785Y551173D01*
X577035Y552173D01*
X576535Y553340D01*
X576285Y554673D01*
Y556007D01*
X576535Y557340D01*
X577035Y558507D01*
X577785Y559507D01*
X578660Y560173D01*
X579660Y560340D01*
X580660Y560173D01*
X581535Y559507D01*
X582285Y558507D01*
X582785Y557340D01*
X583035Y556007D01*
Y554673D01*
X582785Y553340D01*
X582285Y552173D01*
X581535Y551173D01*
X580660Y550507D01*
X579660Y550340D01*
G01X586535Y560340D02*
X589660Y550340D01*
X592785Y560340D01*
G01X602160Y550340D02*
X597160D01*
Y560340D01*
X602160D01*
G01X600160Y555507D02*
X597160D01*
G01X606910Y550340D02*
Y560340D01*
X609410D01*
X610410Y559840D01*
X611160Y559173D01*
X611785Y558173D01*
X612285Y557006D01*
X612410Y555340D01*
X612285Y553673D01*
X611785Y552507D01*
X611160Y551506D01*
X610410Y550840D01*
X609410Y550340D01*
X606910D01*
G01X625910Y595340D02*
Y475340D01*
M02*
