G04 ================== begin FILE IDENTIFICATION RECORD ==================*
G04 Layout Name:  msd_foot_main.brd*
G04 Film Name:    SILKSCREEN_TOP*
G04 File Format:  Gerber RS274X*
G04 File Origin:  Cadence Allegro 17.2-S071*
G04 Origin Date:  Wed Nov 25 01:49:06 2020*
G04 *
G04 Layer:  REF DES/SILKSCREEN_TOP*
G04 Layer:  PACKAGE GEOMETRY/SILKSCREEN_TOP*
G04 Layer:  COMPONENT VALUE/SILKSCREEN_TOP*
G04 Layer:  BOARD GEOMETRY/SILKSCREEN_TOP*
G04 Layer:  BOARD GEOMETRY/DESIGN_OUTLINE*
G04 *
G04 Offset:    (0.00 0.00)*
G04 Mirror:    No*
G04 Mode:      Positive*
G04 Rotation:  0*
G04 FullContactRelief:  No*
G04 UndefLineWidth:     5.00*
G04 ================== end FILE IDENTIFICATION RECORD ====================*
%FSLAX25Y25*MOIN*%
%IR0*IPPOS*OFA0.00000B0.00000*MIA0B0*SFA1.00000B1.00000*%
%ADD10C,.016*%
%ADD11C,.005*%
%ADD12C,.006*%
%ADD13C,.00197*%
G75*
%LPD*%
G75*
G36*
G01X43581Y142837D02*
X42520Y141776D01*
X41813Y142484D01*
X42873Y143544D01*
X43581Y142837D01*
G37*
G54D10*
G01X1980Y115570D02*
X2220D01*
G01X1830Y156960D02*
X2070D01*
G01X2080Y180860D02*
X1840D01*
G01X23240Y39340D02*
X23480D01*
G01X23030Y67850D02*
Y67610D01*
G01X20430Y115560D02*
X20670D01*
G01X20540Y180820D02*
X20300D01*
G01X38560Y49610D02*
Y49850D01*
G01X33110Y133620D02*
Y133860D01*
G01X46900Y162990D02*
Y163230D01*
G01X54430Y115380D02*
X54670D01*
G01X50300Y156360D02*
Y156600D01*
G01X54750Y181170D02*
X54510D01*
G01X72350Y39370D02*
X72590D01*
G01X72710Y67740D02*
Y67500D01*
G01X72850Y115380D02*
X73090D01*
G01X77910Y130910D02*
X78150D01*
G01X78030Y181180D02*
X77790D01*
G54D11*
G01X0Y0D02*
Y232950D01*
X80000D01*
Y0D01*
X0D01*
G01X5250Y64270D02*
X2450D01*
Y65870D01*
X5250D01*
Y64270D01*
G01X1570Y95693D02*
X1783Y95485D01*
X2023Y95360D01*
X2237D01*
X2450Y95485D01*
X2610Y95693D01*
X2690Y95985D01*
X2637Y96277D01*
X2503Y96527D01*
X2263Y96693D01*
X1943Y96777D01*
X1757Y96943D01*
X1677Y97235D01*
X1730Y97527D01*
X1863Y97735D01*
X2050Y97860D01*
X2237D01*
X2423Y97777D01*
X2583Y97568D01*
G01X4917Y97652D02*
X4757Y97777D01*
X4570Y97860D01*
X4357D01*
X4117Y97735D01*
X3930Y97527D01*
X3797Y97277D01*
X3690Y96860D01*
X3663Y96485D01*
X3717Y96110D01*
X3797Y95860D01*
X3957Y95610D01*
X4143Y95443D01*
X4330Y95360D01*
X4517D01*
X4703Y95443D01*
X4863Y95568D01*
X4997Y95735D01*
G01X5943Y95860D02*
X6103Y95568D01*
X6317Y95402D01*
X6557Y95360D01*
X6770Y95402D01*
X6983Y95610D01*
X7117Y95860D01*
X7143Y96110D01*
X7090Y96402D01*
X6903Y96610D01*
X6717Y96693D01*
X6477D01*
G01X6717D02*
X6877Y96818D01*
X7010Y97027D01*
X7063Y97277D01*
X7010Y97527D01*
X6877Y97735D01*
X6637Y97860D01*
X6397Y97818D01*
X6157Y97652D01*
G01X8467Y92823D02*
Y100697D01*
X593D01*
Y92823D01*
X8467D01*
G01X453Y203617D02*
Y195743D01*
X8327D01*
Y203617D01*
X453D01*
G01X1180Y198493D02*
X1393Y198285D01*
X1633Y198160D01*
X1847D01*
X2060Y198285D01*
X2220Y198493D01*
X2300Y198785D01*
X2247Y199077D01*
X2113Y199327D01*
X1873Y199493D01*
X1553Y199577D01*
X1367Y199743D01*
X1287Y200035D01*
X1340Y200327D01*
X1473Y200535D01*
X1660Y200660D01*
X1847D01*
X2033Y200577D01*
X2193Y200368D01*
G01X4527Y200452D02*
X4367Y200577D01*
X4180Y200660D01*
X3967D01*
X3727Y200535D01*
X3540Y200327D01*
X3407Y200077D01*
X3300Y199660D01*
X3273Y199285D01*
X3327Y198910D01*
X3407Y198660D01*
X3567Y198410D01*
X3753Y198243D01*
X3940Y198160D01*
X4127D01*
X4313Y198243D01*
X4473Y198368D01*
X4607Y198535D01*
G01X5633Y200243D02*
X5793Y200493D01*
X5980Y200618D01*
X6193Y200660D01*
X6460Y200577D01*
X6647Y200368D01*
X6700Y200118D01*
X6673Y199868D01*
X6567Y199660D01*
X6033Y199243D01*
X5793Y198952D01*
X5633Y198535D01*
X5580Y198160D01*
X6700D01*
G01X3088Y232536D02*
Y220724D01*
X77892D01*
Y232536D01*
X3088D01*
G01X13223Y9610D02*
X13015Y9397D01*
X12890Y9157D01*
Y8943D01*
X13015Y8730D01*
X13223Y8570D01*
X13515Y8490D01*
X13807Y8543D01*
X14057Y8677D01*
X14223Y8917D01*
X14307Y9237D01*
X14473Y9423D01*
X14765Y9503D01*
X15057Y9450D01*
X15265Y9317D01*
X15390Y9130D01*
Y8943D01*
X15307Y8757D01*
X15098Y8597D01*
G01X14015Y7250D02*
Y6397D01*
X14307Y6477D01*
X14473Y6610D01*
X14557Y6797D01*
X14515Y6983D01*
X14390Y7143D01*
X14098Y7250D01*
X13848Y7303D01*
X13598D01*
X13348Y7250D01*
X13098Y7117D01*
X12932Y6957D01*
X12890Y6770D01*
X12973Y6583D01*
X13223Y6397D01*
G01X12890Y4650D02*
X15390D01*
G01X12890Y2450D02*
X15390D01*
X14890Y2770D01*
G01X12890D02*
Y2130D01*
G01X21093Y9420D02*
X20885Y9207D01*
X20760Y8967D01*
Y8753D01*
X20885Y8540D01*
X21093Y8380D01*
X21385Y8300D01*
X21677Y8353D01*
X21927Y8487D01*
X22093Y8727D01*
X22177Y9047D01*
X22343Y9233D01*
X22635Y9313D01*
X22927Y9260D01*
X23135Y9127D01*
X23260Y8940D01*
Y8753D01*
X23177Y8567D01*
X22968Y8407D01*
G01X21885Y7060D02*
Y6207D01*
X22177Y6287D01*
X22343Y6420D01*
X22427Y6607D01*
X22385Y6793D01*
X22260Y6953D01*
X21968Y7060D01*
X21718Y7113D01*
X21468D01*
X21218Y7060D01*
X20968Y6927D01*
X20802Y6767D01*
X20760Y6580D01*
X20843Y6393D01*
X21093Y6207D01*
G01X20760Y4460D02*
X23260D01*
G01Y2260D02*
X23177Y2473D01*
X22968Y2633D01*
X22718Y2740D01*
X22385Y2820D01*
X22010Y2847D01*
X21635Y2820D01*
X21302Y2740D01*
X21052Y2633D01*
X20843Y2473D01*
X20760Y2260D01*
X20843Y2047D01*
X21052Y1887D01*
X21302Y1780D01*
X21635Y1700D01*
X22010Y1673D01*
X22385Y1700D01*
X22718Y1780D01*
X22968Y1887D01*
X23177Y2047D01*
X23260Y2260D01*
G01X8242Y12066D02*
Y254D01*
X67298D01*
Y12066D01*
X8242D01*
G01X15810Y24640D02*
X18610D01*
Y23040D01*
X15810D01*
Y24640D01*
G01X10690Y22970D02*
X7890D01*
Y24570D01*
X10690D01*
Y22970D01*
G01X16190Y48433D02*
X12607D01*
X11857Y48180D01*
X11357Y47673D01*
X11190Y47040D01*
X11357Y46407D01*
X11857Y45900D01*
X12607Y45647D01*
X16190D01*
G01X11190Y42067D02*
X12273Y41940D01*
X13190Y41750D01*
X14023Y41497D01*
X14940Y41180D01*
X16190Y40673D01*
Y43207D01*
G01X15730Y63450D02*
X12930D01*
Y65050D01*
X15730D01*
Y63450D01*
G01X23780Y62990D02*
Y60190D01*
X22180D01*
Y62990D01*
X23780D01*
G01X7300Y74750D02*
Y71950D01*
X5700D01*
Y74750D01*
X7300D01*
G01X20420Y95693D02*
X20633Y95485D01*
X20873Y95360D01*
X21087D01*
X21300Y95485D01*
X21460Y95693D01*
X21540Y95985D01*
X21487Y96277D01*
X21353Y96527D01*
X21113Y96693D01*
X20793Y96777D01*
X20607Y96943D01*
X20527Y97235D01*
X20580Y97527D01*
X20713Y97735D01*
X20900Y97860D01*
X21087D01*
X21273Y97777D01*
X21433Y97568D01*
G01X23767Y97652D02*
X23607Y97777D01*
X23420Y97860D01*
X23207D01*
X22967Y97735D01*
X22780Y97527D01*
X22647Y97277D01*
X22540Y96860D01*
X22513Y96485D01*
X22567Y96110D01*
X22647Y95860D01*
X22807Y95610D01*
X22993Y95443D01*
X23180Y95360D01*
X23367D01*
X23553Y95443D01*
X23713Y95568D01*
X23847Y95735D01*
G01X25700Y95360D02*
Y97860D01*
X24713Y96068D01*
X26047D01*
G01X26927Y92773D02*
Y100647D01*
X19053D01*
Y92773D01*
X26927D01*
G01X10337Y132710D02*
Y129127D01*
X10590Y128377D01*
X11097Y127877D01*
X11730Y127710D01*
X12363Y127877D01*
X12870Y128377D01*
X13123Y129127D01*
Y132710D01*
G01X15437Y128710D02*
X15817Y128127D01*
X16323Y127793D01*
X16893Y127710D01*
X17400Y127793D01*
X17907Y128210D01*
X18223Y128710D01*
X18287Y129210D01*
X18160Y129793D01*
X17717Y130210D01*
X17273Y130377D01*
X16703D01*
G01X17273D02*
X17653Y130627D01*
X17970Y131043D01*
X18097Y131543D01*
X17970Y132043D01*
X17653Y132460D01*
X17083Y132710D01*
X16513Y132627D01*
X15943Y132293D01*
G01X8350Y114790D02*
X5550D01*
Y116390D01*
X8350D01*
Y114790D01*
G01X26800Y114750D02*
X24000D01*
Y116350D01*
X26800D01*
Y114750D01*
G01X22870Y144490D02*
Y141990D01*
G01X22257Y144490D02*
X23483D01*
G01X24537Y141990D02*
Y144490D01*
X25177D01*
X25390Y144365D01*
X25550Y144073D01*
X25603Y143740D01*
X25550Y143407D01*
X25417Y143157D01*
X25177Y143032D01*
X24537D01*
G01X26763Y144073D02*
X26923Y144323D01*
X27110Y144448D01*
X27323Y144490D01*
X27590Y144407D01*
X27777Y144198D01*
X27830Y143948D01*
X27803Y143698D01*
X27697Y143490D01*
X27163Y143073D01*
X26923Y142782D01*
X26763Y142365D01*
X26710Y141990D01*
X27830D01*
G01X21013Y164250D02*
Y167833D01*
X20760Y168583D01*
X20253Y169083D01*
X19620Y169250D01*
X18987Y169083D01*
X18480Y168583D01*
X18227Y167833D01*
Y164250D01*
G01X15723Y165083D02*
X15343Y164583D01*
X14900Y164333D01*
X14393Y164250D01*
X13760Y164417D01*
X13317Y164833D01*
X13190Y165333D01*
X13253Y165833D01*
X13507Y166250D01*
X14773Y167083D01*
X15343Y167667D01*
X15723Y168500D01*
X15850Y169250D01*
X13190D01*
G01X18913Y203567D02*
Y195693D01*
X26787D01*
Y203567D01*
X18913D01*
G01X23890Y181630D02*
X26690D01*
Y180030D01*
X23890D01*
Y181630D01*
G01X5410Y181660D02*
X8210D01*
Y180060D01*
X5410D01*
Y181660D01*
G01X20420Y198493D02*
X20633Y198285D01*
X20873Y198160D01*
X21087D01*
X21300Y198285D01*
X21460Y198493D01*
X21540Y198785D01*
X21487Y199077D01*
X21353Y199327D01*
X21113Y199493D01*
X20793Y199577D01*
X20607Y199743D01*
X20527Y200035D01*
X20580Y200327D01*
X20713Y200535D01*
X20900Y200660D01*
X21087D01*
X21273Y200577D01*
X21433Y200368D01*
G01X23767Y200452D02*
X23607Y200577D01*
X23420Y200660D01*
X23207D01*
X22967Y200535D01*
X22780Y200327D01*
X22647Y200077D01*
X22540Y199660D01*
X22513Y199285D01*
X22567Y198910D01*
X22647Y198660D01*
X22807Y198410D01*
X22993Y198243D01*
X23180Y198160D01*
X23367D01*
X23553Y198243D01*
X23713Y198368D01*
X23847Y198535D01*
G01X25380Y198160D02*
Y200660D01*
X25060Y200160D01*
G01Y198160D02*
X25700D01*
G01X23763Y230320D02*
X23555Y230107D01*
X23430Y229867D01*
Y229653D01*
X23555Y229440D01*
X23763Y229280D01*
X24055Y229200D01*
X24347Y229253D01*
X24597Y229387D01*
X24763Y229627D01*
X24847Y229947D01*
X25013Y230133D01*
X25305Y230213D01*
X25597Y230160D01*
X25805Y230027D01*
X25930Y229840D01*
Y229653D01*
X25847Y229467D01*
X25638Y229307D01*
G01X24555Y227960D02*
Y227107D01*
X24847Y227187D01*
X25013Y227320D01*
X25097Y227507D01*
X25055Y227693D01*
X24930Y227853D01*
X24638Y227960D01*
X24388Y228013D01*
X24138D01*
X23888Y227960D01*
X23638Y227827D01*
X23472Y227667D01*
X23430Y227480D01*
X23513Y227293D01*
X23763Y227107D01*
G01X23430Y225813D02*
X25097D01*
G01X24680D02*
X24888Y225707D01*
X25055Y225547D01*
X25097Y225333D01*
X25055Y225147D01*
X24888Y224987D01*
X24597Y224907D01*
X23430D01*
G01Y223160D02*
X23472Y223373D01*
X23638Y223560D01*
X23888Y223720D01*
X24180Y223827D01*
X24513Y223880D01*
X24847D01*
X25180Y223827D01*
X25472Y223720D01*
X25722Y223560D01*
X25888Y223373D01*
X25930Y223160D01*
X25888Y222947D01*
X25722Y222760D01*
X25472Y222600D01*
X25180Y222493D01*
X24847Y222440D01*
X24513D01*
X24180Y222493D01*
X23888Y222600D01*
X23638Y222760D01*
X23472Y222947D01*
X23430Y223160D01*
G01X15933Y230520D02*
X15725Y230307D01*
X15600Y230067D01*
Y229853D01*
X15725Y229640D01*
X15933Y229480D01*
X16225Y229400D01*
X16517Y229453D01*
X16767Y229587D01*
X16933Y229827D01*
X17017Y230147D01*
X17183Y230333D01*
X17475Y230413D01*
X17767Y230360D01*
X17975Y230227D01*
X18100Y230040D01*
Y229853D01*
X18017Y229667D01*
X17808Y229507D01*
G01X16725Y228160D02*
Y227307D01*
X17017Y227387D01*
X17183Y227520D01*
X17267Y227707D01*
X17225Y227893D01*
X17100Y228053D01*
X16808Y228160D01*
X16558Y228213D01*
X16308D01*
X16058Y228160D01*
X15808Y228027D01*
X15642Y227867D01*
X15600Y227680D01*
X15683Y227493D01*
X15933Y227307D01*
G01X15600Y225560D02*
X18100D01*
G01Y223360D02*
X18017Y223573D01*
X17808Y223733D01*
X17558Y223840D01*
X17225Y223920D01*
X16850Y223947D01*
X16475Y223920D01*
X16142Y223840D01*
X15892Y223733D01*
X15683Y223573D01*
X15600Y223360D01*
X15683Y223147D01*
X15892Y222987D01*
X16142Y222880D01*
X16475Y222800D01*
X16850Y222773D01*
X17225Y222800D01*
X17558Y222880D01*
X17808Y222987D01*
X18017Y223147D01*
X18100Y223360D01*
G01X8163Y230270D02*
X7955Y230057D01*
X7830Y229817D01*
Y229603D01*
X7955Y229390D01*
X8163Y229230D01*
X8455Y229150D01*
X8747Y229203D01*
X8997Y229337D01*
X9163Y229577D01*
X9247Y229897D01*
X9413Y230083D01*
X9705Y230163D01*
X9997Y230110D01*
X10205Y229977D01*
X10330Y229790D01*
Y229603D01*
X10247Y229417D01*
X10038Y229257D01*
G01X8955Y227910D02*
Y227057D01*
X9247Y227137D01*
X9413Y227270D01*
X9497Y227457D01*
X9455Y227643D01*
X9330Y227803D01*
X9038Y227910D01*
X8788Y227963D01*
X8538D01*
X8288Y227910D01*
X8038Y227777D01*
X7872Y227617D01*
X7830Y227430D01*
X7913Y227243D01*
X8163Y227057D01*
G01X7830Y225310D02*
X10330D01*
G01X7830Y223110D02*
X10330D01*
X9830Y223430D01*
G01X7830D02*
Y222790D01*
G01X29063Y9610D02*
X28855Y9397D01*
X28730Y9157D01*
Y8943D01*
X28855Y8730D01*
X29063Y8570D01*
X29355Y8490D01*
X29647Y8543D01*
X29897Y8677D01*
X30063Y8917D01*
X30147Y9237D01*
X30313Y9423D01*
X30605Y9503D01*
X30897Y9450D01*
X31105Y9317D01*
X31230Y9130D01*
Y8943D01*
X31147Y8757D01*
X30938Y8597D01*
G01X29855Y7250D02*
Y6397D01*
X30147Y6477D01*
X30313Y6610D01*
X30397Y6797D01*
X30355Y6983D01*
X30230Y7143D01*
X29938Y7250D01*
X29688Y7303D01*
X29438D01*
X29188Y7250D01*
X28938Y7117D01*
X28772Y6957D01*
X28730Y6770D01*
X28813Y6583D01*
X29063Y6397D01*
G01X28730Y5103D02*
X30397D01*
G01X29980D02*
X30188Y4997D01*
X30355Y4837D01*
X30397Y4623D01*
X30355Y4437D01*
X30188Y4277D01*
X29897Y4197D01*
X28730D01*
G01X31230Y2770D02*
Y2130D01*
G01Y2450D02*
X28730D01*
G01Y2770D02*
Y2130D01*
G01X36500Y7487D02*
X39000Y6820D01*
X36500Y6153D01*
G01X37375Y6393D02*
Y7247D01*
G01X37000Y5207D02*
X36708Y5047D01*
X36542Y4833D01*
X36500Y4593D01*
X36542Y4380D01*
X36750Y4167D01*
X37000Y4033D01*
X37250Y4007D01*
X37542Y4060D01*
X37750Y4247D01*
X37833Y4433D01*
Y4673D01*
G01Y4433D02*
X37958Y4273D01*
X38167Y4140D01*
X38417Y4087D01*
X38667Y4140D01*
X38875Y4273D01*
X39000Y4513D01*
X38958Y4753D01*
X38792Y4993D01*
G01X44470Y7487D02*
X46970Y6820D01*
X44470Y6153D01*
G01X45345Y6393D02*
Y7247D01*
G01X46553Y5127D02*
X46803Y4967D01*
X46928Y4780D01*
X46970Y4567D01*
X46887Y4300D01*
X46678Y4113D01*
X46428Y4060D01*
X46178Y4087D01*
X45970Y4193D01*
X45553Y4727D01*
X45262Y4967D01*
X44845Y5127D01*
X44470Y5180D01*
Y4060D01*
G01X31767Y18990D02*
Y21490D01*
X32433D01*
X32647Y21365D01*
X32780Y21198D01*
X32833Y20865D01*
X32780Y20532D01*
X32620Y20323D01*
X32433Y20198D01*
X31767D01*
G01X32433D02*
X32833Y18990D01*
G01X33700Y18157D02*
X35300D01*
G01X36140Y19323D02*
X36353Y19115D01*
X36593Y18990D01*
X36807D01*
X37020Y19115D01*
X37180Y19323D01*
X37260Y19615D01*
X37207Y19907D01*
X37073Y20157D01*
X36833Y20323D01*
X36513Y20407D01*
X36327Y20573D01*
X36247Y20865D01*
X36300Y21157D01*
X36433Y21365D01*
X36620Y21490D01*
X36807D01*
X36993Y21407D01*
X37153Y21198D01*
G01X38340Y18990D02*
Y21490D01*
G01X39460D02*
Y18990D01*
G01Y20240D02*
X38340D01*
G01X40513Y21490D02*
Y19698D01*
X40620Y19323D01*
X40833Y19073D01*
X41100Y18990D01*
X41367Y19073D01*
X41580Y19323D01*
X41687Y19698D01*
Y21490D01*
G01X42687Y18990D02*
Y21490D01*
X43913Y18990D01*
Y21490D01*
G01X45500D02*
Y18990D01*
G01X44887Y21490D02*
X46113D01*
G01X41150Y42883D02*
X37567D01*
X36817Y42630D01*
X36317Y42123D01*
X36150Y41490D01*
X36317Y40857D01*
X36817Y40350D01*
X37567Y40097D01*
X41150D01*
G01X36150Y36390D02*
X41150D01*
X40150Y37150D01*
G01X36150D02*
Y35630D01*
G01X30600Y69870D02*
Y67370D01*
G01X29987Y69870D02*
X31213D01*
G01X32267Y67370D02*
Y69870D01*
X32907D01*
X33120Y69745D01*
X33280Y69453D01*
X33333Y69120D01*
X33280Y68787D01*
X33147Y68537D01*
X32907Y68412D01*
X32267D01*
G01X35320Y67370D02*
Y69870D01*
X34333Y68078D01*
X35667D01*
G01X27530Y138950D02*
Y136450D01*
G01X26917Y138950D02*
X28143D01*
G01X29197Y136450D02*
Y138950D01*
X29837D01*
X30050Y138825D01*
X30210Y138533D01*
X30263Y138200D01*
X30210Y137867D01*
X30077Y137617D01*
X29837Y137492D01*
X29197D01*
G01X31343Y136950D02*
X31503Y136658D01*
X31717Y136492D01*
X31957Y136450D01*
X32170Y136492D01*
X32383Y136700D01*
X32517Y136950D01*
X32543Y137200D01*
X32490Y137492D01*
X32303Y137700D01*
X32117Y137783D01*
X31877D01*
G01X32117D02*
X32277Y137908D01*
X32410Y138117D01*
X32463Y138367D01*
X32410Y138617D01*
X32277Y138825D01*
X32037Y138950D01*
X31797Y138908D01*
X31557Y138742D01*
G01X38903Y153497D02*
X40077Y155330D01*
G01X39490Y155663D02*
Y153163D01*
G01X40077Y153497D02*
X38903Y155330D01*
G01X38690Y154413D02*
X40290D01*
G01X38407Y151564D02*
X35873Y149030D01*
X35522Y148321D01*
X35526Y147609D01*
X35856Y147044D01*
X36422Y146713D01*
X37134Y146709D01*
X37843Y147060D01*
X40377Y149594D01*
G01X40085Y145761D02*
X40811Y145861D01*
X41315Y145827D01*
X41791Y145587D01*
X41987Y145156D01*
X41975Y144696D01*
X41801Y144163D01*
X41433Y143706D01*
X41035Y143397D01*
X40502Y143223D01*
X39939Y143197D01*
X39507Y143393D01*
X39267Y143869D01*
X39307Y144536D01*
X39658Y145245D01*
X40203Y145879D01*
X41058Y146556D01*
X41605Y146834D01*
X42241Y147023D01*
X42850Y147004D01*
X43222Y146749D01*
X43418Y146318D01*
X43347Y145799D01*
G01X32390Y196230D02*
Y193730D01*
G01X31777Y196230D02*
X33003D01*
G01X34057Y193730D02*
Y196230D01*
X34697D01*
X34910Y196105D01*
X35070Y195813D01*
X35123Y195480D01*
X35070Y195147D01*
X34937Y194897D01*
X34697Y194772D01*
X34057D01*
G01X36790Y193730D02*
Y196230D01*
X36470Y195730D01*
G01Y193730D02*
X37110D01*
G01X38750Y188120D02*
X41550D01*
Y186520D01*
X38750D01*
Y188120D01*
G01X38700Y203330D02*
X41500D01*
Y201730D01*
X38700D01*
Y203330D01*
G01X47090Y228827D02*
X49590Y228160D01*
X47090Y227493D01*
G01X47965Y227733D02*
Y228587D01*
G01X47090Y225960D02*
X49590D01*
X49090Y226280D01*
G01X47090D02*
Y225640D01*
G01X39260Y229117D02*
X41760Y228450D01*
X39260Y227783D01*
G01X40135Y228023D02*
Y228877D01*
G01X41343Y226757D02*
X41593Y226597D01*
X41718Y226410D01*
X41760Y226197D01*
X41677Y225930D01*
X41468Y225743D01*
X41218Y225690D01*
X40968Y225717D01*
X40760Y225823D01*
X40343Y226357D01*
X40052Y226597D01*
X39635Y226757D01*
X39260Y226810D01*
Y225690D01*
G01X31340Y229457D02*
X33840Y228790D01*
X31340Y228123D01*
G01X32215Y228363D02*
Y229217D01*
G01X31840Y227177D02*
X31548Y227017D01*
X31382Y226803D01*
X31340Y226563D01*
X31382Y226350D01*
X31590Y226137D01*
X31840Y226003D01*
X32090Y225977D01*
X32382Y226030D01*
X32590Y226217D01*
X32673Y226403D01*
Y226643D01*
G01Y226403D02*
X32798Y226243D01*
X33007Y226110D01*
X33257Y226057D01*
X33507Y226110D01*
X33715Y226243D01*
X33840Y226483D01*
X33798Y226723D01*
X33632Y226963D01*
G01X52340Y7677D02*
X54840Y7010D01*
X52340Y6343D01*
G01X53215Y6583D02*
Y7437D01*
G01X52340Y4810D02*
X54840D01*
X54340Y5130D01*
G01X52340D02*
Y4490D01*
G01X61360Y7630D02*
Y7097D01*
X60610D01*
X60360Y7257D01*
X60193Y7443D01*
X60110Y7710D01*
X60193Y7977D01*
X60360Y8163D01*
X60610Y8323D01*
X60902Y8430D01*
X61235Y8483D01*
X61527D01*
X61777Y8430D01*
X62068Y8323D01*
X62318Y8163D01*
X62485Y8003D01*
X62610Y7790D01*
Y7603D01*
X62527Y7390D01*
X62360Y7230D01*
G01X60110Y6203D02*
X62610D01*
X60110Y4977D01*
X62610D01*
G01X60110Y3977D02*
X62610D01*
Y3443D01*
X62485Y3230D01*
X62318Y3070D01*
X62068Y2937D01*
X61777Y2830D01*
X61360Y2803D01*
X60943Y2830D01*
X60652Y2937D01*
X60402Y3070D01*
X60235Y3230D01*
X60110Y3443D01*
Y3977D01*
G01X70870Y8747D02*
X68370Y8080D01*
X70870Y7413D01*
G01X68370Y6467D02*
X70870D01*
Y5933D01*
X70745Y5720D01*
X70578Y5560D01*
X70328Y5427D01*
X70037Y5320D01*
X69620Y5293D01*
X69203Y5320D01*
X68912Y5427D01*
X68662Y5560D01*
X68495Y5720D01*
X68370Y5933D01*
Y6467D01*
G01Y4267D02*
X70870D01*
Y3733D01*
X70745Y3520D01*
X70578Y3360D01*
X70328Y3227D01*
X70037Y3120D01*
X69620Y3093D01*
X69203Y3120D01*
X68912Y3227D01*
X68662Y3360D01*
X68495Y3520D01*
X68370Y3733D01*
Y4267D01*
G01X65260Y25900D02*
X68060D01*
Y24300D01*
X65260D01*
Y25900D01*
G01X60100Y24300D02*
X57300D01*
Y25900D01*
X60100D01*
Y24300D01*
G01X64240Y49013D02*
X60657D01*
X59907Y48760D01*
X59407Y48253D01*
X59240Y47620D01*
X59407Y46987D01*
X59907Y46480D01*
X60657Y46227D01*
X64240D01*
G01X59240Y42520D02*
X59323Y42077D01*
X59573Y41570D01*
X59990Y41253D01*
X60573Y41127D01*
X61157Y41253D01*
X61657Y41633D01*
X61907Y42203D01*
Y42837D01*
X62073Y43217D01*
X62490Y43533D01*
X63073Y43660D01*
X63657Y43470D01*
X64073Y43027D01*
X64240Y42520D01*
X64073Y42013D01*
X63657Y41570D01*
X63073Y41380D01*
X62490Y41507D01*
X62073Y41823D01*
X61907Y42203D01*
Y42837D01*
X61657Y43407D01*
X61157Y43787D01*
X60573Y43913D01*
X59990Y43787D01*
X59573Y43470D01*
X59323Y42963D01*
X59240Y42520D01*
G01X64840Y63690D02*
X62040D01*
Y65290D01*
X64840D01*
Y63690D01*
G01X57140Y63760D02*
X54340D01*
Y65360D01*
X57140D01*
Y63760D01*
G01X66550Y80950D02*
Y78450D01*
G01X65937Y80950D02*
X67163D01*
G01X68217Y78450D02*
Y80950D01*
X68857D01*
X69070Y80825D01*
X69230Y80533D01*
X69283Y80200D01*
X69230Y79867D01*
X69097Y79617D01*
X68857Y79492D01*
X68217D01*
G01X70363Y78825D02*
X70523Y78617D01*
X70710Y78492D01*
X70950Y78450D01*
X71190Y78533D01*
X71377Y78700D01*
X71510Y78992D01*
X71537Y79325D01*
X71483Y79658D01*
X71350Y79867D01*
X71163Y80033D01*
X70977Y80075D01*
X70790Y80033D01*
X70550Y79867D01*
X70630Y80950D01*
X71350D01*
G01X52400Y71890D02*
Y74690D01*
X54000D01*
Y71890D01*
X52400D01*
G01X54040Y95693D02*
X54253Y95485D01*
X54493Y95360D01*
X54707D01*
X54920Y95485D01*
X55080Y95693D01*
X55160Y95985D01*
X55107Y96277D01*
X54973Y96527D01*
X54733Y96693D01*
X54413Y96777D01*
X54227Y96943D01*
X54147Y97235D01*
X54200Y97527D01*
X54333Y97735D01*
X54520Y97860D01*
X54707D01*
X54893Y97777D01*
X55053Y97568D01*
G01X57387Y97652D02*
X57227Y97777D01*
X57040Y97860D01*
X56827D01*
X56587Y97735D01*
X56400Y97527D01*
X56267Y97277D01*
X56160Y96860D01*
X56133Y96485D01*
X56187Y96110D01*
X56267Y95860D01*
X56427Y95610D01*
X56613Y95443D01*
X56800Y95360D01*
X56987D01*
X57173Y95443D01*
X57333Y95568D01*
X57467Y95735D01*
G01X58947Y95360D02*
X59000Y95902D01*
X59080Y96360D01*
X59187Y96777D01*
X59320Y97235D01*
X59533Y97860D01*
X58467D01*
G01X60877Y92603D02*
Y100477D01*
X53003D01*
Y92603D01*
X60877D01*
G01X58407Y130770D02*
Y127187D01*
X58660Y126437D01*
X59167Y125937D01*
X59800Y125770D01*
X60433Y125937D01*
X60940Y126437D01*
X61193Y127187D01*
Y130770D01*
G01X63507Y126520D02*
X63887Y126103D01*
X64330Y125853D01*
X64900Y125770D01*
X65470Y125937D01*
X65913Y126270D01*
X66230Y126853D01*
X66293Y127520D01*
X66167Y128187D01*
X65850Y128603D01*
X65407Y128937D01*
X64963Y129020D01*
X64520Y128937D01*
X63950Y128603D01*
X64140Y130770D01*
X65850D01*
G01X60760Y114580D02*
X57960D01*
Y116180D01*
X60760D01*
Y114580D01*
G01X70223Y164540D02*
Y168123D01*
X69970Y168873D01*
X69463Y169373D01*
X68830Y169540D01*
X68197Y169373D01*
X67690Y168873D01*
X67437Y168123D01*
Y164540D01*
G01X62970Y169540D02*
Y164540D01*
X65313Y168123D01*
X62147D01*
G01X53133Y203927D02*
Y196053D01*
X61007D01*
Y203927D01*
X53133D01*
G01X58110Y181950D02*
X60910D01*
Y180350D01*
X58110D01*
Y181950D01*
G01X54430Y198883D02*
X54643Y198675D01*
X54883Y198550D01*
X55097D01*
X55310Y198675D01*
X55470Y198883D01*
X55550Y199175D01*
X55497Y199467D01*
X55363Y199717D01*
X55123Y199883D01*
X54803Y199967D01*
X54617Y200133D01*
X54537Y200425D01*
X54590Y200717D01*
X54723Y200925D01*
X54910Y201050D01*
X55097D01*
X55283Y200967D01*
X55443Y200758D01*
G01X57777Y200842D02*
X57617Y200967D01*
X57430Y201050D01*
X57217D01*
X56977Y200925D01*
X56790Y200717D01*
X56657Y200467D01*
X56550Y200050D01*
X56523Y199675D01*
X56577Y199300D01*
X56657Y199050D01*
X56817Y198800D01*
X57003Y198633D01*
X57190Y198550D01*
X57377D01*
X57563Y198633D01*
X57723Y198758D01*
X57857Y198925D01*
G01X58883Y199592D02*
X59070Y199883D01*
X59230Y200050D01*
X59443Y200133D01*
X59630Y200050D01*
X59763Y199883D01*
X59870Y199633D01*
X59897Y199342D01*
X59870Y199092D01*
X59763Y198842D01*
X59603Y198633D01*
X59417Y198550D01*
X59203Y198633D01*
X59017Y198883D01*
X58910Y199258D01*
X58883Y199675D01*
X58937Y200217D01*
X59017Y200508D01*
X59150Y200800D01*
X59337Y201008D01*
X59523Y201050D01*
X59710Y200967D01*
X59843Y200758D01*
G01X65330Y229707D02*
X62830Y229040D01*
X65330Y228373D01*
G01X62830Y226840D02*
X62872Y227053D01*
X63038Y227240D01*
X63288Y227400D01*
X63580Y227507D01*
X63913Y227560D01*
X64247D01*
X64580Y227507D01*
X64872Y227400D01*
X65122Y227240D01*
X65288Y227053D01*
X65330Y226840D01*
X65288Y226627D01*
X65122Y226440D01*
X64872Y226280D01*
X64580Y226173D01*
X64247Y226120D01*
X63913D01*
X63580Y226173D01*
X63288Y226280D01*
X63038Y226440D01*
X62872Y226627D01*
X62830Y226840D01*
G01X64163Y224427D02*
X64288Y224320D01*
X64497Y224240D01*
X64788Y224187D01*
X65038Y224240D01*
X65205Y224347D01*
X65330Y224533D01*
Y225253D01*
X62830D01*
Y224373D01*
X62997Y224187D01*
X63247Y224080D01*
X63538Y224027D01*
X63830Y224080D01*
X64080Y224240D01*
X64163Y224427D01*
Y225253D01*
G01X57370Y229947D02*
X54870Y229280D01*
X57370Y228613D01*
G01X54870Y227080D02*
X54912Y227293D01*
X55078Y227480D01*
X55328Y227640D01*
X55620Y227747D01*
X55953Y227800D01*
X56287D01*
X56620Y227747D01*
X56912Y227640D01*
X57162Y227480D01*
X57328Y227293D01*
X57370Y227080D01*
X57328Y226867D01*
X57162Y226680D01*
X56912Y226520D01*
X56620Y226413D01*
X56287Y226360D01*
X55953D01*
X55620Y226413D01*
X55328Y226520D01*
X55078Y226680D01*
X54912Y226867D01*
X54870Y227080D01*
G01Y225547D02*
X57370Y224880D01*
X54870Y224213D01*
G01X55745Y224453D02*
Y225307D01*
G01X73500Y63230D02*
Y60430D01*
X71900D01*
Y63230D01*
X73500D01*
G01X72690Y95693D02*
X72903Y95485D01*
X73143Y95360D01*
X73357D01*
X73570Y95485D01*
X73730Y95693D01*
X73810Y95985D01*
X73757Y96277D01*
X73623Y96527D01*
X73383Y96693D01*
X73063Y96777D01*
X72877Y96943D01*
X72797Y97235D01*
X72850Y97527D01*
X72983Y97735D01*
X73170Y97860D01*
X73357D01*
X73543Y97777D01*
X73703Y97568D01*
G01X76037Y97652D02*
X75877Y97777D01*
X75690Y97860D01*
X75477D01*
X75237Y97735D01*
X75050Y97527D01*
X74917Y97277D01*
X74810Y96860D01*
X74783Y96485D01*
X74837Y96110D01*
X74917Y95860D01*
X75077Y95610D01*
X75263Y95443D01*
X75450Y95360D01*
X75637D01*
X75823Y95443D01*
X75983Y95568D01*
X76117Y95735D01*
G01X77650Y95360D02*
X77837Y95402D01*
X78050Y95527D01*
X78183Y95735D01*
X78237Y96027D01*
X78183Y96318D01*
X78023Y96568D01*
X77783Y96693D01*
X77517D01*
X77357Y96777D01*
X77223Y96985D01*
X77170Y97277D01*
X77250Y97568D01*
X77437Y97777D01*
X77650Y97860D01*
X77863Y97777D01*
X78050Y97568D01*
X78130Y97277D01*
X78077Y96985D01*
X77943Y96777D01*
X77783Y96693D01*
X77517D01*
X77277Y96568D01*
X77117Y96318D01*
X77063Y96027D01*
X77117Y95735D01*
X77250Y95527D01*
X77463Y95402D01*
X77650Y95360D01*
G01X79337Y92633D02*
Y100507D01*
X71463D01*
Y92633D01*
X79337D01*
G01X79240Y114580D02*
X76440D01*
Y116180D01*
X79240D01*
Y114580D01*
G01X71553Y203937D02*
Y196063D01*
X79427D01*
Y203937D01*
X71553D01*
G01X71680Y182000D02*
X74480D01*
Y180400D01*
X71680D01*
Y182000D01*
G01X78270Y218770D02*
Y218237D01*
X77520D01*
X77270Y218397D01*
X77103Y218583D01*
X77020Y218850D01*
X77103Y219117D01*
X77270Y219303D01*
X77520Y219463D01*
X77812Y219570D01*
X78145Y219623D01*
X78437D01*
X78687Y219570D01*
X78978Y219463D01*
X79228Y219303D01*
X79395Y219143D01*
X79520Y218930D01*
Y218743D01*
X79437Y218530D01*
X79270Y218370D01*
G01X77020Y217343D02*
X79520D01*
X77020Y216117D01*
X79520D01*
G01X77020Y215117D02*
X79520D01*
Y214583D01*
X79395Y214370D01*
X79228Y214210D01*
X78978Y214077D01*
X78687Y213970D01*
X78270Y213943D01*
X77853Y213970D01*
X77562Y214077D01*
X77312Y214210D01*
X77145Y214370D01*
X77020Y214583D01*
Y215117D01*
G01X73080Y198883D02*
X73293Y198675D01*
X73533Y198550D01*
X73747D01*
X73960Y198675D01*
X74120Y198883D01*
X74200Y199175D01*
X74147Y199467D01*
X74013Y199717D01*
X73773Y199883D01*
X73453Y199967D01*
X73267Y200133D01*
X73187Y200425D01*
X73240Y200717D01*
X73373Y200925D01*
X73560Y201050D01*
X73747D01*
X73933Y200967D01*
X74093Y200758D01*
G01X76427Y200842D02*
X76267Y200967D01*
X76080Y201050D01*
X75867D01*
X75627Y200925D01*
X75440Y200717D01*
X75307Y200467D01*
X75200Y200050D01*
X75173Y199675D01*
X75227Y199300D01*
X75307Y199050D01*
X75467Y198800D01*
X75653Y198633D01*
X75840Y198550D01*
X76027D01*
X76213Y198633D01*
X76373Y198758D01*
X76507Y198925D01*
G01X77453D02*
X77613Y198717D01*
X77800Y198592D01*
X78040Y198550D01*
X78280Y198633D01*
X78467Y198800D01*
X78600Y199092D01*
X78627Y199425D01*
X78573Y199758D01*
X78440Y199967D01*
X78253Y200133D01*
X78067Y200175D01*
X77880Y200133D01*
X77640Y199967D01*
X77720Y201050D01*
X78440D01*
G01X73200Y229797D02*
X70700Y229130D01*
X73200Y228463D01*
G01X70700Y227517D02*
X73200D01*
Y226983D01*
X73075Y226770D01*
X72908Y226610D01*
X72658Y226477D01*
X72367Y226370D01*
X71950Y226343D01*
X71533Y226370D01*
X71242Y226477D01*
X70992Y226610D01*
X70825Y226770D01*
X70700Y226983D01*
Y227517D01*
G01Y225317D02*
X73200D01*
Y224783D01*
X73075Y224570D01*
X72908Y224410D01*
X72658Y224277D01*
X72367Y224170D01*
X71950Y224143D01*
X71533Y224170D01*
X71242Y224277D01*
X70992Y224410D01*
X70825Y224570D01*
X70700Y224783D01*
Y225317D01*
G54D12*
G01X19430Y38420D02*
Y51220D01*
G01X6630D02*
Y38420D01*
G01X7350Y123380D02*
X20150D01*
G01Y136180D02*
X7350D01*
G01X10980Y160210D02*
X23780D01*
G01Y173010D02*
X10980D01*
G01X46530Y30010D02*
Y22510D01*
G01D02*
X30530D01*
G01D02*
Y30010D01*
G01X43310Y35970D02*
Y42470D01*
G01X33810D02*
Y35970D01*
G01X30530Y30010D02*
X46530D01*
G01X40243Y155018D02*
X38704Y153478D01*
G01X45268Y146914D02*
X46808Y148453D01*
G01X38017Y139662D02*
X39556Y141202D01*
G01X32992Y147766D02*
X31452Y146227D01*
G01X55770Y51260D02*
Y38460D01*
G01X56170Y123230D02*
X68970D01*
G01Y136030D02*
X56170D01*
G01X59890Y160530D02*
X72690D01*
G01Y173330D02*
X59890D01*
G01X68570Y38460D02*
Y51260D01*
G54D13*
G01X2434Y76170D02*
Y77745D01*
X2893D01*
X3040Y77666D01*
X3132Y77561D01*
X3168Y77351D01*
X3132Y77141D01*
X3021Y77010D01*
X2893Y76931D01*
X2434D01*
G01X2893D02*
X3168Y76170D01*
G01X4060D02*
Y77745D01*
X3840Y77430D01*
G01Y76170D02*
X4280D01*
G01X4915Y76485D02*
X5025Y76301D01*
X5172Y76196D01*
X5337Y76170D01*
X5484Y76196D01*
X5631Y76327D01*
X5723Y76485D01*
X5741Y76642D01*
X5705Y76826D01*
X5576Y76957D01*
X5448Y77010D01*
X5282D01*
G01X5448D02*
X5558Y77089D01*
X5650Y77220D01*
X5686Y77377D01*
X5650Y77535D01*
X5558Y77666D01*
X5392Y77745D01*
X5227Y77719D01*
X5062Y77614D01*
G01X466Y121425D02*
X387Y121315D01*
X335Y121186D01*
Y121039D01*
X414Y120874D01*
X545Y120746D01*
X703Y120654D01*
X965Y120580D01*
X1201Y120562D01*
X1438Y120599D01*
X1595Y120654D01*
X1753Y120764D01*
X1858Y120892D01*
X1910Y121021D01*
Y121150D01*
X1858Y121278D01*
X1779Y121388D01*
X1674Y121480D01*
G01X1595Y121876D02*
X1779Y121986D01*
X1884Y122133D01*
X1910Y122298D01*
X1884Y122445D01*
X1753Y122592D01*
X1595Y122684D01*
X1438Y122702D01*
X1254Y122666D01*
X1123Y122537D01*
X1070Y122409D01*
Y122243D01*
G01Y122409D02*
X991Y122519D01*
X860Y122611D01*
X703Y122647D01*
X545Y122611D01*
X414Y122519D01*
X335Y122353D01*
X361Y122188D01*
X466Y122023D01*
G01X4636Y153925D02*
X4557Y153815D01*
X4505Y153686D01*
Y153539D01*
X4584Y153374D01*
X4715Y153246D01*
X4873Y153154D01*
X5135Y153080D01*
X5371Y153062D01*
X5608Y153099D01*
X5765Y153154D01*
X5923Y153264D01*
X6028Y153392D01*
X6080Y153521D01*
Y153650D01*
X6028Y153778D01*
X5949Y153888D01*
X5844Y153980D01*
G01X6080Y154780D02*
X4505D01*
X4820Y154560D01*
G01X6080D02*
Y155000D01*
G01X4767Y155690D02*
X4610Y155800D01*
X4531Y155929D01*
X4505Y156076D01*
X4557Y156259D01*
X4689Y156388D01*
X4846Y156425D01*
X5004Y156406D01*
X5135Y156333D01*
X5398Y155966D01*
X5581Y155800D01*
X5844Y155690D01*
X6080Y155653D01*
Y156425D01*
G01X4014Y175315D02*
X4093Y175425D01*
X4145Y175554D01*
Y175701D01*
X4066Y175866D01*
X3935Y175994D01*
X3777Y176086D01*
X3515Y176160D01*
X3279Y176178D01*
X3042Y176141D01*
X2885Y176086D01*
X2727Y175976D01*
X2622Y175848D01*
X2570Y175719D01*
Y175590D01*
X2622Y175462D01*
X2701Y175352D01*
X2806Y175260D01*
G01X3883Y174809D02*
X4040Y174699D01*
X4119Y174570D01*
X4145Y174423D01*
X4093Y174240D01*
X3961Y174111D01*
X3804Y174074D01*
X3646Y174093D01*
X3515Y174166D01*
X3252Y174533D01*
X3069Y174699D01*
X2806Y174809D01*
X2570Y174846D01*
Y174074D01*
G01X21480Y19164D02*
X19905D01*
Y19623D01*
X19984Y19770D01*
X20089Y19862D01*
X20299Y19898D01*
X20509Y19862D01*
X20640Y19751D01*
X20719Y19623D01*
Y19164D01*
G01Y19623D02*
X21480Y19898D01*
G01Y20790D02*
X19905D01*
X20220Y20570D01*
G01X21480D02*
Y21010D01*
G01X21244Y21645D02*
X21375Y21755D01*
X21454Y21884D01*
X21480Y22049D01*
X21428Y22214D01*
X21323Y22343D01*
X21139Y22435D01*
X20929Y22453D01*
X20719Y22416D01*
X20587Y22324D01*
X20483Y22196D01*
X20456Y22067D01*
X20483Y21939D01*
X20587Y21774D01*
X19905Y21829D01*
Y22324D01*
G01X6540Y20454D02*
X4965D01*
Y20913D01*
X5044Y21060D01*
X5149Y21152D01*
X5359Y21188D01*
X5569Y21152D01*
X5700Y21041D01*
X5779Y20913D01*
Y20454D01*
G01Y20913D02*
X6540Y21188D01*
G01Y22080D02*
X4965D01*
X5280Y21860D01*
G01X6540D02*
Y22300D01*
G01X5884Y22990D02*
X5700Y23119D01*
X5595Y23229D01*
X5543Y23376D01*
X5595Y23504D01*
X5700Y23596D01*
X5858Y23670D01*
X6041Y23688D01*
X6199Y23670D01*
X6356Y23596D01*
X6488Y23486D01*
X6540Y23357D01*
X6488Y23210D01*
X6330Y23082D01*
X6094Y23008D01*
X5831Y22990D01*
X5490Y23027D01*
X5306Y23082D01*
X5123Y23174D01*
X4991Y23302D01*
X4965Y23431D01*
X5017Y23559D01*
X5149Y23651D01*
G01X19166Y36795D02*
X19087Y36685D01*
X19035Y36556D01*
Y36409D01*
X19114Y36244D01*
X19245Y36116D01*
X19403Y36024D01*
X19665Y35950D01*
X19901Y35932D01*
X20138Y35969D01*
X20295Y36024D01*
X20453Y36134D01*
X20558Y36262D01*
X20610Y36391D01*
Y36520D01*
X20558Y36648D01*
X20479Y36758D01*
X20374Y36850D01*
G01X20610Y37650D02*
X19035D01*
X19350Y37430D01*
G01X20610D02*
Y37870D01*
G01Y38872D02*
X20269Y38909D01*
X19980Y38964D01*
X19717Y39038D01*
X19429Y39129D01*
X19035Y39276D01*
Y38542D01*
G01X20485Y71924D02*
X20375Y72003D01*
X20246Y72055D01*
X20099D01*
X19934Y71976D01*
X19806Y71845D01*
X19714Y71687D01*
X19640Y71425D01*
X19622Y71189D01*
X19659Y70952D01*
X19714Y70795D01*
X19824Y70637D01*
X19952Y70532D01*
X20081Y70480D01*
X20210D01*
X20338Y70532D01*
X20448Y70611D01*
X20540Y70716D01*
G01X21028Y70664D02*
X21156Y70532D01*
X21303Y70480D01*
X21450Y70532D01*
X21579Y70690D01*
X21671Y70926D01*
X21707Y71162D01*
Y71451D01*
X21671Y71687D01*
X21579Y71897D01*
X21469Y72003D01*
X21340Y72055D01*
X21193Y72003D01*
X21083Y71897D01*
X21009Y71740D01*
X20973Y71530D01*
X21009Y71346D01*
X21101Y71162D01*
X21211Y71057D01*
X21340Y71031D01*
X21487Y71084D01*
X21597Y71215D01*
X21707Y71451D01*
G01X11530Y61044D02*
X9955D01*
Y61503D01*
X10034Y61650D01*
X10139Y61742D01*
X10349Y61778D01*
X10559Y61742D01*
X10690Y61631D01*
X10769Y61503D01*
Y61044D01*
G01Y61503D02*
X11530Y61778D01*
G01Y62670D02*
X9955D01*
X10270Y62450D01*
G01X11530D02*
Y62890D01*
G01Y63929D02*
X9955D01*
X10270Y63709D01*
G01X11530D02*
Y64149D01*
G01X19484Y57270D02*
Y58845D01*
X19943D01*
X20090Y58766D01*
X20182Y58661D01*
X20218Y58451D01*
X20182Y58241D01*
X20071Y58110D01*
X19943Y58031D01*
X19484D01*
G01X19943D02*
X20218Y57270D01*
G01X21110D02*
Y58845D01*
X20890Y58530D01*
G01Y57270D02*
X21330D01*
G01X22020Y58583D02*
X22130Y58740D01*
X22259Y58819D01*
X22406Y58845D01*
X22589Y58793D01*
X22718Y58661D01*
X22755Y58504D01*
X22736Y58346D01*
X22663Y58215D01*
X22296Y57952D01*
X22130Y57769D01*
X22020Y57506D01*
X21983Y57270D01*
X22755D01*
G01X6280Y66706D02*
X7855D01*
Y66247D01*
X7776Y66100D01*
X7671Y66008D01*
X7461Y65972D01*
X7251Y66008D01*
X7120Y66119D01*
X7041Y66247D01*
Y66706D01*
G01Y66247D02*
X6280Y65972D01*
G01Y65080D02*
X7855D01*
X7540Y65300D01*
G01X6280D02*
Y64860D01*
G01Y63601D02*
X7855D01*
X6726Y64280D01*
Y63362D01*
G01X16356Y113015D02*
X16277Y112905D01*
X16225Y112776D01*
Y112629D01*
X16304Y112464D01*
X16435Y112336D01*
X16593Y112244D01*
X16855Y112170D01*
X17091Y112152D01*
X17328Y112189D01*
X17485Y112244D01*
X17643Y112354D01*
X17748Y112482D01*
X17800Y112611D01*
Y112740D01*
X17748Y112868D01*
X17669Y112978D01*
X17564Y113070D01*
G01X17800Y114090D02*
X16225D01*
X17354Y113411D01*
Y114329D01*
G01X22650Y112234D02*
X21075D01*
Y112693D01*
X21154Y112840D01*
X21259Y112932D01*
X21469Y112968D01*
X21679Y112932D01*
X21810Y112821D01*
X21889Y112693D01*
Y112234D01*
G01Y112693D02*
X22650Y112968D01*
G01X21994Y113511D02*
X21810Y113640D01*
X21705Y113750D01*
X21653Y113897D01*
X21705Y114025D01*
X21810Y114117D01*
X21968Y114191D01*
X22151Y114209D01*
X22309Y114191D01*
X22466Y114117D01*
X22598Y114007D01*
X22650Y113878D01*
X22598Y113731D01*
X22440Y113603D01*
X22204Y113529D01*
X21941Y113511D01*
X21600Y113548D01*
X21416Y113603D01*
X21233Y113695D01*
X21101Y113823D01*
X21075Y113952D01*
X21127Y114080D01*
X21259Y114172D01*
G01X6480Y120364D02*
X4905D01*
Y120823D01*
X4984Y120970D01*
X5089Y121062D01*
X5299Y121098D01*
X5509Y121062D01*
X5640Y120951D01*
X5719Y120823D01*
Y120364D01*
G01Y120823D02*
X6480Y121098D01*
G01X6244Y121586D02*
X6375Y121696D01*
X6454Y121825D01*
X6480Y121990D01*
X6428Y122155D01*
X6323Y122284D01*
X6139Y122376D01*
X5929Y122394D01*
X5719Y122357D01*
X5587Y122265D01*
X5483Y122137D01*
X5456Y122008D01*
X5483Y121880D01*
X5587Y121715D01*
X4905Y121770D01*
Y122265D01*
G01X7350Y175836D02*
X8925D01*
Y175377D01*
X8846Y175230D01*
X8741Y175138D01*
X8531Y175102D01*
X8321Y175138D01*
X8190Y175249D01*
X8111Y175377D01*
Y175836D01*
G01Y175377D02*
X7350Y175102D01*
G01Y173990D02*
X8925D01*
X7796Y174669D01*
Y173751D01*
G01X17944Y184245D02*
X18023Y184355D01*
X18075Y184484D01*
Y184631D01*
X17996Y184796D01*
X17865Y184924D01*
X17707Y185016D01*
X17445Y185090D01*
X17209Y185108D01*
X16972Y185071D01*
X16815Y185016D01*
X16657Y184906D01*
X16552Y184778D01*
X16500Y184649D01*
Y184520D01*
X16552Y184392D01*
X16631Y184282D01*
X16736Y184190D01*
G01X16500Y183390D02*
X18075D01*
X17760Y183610D01*
G01X16500D02*
Y183170D01*
G01X35315Y54244D02*
X35205Y54323D01*
X35076Y54375D01*
X34929D01*
X34764Y54296D01*
X34636Y54165D01*
X34544Y54007D01*
X34470Y53745D01*
X34452Y53509D01*
X34489Y53272D01*
X34544Y53115D01*
X34654Y52957D01*
X34782Y52852D01*
X34911Y52800D01*
X35040D01*
X35168Y52852D01*
X35278Y52931D01*
X35370Y53036D01*
G01X36170Y52800D02*
Y54375D01*
X35950Y54060D01*
G01Y52800D02*
X36390D01*
G01X37429D02*
Y54375D01*
X37209Y54060D01*
G01Y52800D02*
X37649D01*
G01X30025Y130664D02*
X29915Y130743D01*
X29786Y130795D01*
X29639D01*
X29474Y130716D01*
X29346Y130585D01*
X29254Y130427D01*
X29180Y130165D01*
X29162Y129929D01*
X29199Y129692D01*
X29254Y129535D01*
X29364Y129377D01*
X29492Y129272D01*
X29621Y129220D01*
X29750D01*
X29878Y129272D01*
X29988Y129351D01*
X30080Y129456D01*
G01X30880Y129220D02*
Y130795D01*
X30660Y130480D01*
G01Y129220D02*
X31100D01*
G01X31735Y129535D02*
X31845Y129351D01*
X31992Y129246D01*
X32157Y129220D01*
X32304Y129246D01*
X32451Y129377D01*
X32543Y129535D01*
X32561Y129692D01*
X32525Y129876D01*
X32396Y130007D01*
X32268Y130060D01*
X32102D01*
G01X32268D02*
X32378Y130139D01*
X32470Y130270D01*
X32506Y130427D01*
X32470Y130585D01*
X32378Y130716D01*
X32212Y130795D01*
X32047Y130769D01*
X31882Y130664D01*
G01X49445Y158916D02*
X49555Y158837D01*
X49684Y158785D01*
X49831D01*
X49996Y158864D01*
X50124Y158995D01*
X50216Y159153D01*
X50290Y159415D01*
X50308Y159651D01*
X50271Y159888D01*
X50216Y160045D01*
X50106Y160203D01*
X49978Y160308D01*
X49849Y160360D01*
X49720D01*
X49592Y160308D01*
X49482Y160229D01*
X49390Y160124D01*
G01X48590Y160360D02*
Y158785D01*
X48810Y159100D01*
G01Y160360D02*
X48370D01*
G01X47111D02*
Y158785D01*
X47790Y159914D01*
X46872D01*
G01X27870Y184246D02*
X29445D01*
Y183787D01*
X29366Y183640D01*
X29261Y183548D01*
X29051Y183512D01*
X28841Y183548D01*
X28710Y183659D01*
X28631Y183787D01*
Y184246D01*
G01Y183787D02*
X27870Y183512D01*
G01X28185Y183024D02*
X28001Y182914D01*
X27896Y182767D01*
X27870Y182602D01*
X27896Y182455D01*
X28027Y182308D01*
X28185Y182216D01*
X28342Y182198D01*
X28526Y182234D01*
X28657Y182363D01*
X28710Y182491D01*
Y182657D01*
G01Y182491D02*
X28789Y182381D01*
X28920Y182289D01*
X29077Y182253D01*
X29235Y182289D01*
X29366Y182381D01*
X29445Y182547D01*
X29419Y182712D01*
X29314Y182877D01*
G01X42900Y190636D02*
X44475D01*
Y190177D01*
X44396Y190030D01*
X44291Y189938D01*
X44081Y189902D01*
X43871Y189938D01*
X43740Y190049D01*
X43661Y190177D01*
Y190636D01*
G01Y190177D02*
X42900Y189902D01*
G01Y189010D02*
X44475D01*
X44160Y189230D01*
G01X42900D02*
Y188790D01*
G01X42850Y205846D02*
X44425D01*
Y205387D01*
X44346Y205240D01*
X44241Y205148D01*
X44031Y205112D01*
X43821Y205148D01*
X43690Y205259D01*
X43611Y205387D01*
Y205846D01*
G01Y205387D02*
X42850Y205112D01*
G01X44163Y204569D02*
X44320Y204459D01*
X44399Y204330D01*
X44425Y204183D01*
X44373Y204000D01*
X44241Y203871D01*
X44084Y203834D01*
X43926Y203853D01*
X43795Y203926D01*
X43532Y204293D01*
X43349Y204459D01*
X43086Y204569D01*
X42850Y204606D01*
Y203834D01*
G01X55950Y21784D02*
X54375D01*
Y22243D01*
X54454Y22390D01*
X54559Y22482D01*
X54769Y22518D01*
X54979Y22482D01*
X55110Y22371D01*
X55189Y22243D01*
Y21784D01*
G01Y22243D02*
X55950Y22518D01*
G01X54637Y23061D02*
X54480Y23171D01*
X54401Y23300D01*
X54375Y23447D01*
X54427Y23630D01*
X54559Y23759D01*
X54716Y23796D01*
X54874Y23777D01*
X55005Y23704D01*
X55268Y23337D01*
X55451Y23171D01*
X55714Y23061D01*
X55950Y23024D01*
Y23796D01*
G01X54637Y24320D02*
X54480Y24430D01*
X54401Y24559D01*
X54375Y24706D01*
X54427Y24889D01*
X54559Y25018D01*
X54716Y25055D01*
X54874Y25036D01*
X55005Y24963D01*
X55268Y24596D01*
X55451Y24430D01*
X55714Y24320D01*
X55950Y24283D01*
Y25055D01*
G01X60600Y60854D02*
X59025D01*
Y61313D01*
X59104Y61460D01*
X59209Y61552D01*
X59419Y61588D01*
X59629Y61552D01*
X59760Y61441D01*
X59839Y61313D01*
Y60854D01*
G01Y61313D02*
X60600Y61588D01*
G01Y62480D02*
X59025D01*
X59340Y62260D01*
G01X60600D02*
Y62700D01*
G01Y63702D02*
X60259Y63739D01*
X59970Y63794D01*
X59707Y63868D01*
X59419Y63959D01*
X59025Y64106D01*
Y63372D01*
G01X52730Y57844D02*
X51155D01*
Y58303D01*
X51234Y58450D01*
X51339Y58542D01*
X51549Y58578D01*
X51759Y58542D01*
X51890Y58431D01*
X51969Y58303D01*
Y57844D01*
G01Y58303D02*
X52730Y58578D01*
G01X51417Y59121D02*
X51260Y59231D01*
X51181Y59360D01*
X51155Y59507D01*
X51207Y59690D01*
X51339Y59819D01*
X51496Y59856D01*
X51654Y59837D01*
X51785Y59764D01*
X52048Y59397D01*
X52231Y59231D01*
X52494Y59121D01*
X52730Y59084D01*
Y59856D01*
G01X51155Y60729D02*
X51207Y60582D01*
X51339Y60472D01*
X51496Y60398D01*
X51706Y60343D01*
X51943Y60325D01*
X52179Y60343D01*
X52389Y60398D01*
X52546Y60472D01*
X52678Y60582D01*
X52730Y60729D01*
X52678Y60876D01*
X52546Y60986D01*
X52389Y61060D01*
X52179Y61115D01*
X51943Y61133D01*
X51706Y61115D01*
X51496Y61060D01*
X51339Y60986D01*
X51207Y60876D01*
X51155Y60729D01*
G01X49884Y76040D02*
Y77615D01*
X50343D01*
X50490Y77536D01*
X50582Y77431D01*
X50618Y77221D01*
X50582Y77011D01*
X50471Y76880D01*
X50343Y76801D01*
X49884D01*
G01X50343D02*
X50618Y76040D01*
G01X51510D02*
Y77615D01*
X51290Y77300D01*
G01Y76040D02*
X51730D01*
G01X52457Y76224D02*
X52585Y76092D01*
X52732Y76040D01*
X52879Y76092D01*
X53008Y76250D01*
X53100Y76486D01*
X53136Y76722D01*
Y77011D01*
X53100Y77247D01*
X53008Y77457D01*
X52898Y77563D01*
X52769Y77615D01*
X52622Y77563D01*
X52512Y77457D01*
X52438Y77300D01*
X52402Y77090D01*
X52438Y76906D01*
X52530Y76722D01*
X52640Y76617D01*
X52769Y76591D01*
X52916Y76644D01*
X53026Y76775D01*
X53136Y77011D01*
G01X50046Y112495D02*
X49967Y112385D01*
X49915Y112256D01*
Y112109D01*
X49994Y111944D01*
X50125Y111816D01*
X50283Y111724D01*
X50545Y111650D01*
X50781Y111632D01*
X51018Y111669D01*
X51175Y111724D01*
X51333Y111834D01*
X51438Y111962D01*
X51490Y112091D01*
Y112220D01*
X51438Y112348D01*
X51359Y112458D01*
X51254Y112550D01*
G01X51490Y113313D02*
X51149Y113350D01*
X50860Y113405D01*
X50597Y113479D01*
X50309Y113570D01*
X49915Y113717D01*
Y112983D01*
G01X63590Y111914D02*
X62015D01*
Y112373D01*
X62094Y112520D01*
X62199Y112612D01*
X62409Y112648D01*
X62619Y112612D01*
X62750Y112501D01*
X62829Y112373D01*
Y111914D01*
G01Y112373D02*
X63590Y112648D01*
G01X63406Y113228D02*
X63538Y113356D01*
X63590Y113503D01*
X63538Y113650D01*
X63380Y113779D01*
X63144Y113871D01*
X62908Y113907D01*
X62619D01*
X62383Y113871D01*
X62173Y113779D01*
X62067Y113669D01*
X62015Y113540D01*
X62067Y113393D01*
X62173Y113283D01*
X62330Y113209D01*
X62540Y113173D01*
X62724Y113209D01*
X62908Y113301D01*
X63013Y113411D01*
X63039Y113540D01*
X62986Y113687D01*
X62855Y113797D01*
X62619Y113907D01*
G01X52845Y152286D02*
X52955Y152207D01*
X53084Y152155D01*
X53231D01*
X53396Y152234D01*
X53524Y152365D01*
X53616Y152523D01*
X53690Y152785D01*
X53708Y153021D01*
X53671Y153258D01*
X53616Y153415D01*
X53506Y153573D01*
X53378Y153678D01*
X53249Y153730D01*
X53120D01*
X52992Y153678D01*
X52882Y153599D01*
X52790Y153494D01*
G01X51990Y153730D02*
Y152155D01*
X52210Y152470D01*
G01Y153730D02*
X51770D01*
G01X51080Y153074D02*
X50951Y152890D01*
X50841Y152785D01*
X50694Y152733D01*
X50566Y152785D01*
X50474Y152890D01*
X50400Y153048D01*
X50382Y153231D01*
X50400Y153389D01*
X50474Y153546D01*
X50584Y153678D01*
X50713Y153730D01*
X50860Y153678D01*
X50988Y153520D01*
X51062Y153284D01*
X51080Y153021D01*
X51043Y152680D01*
X50988Y152496D01*
X50896Y152313D01*
X50768Y152181D01*
X50639Y152155D01*
X50511Y152207D01*
X50419Y152339D01*
G01X51974Y184175D02*
X52053Y184285D01*
X52105Y184414D01*
Y184561D01*
X52026Y184726D01*
X51895Y184854D01*
X51737Y184946D01*
X51475Y185020D01*
X51239Y185038D01*
X51002Y185001D01*
X50845Y184946D01*
X50687Y184836D01*
X50582Y184708D01*
X50530Y184579D01*
Y184450D01*
X50582Y184322D01*
X50661Y184212D01*
X50766Y184120D01*
G01X51186Y183669D02*
X51370Y183540D01*
X51475Y183430D01*
X51527Y183283D01*
X51475Y183155D01*
X51370Y183063D01*
X51212Y182989D01*
X51029Y182971D01*
X50871Y182989D01*
X50714Y183063D01*
X50582Y183173D01*
X50530Y183302D01*
X50582Y183449D01*
X50740Y183577D01*
X50976Y183651D01*
X51239Y183669D01*
X51580Y183632D01*
X51764Y183577D01*
X51947Y183485D01*
X52079Y183357D01*
X52105Y183228D01*
X52053Y183100D01*
X51921Y183008D01*
G01X61710Y185186D02*
X63285D01*
Y184727D01*
X63206Y184580D01*
X63101Y184488D01*
X62891Y184452D01*
X62681Y184488D01*
X62550Y184599D01*
X62471Y184727D01*
Y185186D01*
G01Y184727D02*
X61710Y184452D01*
G01Y183560D02*
X61736Y183431D01*
X61815Y183285D01*
X61946Y183193D01*
X62130Y183156D01*
X62314Y183193D01*
X62471Y183303D01*
X62550Y183468D01*
Y183652D01*
X62603Y183762D01*
X62734Y183854D01*
X62917Y183891D01*
X63101Y183835D01*
X63233Y183707D01*
X63285Y183560D01*
X63233Y183413D01*
X63101Y183285D01*
X62917Y183229D01*
X62734Y183266D01*
X62603Y183358D01*
X62550Y183468D01*
Y183652D01*
X62471Y183817D01*
X62314Y183927D01*
X62130Y183964D01*
X61946Y183927D01*
X61815Y183835D01*
X61736Y183689D01*
X61710Y183560D01*
G01X71180Y20474D02*
X69605D01*
Y20933D01*
X69684Y21080D01*
X69789Y21172D01*
X69999Y21208D01*
X70209Y21172D01*
X70340Y21061D01*
X70419Y20933D01*
Y20474D01*
G01Y20933D02*
X71180Y21208D01*
G01X69867Y21751D02*
X69710Y21861D01*
X69631Y21990D01*
X69605Y22137D01*
X69657Y22320D01*
X69789Y22449D01*
X69946Y22486D01*
X70104Y22467D01*
X70235Y22394D01*
X70498Y22027D01*
X70681Y21861D01*
X70944Y21751D01*
X71180Y21714D01*
Y22486D01*
G01Y23359D02*
X69605D01*
X69920Y23139D01*
G01X71180D02*
Y23579D01*
G01X68276Y36825D02*
X68197Y36715D01*
X68145Y36586D01*
Y36439D01*
X68224Y36274D01*
X68355Y36146D01*
X68513Y36054D01*
X68775Y35980D01*
X69011Y35962D01*
X69248Y35999D01*
X69405Y36054D01*
X69563Y36164D01*
X69668Y36292D01*
X69720Y36421D01*
Y36550D01*
X69668Y36678D01*
X69589Y36788D01*
X69484Y36880D01*
G01X69720Y37680D02*
X68145D01*
X68460Y37460D01*
G01X69720D02*
Y37900D01*
G01Y38939D02*
X69694Y39068D01*
X69615Y39214D01*
X69484Y39306D01*
X69300Y39343D01*
X69116Y39306D01*
X68959Y39196D01*
X68880Y39031D01*
Y38847D01*
X68827Y38737D01*
X68696Y38645D01*
X68513Y38608D01*
X68329Y38664D01*
X68197Y38792D01*
X68145Y38939D01*
X68197Y39086D01*
X68329Y39214D01*
X68513Y39270D01*
X68696Y39233D01*
X68827Y39141D01*
X68880Y39031D01*
Y38847D01*
X68959Y38682D01*
X69116Y38572D01*
X69300Y38535D01*
X69484Y38572D01*
X69615Y38664D01*
X69694Y38810D01*
X69720Y38939D01*
G01X70165Y71814D02*
X70055Y71893D01*
X69926Y71945D01*
X69779D01*
X69614Y71866D01*
X69486Y71735D01*
X69394Y71577D01*
X69320Y71315D01*
X69302Y71079D01*
X69339Y70842D01*
X69394Y70685D01*
X69504Y70527D01*
X69632Y70422D01*
X69761Y70370D01*
X69890D01*
X70018Y70422D01*
X70128Y70501D01*
X70220Y70606D01*
G01X71020Y70370D02*
Y71945D01*
X70800Y71630D01*
G01Y70370D02*
X71240D01*
G01X72279Y71945D02*
X72132Y71893D01*
X72022Y71761D01*
X71948Y71604D01*
X71893Y71394D01*
X71875Y71157D01*
X71893Y70921D01*
X71948Y70711D01*
X72022Y70554D01*
X72132Y70422D01*
X72279Y70370D01*
X72426Y70422D01*
X72536Y70554D01*
X72610Y70711D01*
X72665Y70921D01*
X72683Y71157D01*
X72665Y71394D01*
X72610Y71604D01*
X72536Y71761D01*
X72426Y71893D01*
X72279Y71945D01*
G01X69824Y57850D02*
Y59425D01*
X70283D01*
X70430Y59346D01*
X70522Y59241D01*
X70558Y59031D01*
X70522Y58821D01*
X70411Y58690D01*
X70283Y58611D01*
X69824D01*
G01X70283D02*
X70558Y57850D01*
G01X71450D02*
Y59425D01*
X71230Y59110D01*
G01Y57850D02*
X71670D01*
G01X72709D02*
X72838Y57876D01*
X72984Y57955D01*
X73076Y58086D01*
X73113Y58270D01*
X73076Y58454D01*
X72966Y58611D01*
X72801Y58690D01*
X72617D01*
X72507Y58743D01*
X72415Y58874D01*
X72378Y59057D01*
X72434Y59241D01*
X72562Y59373D01*
X72709Y59425D01*
X72856Y59373D01*
X72984Y59241D01*
X73040Y59057D01*
X73003Y58874D01*
X72911Y58743D01*
X72801Y58690D01*
X72617D01*
X72452Y58611D01*
X72342Y58454D01*
X72305Y58270D01*
X72342Y58086D01*
X72434Y57955D01*
X72580Y57876D01*
X72709Y57850D01*
G01X70616Y121465D02*
X70537Y121355D01*
X70485Y121226D01*
Y121079D01*
X70564Y120914D01*
X70695Y120786D01*
X70853Y120694D01*
X71115Y120620D01*
X71351Y120602D01*
X71588Y120639D01*
X71745Y120694D01*
X71903Y120804D01*
X72008Y120932D01*
X72060Y121061D01*
Y121190D01*
X72008Y121318D01*
X71929Y121428D01*
X71824Y121520D01*
G01X72060Y122320D02*
X72034Y122449D01*
X71955Y122595D01*
X71824Y122687D01*
X71640Y122724D01*
X71456Y122687D01*
X71299Y122577D01*
X71220Y122412D01*
Y122228D01*
X71167Y122118D01*
X71036Y122026D01*
X70853Y121989D01*
X70669Y122045D01*
X70537Y122173D01*
X70485Y122320D01*
X70537Y122467D01*
X70669Y122595D01*
X70853Y122651D01*
X71036Y122614D01*
X71167Y122522D01*
X71220Y122412D01*
Y122228D01*
X71299Y122063D01*
X71456Y121953D01*
X71640Y121916D01*
X71824Y121953D01*
X71955Y122045D01*
X72034Y122191D01*
X72060Y122320D01*
G01X73836Y128365D02*
X73757Y128255D01*
X73705Y128126D01*
Y127979D01*
X73784Y127814D01*
X73915Y127686D01*
X74073Y127594D01*
X74335Y127520D01*
X74571Y127502D01*
X74808Y127539D01*
X74965Y127594D01*
X75123Y127704D01*
X75228Y127832D01*
X75280Y127961D01*
Y128090D01*
X75228Y128218D01*
X75149Y128328D01*
X75044Y128420D01*
G01X75280Y129220D02*
X73705D01*
X74020Y129000D01*
G01X75280D02*
Y129440D01*
G01X75044Y130075D02*
X75175Y130185D01*
X75254Y130314D01*
X75280Y130479D01*
X75228Y130644D01*
X75123Y130773D01*
X74939Y130865D01*
X74729Y130883D01*
X74519Y130846D01*
X74387Y130754D01*
X74283Y130626D01*
X74256Y130497D01*
X74283Y130369D01*
X74387Y130204D01*
X73705Y130259D01*
Y130754D01*
G01X77350Y120404D02*
X75775D01*
Y120863D01*
X75854Y121010D01*
X75959Y121102D01*
X76169Y121138D01*
X76379Y121102D01*
X76510Y120991D01*
X76589Y120863D01*
Y120404D01*
G01Y120863D02*
X77350Y121138D01*
G01Y122030D02*
X75775D01*
X76090Y121810D01*
G01X77350D02*
Y122250D01*
G01X75775Y123289D02*
X75827Y123142D01*
X75959Y123032D01*
X76116Y122958D01*
X76326Y122903D01*
X76563Y122885D01*
X76799Y122903D01*
X77009Y122958D01*
X77166Y123032D01*
X77298Y123142D01*
X77350Y123289D01*
X77298Y123436D01*
X77166Y123546D01*
X77009Y123620D01*
X76799Y123675D01*
X76563Y123693D01*
X76326Y123675D01*
X76116Y123620D01*
X75959Y123546D01*
X75827Y123436D01*
X75775Y123289D01*
G01X79424Y175625D02*
X79503Y175735D01*
X79555Y175864D01*
Y176011D01*
X79476Y176176D01*
X79345Y176304D01*
X79187Y176396D01*
X78925Y176470D01*
X78689Y176488D01*
X78452Y176451D01*
X78295Y176396D01*
X78137Y176286D01*
X78032Y176158D01*
X77980Y176029D01*
Y175900D01*
X78032Y175772D01*
X78111Y175662D01*
X78216Y175570D01*
G01Y175174D02*
X78085Y175064D01*
X78006Y174935D01*
X77980Y174770D01*
X78032Y174605D01*
X78137Y174476D01*
X78321Y174384D01*
X78531Y174366D01*
X78741Y174403D01*
X78873Y174495D01*
X78977Y174623D01*
X79004Y174752D01*
X78977Y174880D01*
X78873Y175045D01*
X79555Y174990D01*
Y174495D01*
G01X73370Y176496D02*
X74945D01*
Y176037D01*
X74866Y175890D01*
X74761Y175798D01*
X74551Y175762D01*
X74341Y175798D01*
X74210Y175909D01*
X74131Y176037D01*
Y176496D01*
G01Y176037D02*
X73370Y175762D01*
G01Y174907D02*
X73711Y174870D01*
X74000Y174815D01*
X74263Y174741D01*
X74551Y174650D01*
X74945Y174503D01*
Y175237D01*
M02*
