G04 ================== begin FILE IDENTIFICATION RECORD ==================*
G04 Layout Name:  msd_foot_main.brd*
G04 Film Name:    SOLDERMASK_TOP*
G04 File Format:  Gerber RS274X*
G04 File Origin:  Cadence Allegro 17.2-S071*
G04 Origin Date:  Wed Nov 25 01:49:06 2020*
G04 *
G04 Layer:  VIA CLASS/SOLDERMASK_TOP*
G04 Layer:  PIN/SOLDERMASK_TOP*
G04 Layer:  PACKAGE GEOMETRY/SOLDERMASK_TOP*
G04 Layer:  DRC ERROR CLASS/SOLDERMASK_TOP*
G04 Layer:  BOARD GEOMETRY/SOLDERMASK_TOP*
G04 Layer:  BOARD GEOMETRY/DESIGN_OUTLINE*
G04 *
G04 Offset:    (0.00 0.00)*
G04 Mirror:    No*
G04 Mode:      Positive*
G04 Rotation:  0*
G04 FullContactRelief:  No*
G04 UndefLineWidth:     5.00*
G04 ================== end FILE IDENTIFICATION RECORD ====================*
%FSLAX25Y25*MOIN*%
%IR0*IPPOS*OFA0.00000B0.00000*MIA0B0*SFA1.00000B1.00000*%
%ADD18C,.044*%
%ADD16R,.05X.05*%
%ADD14R,.04724X.10236*%
%ADD11R,.08661X.08661*%
%AMMACRO21*
21,1,.00787,.02953,0.0,0.0,45.*%
%ADD21MACRO21*%
%AMMACRO20*
21,1,.00787,.02559,0.0,0.0,45.*%
%ADD20MACRO20*%
%ADD15R,.018X.06*%
%ADD17R,.014X.0335*%
%ADD13R,.06X.018*%
%ADD10R,.04343X.03556*%
%ADD12R,.03556X.04343*%
%AMMACRO19*
21,1,.00787,.02559,0.0,0.0,135.*%
%ADD19MACRO19*%
%ADD22C,.005*%
G75*
%LPD*%
G75*
G36*
G01X41357Y153743D02*
X39269Y151655D01*
X40104Y150820D01*
X42192Y152908D01*
X41357Y153743D01*
G37*
G36*
G01X42470Y152629D02*
X40383Y150542D01*
X41218Y149707D01*
X43305Y151794D01*
X42470Y152629D01*
G37*
G36*
G01X43584Y151515D02*
X41497Y149428D01*
X42332Y148593D01*
X44419Y150680D01*
X43584Y151515D01*
G37*
G36*
G01X44698Y150402D02*
X42610Y148314D01*
X43445Y147479D01*
X45533Y149567D01*
X44698Y150402D01*
G37*
G36*
G01X42332Y148314D02*
X41497Y147479D01*
X43585Y145391D01*
X44420Y146226D01*
X42332Y148314D01*
G37*
G36*
G01X41218Y147201D02*
X40383Y146366D01*
X42471Y144278D01*
X43306Y145113D01*
X41218Y147201D01*
G37*
G36*
G01X40104Y146087D02*
X39269Y145252D01*
X41357Y143164D01*
X42192Y143999D01*
X40104Y146087D01*
G37*
G36*
G01X38991Y144973D02*
X38156Y144138D01*
X40244Y142050D01*
X41079Y142885D01*
X38991Y144973D01*
G37*
G36*
G01X38156Y143860D02*
X36068Y141772D01*
X36903Y140937D01*
X38991Y143025D01*
X38156Y143860D01*
G37*
G36*
G01X37042Y144973D02*
X34955Y142886D01*
X35790Y142051D01*
X37877Y144138D01*
X37042Y144973D01*
G37*
G36*
G01X35928Y146087D02*
X33841Y144000D01*
X34676Y143165D01*
X36763Y145252D01*
X35928Y146087D01*
G37*
G36*
G01X34815Y147201D02*
X32727Y145113D01*
X33562Y144278D01*
X35650Y146366D01*
X34815Y147201D01*
G37*
G36*
G01X34675Y149289D02*
X33840Y148454D01*
X35928Y146366D01*
X36763Y147201D01*
X34675Y149289D01*
G37*
G36*
G01X35789Y150402D02*
X34954Y149567D01*
X37042Y147479D01*
X37877Y148314D01*
X35789Y150402D01*
G37*
G36*
G01X36903Y151516D02*
X36068Y150681D01*
X38156Y148593D01*
X38991Y149428D01*
X36903Y151516D01*
G37*
G36*
G01X38016Y152630D02*
X37181Y151795D01*
X39269Y149707D01*
X40104Y150542D01*
X38016Y152630D01*
G37*
G54D10*
X3850Y67629D03*
Y62511D03*
X2100Y113011D03*
Y118129D03*
X1950Y154401D03*
Y159519D03*
X1960Y178301D03*
Y183419D03*
X17210Y21281D03*
Y26399D03*
X9290Y26329D03*
Y21211D03*
X23360Y41899D03*
Y36781D03*
X14330Y66809D03*
Y61691D03*
X20550Y113001D03*
X6950Y113031D03*
X25400Y112991D03*
X20550Y118119D03*
X6950Y118149D03*
X25400Y118109D03*
X20420Y178261D03*
Y183379D03*
X25290Y178271D03*
Y183389D03*
X6810Y178301D03*
Y183419D03*
X40150Y184761D03*
Y189879D03*
X40100Y199971D03*
Y205089D03*
X66660Y22541D03*
Y27659D03*
X58700D03*
Y22541D03*
X63440Y67049D03*
Y61931D03*
X55740Y67119D03*
Y62001D03*
X54550Y112821D03*
X59360D03*
X54550Y117939D03*
X59360D03*
X54630Y178611D03*
Y183729D03*
X59510Y178591D03*
Y183709D03*
X72470Y41929D03*
Y36811D03*
X72970Y112821D03*
X77840D03*
X72970Y117939D03*
X78030Y133469D03*
Y128351D03*
X77840Y117939D03*
X77910Y178621D03*
Y183739D03*
X73080Y178641D03*
Y183759D03*
G54D20*
X42958Y146853D03*
X41844Y145739D03*
X40731Y144626D03*
X39617Y143512D03*
X35302Y147827D03*
X36416Y148941D03*
X37529Y150054D03*
G54D11*
X4530Y88099D03*
Y105421D03*
X4390Y191019D03*
Y208341D03*
X22990Y88049D03*
Y105371D03*
X22850Y190969D03*
Y208291D03*
X56940Y87879D03*
Y105201D03*
X57070Y191329D03*
Y208651D03*
X75400Y87909D03*
Y105231D03*
X75490Y191339D03*
Y208661D03*
G54D12*
X3941Y73350D03*
X25589Y67730D03*
X20471D03*
X20421Y61590D03*
X25539D03*
X9059Y73350D03*
X36001Y49730D03*
X41119D03*
X30551Y133740D03*
X35669D03*
X47741Y156480D03*
X44341Y163110D03*
X55759Y73290D03*
X50641D03*
X52859Y156480D03*
X49459Y163110D03*
X75269Y67620D03*
X70151D03*
X70141Y61830D03*
X75259D03*
G54D21*
X38784Y151026D03*
G54D22*
G01X0Y0D02*
Y232950D01*
X80000D01*
Y0D01*
X0D01*
G54D13*
X5700Y125941D03*
Y128500D03*
Y131060D03*
Y133619D03*
X21800D03*
Y131060D03*
Y128500D03*
Y125941D03*
X9330Y162771D03*
Y165330D03*
Y167890D03*
Y170449D03*
X25430D03*
Y167890D03*
Y165330D03*
Y162771D03*
X70620Y133469D03*
Y130910D03*
Y128350D03*
Y125791D03*
X54520D03*
Y128350D03*
Y130910D03*
Y133469D03*
X58240Y163091D03*
Y165650D03*
Y168210D03*
Y170769D03*
X74340D03*
Y168210D03*
Y165650D03*
Y163091D03*
G54D14*
X5057Y226630D03*
X10211Y6160D03*
X18085D03*
X25959D03*
X12931Y226630D03*
X20805D03*
X33833Y6160D03*
X41707D03*
X28679Y226630D03*
X36553D03*
X44427D03*
X49581Y6160D03*
X57455D03*
X65329D03*
X52301Y226630D03*
X60175D03*
X68049D03*
X75923D03*
G54D15*
X16869Y36770D03*
X14310D03*
X11750D03*
X9191D03*
Y52870D03*
X11750D03*
X14310D03*
X16869D03*
X66009Y36810D03*
X63450D03*
X60890D03*
X58331D03*
Y52910D03*
X60890D03*
X63450D03*
X66009D03*
G54D16*
X42730Y26260D03*
X34330D03*
G54D17*
X41119Y34795D03*
X38560D03*
X36001D03*
Y43645D03*
X38560D03*
X41119D03*
G54D18*
X31390Y64600D03*
X30870Y142390D03*
X34580Y138980D03*
X40150Y194760D03*
X68760Y75630D03*
G54D19*
X40731Y152281D03*
X41845Y151168D03*
X42958Y150055D03*
X44071Y148941D03*
X37529Y142399D03*
X36415Y143512D03*
X35302Y144625D03*
X34189Y145739D03*
M02*
