G04 ================== begin FILE IDENTIFICATION RECORD ==================*
G04 Layout Name:  msd_foot_main.brd*
G04 Film Name:    TOP*
G04 File Format:  Gerber RS274X*
G04 File Origin:  Cadence Allegro 17.2-S071*
G04 Origin Date:  Wed Nov 25 01:49:06 2020*
G04 *
G04 Layer:  ETCH/TOP*
G04 Layer:  PIN/TOP*
G04 Layer:  VIA CLASS/TOP*
G04 *
G04 Offset:    (0.00 0.00)*
G04 Mirror:    No*
G04 Mode:      Positive*
G04 Rotation:  0*
G04 FullContactRelief:  No*
G04 UndefLineWidth:     5.00*
G04 ================== end FILE IDENTIFICATION RECORD ====================*
%FSLAX25Y25*MOIN*%
%IR0*IPPOS*OFA0.00000B0.00000*MIA0B0*SFA1.00000B1.00000*%
%ADD14C,.024*%
%ADD17R,.05X.05*%
%AMMACRO21*
21,1,.00787,.02953,0.0,0.0,45.*%
%ADD21MACRO21*%
%ADD11R,.07874X.07874*%
%AMMACRO20*
21,1,.00787,.02559,0.0,0.0,45.*%
%ADD20MACRO20*%
%ADD16R,.018X.06*%
%ADD18R,.014X.0335*%
%ADD13R,.06X.018*%
%ADD10R,.03543X.02756*%
%ADD12R,.02756X.03543*%
%AMMACRO19*
21,1,.00787,.02559,0.0,0.0,135.*%
%ADD19MACRO19*%
%ADD15R,.03937X.09843*%
%ADD22C,.03*%
%ADD23C,.015*%
%ADD24C,.008*%
G75*
%LPD*%
G75*
G54D10*
X3850Y67629D03*
Y62511D03*
X2100Y113011D03*
Y118129D03*
X1950Y154401D03*
Y159519D03*
X1960Y178301D03*
Y183419D03*
X17210Y21281D03*
Y26399D03*
X9290Y26329D03*
Y21211D03*
X23360Y41899D03*
Y36781D03*
X14330Y66809D03*
Y61691D03*
X20550Y113001D03*
X6950Y113031D03*
X25400Y112991D03*
X20550Y118119D03*
X6950Y118149D03*
X25400Y118109D03*
X20420Y178261D03*
Y183379D03*
X25290Y178271D03*
Y183389D03*
X6810Y178301D03*
Y183419D03*
X40150Y184761D03*
Y189879D03*
X40100Y199971D03*
Y205089D03*
X66660Y22541D03*
Y27659D03*
X58700D03*
Y22541D03*
X63440Y67049D03*
Y61931D03*
X55740Y67119D03*
Y62001D03*
X54550Y112821D03*
X59360D03*
X54550Y117939D03*
X59360D03*
X54630Y178611D03*
Y183729D03*
X59510Y178591D03*
Y183709D03*
X72470Y41929D03*
Y36811D03*
X72970Y112821D03*
X77840D03*
X72970Y117939D03*
X78030Y133469D03*
Y128351D03*
X77840Y117939D03*
X77910Y178621D03*
Y183739D03*
X73080Y178641D03*
Y183759D03*
G54D20*
X42958Y146853D03*
X41844Y145739D03*
X40731Y144626D03*
X39617Y143512D03*
X35302Y147827D03*
X36416Y148941D03*
X37529Y150054D03*
G54D11*
X4530Y88099D03*
Y105421D03*
X4390Y191019D03*
Y208341D03*
X22990Y88049D03*
Y105371D03*
X22850Y190969D03*
Y208291D03*
X56940Y87879D03*
Y105201D03*
X57070Y191329D03*
Y208651D03*
X75400Y87909D03*
Y105231D03*
X75490Y191339D03*
Y208661D03*
G54D12*
X3941Y73350D03*
X25589Y67730D03*
X20471D03*
X20421Y61590D03*
X25539D03*
X9059Y73350D03*
X36001Y49730D03*
X41119D03*
X30551Y133740D03*
X35669D03*
X47741Y156480D03*
X44341Y163110D03*
X55759Y73290D03*
X50641D03*
X52859Y156480D03*
X49459Y163110D03*
X75269Y67620D03*
X70151D03*
X70141Y61830D03*
X75259D03*
G54D21*
X38784Y151026D03*
G54D22*
G01X4530Y88099D02*
X13180D01*
G01X1950Y154401D02*
Y151323D01*
G01D02*
X8557D01*
X15750Y144130D01*
G01X1950Y159519D02*
Y159693D01*
G01D02*
Y162597D01*
G01X15710Y151130D02*
X9061Y157779D01*
X3864D01*
X1950Y159693D01*
G01X4390Y208341D02*
X13090D01*
G01X9290Y21211D02*
Y18133D01*
G01X23360Y41899D02*
Y44977D01*
G01Y36781D02*
Y33703D01*
G01D02*
X26887D01*
X34330Y26260D01*
G01X22990Y88049D02*
X16430D01*
X16380Y88099D01*
X13180D01*
G01X25430Y173049D02*
X29497D01*
X34600Y167946D01*
Y167590D01*
G01X22850Y208291D02*
X16340D01*
X16290Y208341D01*
X13090D01*
G01X41119Y49730D02*
X44197D01*
G01X36001D02*
Y124219D01*
X32900Y127320D01*
G01X35669Y133740D02*
X37710Y135781D01*
Y137710D01*
G01X30551Y133740D02*
Y129669D01*
X32900Y127320D01*
G01X51310Y152050D02*
X47741Y155619D01*
Y156480D01*
G01X44341Y163110D02*
X41263D01*
G01X47741Y156480D02*
Y156632D01*
X41263Y163110D01*
G01D02*
Y180570D01*
X40150Y181683D01*
G01X46020Y180420D02*
X50150Y184550D01*
Y201731D01*
X57070Y208651D01*
G01X40150Y184761D02*
Y181683D01*
G01D02*
X45820Y187353D01*
Y210190D01*
X51380Y215750D01*
X63720D01*
X68049Y220079D01*
Y226630D01*
G01X40100Y205089D02*
Y208167D01*
G01X57455Y6160D02*
Y12781D01*
G01X65329Y6160D02*
Y15231D01*
X70432Y20334D01*
Y31695D01*
X72470Y33733D01*
G01X57455Y12781D02*
Y18218D01*
X58700Y19463D01*
G01Y22541D02*
Y19463D01*
G01X55740Y62001D02*
Y58923D01*
G01X56940Y87879D02*
X66040D01*
G01X75400Y87909D02*
X69270D01*
X69240Y87879D01*
X66040D01*
G01X52537Y163110D02*
Y156802D01*
X52859Y156480D01*
G01X49459Y163110D02*
X52537D01*
G01X57070Y208651D02*
X69543D01*
X69553Y208661D01*
X75490D01*
G01X72470Y41929D02*
Y45007D01*
G01Y36811D02*
Y33733D01*
G01X75400Y87909D02*
Y84370D01*
X78280Y81490D01*
G01X78030Y128351D02*
Y125273D01*
G01Y133469D02*
Y136547D01*
G01X75923Y220008D02*
Y215031D01*
X75490Y214598D01*
Y208661D01*
G01X75923Y226630D02*
Y220008D01*
G54D13*
X5700Y125941D03*
Y128500D03*
Y131060D03*
Y133619D03*
X21800D03*
Y131060D03*
Y128500D03*
Y125941D03*
X9330Y162771D03*
Y165330D03*
Y167890D03*
Y170449D03*
X25430D03*
Y167890D03*
Y165330D03*
Y162771D03*
X70620Y133469D03*
Y130910D03*
Y128350D03*
Y125791D03*
X54520D03*
Y128350D03*
Y130910D03*
Y133469D03*
X58240Y163091D03*
Y165650D03*
Y168210D03*
Y170769D03*
X74340D03*
Y168210D03*
Y165650D03*
Y163091D03*
G54D23*
G01X3850Y62511D02*
X3800Y62461D01*
Y56870D01*
X7800Y52870D01*
X9191D01*
G01X3850Y67629D02*
Y73259D01*
X3941Y73350D01*
G01X11750Y52870D02*
Y58510D01*
X9660Y60600D01*
Y65629D01*
X7660Y67629D01*
X3850D01*
G01X4530Y105421D02*
X2100Y107851D01*
Y113011D01*
G01X4530Y105421D02*
X6950Y107841D01*
Y113031D01*
G01X5700Y131060D02*
X11349D01*
X14181Y128228D01*
Y124509D01*
X15280Y123410D01*
Y118090D01*
X14181Y116991D01*
Y106921D01*
X12681Y105421D01*
X4530D01*
G01X2100Y118129D02*
X6930D01*
X6950Y118149D01*
G01X2100Y118129D02*
Y123873D01*
X1450Y124523D01*
Y132478D01*
X2591Y133619D01*
X5700D01*
G01X9330Y162771D02*
X2124D01*
X1950Y162597D01*
G01X6810Y178301D02*
Y173597D01*
X5080Y171867D01*
Y166472D01*
X6222Y165330D01*
X9330D01*
G01X4390Y191019D02*
X1960Y188589D01*
Y183419D01*
G01X4390Y191019D02*
X6810Y188599D01*
Y183419D01*
G01X4390Y191019D02*
X9961D01*
X13580Y187400D01*
Y169031D01*
X12439Y167890D01*
X9330D01*
G01X1960Y178301D02*
X6810D01*
G01X5057Y220008D02*
X8380Y216685D01*
Y215730D01*
X9880Y214230D01*
X27230D01*
X29410Y212050D01*
Y183490D01*
X33395Y179505D01*
G01X10211Y6160D02*
Y12781D01*
G01X18085Y6160D02*
Y12781D01*
G01X25959Y6160D02*
Y12781D01*
G01X42730Y26260D02*
X37250Y20780D01*
X29582D01*
X25959Y17157D01*
Y12781D01*
G01X9290Y26329D02*
Y30060D01*
X11750Y32520D01*
Y36770D01*
G01X9290Y26329D02*
X9684D01*
X12470Y23543D01*
X14554D01*
X16816Y21281D01*
X17210D01*
G01Y26399D02*
Y29620D01*
X14310Y32520D01*
Y36770D01*
G01X9191Y52870D02*
Y48279D01*
X10560Y46910D01*
G01X16869Y36770D02*
X23349D01*
X23360Y36781D01*
G01X16869Y52870D02*
Y48788D01*
X9191Y41110D01*
Y36770D01*
G01X30475Y57945D02*
X14310Y41780D01*
Y36770D01*
G01X20471Y67730D02*
Y64662D01*
X20421Y64612D01*
Y61590D01*
G01D02*
X17453D01*
X17352Y61691D01*
X14330D01*
G01X14310Y52870D02*
Y59043D01*
X14330Y59063D01*
Y61691D01*
G01X25539Y61590D02*
Y58568D01*
X19841Y52870D01*
X16869D01*
G01X25539Y61590D02*
Y61984D01*
G01D02*
Y64612D01*
X25589Y64662D01*
Y67730D01*
G01X31390Y64600D02*
X28774Y61984D01*
X25539D01*
G01X14330Y66809D02*
Y69831D01*
X16106Y71607D01*
X20187D01*
X21920Y73340D01*
G01X9059Y73350D02*
Y76372D01*
X11605Y78918D01*
X20772D01*
X26340Y73350D01*
G01X22990Y105371D02*
X20550Y107811D01*
Y113001D01*
G01X22990Y105371D02*
X25400Y107781D01*
Y112991D01*
G01X21800Y128500D02*
X18549D01*
X17280Y127231D01*
Y117261D01*
X16181Y116162D01*
Y106993D01*
X17803Y105371D01*
X22990D01*
G01X5700Y125941D02*
X9371Y122270D01*
X12530D01*
G01X21800Y133619D02*
Y136219D01*
G01Y133619D02*
X27052D01*
X27173Y133740D01*
X30551D01*
G01X5700Y128500D02*
X10400D01*
G01X21800Y125941D02*
Y123341D01*
G01X20550Y118119D02*
X25390D01*
X25400Y118109D01*
G01D02*
Y121329D01*
X27340Y123269D01*
Y128628D01*
X24908Y131060D01*
X21800D01*
G01X25430Y170449D02*
Y173049D01*
G01Y165330D02*
X21180D01*
X16280Y170230D01*
Y189586D01*
X17663Y190969D01*
X22850D01*
G01X25430Y167890D02*
X30130D01*
G01X9330Y170449D02*
Y172599D01*
X11040Y174309D01*
Y184690D01*
G01X27530Y162771D02*
X25430D01*
G01X22850Y190969D02*
X20420Y188539D01*
Y183379D01*
G01X22850Y190969D02*
X25290Y188529D01*
Y183389D01*
G01X20420Y178261D02*
X25280D01*
X25290Y178271D01*
G01D02*
X29314D01*
X38440Y169145D01*
Y165441D01*
X35770Y162771D01*
X27530D01*
G01X12931Y220008D02*
X16329Y216610D01*
X28430D01*
X33980Y211060D01*
Y185430D01*
X37280Y182130D01*
Y173770D01*
G01X20805Y226630D02*
Y220008D01*
G01X47000Y37740D02*
Y22280D01*
X33833Y9113D01*
Y6160D01*
G01X48760Y62779D02*
Y60329D01*
X48761Y60328D01*
Y60257D01*
X50010Y59008D01*
Y22380D01*
X41707Y14077D01*
Y6160D01*
G01X34330Y26260D02*
Y33124D01*
X36001Y34795D01*
G01X42730Y26260D02*
X38560Y30430D01*
Y34795D01*
G01Y43645D02*
X41119D01*
G01X44197Y49730D02*
Y46723D01*
X41119Y43645D01*
G01X36001D02*
Y49730D01*
G01Y34795D02*
Y43645D01*
G01X41119Y34795D02*
X43519D01*
G01X50641Y73290D02*
X39510D01*
G01X50270Y133469D02*
X45820Y129019D01*
Y123647D01*
X51528Y117939D01*
X54550D01*
G01X40150Y189879D02*
Y194760D01*
G01X40100Y199971D02*
Y197343D01*
X40150D01*
Y194760D01*
G01X28679Y226630D02*
Y220008D01*
G01X36553Y226630D02*
Y220008D01*
G01X44427Y226630D02*
Y220008D01*
G01X51660Y62810D02*
Y60360D01*
X52718Y59302D01*
Y22088D01*
X49581Y18951D01*
Y6160D01*
G01X60890Y36810D02*
Y32477D01*
X58700Y30287D01*
Y27659D01*
G01D02*
X59094D01*
X61950Y24803D01*
X64004D01*
X66266Y22541D01*
X66660D01*
G01X66266Y27659D02*
X66660D01*
G01D02*
Y30491D01*
X63450Y33701D01*
Y36810D01*
G01X72470Y36811D02*
X66010D01*
X66009Y36810D01*
G01Y52910D02*
Y48980D01*
X58331Y41302D01*
Y36810D01*
G01X63450D02*
Y41370D01*
X66330Y44250D01*
G01X58331Y52910D02*
Y56332D01*
X55740Y58923D01*
G01Y67119D02*
Y70249D01*
X55759Y70268D01*
Y73290D01*
G01X60890Y52910D02*
Y59563D01*
X59000Y61453D01*
Y64253D01*
X56134Y67119D01*
X55740D01*
G01X63440Y61931D02*
Y57170D01*
X63450Y57160D01*
Y52910D01*
G01X70141Y61830D02*
X66563D01*
X66462Y61931D01*
X63440D01*
G01X75259Y61830D02*
Y57450D01*
X70719Y52910D01*
X66009D01*
G01X63440Y67049D02*
Y70127D01*
G01X56940Y105201D02*
X54550Y107591D01*
Y112821D01*
G01X59360Y107621D02*
Y112821D01*
G01Y107621D02*
X56940Y105201D01*
G01X59360Y107621D02*
X63060Y111321D01*
Y126620D01*
X58770Y130910D01*
X54520D01*
G01X75400Y105231D02*
X69999D01*
X65060Y110170D01*
Y125899D01*
X67511Y128350D01*
X70620D01*
G01X54520Y125791D02*
Y123191D01*
G01X59360Y117939D02*
X54550D01*
G01X54520Y133469D02*
X50270D01*
G01X54520Y128350D02*
X49820D01*
G01X70620Y125791D02*
Y123160D01*
X67780Y120320D01*
G01X71860Y152870D02*
Y150420D01*
X71480Y150040D01*
Y149330D01*
X68992Y146842D01*
X66898D01*
X65165Y145109D01*
G01X65189Y142209D02*
X70459D01*
X73430Y145180D01*
Y147630D01*
G01X58240Y163091D02*
Y153680D01*
X56610Y152050D01*
X51310D01*
G01X65267Y136409D02*
X73879D01*
X78620Y141150D01*
Y143110D01*
G01X65229Y139309D02*
X71970D01*
X75720Y143059D01*
G01X58240Y165650D02*
X53990D01*
X50450Y169190D01*
Y174825D01*
X54236Y178611D01*
X54630D01*
G01X74340Y165650D02*
X66095D01*
X64550Y167195D01*
Y168582D01*
X64580Y168612D01*
Y185616D01*
X70303Y191339D01*
X75490D01*
G01X57070Y191329D02*
X61080D01*
X62580Y189829D01*
Y169441D01*
X61349Y168210D01*
X58240D01*
G01Y170769D02*
Y173369D01*
G01X74340Y168210D02*
X67000D01*
G01X59510Y178591D02*
X54650D01*
X54630Y178611D01*
G01X57070Y191329D02*
X54630Y188889D01*
Y183729D01*
G01X57070Y191329D02*
X59510Y188889D01*
Y183709D01*
G01X60175Y226630D02*
Y220008D01*
G01X52301Y226630D02*
Y220008D01*
G01X70151Y67620D02*
Y61840D01*
X70141Y61830D01*
G01X75269Y67620D02*
Y61840D01*
X75259Y61830D01*
G01X68760Y75630D02*
X71210D01*
X75269Y71571D01*
Y67620D01*
G01X75400Y105231D02*
X72970Y107661D01*
Y112821D01*
G01X75400Y105231D02*
X77840Y107671D01*
Y112821D01*
G01Y117939D02*
X72970D01*
G01X77840D02*
X77119Y118660D01*
X76890D01*
X75280Y120270D01*
Y123127D01*
X74870Y123537D01*
Y129768D01*
X73728Y130910D01*
X70620D01*
G01Y133469D02*
X74952D01*
X78030Y136547D01*
G01X74340Y170769D02*
X73610Y171499D01*
Y173369D01*
G01X77910Y178621D02*
Y175993D01*
X78590Y175313D01*
Y164232D01*
X77449Y163091D01*
X74340D01*
G01X73080Y178641D02*
X77890D01*
X77910Y178621D01*
G01X75490Y191339D02*
X73080Y188929D01*
Y183759D01*
G01X75490Y191339D02*
X77910Y188919D01*
Y183739D01*
G54D14*
X1950Y151323D03*
Y162597D03*
X5057Y220008D03*
X9290Y18133D03*
X10211Y12781D03*
X18085D03*
X25959D03*
X23360Y44977D03*
X10560Y46910D03*
X23360Y33703D03*
X13180Y88099D03*
X26340Y73350D03*
X21920Y73340D03*
X12530Y122270D03*
X10400Y128500D03*
X21800Y123341D03*
X15750Y144130D03*
X21800Y136219D03*
X15710Y151130D03*
X25430Y173049D03*
X11040Y184690D03*
X13090Y208341D03*
X12931Y220008D03*
X20805D03*
X44197Y49730D03*
X47000Y37740D03*
X43519Y34795D03*
X31390Y64600D03*
X30475Y57945D03*
X39510Y73290D03*
X32900Y127320D03*
X37710Y137710D03*
X47560Y150600D03*
X45130Y153440D03*
X30870Y142390D03*
X34580Y138980D03*
X34600Y167590D03*
X33575Y159285D03*
X42960Y155990D03*
X37280Y173770D03*
X41263Y163110D03*
X30130Y167890D03*
X46020Y180420D03*
X33395Y179505D03*
X40150Y181683D03*
Y194760D03*
X40100Y208167D03*
X28679Y220008D03*
X36553D03*
X44427D03*
X58700Y19463D03*
X66330Y44250D03*
X55740Y58923D03*
X48760Y62779D03*
X51660Y62810D03*
X63440Y70127D03*
X66040Y87879D03*
X68760Y75630D03*
X54520Y123191D03*
X49820Y128350D03*
X67780Y120320D03*
X65165Y145109D03*
X65189Y142209D03*
X65267Y136409D03*
X65229Y139309D03*
X52537Y163110D03*
X67000Y168210D03*
X58240Y173369D03*
X60175Y220008D03*
X52301D03*
X72470Y45007D03*
Y33733D03*
X78280Y81490D03*
X78030Y125273D03*
X71860Y152870D03*
X73430Y147630D03*
X78030Y136547D03*
X78620Y143110D03*
X75720Y143059D03*
X73610Y173369D03*
X75923Y220008D03*
G54D24*
G01X21800Y131060D02*
X18200D01*
X16700Y132560D01*
Y136430D01*
X25238Y144968D01*
X33418D01*
X34189Y145739D01*
G01X35302Y147827D02*
X33070Y150059D01*
X26390D01*
X9950Y133619D01*
X5700D01*
G01X36416Y148941D02*
X29147Y156210D01*
X22700D01*
X13580Y165330D01*
X9330D01*
G01X5057Y226630D02*
Y220008D01*
G01X12931Y226630D02*
Y220008D01*
G01X50270Y133469D02*
X46459D01*
X37529Y142399D01*
G01X44071Y148941D02*
X45730Y150600D01*
X47560D01*
G01X33575Y159285D02*
X37520Y155340D01*
Y152290D01*
X38784Y151026D01*
G01X40731Y144626D02*
X43127Y142230D01*
X55629D01*
X74340Y160941D01*
Y163091D01*
G01X41844Y145739D02*
X43163Y144420D01*
X54860D01*
X66080Y155640D01*
Y162060D01*
X62490Y165650D01*
X58240D01*
G01X39617Y143512D02*
X45039Y138090D01*
X58440D01*
X65620Y130910D01*
X70620D01*
G01X42958Y150055D02*
X45130Y152227D01*
Y153440D01*
G01X41845Y151168D02*
X42960Y152283D01*
Y155990D01*
G01X40731Y152281D02*
Y162578D01*
X41263Y163110D01*
G01X51310Y152050D02*
Y150794D01*
X46743Y146227D01*
X43584D01*
X42958Y146853D01*
G01X30870Y142390D02*
X33067D01*
X35302Y144625D01*
G01X36415Y143512D02*
X34580Y141677D01*
Y138980D01*
G01X37529Y150054D02*
X29314Y158269D01*
Y160987D01*
X27530Y162771D01*
G54D15*
X5057Y226630D03*
X10211Y6160D03*
X18085D03*
X25959D03*
X12931Y226630D03*
X20805D03*
X33833Y6160D03*
X41707D03*
X28679Y226630D03*
X36553D03*
X44427D03*
X49581Y6160D03*
X57455D03*
X65329D03*
X52301Y226630D03*
X60175D03*
X68049D03*
X75923D03*
G54D16*
X16869Y36770D03*
X14310D03*
X11750D03*
X9191D03*
Y52870D03*
X11750D03*
X14310D03*
X16869D03*
X66009Y36810D03*
X63450D03*
X60890D03*
X58331D03*
Y52910D03*
X60890D03*
X63450D03*
X66009D03*
G54D17*
X42730Y26260D03*
X34330D03*
G54D18*
X41119Y34795D03*
X38560D03*
X36001D03*
Y43645D03*
X38560D03*
X41119D03*
G54D19*
X40731Y152281D03*
X41845Y151168D03*
X42958Y150055D03*
X44071Y148941D03*
X37529Y142399D03*
X36415Y143512D03*
X35302Y144625D03*
X34189Y145739D03*
M02*
